<?xml version="1.0" encoding="UTF-8"?><svg width="24" height="24" xmlns="http://www.w3.org/2000/svg"><path d="M7 14v2H5a3 3 0 0 1-3-3V8a3 3 0 0 1 3-3h14a3 3 0 0 1 3 3v5a3.001 3.001 0 0 1-2 2.83V8a1 1 0 0 0-1-1H5a1 1 0 0 0-1 1v5a1 1 0 0 0 1 1h2z"/><path d="M18.31 15.442a.563.563 0 0 0-.202-.636l-6.631-4.808a.562.562 0 0 0-.891.415l-.58 8.17a.564.564 0 0 0 .359.565c.236.1.49.018.644-.175l1.646-2.074 1.632 3.5a.561.561 0 0 0 .748.273L16.477 20a.562.562 0 0 0 .272-.748l-1.633-3.5 2.647.072a.563.563 0 0 0 .548-.382z"/></svg>
