<svg width="38.511" height="11.016"><path d="M25.232 10.869h-1.304V5.845q0-.893-.19-1.358a1.132 1.132 0 00-.125-.232q-.247-.345-.807-.419a2.509 2.509 0 00-.328-.02 1.768 1.768 0 00-.637.11 1.575 1.575 0 00-.696.534q-.389.512-.47 1.355a4.868 4.868 0 00-.021.462v4.592h-1.311V4.636a69.373 69.373 0 00-.001-.481q-.007-.961-.043-1.211h1.245a.252.252 0 01.003.018q.006.045.011.16a8.532 8.532 0 01.001.02l.015.312a72.157 72.157 0 00.003.058q.011.209.026.787h.022a4.213 4.213 0 01.292-.497q.166-.241.348-.416a1.869 1.869 0 01.334-.259 2.241 2.241 0 01.716-.27 3.155 3.155 0 01.624-.059q.901 0 1.425.359a1.631 1.631 0 01.504.566q.122.22.203.496a3.058 3.058 0 01.022.08h.022q.338-.658.793-1.012a2.04 2.04 0 01.199-.138 2.377 2.377 0 01.778-.293 3.281 3.281 0 01.632-.058 3.489 3.489 0 01.648.056q.713.135 1.099.596.498.595.542 1.888a7.53 7.53 0 01.004.25v5.281h-1.304V5.845q0-.893-.19-1.358a1.132 1.132 0 00-.125-.232q-.248-.345-.807-.419a2.509 2.509 0 00-.328-.02 1.86 1.86 0 00-.606.094 1.526 1.526 0 00-.738.547q-.37.493-.455 1.306a4.949 4.949 0 00-.025.514v4.592zm-15.286 0H8.518L7.339 7.852H2.637L1.45 10.869H0L4.211.549h1.59l4.145 10.32zm2.388 0h-1.318V4.79a36.993 36.993 0 00-.011-.879 49.319 49.319 0 00-.033-.967h1.245a244.312 244.312 0 01.02.468q.032.766.037 1.051a5.258 5.258 0 01.001.1h.03a6.431 6.431 0 01.174-.495q.193-.483.418-.756a1.346 1.346 0 01.133-.141 1.344 1.344 0 01.531-.291q.276-.082.626-.082a2.029 2.029 0 01.497.063 2.267 2.267 0 01.038.01V4.08q-.177-.05-.434-.066a4.303 4.303 0 00-.269-.008 1.503 1.503 0 00-.598.115q-.341.146-.58.478a1.848 1.848 0 00-.075.114q-.432.707-.432 2.025v4.131zm25.261-.871a3.067 3.067 0 00.556-.909q.36-.886.36-2.19a8.204 8.204 0 00-.071-1.114q-.175-1.274-.786-1.987-.603-.703-1.68-.912a5.232 5.232 0 00-.994-.088 5.057 5.057 0 00-.885.073q-2.018.359-2.509 2.481a6.889 6.889 0 00-.158 1.547 7.799 7.799 0 00.038.785q.062.615.227 1.121a3.43 3.43 0 00.621 1.152 2.768 2.768 0 00.28.289q.533.475 1.301.657a4.523 4.523 0 001.042.113q.64 0 1.168-.138a2.947 2.947 0 001.49-.88zm-20.303.871h-1.318V2.944h1.318v7.925zm19.834-3.97a8.771 8.771 0 00-.036-.83q-.097-1.013-.451-1.554-.487-.743-1.637-.743-1.157 0-1.673.758-.47.69-.512 2.087a9.359 9.359 0 00-.005.282 7.788 7.788 0 00.041.82q.103.969.469 1.535a1.666 1.666 0 001.207.759 2.612 2.612 0 00.393.029 2.894 2.894 0 00.637-.066q.404-.091.694-.31a1.572 1.572 0 00.364-.386 2.444 2.444 0 00.289-.621q.22-.694.22-1.76zM5.186 2.212l-.198-.608-.066.205q-.183.608-.542 1.56L3.062 6.76h3.859L5.596 3.354a14.133 14.133 0 01-.205-.538 19.209 19.209 0 01-.205-.604zm12.106-.952h-1.318V0h1.318v1.26z" vector-effect="non-scaling-stroke" stroke-linecap="round" fill-rule="evenodd" font-size="12" stroke="#000" stroke-width=".25mm" fill="none"/></svg>