<svg width="25.17" height="10.62"><path d="M14.625 9.105v-5.49H13.41q-.103 0-.105-.072a.104.104 0 010-.003v-.045l1.32-.03.06-2.955a.145.145 0 01.019-.071.071.071 0 01.015-.02q.015-.013.037-.014a.08.08 0 01.004 0h.045v3.06h2.505v.15h-2.505v5.49a2.497 2.497 0 00.014.275q.023.201.08.359a1.284 1.284 0 00.103.221.974.974 0 00.155.199q.165.161.383.236a1.396 1.396 0 00.404.074 1.597 1.597 0 00.061.001 1.724 1.724 0 00.269-.02 1.248 1.248 0 00.282-.077q.237-.098.402-.21a2.841 2.841 0 00.114-.083q.055-.042.101-.081a1.358 1.358 0 00.051-.047q.087-.084.133-.095a.055.055 0 01.013-.002q.03 0 .06.03l.03.03a1.545 1.545 0 01-.194.212 1.82 1.82 0 01-.08.069q-.161.132-.352.225a2.002 2.002 0 01-.405.146q-.214.053-.424.053-.645 0-1.012-.352-.368-.353-.368-1.163zm-2.88 1.395h-.03q-.105 0-.105-.12l-.045-1.192a8.479 8.479 0 01-.453.441 7.289 7.289 0 01-.177.155q-.315.266-.668.45-.352.184-.757.285a3.32 3.32 0 01-.484.082 4.3 4.3 0 01-.416.019 2.27 2.27 0 01-.643-.095 2.53 2.53 0 01-.021-.006 1.741 1.741 0 01-.604-.323 1.597 1.597 0 01-.36-.423 1.933 1.933 0 01-.078-.147q-.169-.348-.169-.851a1.466 1.466 0 01.289-.889 1.766 1.766 0 01.338-.343q.169-.133.385-.247a3.417 3.417 0 01.162-.081 4.532 4.532 0 01.536-.206q.268-.086.579-.155a9.056 9.056 0 01.388-.078q.908-.161 2.153-.191V5.64a4.484 4.484 0 00-.032-.545 3.335 3.335 0 00-.095-.49q-.128-.457-.375-.772-.248-.315-.623-.484a1.875 1.875 0 00-.484-.141 2.515 2.515 0 00-.386-.028q-.39 0-.705.083a3.452 3.452 0 00-.324.101 2.678 2.678 0 00-.238.101q-.248.12-.432.263-.158.122-.28.228a4.45 4.45 0 00-.038.034q-.136.12-.218.203a.803.803 0 01-.032.03q-.058.052-.088.052a.054.054 0 01-.02-.004q-.024-.01-.055-.041l-.03-.03q.54-.57 1.118-.87a2.635 2.635 0 01.827-.263 3.449 3.449 0 01.515-.037 2.953 2.953 0 01.459.034q.281.044.512.146a1.766 1.766 0 01.679.517 2.028 2.028 0 01.293.506 2.577 2.577 0 01.105.316 3.74 3.74 0 01.099.549 5.02 5.02 0 01.028.542v4.86zM.18 0v10.335h5.355v.165H0V0h.18zm22.509 3.098a3.725 3.725 0 00-.729-.068 3.893 3.893 0 00-.581.042 2.951 2.951 0 00-.795.232q-.596.274-1.005.769a3.042 3.042 0 00-.321.474 3.702 3.702 0 00-.298.722 4.776 4.776 0 00-.147.667 6.035 6.035 0 00-.063.889q0 .855.21 1.549a3.938 3.938 0 00.134.374 3.207 3.207 0 00.485.815 2.726 2.726 0 001.005.761 2.948 2.948 0 00.663.204 3.882 3.882 0 00.713.062q.772 0 1.373-.266a2.719 2.719 0 001.008-.762 3.068 3.068 0 00.31-.453 3.67 3.67 0 00.309-.735 4.686 4.686 0 00.151-.686 6.014 6.014 0 00.059-.863q0-.855-.21-1.556a3.939 3.939 0 00-.151-.418 3.168 3.168 0 00-.468-.778 2.792 2.792 0 00-1.009-.769 2.919 2.919 0 00-.643-.206zm-.729 7.342a3.649 3.649 0 00.664-.058 2.764 2.764 0 00.656-.205q.57-.262.949-.734a3.007 3.007 0 00.428-.733 3.766 3.766 0 00.142-.407q.191-.668.191-1.478a5.965 5.965 0 00-.061-.867 4.77 4.77 0 00-.13-.614 3.611 3.611 0 00-.275-.695 2.963 2.963 0 00-.295-.456q-.379-.48-.949-.747a2.785 2.785 0 00-.762-.225 3.691 3.691 0 00-.558-.041q-.757 0-1.324.266-.566.267-.945.747a3.089 3.089 0 00-.432.75 3.843 3.843 0 00-.138.401 4.961 4.961 0 00-.164.893 6.243 6.243 0 00-.027.588 5.952 5.952 0 00.059.855 4.721 4.721 0 00.132.623 3.552 3.552 0 00.266.671 2.891 2.891 0 00.304.469q.379.472.945.735a2.76 2.76 0 00.719.215 3.747 3.747 0 00.605.047zM11.565 9V6.735q-1.998.063-3.124.441a4.148 4.148 0 00-.382.148 2.817 2.817 0 00-.514.293q-.276.202-.431.449a1.306 1.306 0 00-.199.709 2.244 2.244 0 00.027.357q.032.198.102.364a1.352 1.352 0 00.017.04q.147.319.383.525.236.207.54.308a1.968 1.968 0 00.626.101 3.853 3.853 0 00.522-.034 2.982 2.982 0 00.415-.086 3.512 3.512 0 00.638-.249 3.184 3.184 0 00.135-.073 4.064 4.064 0 00.656-.469A10.315 10.315 0 0011.565 9z" vector-effect="non-scaling-stroke" stroke-linecap="round" fill-rule="evenodd" font-size="12" stroke="#000" stroke-width=".25mm" fill="none"/></svg>