<svg width="25.17" height="10.62" viewBox="0 0 25.17 10.62"><title>Lato</title><g id="svgGroup" stroke-linecap="round" fill-rule="evenodd" font-size="9pt" stroke="#000" stroke-width="0.25mm" fill="none" style="stroke:#000;stroke-width:0.25mm;fill:none"><path d="M 14.625 9.105 L 14.625 3.615 L 13.41 3.615 Q 13.307 3.615 13.305 3.543 A 0.104 0.104 0 0 1 13.305 3.54 L 13.305 3.495 L 14.625 3.465 L 14.685 0.51 A 0.145 0.145 0 0 1 14.704 0.439 A 0.071 0.071 0 0 1 14.719 0.419 Q 14.734 0.406 14.756 0.405 A 0.08 0.08 0 0 1 14.76 0.405 L 14.805 0.405 L 14.805 3.465 L 17.31 3.465 L 17.31 3.615 L 14.805 3.615 L 14.805 9.105 A 2.497 2.497 0 0 0 14.819 9.38 Q 14.842 9.581 14.899 9.739 A 1.284 1.284 0 0 0 15.002 9.96 A 0.974 0.974 0 0 0 15.157 10.159 Q 15.322 10.32 15.54 10.395 A 1.396 1.396 0 0 0 15.944 10.469 A 1.597 1.597 0 0 0 16.005 10.47 A 1.724 1.724 0 0 0 16.274 10.45 A 1.248 1.248 0 0 0 16.556 10.373 Q 16.793 10.275 16.958 10.163 A 2.841 2.841 0 0 0 17.072 10.08 Q 17.127 10.038 17.173 9.999 A 1.358 1.358 0 0 0 17.224 9.952 Q 17.311 9.868 17.357 9.857 A 0.055 0.055 0 0 1 17.37 9.855 Q 17.4 9.855 17.43 9.885 L 17.46 9.915 A 1.545 1.545 0 0 1 17.266 10.127 A 1.82 1.82 0 0 1 17.186 10.196 Q 17.025 10.328 16.834 10.421 A 2.002 2.002 0 0 1 16.429 10.567 Q 16.215 10.62 16.005 10.62 Q 15.36 10.62 14.993 10.268 Q 14.625 9.915 14.625 9.105 Z M 11.745 10.5 L 11.715 10.5 Q 11.61 10.5 11.61 10.38 L 11.565 9.188 A 8.479 8.479 0 0 1 11.112 9.629 A 7.289 7.289 0 0 1 10.935 9.784 Q 10.62 10.05 10.267 10.234 Q 9.915 10.418 9.51 10.519 A 3.32 3.32 0 0 1 9.026 10.601 A 4.3 4.3 0 0 1 8.61 10.62 A 2.27 2.27 0 0 1 7.967 10.525 A 2.53 2.53 0 0 1 7.946 10.519 A 1.741 1.741 0 0 1 7.342 10.196 A 1.597 1.597 0 0 1 6.982 9.773 A 1.933 1.933 0 0 1 6.904 9.626 Q 6.735 9.278 6.735 8.775 A 1.466 1.466 0 0 1 7.024 7.886 A 1.766 1.766 0 0 1 7.362 7.543 Q 7.531 7.41 7.747 7.296 A 3.417 3.417 0 0 1 7.909 7.215 A 4.532 4.532 0 0 1 8.445 7.009 Q 8.713 6.923 9.024 6.854 A 9.056 9.056 0 0 1 9.412 6.776 Q 10.32 6.615 11.565 6.585 L 11.565 5.64 A 4.484 4.484 0 0 0 11.533 5.095 A 3.335 3.335 0 0 0 11.438 4.605 Q 11.31 4.148 11.063 3.833 Q 10.815 3.518 10.44 3.349 A 1.875 1.875 0 0 0 9.956 3.208 A 2.515 2.515 0 0 0 9.57 3.18 Q 9.18 3.18 8.865 3.263 A 3.452 3.452 0 0 0 8.541 3.364 A 2.678 2.678 0 0 0 8.303 3.465 Q 8.055 3.585 7.871 3.728 Q 7.713 3.85 7.591 3.956 A 4.45 4.45 0 0 0 7.553 3.99 Q 7.417 4.11 7.335 4.193 A 0.803 0.803 0 0 1 7.303 4.223 Q 7.245 4.275 7.215 4.275 A 0.054 0.054 0 0 1 7.195 4.271 Q 7.171 4.261 7.14 4.23 L 7.11 4.2 Q 7.65 3.63 8.228 3.33 A 2.635 2.635 0 0 1 9.055 3.067 A 3.449 3.449 0 0 1 9.57 3.03 A 2.953 2.953 0 0 1 10.029 3.064 Q 10.31 3.108 10.541 3.21 A 1.766 1.766 0 0 1 11.22 3.727 A 2.028 2.028 0 0 1 11.513 4.233 A 2.577 2.577 0 0 1 11.618 4.549 A 3.74 3.74 0 0 1 11.717 5.098 A 5.02 5.02 0 0 1 11.745 5.64 L 11.745 10.5 Z M 0.18 0 L 0.18 10.335 L 5.535 10.335 L 5.535 10.5 L 0 10.5 L 0 0 L 0.18 0 Z M 22.689 3.098 A 3.725 3.725 0 0 0 21.96 3.03 A 3.893 3.893 0 0 0 21.379 3.072 A 2.951 2.951 0 0 0 20.584 3.304 Q 19.988 3.578 19.579 4.073 A 3.042 3.042 0 0 0 19.258 4.547 A 3.702 3.702 0 0 0 18.96 5.269 A 4.776 4.776 0 0 0 18.813 5.936 A 6.035 6.035 0 0 0 18.75 6.825 Q 18.75 7.68 18.96 8.374 A 3.938 3.938 0 0 0 19.094 8.748 A 3.207 3.207 0 0 0 19.579 9.563 A 2.726 2.726 0 0 0 20.584 10.324 A 2.948 2.948 0 0 0 21.247 10.528 A 3.882 3.882 0 0 0 21.96 10.59 Q 22.732 10.59 23.333 10.324 A 2.719 2.719 0 0 0 24.341 9.562 A 3.068 3.068 0 0 0 24.651 9.109 A 3.67 3.67 0 0 0 24.96 8.374 A 4.686 4.686 0 0 0 25.111 7.688 A 6.014 6.014 0 0 0 25.17 6.825 Q 25.17 5.97 24.96 5.269 A 3.939 3.939 0 0 0 24.809 4.851 A 3.168 3.168 0 0 0 24.341 4.073 A 2.792 2.792 0 0 0 23.332 3.304 A 2.919 2.919 0 0 0 22.689 3.098 Z M 21.96 10.44 A 3.649 3.649 0 0 0 22.624 10.382 A 2.764 2.764 0 0 0 23.28 10.177 Q 23.85 9.915 24.229 9.443 A 3.007 3.007 0 0 0 24.657 8.71 A 3.766 3.766 0 0 0 24.799 8.303 Q 24.99 7.635 24.99 6.825 A 5.965 5.965 0 0 0 24.929 5.958 A 4.77 4.77 0 0 0 24.799 5.344 A 3.611 3.611 0 0 0 24.524 4.649 A 2.963 2.963 0 0 0 24.229 4.193 Q 23.85 3.713 23.28 3.446 A 2.785 2.785 0 0 0 22.518 3.221 A 3.691 3.691 0 0 0 21.96 3.18 Q 21.203 3.18 20.636 3.446 Q 20.07 3.713 19.691 4.193 A 3.089 3.089 0 0 0 19.259 4.943 A 3.843 3.843 0 0 0 19.121 5.344 A 4.961 4.961 0 0 0 18.957 6.237 A 6.243 6.243 0 0 0 18.93 6.825 A 5.952 5.952 0 0 0 18.989 7.68 A 4.721 4.721 0 0 0 19.121 8.303 A 3.552 3.552 0 0 0 19.387 8.974 A 2.891 2.891 0 0 0 19.691 9.443 Q 20.07 9.915 20.636 10.178 A 2.76 2.76 0 0 0 21.355 10.393 A 3.747 3.747 0 0 0 21.96 10.44 Z M 11.565 9 L 11.565 6.735 Q 9.567 6.798 8.441 7.176 A 4.148 4.148 0 0 0 8.059 7.324 A 2.817 2.817 0 0 0 7.545 7.617 Q 7.269 7.819 7.114 8.066 A 1.306 1.306 0 0 0 6.915 8.775 A 2.244 2.244 0 0 0 6.942 9.132 Q 6.974 9.33 7.044 9.496 A 1.352 1.352 0 0 0 7.061 9.536 Q 7.208 9.855 7.444 10.061 Q 7.68 10.268 7.984 10.369 A 1.968 1.968 0 0 0 8.61 10.47 A 3.853 3.853 0 0 0 9.132 10.436 A 2.982 2.982 0 0 0 9.547 10.35 A 3.512 3.512 0 0 0 10.185 10.101 A 3.184 3.184 0 0 0 10.32 10.028 A 4.064 4.064 0 0 0 10.976 9.559 A 10.315 10.315 0 0 0 11.565 9 Z" vector-effect="non-scaling-stroke"/></g></svg>
