<svg width="30.48" height="10.74"><path d="M0 10.5v-.495q.497-.014.725-.217a.571.571 0 00.025-.023q.225-.225.255-.532.028-.284.03-.955a36.327 36.327 0 000-.118V1.68a14.948 14.948 0 01.006-.447Q1.052.881 1.08.6L0 .66V0h3.375v.495q-.497.014-.725.217a.571.571 0 00-.025.023Q2.4.96 2.37 1.268q-.028.283-.03.954a36.327 36.327 0 000 .118v6.435a22.259 22.259 0 01-.003.366q-.008.512-.042.804L5.1 9.9q.96-.015 1.44-.607.449-.555.478-1.734a6.732 6.732 0 00.002-.164h.51L7.44 10.5H0zm28.2-4.185v-.93q0-.975-.285-1.522a.916.916 0 00-.495-.432q-.173-.069-.394-.097a2.596 2.596 0 00-.326-.019q-.465 0-.885.195a1.324 1.324 0 00-.401.281 1.224 1.224 0 00-.214.304.704.704 0 01.167.319q.028.115.028.251 0 .225-.165.428a.534.534 0 01-.319.187.813.813 0 01-.161.015.788.788 0 01-.213-.027.578.578 0 01-.282-.176.694.694 0 01-.159-.32 1.001 1.001 0 01-.021-.212 1.248 1.248 0 01.243-.737 1.696 1.696 0 01.14-.17q.353-.382.963-.616A3.852 3.852 0 0125.522 3a4.198 4.198 0 01.915-.206 5.309 5.309 0 01.608-.034 3.775 3.775 0 01.69.059q.386.072.685.231a1.76 1.76 0 01.485.377 1.976 1.976 0 01.379.651q.206.564.206 1.387a6.697 6.697 0 010 .07l-.015 3.375a8.633 8.633 0 01-.023.623 10.396 10.396 0 01-.037.397l1.065-.06v.63h-2.145a2.825 2.825 0 01-.022-.128q-.037-.245-.083-.727a4.338 4.338 0 01-.804.643 2.936 2.936 0 01-1.551.452 3.884 3.884 0 01-.634-.048q-.641-.107-1.038-.447a1.6 1.6 0 01-.574-1.168 2.096 2.096 0 01-.004-.122 1.843 1.843 0 01.593-1.375 2.457 2.457 0 01.104-.095 4.038 4.038 0 01.984-.617 5.357 5.357 0 01.771-.276 7.541 7.541 0 012.019-.278 7.378 7.378 0 01.104.001zM17.28 10.5v-.45a1.368 1.368 0 00.224-.017q.264-.044.399-.2a.914.914 0 00.184-.347 1.234 1.234 0 00.041-.208q.037-.338.037-1.058V4.8a11.104 11.104 0 01.004-.297q.011-.419.056-.678l-1.065.045v-.615h.465q.57 0 .825-.097a1.403 1.403 0 00.351-.199 1.716 1.716 0 00.129-.109h.435q.04.393.06.928a27.003 27.003 0 01.015.557 3.332 3.332 0 01.595-.716 4.322 4.322 0 01.478-.379 2.834 2.834 0 01.688-.352 2.33 2.33 0 01.759-.128 1.39 1.39 0 01.353.043A1.055 1.055 0 0122.71 3a.774.774 0 01.276.461 1.185 1.185 0 01.024.244.669.669 0 01-.063.278q-.04.088-.105.177a1.218 1.218 0 01-.02.025q-.187.24-.532.24a.715.715 0 01-.292-.058.69.69 0 01-.248-.19.71.71 0 01-.173-.473q0-.058.008-.119a1.398 1.398 0 00-.037 0q-.518 0-1.042.383a2.856 2.856 0 00-.069.052 3.461 3.461 0 00-.676.71 4.431 4.431 0 00-.306.49l.015 3.69a12.56 12.56 0 01-.004.317q-.011.444-.056.703l.945-.045v.615H17.28zm-5.055.24q-1.035 0-1.897-.487-.863-.488-1.365-1.358a3.775 3.775 0 01-.493-1.661 4.577 4.577 0 01-.01-.304q0-1.17.495-2.122.495-.953 1.358-1.5.862-.548 1.912-.548 1.035 0 1.905.503.87.502 1.373 1.372a3.783 3.783 0 01.501 1.864 4.474 4.474 0 01.001.071q0 1.14-.502 2.1a3.998 3.998 0 01-.993 1.243 3.846 3.846 0 01-.373.272q-.862.555-1.912.555zm.12-.6a2.088 2.088 0 00.685-.106q.588-.203.928-.794.517-.9.517-2.235a6.823 6.823 0 00-.104-1.222q-.131-.722-.429-1.315a4.256 4.256 0 00-.029-.058 2.307 2.307 0 00-.419-.581q-.504-.499-1.269-.499-1.065 0-1.626.842a2.373 2.373 0 00-.046.073q-.548.89-.563 2.177a6.258 6.258 0 000 .073 6.206 6.206 0 00.124 1.26 5.425 5.425 0 00.139.532 3.624 3.624 0 00.305.71 2.774 2.774 0 00.49.633q.532.51 1.297.51zm15.84-1.905l.015-1.41a6.155 6.155 0 00-1.231.164 4.93 4.93 0 00-.959.338 2.045 2.045 0 00-.485.315 1.392 1.392 0 00-.475 1.088 1.492 1.492 0 00.038.348.973.973 0 00.292.507 1.14 1.14 0 00.625.286 1.553 1.553 0 00.215.014 2.587 2.587 0 00.64-.077 2.225 2.225 0 00.395-.14q.431-.202.875-.604A5.282 5.282 0 0028.2 9a4.554 4.554 0 01-.007-.132q-.008-.228-.008-.633z" vector-effect="non-scaling-stroke" stroke-linecap="round" fill-rule="evenodd" font-size="12" stroke="#000" stroke-width=".25mm" fill="none"/></svg>