<svg width="100.335" height="12.45"><path d="M1.275 11.505l1.11-9.555L.72 1.785V1.14h3.54l2.325 6.93.555 2.01.495-2.01 2.31-6.93h3.51v.645l-1.65.165 1.185 9.54 1.365.15v.645H10.32v-.645l1.395-.135-.69-6.84-.33-3-.66 2.07-2.715 8.01h-.6l-2.55-7.17-.975-2.91-.3 3-.615 6.84 1.47.135v.645H0v-.645l1.275-.135zm39.615-6.93V3.96h3.255v.615l-1.2.18L44.28 9.42l.495 2.085.495-2.1 1.5-5.445h1.245l1.5 5.445.48 2.115.54-2.1 1.32-4.65-1.155-.195V3.96h2.94v.615l-.825.195-2.34 7.635H49.26l-1.635-5.58-.42-1.89-.36 1.89-1.575 5.58h-1.185l-2.4-7.65-.795-.18zm36.705 6.96V.945L76.26.81V.255L78.48 0h.03l.285.195v3.57l-.03 1.245a3.73 3.73 0 01.415-.322q.22-.149.488-.294a8.278 8.278 0 01.447-.224 4.469 4.469 0 01.916-.316 3.651 3.651 0 01.794-.089q.63 0 1.074.16a1.745 1.745 0 01.396.2 1.692 1.692 0 01.533.605 2.461 2.461 0 01.202.512q.206.742.21 1.994a15.656 15.656 0 010 .054v4.23l1.095.12v.645h-3.36v-.645l1.05-.12V7.275a11.701 11.701 0 00-.012-.556q-.025-.511-.098-.863a3.005 3.005 0 00-.018-.081 1.659 1.659 0 00-.137-.381 1.193 1.193 0 00-.365-.429 1.243 1.243 0 00-.354-.172q-.308-.098-.741-.098-.582 0-1.25.276a4.738 4.738 0 00-.04.016 5.877 5.877 0 00-.798.41 4.902 4.902 0 00-.417.288v5.835l1.11.12v.645H76.65v-.645l.945-.105zm-10.2-4.245v-.465a6.063 6.063 0 00-.015-.447q-.033-.441-.135-.74a1.753 1.753 0 00-.008-.02 1.218 1.218 0 00-.207-.373 1.086 1.086 0 00-.34-.272 1.518 1.518 0 00-.321-.12q-.317-.082-.76-.083a4.85 4.85 0 00-.014 0q-.765 0-1.387.233-.623.232-1.208.562l-.33-.66a1.09 1.09 0 01.101-.08q.173-.122.514-.301a11.219 11.219 0 01.075-.039q.525-.27 1.2-.48a4.688 4.688 0 01.826-.18 3.96 3.96 0 01.479-.03q1.02 0 1.612.285.593.285.856.915a2.918 2.918 0 01.157.521q.056.266.082.58a7.177 7.177 0 01.023.594v4.95h.93v.555a8.071 8.071 0 01-.537.128q-.265.053-.496.077a3.518 3.518 0 01-.362.02 1.808 1.808 0 01-.166-.007q-.228-.021-.329-.105a.271.271 0 01-.07-.096q-.065-.14-.065-.419a2.596 2.596 0 010-.003v-.555q-.54.48-1.178.848a2.766 2.766 0 01-1.174.356 3.387 3.387 0 01-.273.011 3.196 3.196 0 01-.846-.107 2.458 2.458 0 01-.947-.493 1.933 1.933 0 01-.639-1.072 3.002 3.002 0 01-.073-.683 2.269 2.269 0 01.215-1.005q.246-.505.771-.854a3.23 3.23 0 01.454-.249q1.187-.537 2.853-.662a13.588 13.588 0 01.732-.035zm-45.585.735h-5.34a5.701 5.701 0 00.1 1.1q.167.849.612 1.473.713.997 2.003.997a3.841 3.841 0 00.982-.132 4.554 4.554 0 00.308-.093q.66-.225 1.02-.54l.24.555a2.475 2.475 0 01-.438.354q-.218.141-.487.263a5.152 5.152 0 01-.343.14 4.818 4.818 0 01-1.567.307 4.586 4.586 0 01-.105.001 4.048 4.048 0 01-1.136-.151 2.974 2.974 0 01-1.541-1.041 4.163 4.163 0 01-.746-1.54q-.192-.736-.192-1.633a5.604 5.604 0 01.132-1.239 4.51 4.51 0 01.363-1.026 3.885 3.885 0 01.809-1.103 3.597 3.597 0 01.563-.434 3.635 3.635 0 011.905-.547 4.339 4.339 0 01.068-.001 3.743 3.743 0 01.848.09q.638.149 1.087.54a2.338 2.338 0 01.142.135q.653.672.778 1.864a5.393 5.393 0 01.025.341q0 .93-.09 1.32zm39.03 0H55.5a5.701 5.701 0 00.1 1.1q.167.849.613 1.473.712.997 2.002.997a3.841 3.841 0 00.982-.132 4.554 4.554 0 00.308-.093q.66-.225 1.02-.54l.24.555a2.475 2.475 0 01-.438.354q-.218.141-.487.263a5.152 5.152 0 01-.343.14 4.818 4.818 0 01-1.567.307 4.586 4.586 0 01-.105.001 4.048 4.048 0 01-1.136-.151 2.974 2.974 0 01-1.541-1.041 4.163 4.163 0 01-.746-1.54q-.192-.736-.192-1.633a5.604 5.604 0 01.132-1.239 4.51 4.51 0 01.363-1.026 3.885 3.885 0 01.809-1.103 3.597 3.597 0 01.563-.434 3.635 3.635 0 011.905-.547 4.339 4.339 0 01.068-.001 3.743 3.743 0 01.848.09q.638.149 1.087.54a2.338 2.338 0 01.142.135q.653.672.778 1.864a5.393 5.393 0 01.025.341q0 .93-.09 1.32zm32.325 0h-5.34a5.701 5.701 0 00.1 1.1q.167.849.613 1.473.712.997 2.002.997a3.841 3.841 0 00.982-.132 4.554 4.554 0 00.308-.093q.66-.225 1.02-.54l.24.555a2.475 2.475 0 01-.438.354q-.218.141-.487.263a5.152 5.152 0 01-.343.14 4.818 4.818 0 01-1.567.307 4.586 4.586 0 01-.105.001 4.048 4.048 0 01-1.136-.151 2.974 2.974 0 01-1.541-1.041 4.163 4.163 0 01-.746-1.54q-.192-.736-.192-1.633a5.604 5.604 0 01.132-1.239 4.51 4.51 0 01.363-1.026 3.885 3.885 0 01.809-1.103 3.597 3.597 0 01.563-.434 3.635 3.635 0 011.905-.547 4.339 4.339 0 01.068-.001 3.743 3.743 0 01.848.09q.638.149 1.087.54a2.338 2.338 0 01.142.135q.653.672.778 1.864a5.393 5.393 0 01.025.341q0 .93-.09 1.32zm-69.855 4.26v-.63l1.2-.09V4.95l-1.155-.255V4.02l1.905-.24h.03l.285.24v.24l-.03 1.14h.03a.446.446 0 00.013-.014q.063-.069.385-.443a2.667 2.667 0 01.342-.329q.309-.251.753-.489a3.357 3.357 0 01.797-.31 2.821 2.821 0 01.665-.08 1.702 1.702 0 01.323.03 1.489 1.489 0 01.127.03v1.32a.222.222 0 00-.037-.022q-.065-.031-.197-.061a2.583 2.583 0 00-.029-.007 1.921 1.921 0 00-.343-.043 2.189 2.189 0 00-.084-.002 4.784 4.784 0 00-.653.042q-.446.062-.802.213-.6.255-1.11.63v5.685l1.995.12v.615h-4.41zm6.75 0v-.63l1.2-.09V4.95l-1.155-.255V4.02l1.905-.24h.03l.285.24v.24l-.03 1.14h.03a.446.446 0 00.013-.014q.063-.069.385-.443a2.667 2.667 0 01.342-.329q.309-.251.753-.489a3.357 3.357 0 01.797-.31 2.821 2.821 0 01.665-.08 1.702 1.702 0 01.323.03 1.489 1.489 0 01.127.03v1.32a.222.222 0 00-.037-.022q-.065-.031-.197-.061a2.583 2.583 0 00-.029-.007 1.921 1.921 0 00-.343-.043 2.189 2.189 0 00-.084-.002 4.784 4.784 0 00-.653.042q-.446.062-.802.213-.6.255-1.11.63v5.685l1.995.12v.615h-4.41zm64.605 0v-.63l1.2-.09V4.95l-1.155-.255V4.02l1.905-.24h.03l.285.24v.24L96.9 5.4h.03a.446.446 0 00.013-.014q.063-.069.384-.443a2.667 2.667 0 01.343-.329q.309-.251.752-.489a3.357 3.357 0 01.798-.31 2.821 2.821 0 01.665-.08 1.702 1.702 0 01.323.03 1.489 1.489 0 01.127.03v1.32a.222.222 0 00-.037-.022q-.065-.031-.197-.061a2.583 2.583 0 00-.029-.007 1.921 1.921 0 00-.343-.043 2.189 2.189 0 00-.084-.002 4.784 4.784 0 00-.653.042q-.446.062-.802.213-.6.255-1.11.63v5.685l1.995.12v.615h-4.41zm-23.04-1.515V4.845h-1.14V4.26a19.476 19.476 0 00.259-.059q.514-.12.611-.181.186-.099.29-.353a1.268 1.268 0 00.04-.112 2.489 2.489 0 00.049-.135q.075-.225.181-.635a22.576 22.576 0 00.01-.04 66.034 66.034 0 00.07-.277q.068-.268.116-.469a17.904 17.904 0 00.039-.169h.69v2.13h2.655v.885H72.84v4.86q0 .856.058 1.211a1.822 1.822 0 00.002.011q.053.313.201.431a.325.325 0 00.039.027.556.556 0 00.123.051q.133.039.339.05a3.207 3.207 0 00.168.004q.435 0 .975-.12a6.804 6.804 0 00.282-.069q.272-.072.451-.15a1.582 1.582 0 00.077-.036l.195.57q-.291.228-.902.439a7.907 7.907 0 01-.238.078 6.6 6.6 0 01-.567.151q-.447.097-.813.097a2.749 2.749 0 01-.448-.034q-.239-.04-.429-.125a1.219 1.219 0 01-.323-.208 1.03 1.03 0 01-.253-.371q-.152-.362-.152-.942zm-33.6.75V4.95l-1.17-.255V4.02l2.055-.24h.03l.3.24v7.515l1.305.105v.645h-3.84v-.645l1.32-.12zm29.37-.87V7.995a10.223 10.223 0 00-1 .054q-1.093.117-1.752.486a2.323 2.323 0 00-.469.339 1.426 1.426 0 00-.469 1.071 2.661 2.661 0 00.034.444q.088.519.401.794a1.464 1.464 0 00.599.311q.222.06.487.069a2.819 2.819 0 00.099.002q.42 0 1.005-.27a5.419 5.419 0 001.005-.599 5.048 5.048 0 00.06-.046zm-50.91-3.33h4.065a4.56 4.56 0 00.043-.532 5.163 5.163 0 00.002-.128q-.015-.99-.472-1.575a1.459 1.459 0 00-.811-.516q-.267-.069-.592-.069a2.115 2.115 0 00-1.078.262q-.835.483-1.076 1.861a6.427 6.427 0 00-.081.697zm39.03 0h4.065a4.56 4.56 0 00.043-.532 5.163 5.163 0 00.002-.128q-.015-.99-.472-1.575a1.459 1.459 0 00-.811-.516q-.267-.069-.592-.069a2.115 2.115 0 00-1.078.262q-.835.483-1.076 1.861a6.427 6.427 0 00-.081.697zm32.325 0h4.065a4.56 4.56 0 00.043-.532 5.163 5.163 0 00.002-.128q-.015-.99-.473-1.575a1.459 1.459 0 00-.81-.516Q90.4 4.5 90.075 4.5a2.115 2.115 0 00-1.078.262q-.835.483-1.076 1.861a6.427 6.427 0 00-.081.697zM38.52 2.385h-.015a1.102 1.102 0 01-.325-.044q-.485-.15-.485-.811a1.214 1.214 0 01.042-.327.93.93 0 01.213-.386.841.841 0 01.508-.264A1.198 1.198 0 0138.64.54a1.29 1.29 0 01.233.02q.127.023.226.075a.57.57 0 01.186.153.902.902 0 01.184.444 1.197 1.197 0 01.011.163q0 .382-.167.627a.811.811 0 01-.081.1q-.247.263-.712.263z" vector-effect="non-scaling-stroke" stroke-linecap="round" fill-rule="evenodd" font-size="12" stroke="#000" stroke-width=".25mm" fill="none"/></svg>