<svg width="100.335" height="12.45" viewBox="0 0 100.335 12.45"><title>Merriweather</title><g id="svgGroup" stroke-linecap="round" fill-rule="evenodd" font-size="9pt" stroke="#000" stroke-width="0.25mm" fill="none" style="stroke:#000;stroke-width:0.25mm;fill:none"><path d="M 1.275 11.505 L 2.385 1.95 L 0.72 1.785 L 0.72 1.14 L 4.26 1.14 L 6.585 8.07 L 7.14 10.08 L 7.635 8.07 L 9.945 1.14 L 13.455 1.14 L 13.455 1.785 L 11.805 1.95 L 12.99 11.49 L 14.355 11.64 L 14.355 12.285 L 10.32 12.285 L 10.32 11.64 L 11.715 11.505 L 11.025 4.665 L 10.695 1.665 L 10.035 3.735 L 7.32 11.745 L 6.72 11.745 L 4.17 4.575 L 3.195 1.665 L 2.895 4.665 L 2.28 11.505 L 3.75 11.64 L 3.75 12.285 L 0 12.285 L 0 11.64 L 1.275 11.505 Z M 40.89 4.575 L 40.89 3.96 L 44.145 3.96 L 44.145 4.575 L 42.945 4.755 L 44.28 9.42 L 44.775 11.505 L 45.27 9.405 L 46.77 3.96 L 48.015 3.96 L 49.515 9.405 L 49.995 11.52 L 50.535 9.42 L 51.855 4.77 L 50.7 4.575 L 50.7 3.96 L 53.64 3.96 L 53.64 4.575 L 52.815 4.77 L 50.475 12.405 L 49.26 12.405 L 47.625 6.825 L 47.205 4.935 L 46.845 6.825 L 45.27 12.405 L 44.085 12.405 L 41.685 4.755 L 40.89 4.575 Z M 77.595 11.535 L 77.595 0.945 L 76.26 0.81 L 76.26 0.255 L 78.48 0 L 78.51 0 L 78.795 0.195 L 78.795 3.765 L 78.765 5.01 A 3.73 3.73 0 0 1 79.18 4.688 Q 79.4 4.539 79.668 4.394 A 8.278 8.278 0 0 1 80.115 4.17 A 4.469 4.469 0 0 1 81.031 3.854 A 3.651 3.651 0 0 1 81.825 3.765 Q 82.455 3.765 82.899 3.925 A 1.745 1.745 0 0 1 83.295 4.125 A 1.692 1.692 0 0 1 83.828 4.73 A 2.461 2.461 0 0 1 84.03 5.242 Q 84.236 5.984 84.24 7.236 A 15.656 15.656 0 0 1 84.24 7.29 L 84.24 11.52 L 85.335 11.64 L 85.335 12.285 L 81.975 12.285 L 81.975 11.64 L 83.025 11.52 L 83.025 7.275 A 11.701 11.701 0 0 0 83.013 6.719 Q 82.988 6.208 82.915 5.856 A 3.005 3.005 0 0 0 82.897 5.775 A 1.659 1.659 0 0 0 82.76 5.394 A 1.193 1.193 0 0 0 82.395 4.965 A 1.243 1.243 0 0 0 82.041 4.793 Q 81.733 4.695 81.3 4.695 Q 80.718 4.695 80.05 4.971 A 4.738 4.738 0 0 0 80.01 4.987 A 5.877 5.877 0 0 0 79.212 5.397 A 4.902 4.902 0 0 0 78.795 5.685 L 78.795 11.52 L 79.905 11.64 L 79.905 12.285 L 76.65 12.285 L 76.65 11.64 L 77.595 11.535 Z M 67.395 7.29 L 67.395 6.825 A 6.063 6.063 0 0 0 67.38 6.378 Q 67.347 5.937 67.245 5.638 A 1.753 1.753 0 0 0 67.237 5.618 A 1.218 1.218 0 0 0 67.03 5.245 A 1.086 1.086 0 0 0 66.69 4.973 A 1.518 1.518 0 0 0 66.369 4.853 Q 66.052 4.771 65.609 4.77 A 4.85 4.85 0 0 0 65.595 4.77 Q 64.83 4.77 64.208 5.003 Q 63.585 5.235 63 5.565 L 62.67 4.905 A 1.09 1.09 0 0 1 62.771 4.825 Q 62.944 4.703 63.285 4.524 A 11.219 11.219 0 0 1 63.36 4.485 Q 63.885 4.215 64.56 4.005 A 4.688 4.688 0 0 1 65.386 3.825 A 3.96 3.96 0 0 1 65.865 3.795 Q 66.885 3.795 67.477 4.08 Q 68.07 4.365 68.333 4.995 A 2.918 2.918 0 0 1 68.49 5.516 Q 68.546 5.782 68.572 6.096 A 7.177 7.177 0 0 1 68.595 6.69 L 68.595 11.64 L 69.525 11.64 L 69.525 12.195 A 8.071 8.071 0 0 1 68.988 12.323 Q 68.723 12.376 68.492 12.4 A 3.518 3.518 0 0 1 68.13 12.42 A 1.808 1.808 0 0 1 67.964 12.413 Q 67.736 12.392 67.635 12.308 A 0.271 0.271 0 0 1 67.565 12.212 Q 67.5 12.072 67.5 11.793 A 2.596 2.596 0 0 1 67.5 11.79 L 67.5 11.235 Q 66.96 11.715 66.322 12.083 A 2.766 2.766 0 0 1 65.148 12.439 A 3.387 3.387 0 0 1 64.875 12.45 A 3.196 3.196 0 0 1 64.029 12.343 A 2.458 2.458 0 0 1 63.082 11.85 A 1.933 1.933 0 0 1 62.443 10.778 A 3.002 3.002 0 0 1 62.37 10.095 A 2.269 2.269 0 0 1 62.585 9.09 Q 62.831 8.585 63.356 8.236 A 3.23 3.23 0 0 1 63.81 7.987 Q 64.997 7.45 66.663 7.325 A 13.588 13.588 0 0 1 67.395 7.29 Z M 21.81 8.025 L 16.47 8.025 A 5.701 5.701 0 0 0 16.57 9.125 Q 16.737 9.974 17.182 10.598 Q 17.895 11.595 19.185 11.595 A 3.841 3.841 0 0 0 20.167 11.463 A 4.554 4.554 0 0 0 20.475 11.37 Q 21.135 11.145 21.495 10.83 L 21.735 11.385 A 2.475 2.475 0 0 1 21.297 11.739 Q 21.079 11.88 20.81 12.002 A 5.152 5.152 0 0 1 20.467 12.142 A 4.818 4.818 0 0 1 18.9 12.449 A 4.586 4.586 0 0 1 18.795 12.45 A 4.048 4.048 0 0 1 17.659 12.299 A 2.974 2.974 0 0 1 16.118 11.258 A 4.163 4.163 0 0 1 15.372 9.718 Q 15.18 8.982 15.18 8.085 A 5.604 5.604 0 0 1 15.312 6.846 A 4.51 4.51 0 0 1 15.675 5.82 A 3.885 3.885 0 0 1 16.484 4.717 A 3.597 3.597 0 0 1 17.047 4.283 A 3.635 3.635 0 0 1 18.952 3.736 A 4.339 4.339 0 0 1 19.02 3.735 A 3.743 3.743 0 0 1 19.868 3.825 Q 20.506 3.974 20.955 4.365 A 2.338 2.338 0 0 1 21.097 4.5 Q 21.75 5.172 21.875 6.364 A 5.393 5.393 0 0 1 21.9 6.705 Q 21.9 7.635 21.81 8.025 Z M 60.84 8.025 L 55.5 8.025 A 5.701 5.701 0 0 0 55.6 9.125 Q 55.767 9.974 56.213 10.598 Q 56.925 11.595 58.215 11.595 A 3.841 3.841 0 0 0 59.197 11.463 A 4.554 4.554 0 0 0 59.505 11.37 Q 60.165 11.145 60.525 10.83 L 60.765 11.385 A 2.475 2.475 0 0 1 60.327 11.739 Q 60.109 11.88 59.84 12.002 A 5.152 5.152 0 0 1 59.497 12.142 A 4.818 4.818 0 0 1 57.93 12.449 A 4.586 4.586 0 0 1 57.825 12.45 A 4.048 4.048 0 0 1 56.689 12.299 A 2.974 2.974 0 0 1 55.148 11.258 A 4.163 4.163 0 0 1 54.402 9.718 Q 54.21 8.982 54.21 8.085 A 5.604 5.604 0 0 1 54.342 6.846 A 4.51 4.51 0 0 1 54.705 5.82 A 3.885 3.885 0 0 1 55.514 4.717 A 3.597 3.597 0 0 1 56.077 4.283 A 3.635 3.635 0 0 1 57.982 3.736 A 4.339 4.339 0 0 1 58.05 3.735 A 3.743 3.743 0 0 1 58.898 3.825 Q 59.536 3.974 59.985 4.365 A 2.338 2.338 0 0 1 60.127 4.5 Q 60.78 5.172 60.905 6.364 A 5.393 5.393 0 0 1 60.93 6.705 Q 60.93 7.635 60.84 8.025 Z M 93.165 8.025 L 87.825 8.025 A 5.701 5.701 0 0 0 87.925 9.125 Q 88.092 9.974 88.538 10.598 Q 89.25 11.595 90.54 11.595 A 3.841 3.841 0 0 0 91.522 11.463 A 4.554 4.554 0 0 0 91.83 11.37 Q 92.49 11.145 92.85 10.83 L 93.09 11.385 A 2.475 2.475 0 0 1 92.652 11.739 Q 92.434 11.88 92.165 12.002 A 5.152 5.152 0 0 1 91.822 12.142 A 4.818 4.818 0 0 1 90.255 12.449 A 4.586 4.586 0 0 1 90.15 12.45 A 4.048 4.048 0 0 1 89.014 12.299 A 2.974 2.974 0 0 1 87.473 11.258 A 4.163 4.163 0 0 1 86.727 9.718 Q 86.535 8.982 86.535 8.085 A 5.604 5.604 0 0 1 86.667 6.846 A 4.51 4.51 0 0 1 87.03 5.82 A 3.885 3.885 0 0 1 87.839 4.717 A 3.597 3.597 0 0 1 88.402 4.283 A 3.635 3.635 0 0 1 90.307 3.736 A 4.339 4.339 0 0 1 90.375 3.735 A 3.743 3.743 0 0 1 91.223 3.825 Q 91.861 3.974 92.31 4.365 A 2.338 2.338 0 0 1 92.452 4.5 Q 93.105 5.172 93.23 6.364 A 5.393 5.393 0 0 1 93.255 6.705 Q 93.255 7.635 93.165 8.025 Z M 23.31 12.285 L 23.31 11.655 L 24.51 11.565 L 24.51 4.95 L 23.355 4.695 L 23.355 4.02 L 25.26 3.78 L 25.29 3.78 L 25.575 4.02 L 25.575 4.26 L 25.545 5.4 L 25.575 5.4 A 0.446 0.446 0 0 0 25.588 5.386 Q 25.651 5.317 25.973 4.943 A 2.667 2.667 0 0 1 26.315 4.614 Q 26.624 4.363 27.068 4.125 A 3.357 3.357 0 0 1 27.865 3.815 A 2.821 2.821 0 0 1 28.53 3.735 A 1.702 1.702 0 0 1 28.853 3.765 A 1.489 1.489 0 0 1 28.98 3.795 L 28.98 5.115 A 0.222 0.222 0 0 0 28.943 5.093 Q 28.878 5.062 28.746 5.032 A 2.583 2.583 0 0 0 28.717 5.025 A 1.921 1.921 0 0 0 28.374 4.982 A 2.189 2.189 0 0 0 28.29 4.98 A 4.784 4.784 0 0 0 27.637 5.022 Q 27.191 5.084 26.835 5.235 Q 26.235 5.49 25.725 5.865 L 25.725 11.55 L 27.72 11.67 L 27.72 12.285 L 23.31 12.285 Z M 30.06 12.285 L 30.06 11.655 L 31.26 11.565 L 31.26 4.95 L 30.105 4.695 L 30.105 4.02 L 32.01 3.78 L 32.04 3.78 L 32.325 4.02 L 32.325 4.26 L 32.295 5.4 L 32.325 5.4 A 0.446 0.446 0 0 0 32.338 5.386 Q 32.401 5.317 32.723 4.943 A 2.667 2.667 0 0 1 33.065 4.614 Q 33.374 4.363 33.818 4.125 A 3.357 3.357 0 0 1 34.615 3.815 A 2.821 2.821 0 0 1 35.28 3.735 A 1.702 1.702 0 0 1 35.603 3.765 A 1.489 1.489 0 0 1 35.73 3.795 L 35.73 5.115 A 0.222 0.222 0 0 0 35.693 5.093 Q 35.628 5.062 35.496 5.032 A 2.583 2.583 0 0 0 35.467 5.025 A 1.921 1.921 0 0 0 35.124 4.982 A 2.189 2.189 0 0 0 35.04 4.98 A 4.784 4.784 0 0 0 34.387 5.022 Q 33.941 5.084 33.585 5.235 Q 32.985 5.49 32.475 5.865 L 32.475 11.55 L 34.47 11.67 L 34.47 12.285 L 30.06 12.285 Z M 94.665 12.285 L 94.665 11.655 L 95.865 11.565 L 95.865 4.95 L 94.71 4.695 L 94.71 4.02 L 96.615 3.78 L 96.645 3.78 L 96.93 4.02 L 96.93 4.26 L 96.9 5.4 L 96.93 5.4 A 0.446 0.446 0 0 0 96.943 5.386 Q 97.006 5.317 97.327 4.943 A 2.667 2.667 0 0 1 97.67 4.614 Q 97.979 4.363 98.422 4.125 A 3.357 3.357 0 0 1 99.22 3.815 A 2.821 2.821 0 0 1 99.885 3.735 A 1.702 1.702 0 0 1 100.208 3.765 A 1.489 1.489 0 0 1 100.335 3.795 L 100.335 5.115 A 0.222 0.222 0 0 0 100.298 5.093 Q 100.233 5.062 100.101 5.032 A 2.583 2.583 0 0 0 100.072 5.025 A 1.921 1.921 0 0 0 99.729 4.982 A 2.189 2.189 0 0 0 99.645 4.98 A 4.784 4.784 0 0 0 98.992 5.022 Q 98.546 5.084 98.19 5.235 Q 97.59 5.49 97.08 5.865 L 97.08 11.55 L 99.075 11.67 L 99.075 12.285 L 94.665 12.285 Z M 71.625 10.77 L 71.625 4.845 L 70.485 4.845 L 70.485 4.26 A 19.476 19.476 0 0 0 70.744 4.201 Q 71.258 4.081 71.355 4.02 Q 71.541 3.921 71.645 3.667 A 1.268 1.268 0 0 0 71.685 3.555 A 2.489 2.489 0 0 0 71.734 3.42 Q 71.809 3.195 71.915 2.785 A 22.576 22.576 0 0 0 71.925 2.745 A 66.034 66.034 0 0 0 71.995 2.468 Q 72.063 2.2 72.111 1.999 A 17.904 17.904 0 0 0 72.15 1.83 L 72.84 1.83 L 72.84 3.96 L 75.495 3.96 L 75.495 4.845 L 72.84 4.845 L 72.84 9.705 Q 72.84 10.561 72.898 10.916 A 1.822 1.822 0 0 0 72.9 10.927 Q 72.953 11.24 73.101 11.358 A 0.325 0.325 0 0 0 73.14 11.385 A 0.556 0.556 0 0 0 73.263 11.436 Q 73.396 11.475 73.602 11.486 A 3.207 3.207 0 0 0 73.77 11.49 Q 74.205 11.49 74.745 11.37 A 6.804 6.804 0 0 0 75.027 11.301 Q 75.299 11.229 75.478 11.151 A 1.582 1.582 0 0 0 75.555 11.115 L 75.75 11.685 Q 75.459 11.913 74.848 12.124 A 7.907 7.907 0 0 1 74.61 12.202 A 6.6 6.6 0 0 1 74.043 12.353 Q 73.596 12.45 73.23 12.45 A 2.749 2.749 0 0 1 72.782 12.416 Q 72.543 12.376 72.353 12.291 A 1.219 1.219 0 0 1 72.03 12.083 A 1.03 1.03 0 0 1 71.777 11.712 Q 71.625 11.35 71.625 10.77 Z M 38.025 11.52 L 38.025 4.95 L 36.855 4.695 L 36.855 4.02 L 38.91 3.78 L 38.94 3.78 L 39.24 4.02 L 39.24 11.535 L 40.545 11.64 L 40.545 12.285 L 36.705 12.285 L 36.705 11.64 L 38.025 11.52 Z M 67.395 10.65 L 67.395 7.995 A 10.223 10.223 0 0 0 66.395 8.049 Q 65.302 8.166 64.643 8.535 A 2.323 2.323 0 0 0 64.174 8.874 A 1.426 1.426 0 0 0 63.705 9.945 A 2.661 2.661 0 0 0 63.739 10.389 Q 63.827 10.908 64.14 11.183 A 1.464 1.464 0 0 0 64.739 11.494 Q 64.961 11.554 65.226 11.563 A 2.819 2.819 0 0 0 65.325 11.565 Q 65.745 11.565 66.33 11.295 A 5.419 5.419 0 0 0 67.335 10.696 A 5.048 5.048 0 0 0 67.395 10.65 Z M 16.485 7.32 L 20.55 7.32 A 4.56 4.56 0 0 0 20.593 6.788 A 5.163 5.163 0 0 0 20.595 6.66 Q 20.58 5.67 20.123 5.085 A 1.459 1.459 0 0 0 19.312 4.569 Q 19.045 4.5 18.72 4.5 A 2.115 2.115 0 0 0 17.642 4.762 Q 16.807 5.245 16.566 6.623 A 6.427 6.427 0 0 0 16.485 7.32 Z M 55.515 7.32 L 59.58 7.32 A 4.56 4.56 0 0 0 59.623 6.788 A 5.163 5.163 0 0 0 59.625 6.66 Q 59.61 5.67 59.153 5.085 A 1.459 1.459 0 0 0 58.342 4.569 Q 58.075 4.5 57.75 4.5 A 2.115 2.115 0 0 0 56.672 4.762 Q 55.837 5.245 55.596 6.623 A 6.427 6.427 0 0 0 55.515 7.32 Z M 87.84 7.32 L 91.905 7.32 A 4.56 4.56 0 0 0 91.948 6.788 A 5.163 5.163 0 0 0 91.95 6.66 Q 91.935 5.67 91.477 5.085 A 1.459 1.459 0 0 0 90.667 4.569 Q 90.4 4.5 90.075 4.5 A 2.115 2.115 0 0 0 88.997 4.762 Q 88.162 5.245 87.921 6.623 A 6.427 6.427 0 0 0 87.84 7.32 Z M 38.52 2.385 L 38.505 2.385 A 1.102 1.102 0 0 1 38.18 2.341 Q 37.695 2.191 37.695 1.53 A 1.214 1.214 0 0 1 37.737 1.203 A 0.93 0.93 0 0 1 37.95 0.817 A 0.841 0.841 0 0 1 38.458 0.553 A 1.198 1.198 0 0 1 38.64 0.54 A 1.29 1.29 0 0 1 38.873 0.56 Q 39 0.583 39.099 0.635 A 0.57 0.57 0 0 1 39.285 0.788 A 0.902 0.902 0 0 1 39.469 1.232 A 1.197 1.197 0 0 1 39.48 1.395 Q 39.48 1.777 39.313 2.022 A 0.811 0.811 0 0 1 39.232 2.122 Q 38.985 2.385 38.52 2.385 Z" vector-effect="non-scaling-stroke"/></g></svg>
