<svg width="78.42" height="10.545"><path d="M10.095 0h.255v10.5h-.3V.645l-4.785 8.37h-.18L.3.675V10.5H0V0h.255l4.92 8.61L10.095 0zM29.88 5.925V10.5h-.3V5.925q0-1.03-.38-1.711a2.282 2.282 0 00-.348-.471 2.367 2.367 0 00-1.146-.651q-.376-.097-.823-.106a4.594 4.594 0 00-.093-.001 4.088 4.088 0 00-1.007.117 2.865 2.865 0 00-1.386.791 3.065 3.065 0 00-.815 1.644 4.337 4.337 0 00-.062.748V10.5h-.3V2.745h.3v2.07q.36-.99 1.2-1.552a3.262 3.262 0 011.23-.49 4.481 4.481 0 01.825-.073q1.455 0 2.28.833.825.832.825 2.392zm7.935 3.555l.18-.24a2.911 2.911 0 00.508.388q.309.189.7.34.757.292 1.642.292a6.079 6.079 0 00.688-.036q.715-.082 1.152-.348a1.642 1.642 0 00.11-.074 1.452 1.452 0 00.618-1.046 1.908 1.908 0 00.012-.221 1.634 1.634 0 00-.044-.389 1.112 1.112 0 00-.294-.533q-.337-.338-.824-.495a6.728 6.728 0 00-.341-.1q-.356-.094-.84-.191a22.906 22.906 0 00-.162-.032 16.76 16.76 0 01-.587-.116q-.521-.113-.89-.236a2.249 2.249 0 01-.809-.465 2.185 2.185 0 01-.136-.135q-.352-.38-.381-1.032a2.679 2.679 0 01-.002-.116 1.742 1.742 0 01.573-1.307 2.397 2.397 0 01.124-.111q.538-.445 1.464-.547a5.342 5.342 0 01.584-.03q.72 0 1.425.218a4.224 4.224 0 01.528.2q.265.122.477.273a2.373 2.373 0 01.135.104l-.18.24a3.037 3.037 0 00-.695-.413 3.784 3.784 0 00-.385-.142q-.63-.195-1.305-.195a4.985 4.985 0 00-.668.042q-.335.045-.607.14a1.916 1.916 0 00-.548.29q-.597.465-.607 1.213a1.907 1.907 0 000 .025 1.768 1.768 0 00.043.4q.072.312.267.53a1.123 1.123 0 00.035.038 2.02 2.02 0 00.715.467 2.414 2.414 0 00.14.05 6.426 6.426 0 00.351.102q.415.108.981.21a20.374 20.374 0 00.018.003 19.837 19.837 0 01.535.113q.512.115.87.231a5.702 5.702 0 01.05.016q.54.18.915.578.351.371.373 1.012a2.541 2.541 0 01.002.09q0 .884-.686 1.425a2.243 2.243 0 01-.049.038 2.415 2.415 0 01-.709.354q-.332.107-.738.155a5.995 5.995 0 01-.698.038 5.133 5.133 0 01-1.599-.246 4.849 4.849 0 01-.156-.054 4.502 4.502 0 01-.566-.248q-.287-.152-.509-.333a2.344 2.344 0 01-.2-.184zM71.55 5.415V10.5h-.3V8.85q-.375.795-1.132 1.245a3.136 3.136 0 01-1.038.381 4.29 4.29 0 01-.785.069 4.543 4.543 0 01-.786-.064q-.441-.077-.792-.249a2.274 2.274 0 01-.439-.28 1.907 1.907 0 01-.721-1.392 2.545 2.545 0 01-.007-.19 2.153 2.153 0 01.12-.734 1.867 1.867 0 01.532-.774 1.938 1.938 0 01.618-.357q.554-.206 1.377-.219a7.097 7.097 0 01.113-.001h2.94V5.43a3.775 3.775 0 00-.06-.699q-.073-.387-.235-.689a1.825 1.825 0 00-.328-.442q-.528-.522-1.483-.601a4.299 4.299 0 00-.354-.014q-.84 0-1.567.293-.728.292-1.253.787l-.21-.21q.555-.54 1.35-.847.795-.308 1.665-.308a4.181 4.181 0 01.799.072q.463.09.821.293a2.14 2.14 0 01.442.333q.646.631.707 1.774a4.578 4.578 0 01.006.243zM52.275 6.54v.075h-6.9a4.062 4.062 0 00.16 1.156 3.544 3.544 0 00.305.727q.465.832 1.283 1.297a3.584 3.584 0 001.585.458 4.316 4.316 0 00.252.007q.795 0 1.493-.307.697-.308 1.147-.893l.21.21q-.51.615-1.26.945-.75.33-1.59.33a4.198 4.198 0 01-1.221-.173 3.682 3.682 0 01-.767-.329q-.877-.503-1.379-1.403a3.987 3.987 0 01-.491-1.679 4.815 4.815 0 01-.012-.346 4.67 4.67 0 01.147-1.192 3.962 3.962 0 01.318-.825q.465-.893 1.283-1.395a3.418 3.418 0 011.742-.502 4.085 4.085 0 01.095-.001q1.005 0 1.83.495.825.495 1.298 1.365.472.87.472 1.98zM36.54 9.78l.21.21a1.496 1.496 0 01-.397.297 1.958 1.958 0 01-.271.115q-.412.143-.847.143a2.507 2.507 0 01-.558-.058q-.387-.089-.668-.311a1.51 1.51 0 01-.162-.148 1.743 1.743 0 01-.432-.843 2.557 2.557 0 01-.055-.545V3.03h-1.5v-.285h1.5V1.05h.3v1.695h2.625v.285H33.66v5.535a2.699 2.699 0 00.04.478q.048.268.155.479a1.312 1.312 0 00.21.303q.374.401 1.066.432a2.646 2.646 0 00.119.003 2.078 2.078 0 00.628-.091 1.701 1.701 0 00.662-.389zm41.67 0l.21.21a1.496 1.496 0 01-.397.297 1.958 1.958 0 01-.271.115q-.412.143-.847.143a2.507 2.507 0 01-.558-.058q-.387-.089-.668-.311a1.51 1.51 0 01-.162-.148 1.743 1.743 0 01-.432-.843 2.557 2.557 0 01-.055-.545V3.03h-1.5v-.285h1.5V1.05h.3v1.695h2.625v.285H75.33v5.535a2.699 2.699 0 00.04.478q.048.268.155.479a1.312 1.312 0 00.21.303q.374.401 1.066.432a2.646 2.646 0 00.119.003 2.078 2.078 0 00.628-.091 1.701 1.701 0 00.662-.389zm-62.659.527a3.883 3.883 0 001.369.238 4.436 4.436 0 00.132-.002 3.728 3.728 0 001.796-.501q.862-.502 1.349-1.402a3.908 3.908 0 00.316-.768 4.464 4.464 0 00.172-1.257 4.905 4.905 0 00-.018-.422 4.008 4.008 0 00-.47-1.595q-.487-.893-1.349-1.395a3.628 3.628 0 00-.559-.265A3.883 3.883 0 0016.92 2.7a4.436 4.436 0 00-.132.002 3.728 3.728 0 00-1.796.501q-.862.502-1.349 1.395a3.849 3.849 0 00-.325.794 4.451 4.451 0 00-.163 1.223 4.941 4.941 0 00.014.38 4.069 4.069 0 00.473 1.645q.488.9 1.351 1.403a3.628 3.628 0 00.558.264zM58.155 2.7V3h-.09a3.496 3.496 0 00-.923.115 2.499 2.499 0 00-1.252.777 3.002 3.002 0 00-.631 1.211q-.121.448-.144.978a5.812 5.812 0 00-.005.249v4.17h-.3V2.745h.3v2.01a3.185 3.185 0 01.44-.873 2.713 2.713 0 01.67-.649 2.976 2.976 0 011.09-.452 4.181 4.181 0 01.845-.081zm5.745 0V3h-.09a3.496 3.496 0 00-.923.115 2.499 2.499 0 00-1.252.777 3.002 3.002 0 00-.631 1.211q-.121.448-.144.978a5.812 5.812 0 00-.005.249v4.17h-.3V2.745h.3v2.01a3.185 3.185 0 01.44-.873 2.713 2.713 0 01.67-.649 2.976 2.976 0 011.09-.452A4.181 4.181 0 0163.9 2.7zm-46.98 7.56a3.521 3.521 0 001.335-.251 3.359 3.359 0 00.435-.214q.795-.465 1.245-1.297a3.762 3.762 0 00.431-1.465 4.613 4.613 0 00.019-.418 4.21 4.21 0 00-.142-1.112 3.615 3.615 0 00-.308-.77q-.45-.833-1.245-1.29a3.464 3.464 0 00-1.679-.457 4.103 4.103 0 00-.091-.001 3.581 3.581 0 00-1.302.234 3.379 3.379 0 00-.468.223q-.795.458-1.245 1.291a3.762 3.762 0 00-.431 1.464 4.613 4.613 0 00-.019.418 4.21 4.21 0 00.142 1.112 3.615 3.615 0 00.308.77q.45.833 1.245 1.298a3.428 3.428 0 001.709.465 4.055 4.055 0 00.061 0zm28.455-3.93h6.615a3.759 3.759 0 00-.285-1.291 3.525 3.525 0 00-.21-.419q-.45-.765-1.185-1.2a3.144 3.144 0 00-1.607-.435 3.715 3.715 0 00-.028 0 3.202 3.202 0 00-1.3.263 3.104 3.104 0 00-.335.172q-.735.435-1.177 1.2-.443.765-.488 1.71zM71.25 8.28V6.57h-2.955q-1.195 0-1.789.431a1.501 1.501 0 00-.064.049 1.558 1.558 0 00-.586 1.141 2.159 2.159 0 00-.006.164q0 .885.645 1.395t1.8.51a3.602 3.602 0 001.217-.193q1.005-.359 1.551-1.384a4.12 4.12 0 00.187-.403z" vector-effect="non-scaling-stroke" stroke-linecap="round" fill-rule="evenodd" font-size="12" stroke="#000" stroke-width=".25mm" fill="none"/></svg>