<svg width="107.959" height="15"><path d="M24.749 11.396h-.689V5.918a4.989 4.989 0 00-.041-.672q-.101-.74-.45-1.06a.967.967 0 00-.681-.246 1.686 1.686 0 00-.555.087q-.48.166-.752.653a2.516 2.516 0 00-.218.548q-.152.541-.186 1.33a11.057 11.057 0 00-.01.473v4.365h-.696V3.45h.586l.059 1.106h.066a2.323 2.323 0 01.304-.533 1.904 1.904 0 01.413-.398 1.807 1.807 0 01.576-.274 1.654 1.654 0 01.428-.055 2.181 2.181 0 01.556.067 1.467 1.467 0 01.828.552 1.882 1.882 0 01.263.514q.171.497.195 1.235a7.548 7.548 0 01.004.239v5.493zm20.859 0h-.688V5.918a4.989 4.989 0 00-.042-.672q-.101-.74-.45-1.06a.967.967 0 00-.68-.246 1.686 1.686 0 00-.555.087q-.48.166-.753.653a2.516 2.516 0 00-.218.548q-.152.541-.186 1.33a11.057 11.057 0 00-.01.473v4.365h-.695V3.45h.586l.058 1.106h.066a2.323 2.323 0 01.304-.533 1.904 1.904 0 01.414-.398 1.807 1.807 0 01.576-.274 1.654 1.654 0 01.427-.055 2.181 2.181 0 01.556.067 1.467 1.467 0 01.829.552 1.882 1.882 0 01.262.514q.172.497.195 1.235a7.548 7.548 0 01.004.239v5.493zm26.44 0h-.688V5.918a4.989 4.989 0 00-.041-.672q-.101-.74-.451-1.06a.967.967 0 00-.68-.246 1.686 1.686 0 00-.555.087q-.48.166-.752.653a2.516 2.516 0 00-.219.548q-.152.541-.185 1.33a11.057 11.057 0 00-.01.473v4.365h-.696V3.45h.586l.059 1.106h.066a2.323 2.323 0 01.303-.533 1.904 1.904 0 01.414-.398 1.807 1.807 0 01.576-.274 1.654 1.654 0 01.428-.055 2.181 2.181 0 01.556.067 1.467 1.467 0 01.828.552 1.882 1.882 0 01.263.514q.171.497.195 1.235a7.548 7.548 0 01.003.239v5.493zm18.794 0h-.688V5.918a4.989 4.989 0 00-.041-.672q-.101-.74-.451-1.06a.967.967 0 00-.68-.246 1.686 1.686 0 00-.555.087q-.48.166-.752.653a2.516 2.516 0 00-.219.548q-.152.541-.185 1.33a11.057 11.057 0 00-.01.473v4.365h-.696V3.45h.586l.059 1.106h.065a2.323 2.323 0 01.304-.533 1.904 1.904 0 01.414-.398 1.807 1.807 0 01.576-.274 1.654 1.654 0 01.428-.055 2.181 2.181 0 01.556.067 1.467 1.467 0 01.828.552 1.882 1.882 0 01.263.514q.171.497.195 1.235a7.548 7.548 0 01.003.239v5.493zm-61.611-.227v-.776a2.765 2.765 0 00.383.175q.19.07.411.126a5.029 5.029 0 00.151.036 5.153 5.153 0 001.113.124 1.755 1.755 0 00.763-.163 1.749 1.749 0 00.585-.459 2.192 2.192 0 00.485-1.066 3.03 3.03 0 00.042-.516 3.408 3.408 0 00-.043-.563q-.05-.298-.157-.539a1.699 1.699 0 00-.173-.304 2.002 2.002 0 00-.3-.325q-.339-.301-.904-.601a8.416 8.416 0 00-.225-.114 8.516 8.516 0 01-.476-.259q-.462-.271-.74-.531a2.433 2.433 0 01-.021-.02 2.454 2.454 0 01-.608-.912 2.839 2.839 0 01-.142-.532q-.045-.261-.054-.559a5.079 5.079 0 01-.002-.154q0-.791.322-1.406.322-.615.901-.956a2.453 2.453 0 011.267-.34 4.83 4.83 0 01.63.039 3.764 3.764 0 01.502.1q.333.091.574.192a2.371 2.371 0 01.228.108l-.279.689a3.755 3.755 0 00-1.076-.368 3.381 3.381 0 00-.579-.05 1.893 1.893 0 00-.614.096 1.602 1.602 0 00-.671.442 1.83 1.83 0 00-.441.881 2.644 2.644 0 00-.054.544 3.664 3.664 0 00.035.524q.04.274.125.499a1.623 1.623 0 00.199.376 1.946 1.946 0 00.283.307q.395.354 1.124.726a5.723 5.723 0 01.703.402q.351.237.608.503a2.837 2.837 0 01.274.329 2.689 2.689 0 01.458 1.144 3.587 3.587 0 01.044.573 3.868 3.868 0 01-.107.936 2.765 2.765 0 01-.626 1.199 2.371 2.371 0 01-1.72.814 3.017 3.017 0 01-.14.003q-.898 0-1.548-.184a3.144 3.144 0 01-.51-.19zm30.652-.615v.659q-.461.266-1.155.318a4.693 4.693 0 01-.347.012 2.649 2.649 0 01-1.783-.659 3.458 3.458 0 01-.678-.807q-.236-.38-.416-.854a6.37 6.37 0 01-.089-.247q-.376-1.125-.413-2.626a13.513 13.513 0 01-.004-.337 11.768 11.768 0 01.089-1.495q.196-1.526.823-2.533a3.501 3.501 0 01.696-.827 2.673 2.673 0 011.79-.638q.982 0 1.714.454l-.33.63a2.503 2.503 0 00-1.277-.393 3.03 3.03 0 00-.122-.003q-1.208 0-1.922 1.279-.505.903-.653 2.299a11.811 11.811 0 00-.061 1.242 11.095 11.095 0 00.062 1.21q.066.599.201 1.118a6.343 6.343 0 00.066.235q.266.878.716 1.429a2.711 2.711 0 00.229.249 2.008 2.008 0 001.428.585 3.89 3.89 0 00.68-.056q.399-.071.729-.231a2.421 2.421 0 00.027-.013zM8.76 10.298h-.066l.051.871V15h-.696V3.45h.572l.073 1.091h.066q.293-.601.751-.923.457-.322.999-.322a1.919 1.919 0 011.835 1.194q.427.881.485 2.413a13.174 13.174 0 01.009.502 11.103 11.103 0 01-.054 1.138q-.12 1.159-.504 1.898a3.215 3.215 0 01-.013.025 2.391 2.391 0 01-.408.568 1.696 1.696 0 01-1.254.509 1.917 1.917 0 01-1.095-.333 2.085 2.085 0 01-.731-.867 2.497 2.497 0 01-.02-.045zm69.075-5.845h.058l-.029-.886V0h.696v11.396h-.572l-.058-1.113h-.066a2.779 2.779 0 01-.294.493 2.073 2.073 0 01-.446.441 1.738 1.738 0 01-1.04.326 1.907 1.907 0 01-1.823-1.194q-.424-.881-.482-2.413a13.257 13.257 0 01-.009-.502q0-1.915.519-2.966a3.116 3.116 0 01.059-.114 2.291 2.291 0 01.445-.586q.508-.472 1.262-.472a1.833 1.833 0 01.954.27 2.208 2.208 0 01.06.038 2.181 2.181 0 01.71.75 2.603 2.603 0 01.056.099zm29.399 0h.059l-.03-.886V0h.696v11.396h-.571l-.059-1.113h-.066a2.779 2.779 0 01-.293.493 2.073 2.073 0 01-.446.441 1.738 1.738 0 01-1.041.326 1.907 1.907 0 01-1.822-1.194q-.425-.881-.483-2.413a13.257 13.257 0 01-.009-.502q0-1.915.519-2.966a3.116 3.116 0 01.06-.114 2.291 2.291 0 01.444-.586q.509-.472 1.262-.472a1.833 1.833 0 01.954.27 2.208 2.208 0 01.061.038 2.181 2.181 0 01.71.75 2.603 2.603 0 01.055.099zm-60.051 6.643v-.813a1.679 1.679 0 00.337.258q.16.094.354.168a2.793 2.793 0 00.026.01 2.626 2.626 0 00.916.165q.615 0 .967-.403a1.374 1.374 0 00.297-.589q.051-.209.054-.455a2.546 2.546 0 000-.033q0-.527-.252-.89a1.719 1.719 0 00-.191-.224q-.273-.275-.772-.6a14.51 14.51 0 01-.375-.243q-.355-.24-.571-.424a2.341 2.341 0 01-.164-.153q-.297-.307-.462-.688-.164-.381-.164-.909a2.078 2.078 0 01.123-.727 1.845 1.845 0 01.455-.69 1.97 1.97 0 011.226-.549 2.651 2.651 0 01.246-.011 3.356 3.356 0 01.728.075 2.41 2.41 0 01.876.379l-.358.608q-.601-.403-1.275-.403a1.689 1.689 0 00-.426.051 1.205 1.205 0 00-.555.312 1.216 1.216 0 00-.349.707 1.701 1.701 0 00-.017.248q0 .528.249.883t1.054.861q.791.52 1.084.831.293.311.436.688a2.145 2.145 0 01.115.457 2.903 2.903 0 01.028.411 3.074 3.074 0 01-.062.639q-.119.56-.466.932a1.697 1.697 0 01-.816.481q-.318.087-.707.087a3.583 3.583 0 01-.464-.029q-.245-.032-.456-.1a2.176 2.176 0 01-.032-.01 3.613 3.613 0 01-.239-.09q-.121-.051-.221-.105a1.525 1.525 0 01-.177-.113zm45.234 0v-.813a1.679 1.679 0 00.338.258q.16.094.354.168a2.793 2.793 0 00.026.01 2.626 2.626 0 00.915.165q.616 0 .967-.403a1.374 1.374 0 00.298-.589q.05-.209.054-.455a2.546 2.546 0 000-.033q0-.527-.253-.89a1.719 1.719 0 00-.19-.224q-.274-.275-.773-.6a14.51 14.51 0 01-.374-.243q-.355-.24-.571-.424a2.341 2.341 0 01-.165-.153q-.296-.307-.461-.688-.165-.381-.165-.909a2.078 2.078 0 01.123-.727 1.845 1.845 0 01.456-.69 1.97 1.97 0 011.225-.549 2.651 2.651 0 01.247-.011 3.356 3.356 0 01.727.075 2.41 2.41 0 01.877.379l-.359.608q-.601-.403-1.274-.403a1.689 1.689 0 00-.426.051 1.205 1.205 0 00-.556.312 1.216 1.216 0 00-.349.707 1.701 1.701 0 00-.017.248q0 .528.249.883t1.055.861q.791.52 1.084.831.293.311.435.688a2.145 2.145 0 01.115.457 2.903 2.903 0 01.028.411 3.074 3.074 0 01-.062.639q-.119.56-.465.932a1.697 1.697 0 01-.817.481q-.317.087-.707.087a3.583 3.583 0 01-.464-.029q-.245-.032-.456-.1a2.176 2.176 0 01-.032-.01 3.613 3.613 0 01-.238-.09q-.122-.051-.221-.105a1.525 1.525 0 01-.178-.113zm-53.181.3h-.571l-.088-1.113h-.03a2.786 2.786 0 01-.364.606 1.675 1.675 0 01-1.364.654q-.776 0-1.249-.619a2.162 2.162 0 01-.361-.75q-.084-.304-.104-.663a4.256 4.256 0 01-.007-.246 3.054 3.054 0 01.092-.77 2.164 2.164 0 01.589-1.028q.626-.609 1.717-.708a4.581 4.581 0 01.195-.013l.856-.044v-.66q0-.929-.194-1.437a1.498 1.498 0 00-.084-.185.921.921 0 00-.658-.485 1.366 1.366 0 00-.265-.024q-.681 0-1.391.447l-.301-.549q.828-.513 1.736-.513a2.441 2.441 0 01.535.054q.337.076.581.257a1.322 1.322 0 01.298.308q.371.532.423 1.678a8.609 8.609 0 01.009.391v5.412zM6.101 7.534a14.328 14.328 0 00.073-1.506 17.511 17.511 0 000-.106q-.01-1.625-.323-2.781a5.301 5.301 0 00-.464-1.182 3.667 3.667 0 00-.204-.328q-.35-.501-.814-.773A2.45 2.45 0 003.106.535q-.974 0-1.642.532a2.84 2.84 0 00-.688.823 3.871 3.871 0 00-.156.305q-.425.921-.559 2.373A15.819 15.819 0 000 6.013a17.7 17.7 0 000 .106q.016 2.574.784 3.985a3.607 3.607 0 00.229.369q.763 1.07 2.071 1.07 1.501 0 2.296-1.428a4.16 4.16 0 00.018-.034q.537-.986.703-2.547zm12.605-.759v.644h-3.765a10.348 10.348 0 00.045.908q.089.912.35 1.498a2.582 2.582 0 00.096.195q.476.864 1.443.864a2.591 2.591 0 00.804-.135q.376-.122.771-.356v.674a3.094 3.094 0 01-1.035.42 2.884 2.884 0 01-.569.056q-1.166 0-1.833-.919a2.872 2.872 0 01-.104-.154q-.501-.793-.632-2.049a9.134 9.134 0 01-.046-.943 11.06 11.06 0 01.053-1.124q.118-1.144.493-1.877a3.138 3.138 0 01.058-.108 2.396 2.396 0 01.454-.589 1.822 1.822 0 011.286-.484 1.671 1.671 0 011.321.609 2.468 2.468 0 01.239.332 3.523 3.523 0 01.38.911q.118.434.163.952a7.783 7.783 0 01.028.675zm66.094 0v.644h-3.765a10.348 10.348 0 00.045.908q.088.912.35 1.498a2.582 2.582 0 00.096.195q.476.864 1.443.864a2.591 2.591 0 00.804-.135q.376-.122.771-.356v.674a3.094 3.094 0 01-1.035.42 2.884 2.884 0 01-.569.056q-1.166 0-1.834-.919a2.872 2.872 0 01-.104-.154q-.501-.793-.631-2.049a9.134 9.134 0 01-.046-.943 11.06 11.06 0 01.053-1.124q.117-1.144.493-1.877a3.138 3.138 0 01.058-.108 2.396 2.396 0 01.454-.589 1.822 1.822 0 011.286-.484 1.671 1.671 0 011.321.609 2.468 2.468 0 01.239.332 3.523 3.523 0 01.38.911q.118.434.163.952a7.783 7.783 0 01.028.675zm16.977 0v.644h-3.764a10.348 10.348 0 00.045.908q.088.912.349 1.498a2.582 2.582 0 00.097.195q.476.864 1.442.864a2.591 2.591 0 00.805-.135q.376-.122.77-.356v.674a3.094 3.094 0 01-1.034.42 2.884 2.884 0 01-.57.056q-1.166 0-1.833-.919a2.872 2.872 0 01-.104-.154q-.501-.793-.632-2.049a9.134 9.134 0 01-.046-.943 11.06 11.06 0 01.054-1.124q.117-1.144.492-1.877a3.138 3.138 0 01.059-.108 2.396 2.396 0 01.453-.589 1.822 1.822 0 011.286-.484 1.671 1.671 0 011.321.609 2.468 2.468 0 01.239.332 3.523 3.523 0 01.38.911q.118.434.163.952a7.783 7.783 0 01.028.675zM.747 6.028q0 2.388.597 3.607a2.782 2.782 0 00.379.59 1.715 1.715 0 001.361.629 1.741 1.741 0 001.422-.69 2.828 2.828 0 00.324-.518q.597-1.208.597-3.618a15.624 15.624 0 00-.046-1.247q-.1-1.249-.418-2.065a3.863 3.863 0 00-.122-.281 2.698 2.698 0 00-.385-.599 1.711 1.711 0 00-1.35-.613 1.756 1.756 0 00-1.438.69 2.783 2.783 0 00-.331.537 4.821 4.821 0 00-.324.926q-.228.921-.261 2.218a17.511 17.511 0 00-.005.434zM65.962 8.54a10.214 10.214 0 00.059-1.135 9.845 9.845 0 00-.054-1.058q-.131-1.209-.584-1.974a2.725 2.725 0 00-.279-.393 1.894 1.894 0 00-1.5-.684q-1.976 0-2.347 2.712a10.38 10.38 0 00-.085 1.397 12.835 12.835 0 000 .08q.008 1.234.254 2.105a3.84 3.84 0 00.365.887 2.747 2.747 0 00.159.245q.299.408.703.613a2.002 2.002 0 00.921.208 2.565 2.565 0 00.06-.001q1.136-.026 1.753-1.065a2.986 2.986 0 00.007-.012q.435-.739.568-1.925zm11.902-.652v-.454a11.874 11.874 0 00-.033-.913q-.086-1.118-.403-1.727a1.751 1.751 0 00-.335-.46q-.394-.379-.994-.379a1.253 1.253 0 00-.622.151q-.388.217-.609.746-.373.898-.373 2.597a12.265 12.265 0 00.03.898q.067.897.275 1.49a3.028 3.028 0 00.083.212 1.829 1.829 0 00.263.438 1.214 1.214 0 00.982.448 1.418 1.418 0 00.698-.17q.348-.192.587-.603.432-.74.45-2.15a9.709 9.709 0 00.001-.124zm29.399 0v-.454a11.874 11.874 0 00-.032-.913q-.087-1.118-.404-1.727a1.751 1.751 0 00-.335-.46q-.394-.379-.994-.379a1.253 1.253 0 00-.621.151q-.389.217-.609.746-.374.898-.374 2.597a12.265 12.265 0 00.031.898q.066.897.274 1.49a3.028 3.028 0 00.083.212 1.829 1.829 0 00.264.438 1.214 1.214 0 00.981.448 1.418 1.418 0 00.699-.17q.348-.192.587-.603.431-.74.449-2.15a9.709 9.709 0 00.001-.124zM8.745 7.134v.227q0 1.831.432 2.691.43.856 1.309.861a1.82 1.82 0 00.01 0 1.204 1.204 0 00.989-.475 1.896 1.896 0 00.23-.378 3.25 3.25 0 00.206-.608q.15-.618.184-1.512a14.359 14.359 0 00.009-.535q0-1.515-.289-2.366a2.934 2.934 0 00-.084-.22q-.349-.806-1.156-.86a1.772 1.772 0 00-.119-.004 1.546 1.546 0 00-.59.108q-.372.152-.619.518a1.879 1.879 0 00-.087.143 2.65 2.65 0 00-.224.566q-.201.716-.201 1.844zm53.474 2.661a2.869 2.869 0 00.088.21 1.837 1.837 0 00.284.444 1.27 1.27 0 00.998.435 1.35 1.35 0 001.253-.816q.453-.869.453-2.663 0-2.043-.598-2.876a1.296 1.296 0 00-1.108-.574q-.894 0-1.293.864-.36.781-.395 2.261a13.797 13.797 0 00-.004.325q0 1.526.322 2.39zM38.547 8.13v-.828l-.827.044a3.242 3.242 0 00-.545.073q-.288.065-.513.185a1.469 1.469 0 00-.367.273q-.394.407-.454 1.134a3.285 3.285 0 00-.011.269q0 .864.308 1.267a.978.978 0 00.706.396 1.281 1.281 0 00.129.007 1.208 1.208 0 00.964-.45 1.832 1.832 0 00.197-.286 2.736 2.736 0 00.248-.623q.164-.604.165-1.448a8.848 8.848 0 000-.013zM14.956 6.79h3.054q0-1.311-.399-2.088a1.943 1.943 0 00-.239-.366q-.181-.215-.403-.317a1.034 1.034 0 00-.438-.093q-1.436 0-1.575 2.864zm66.094 0h3.054q0-1.311-.399-2.088a1.943 1.943 0 00-.239-.366q-.182-.215-.404-.317a1.034 1.034 0 00-.437-.093q-1.436 0-1.575 2.864zm16.977 0h3.055q0-1.311-.4-2.088a1.943 1.943 0 00-.239-.366q-.181-.215-.403-.317a1.034 1.034 0 00-.438-.093q-1.435 0-1.575 2.864z" vector-effect="non-scaling-stroke" stroke-linecap="round" fill-rule="evenodd" font-size="12" stroke="#000" stroke-width=".25mm" fill="none"/></svg>