<svg width="34.23" height="12.45"><path d="M14.13 12.285l-1.425-8.67h.705l1.2 7.755 1.485-7.755h.78l1.515 7.725 1.125-7.725h.705l-1.395 8.67H18L16.5 4.68l-1.47 7.605h-.9zm-6.75-2.34l.675-.195a4.787 4.787 0 00.07.555q.117.617.394.974a1.398 1.398 0 00.031.039 1.372 1.372 0 00.9.484 1.987 1.987 0 00.27.018 1.9 1.9 0 00.41-.041q.267-.059.465-.202a1.105 1.105 0 00.145-.124q.331-.339.358-.937a2.397 2.397 0 00.002-.106q0-.865-1.069-1.844a7.142 7.142 0 00-.206-.181L8.82 7.53a6.799 6.799 0 01-.41-.383q-.35-.357-.542-.682-.293-.495-.293-1.14a2.285 2.285 0 01.066-.564 1.576 1.576 0 01.467-.793 1.794 1.794 0 01.809-.419q.286-.069.623-.069a2.371 2.371 0 01.584.068 1.582 1.582 0 01.856.532q.417.505.504 1.339a4.296 4.296 0 01.021.326l-.585.18a3.964 3.964 0 00-.072-.662q-.239-1.17-1.24-1.183a1.74 1.74 0 00-.023 0q-.497 0-.82.216a1.088 1.088 0 00-.11.084.973.973 0 00-.315.548 1.469 1.469 0 00-.03.307q0 .486.181.835a1.375 1.375 0 00.007.013q.187.352.697.802l1.035.915a18.808 18.808 0 01.335.304q.148.137.272.26a7.845 7.845 0 01.226.231 2.938 2.938 0 01.391.534 3.541 3.541 0 01.134.254 2.233 2.233 0 01.194.672 2.84 2.84 0 01.023.37 2.446 2.446 0 01-.074.617 1.725 1.725 0 01-.496.846q-.557.52-1.499.532a3.52 3.52 0 01-.046 0q-1.02 0-1.62-.66a2.475 2.475 0 01-.504-.87q-.145-.422-.186-.945zM24.81 7.11v-.615a12.856 12.856 0 00-.01-.537q-.021-.488-.081-.826a3.231 3.231 0 00-.021-.107 2.175 2.175 0 00-.076-.27q-.111-.314-.299-.465-.263-.21-.713-.21a1.785 1.785 0 00-.443.052 1.291 1.291 0 00-.554.293.934.934 0 00-.226.326q-.129.296-.152.759a4.189 4.189 0 00-.005.205v.225h-.78q0-1.26.51-1.86.403-.474 1.219-.574a3.82 3.82 0 01.461-.026 2.676 2.676 0 01.557.054q.648.138.966.629a2.12 2.12 0 01.233.512q.209.658.209 1.73v4.365a17.208 17.208 0 00.001.172q.002.193.008.447a59.617 59.617 0 00.006.244 39.045 39.045 0 00.006.189q.011.336.021.441a.597.597 0 00.003.022h-.69a4.228 4.228 0 00-.017-.206q-.01-.092-.025-.194a8.484 8.484 0 00-.033-.215l-.06-.54q-.195.555-.69.923-.495.367-1.125.367a1.88 1.88 0 01-.594-.09 1.551 1.551 0 01-.666-.435 1.8 1.8 0 01-.442-.917 2.53 2.53 0 01-.038-.448q0-.589.16-1.013a1.812 1.812 0 01.11-.239 1.918 1.918 0 01.267-.364q.147-.16.344-.318a4.737 4.737 0 01.387-.278 9.739 9.739 0 01.473-.287q.527-.301 1.302-.681a45.09 45.09 0 01.497-.24zm5.055 1.62V7.185a16.073 16.073 0 01.017-.759q.037-.782.156-1.333.172-.803.607-1.208a1.432 1.432 0 01.599-.327q.221-.063.485-.075a2.84 2.84 0 01.131-.003 1.974 1.974 0 01.524.067 1.674 1.674 0 01.384.158q.397.225.667.57V.135h.795v12.15h-.795v-.66a2.66 2.66 0 01-.479.449 1.774 1.774 0 01-1.051.346q-.75 0-1.192-.375a1.643 1.643 0 01-.352-.426q-.114-.195-.2-.44a3.557 3.557 0 01-.093-.311 5.424 5.424 0 01-.107-.554q-.096-.666-.096-1.584zM0 8.835v-5.31q0-1.12.304-1.904A2.973 2.973 0 01.683.923q.574-.777 1.823-.9A5.047 5.047 0 013 0a4.438 4.438 0 01.838.074q.473.091.833.295A2.03 2.03 0 015.31.93Q6 1.86 6 3.525V8.85a7.095 7.095 0 01-.065.994q-.144 1.011-.602 1.661-.668.945-2.333.945-1.003 0-1.644-.346a1.966 1.966 0 01-.688-.606Q0 10.545 0 8.835zm5.175.18v-5.61a6.18 6.18 0 00-.042-.743q-.098-.812-.43-1.297A1.441 1.441 0 004 .832Q3.745.735 3.424.698A3.703 3.703 0 003 .675q-.715 0-1.174.233a1.39 1.39 0 00-.528.457q-.473.69-.473 2.04v5.61a6.317 6.317 0 00.042.752q.098.82.431 1.311a1.448 1.448 0 00.715.544q.257.096.578.132a3.687 3.687 0 00.409.021q1.23 0 1.703-.705a2.39 2.39 0 00.292-.634q.095-.31.14-.688a6.237 6.237 0 00.04-.733zm22.215 3.27V.135h.795v12.15h-.795zm6.045-1.215V4.845a3.665 3.665 0 00-.417-.362q-.235-.173-.463-.269a1.442 1.442 0 00-.56-.119 1.683 1.683 0 00-.32.029q-.324.063-.52.264a1.15 1.15 0 00-.202.29q-.07.142-.121.319a2.802 2.802 0 00-.067.298 5.865 5.865 0 00-.055.43q-.05.523-.05 1.265v1.8q0 1.045.103 1.68a4.764 4.764 0 00.01.06q.112.645.405.96a.948.948 0 00.476.274q.152.039.332.041a1.824 1.824 0 00.024 0q.405 0 .773-.21.367-.21.652-.525zm-8.625-.525v-2.85a65.824 65.824 0 00-.583.309q-.72.386-1.102.62a7.358 7.358 0 00-.085.054 3.031 3.031 0 00-.343.25q-.254.216-.399.455a1.438 1.438 0 00-.157.377q-.076.282-.076.65 0 .72.33 1.035a1.126 1.126 0 00.795.315 1.454 1.454 0 00.015 0q.525 0 .938-.345a2.542 2.542 0 00.592-.726 2.993 2.993 0 00.075-.144z" vector-effect="non-scaling-stroke" stroke-linecap="round" fill-rule="evenodd" font-size="12" stroke="#000" stroke-width=".25mm" fill="none"/></svg>