<svg width="104.55" height="14.58"><path d="M27.315 4.035v.3q-.3.03-.532.27-.211.217-.403.681a4.841 4.841 0 00-.04.099l-2.46 6.45-.51 1.305q-.285.735-.645 1.05a1.293 1.293 0 01-.501.288 1.509 1.509 0 01-.039.012q-.315.09-.63.09a1.379 1.379 0 01-.326-.037.986.986 0 01-.409-.203.786.786 0 01-.278-.533 1.123 1.123 0 01-.007-.127 1.003 1.003 0 01.03-.25.721.721 0 01.18-.328.689.689 0 01.347-.191 1.041 1.041 0 01.238-.026.956.956 0 01.258.033.744.744 0 01.29.154.614.614 0 01.209.395.887.887 0 01.008.123.784.784 0 01-.062.317q-.096.221-.343.358a.112.112 0 00.022.008q.023.006.057.007a.445.445 0 00.011 0 1.077 1.077 0 00.817-.378q.156-.17.289-.418a3.331 3.331 0 00.169-.374l.525-1.365-2.715-6.555a3.351 3.351 0 00-.139-.253q-.146-.237-.291-.362a.739.739 0 00-.08-.06q-.255-.165-.51-.165v-.315q.602.084 1.361.09a14.802 14.802 0 00.109 0q.742 0 1.924-.088a50.673 50.673 0 00.026-.002v.315q-.426 0-.671.056a.999.999 0 00-.116.034q-.248.09-.248.435a1.366 1.366 0 00.029.272q.044.213.151.463l1.8 4.47 1.665-4.335a4.526 4.526 0 00.072-.212q.069-.221.087-.378a.894.894 0 00.006-.1.692.692 0 00-.031-.214.532.532 0 00-.239-.296q-.236-.145-.715-.197a4.34 4.34 0 00-.14-.013v-.3a41.07 41.07 0 00.377.02q.534.025.883.025a16.533 16.533 0 00.47-.006q.37-.011.67-.039zm77.235 0v.3q-.3.03-.532.27-.211.217-.403.681a4.841 4.841 0 00-.04.099l-2.46 6.45-.51 1.305q-.285.735-.645 1.05a1.293 1.293 0 01-.501.288 1.509 1.509 0 01-.039.012q-.315.09-.63.09a1.379 1.379 0 01-.326-.037.986.986 0 01-.409-.203.786.786 0 01-.278-.533 1.123 1.123 0 01-.007-.127 1.003 1.003 0 01.03-.25.721.721 0 01.18-.328.689.689 0 01.347-.191 1.041 1.041 0 01.238-.026.956.956 0 01.258.033.744.744 0 01.29.154.614.614 0 01.209.395.887.887 0 01.008.123.784.784 0 01-.062.317q-.096.221-.343.358a.112.112 0 00.022.008q.023.006.057.007a.445.445 0 00.011 0 1.077 1.077 0 00.817-.378q.156-.17.289-.418a3.331 3.331 0 00.169-.374l.525-1.365L98.1 5.19a3.351 3.351 0 00-.139-.253q-.146-.237-.291-.362a.739.739 0 00-.08-.06q-.255-.165-.51-.165v-.315q.602.084 1.361.09a14.802 14.802 0 00.109 0q.742 0 1.924-.088a50.673 50.673 0 00.026-.002v.315q-.426 0-.671.056a.999.999 0 00-.116.034q-.248.09-.248.435a1.366 1.366 0 00.029.272q.044.213.151.463l1.8 4.47 1.665-4.335a4.526 4.526 0 00.072-.212q.069-.221.087-.378a.894.894 0 00.006-.1.692.692 0 00-.031-.214.532.532 0 00-.239-.296q-.236-.145-.715-.197a4.34 4.34 0 00-.14-.013v-.3a41.07 41.07 0 00.377.02q.534.025.883.025a16.533 16.533 0 00.47-.006q.37-.011.67-.039zM30.405 3.66v.39h1.605v.3h-1.605v5.865a1.867 1.867 0 00.03.346q.079.418.368.614a1.304 1.304 0 00.337.159q.324.104.791.111a4.541 4.541 0 00.064 0v.315l-.36-.015a306.802 306.802 0 00-.535-.015q-1.074-.03-1.415-.03-.378 0-1.687.056a218.727 218.727 0 00-.083.004v-.315q.527 0 .792-.163a.62.62 0 00.093-.07.642.642 0 00.155-.228q.1-.235.1-.619V4.35h-1.2v-.3h1.2q0-1.189.134-1.891a4.128 4.128 0 01.031-.149 3.032 3.032 0 01.291-.781A2.642 2.642 0 0129.82.78q.3-.345.765-.548A2.459 2.459 0 0131.4.037a2.912 2.912 0 01.205-.007 2.483 2.483 0 01.613.072 1.876 1.876 0 01.692.333q.465.375.465.93a.866.866 0 01-.045.286.742.742 0 01-.18.284.76.76 0 01-.512.223 1.013 1.013 0 01-.058.002.908.908 0 01-.319-.054.819.819 0 01-.266-.164.716.716 0 01-.229-.435 1.027 1.027 0 01-.011-.157.937.937 0 01.025-.224.663.663 0 01.147-.286.785.785 0 01.354-.227 1.012 1.012 0 01.104-.028q-.045-.15-.24-.24a.888.888 0 00-.187-.061q-.137-.029-.308-.029a1.239 1.239 0 00-.329.042 1.05 1.05 0 00-.256.108q-.255.15-.39.405a1.321 1.321 0 00-.096.228q-.086.264-.121.657a8.863 8.863 0 00-.023.342q-.027.526-.03 1.41a67.712 67.712 0 000 .213zm44.91.18h.345a12.088 12.088 0 00-.026.435q-.03.674-.034 1.835a102.175 102.175 0 000 .28h-.345a4.684 4.684 0 00-.194-.774q-.17-.488-.443-.861-.473-.645-1.403-.645a1.55 1.55 0 00-.406.051 1.167 1.167 0 00-.479.256 1.009 1.009 0 00-.326.608 1.462 1.462 0 00-.019.24 1.258 1.258 0 00.09.482 1.175 1.175 0 00.27.395q.36.353 1.155.848a2.664 2.664 0 01.076.044q.127.076.329.211a18.97 18.97 0 01.442.297q.196.136.363.26a8.315 8.315 0 01.305.238q.42.345.683.795a1.929 1.929 0 01.248.768 2.414 2.414 0 01.014.267 2.109 2.109 0 01-.113.706 1.768 1.768 0 01-.63.839 2.759 2.759 0 01-1.237.51 3.706 3.706 0 01-.585.045 3.676 3.676 0 01-.592-.045 2.691 2.691 0 01-.593-.165q-.33-.165-.615-.405a.221.221 0 00-.051-.039.174.174 0 00-.084-.021.155.155 0 00-.095.034q-.048.036-.09.111a.623.623 0 00-.003.005q-.055.101-.093.256a2.145 2.145 0 00-.034.163l-.345.001a16.26 16.26 0 00.026-.507q.03-.79.034-2.162a142.621 142.621 0 000-.331h.345a9.229 9.229 0 00.122.774q.172.843.478 1.334.426.682 1.441.697a3.103 3.103 0 00.044 0q.525 0 .93-.345a1.072 1.072 0 00.322-.494q.058-.178.076-.395a2.398 2.398 0 00.007-.191 1.42 1.42 0 00-.119-.586 1.376 1.376 0 00-.278-.404q-.398-.405-1.298-.975a31.244 31.244 0 01-.346-.222q-.374-.244-.636-.432a8.363 8.363 0 01-.15-.111q-.398-.3-.668-.735a1.79 1.79 0 01-.251-.72 2.3 2.3 0 01-.019-.3 2.253 2.253 0 01.074-.596 1.572 1.572 0 01.556-.844q.63-.495 1.59-.495a3.017 3.017 0 01.502.04 2.291 2.291 0 01.458.125 2.932 2.932 0 01.314.144q.156.083.279.179a1.59 1.59 0 01.082.067q.133.097.227.115a.22.22 0 00.043.005q.27 0 .33-.66zm4.17 7.32v1.92a1.641 1.641 0 00.025.3q.071.377.335.548a1.207 1.207 0 00.303.136q.294.09.718.096a4.323 4.323 0 00.059 0v.315l-.345-.015a226.276 226.276 0 00-.564-.018q-.923-.027-1.251-.027a8.821 8.821 0 00-.201.003q-.435.01-1.419.057v-.315q.455 0 .683-.136a.526.526 0 00.09-.066.562.562 0 00.132-.198q.073-.174.083-.443a2.341 2.341 0 00.002-.087V5.67a2.959 2.959 0 00-.02-.356q-.051-.422-.235-.649-.255-.315-.885-.315v-.315q.465.045.93.045a7.018 7.018 0 00.637-.027q.297-.027.552-.082a3.246 3.246 0 00.371-.101v1.59a2.932 2.932 0 01.431-.725 2.492 2.492 0 01.529-.482 2.488 2.488 0 011.364-.427 3.023 3.023 0 01.076-.001q.795 0 1.433.435.637.435.997 1.275.36.84.36 2.01a6.423 6.423 0 01-.207 1.648 5.825 5.825 0 01-.16.512 3.86 3.86 0 01-.647 1.146 3.549 3.549 0 01-.493.489 2.766 2.766 0 01-1.341.586 3.737 3.737 0 01-.587.044q-.57 0-1.035-.225a2.125 2.125 0 01-.39-.241 1.654 1.654 0 01-.33-.344zm-62.25-4.59v-.93q0-.733-.261-1.077a.776.776 0 00-.106-.116 1.216 1.216 0 00-.465-.249q-.248-.073-.563-.073a3.207 3.207 0 00-.528.04q-.641.108-.957.5.3.075.503.315a.851.851 0 01.191.438 1.145 1.145 0 01.011.162.943.943 0 01-.034.259.7.7 0 01-.206.333q-.24.218-.615.218a1.067 1.067 0 01-.248-.027q-.191-.045-.32-.168a.664.664 0 01-.062-.067.955.955 0 01-.204-.511 1.243 1.243 0 01-.006-.127 1.24 1.24 0 01.028-.273.888.888 0 01.145-.327q.172-.24.517-.48a2.5 2.5 0 01.377-.218q.241-.114.538-.202.555-.165 1.215-.165a3.935 3.935 0 01.672.054q.684.118 1.098.501.375.345.503.833a3.29 3.29 0 01.072.371q.028.195.041.422a8.146 8.146 0 01.014.489v4.17a2.127 2.127 0 00.007.184q.016.182.066.296a.446.446 0 00.032.06q.105.165.36.165.18 0 .338-.082a1.546 1.546 0 00.142-.086q.094-.063.195-.147l.165.255a5.87 5.87 0 01-.233.171q-.236.163-.422.251a1.728 1.728 0 01-.012.006 1.277 1.277 0 01-.271.087q-.131.027-.284.036a2.53 2.53 0 01-.143.004 2.258 2.258 0 01-.352-.025q-.444-.071-.653-.335-.25-.316-.281-.83a2.462 2.462 0 01-.004-.145 3.566 3.566 0 01-.349.489q-.316.368-.686.554a2.78 2.78 0 01-.962.274 3.434 3.434 0 01-.358.018 3.007 3.007 0 01-.518-.042q-.281-.049-.503-.157a1.347 1.347 0 01-.382-.273 1.558 1.558 0 01-.386-.707q-.062-.24-.07-.524a2.986 2.986 0 01-.001-.082 2.032 2.032 0 01.059-.504 1.5 1.5 0 01.309-.606q.367-.435.87-.69a6.936 6.936 0 01.383-.179q.201-.087.437-.177a16.483 16.483 0 01.507-.184q.84-.285 1.245-.525a.992.992 0 00.214-.166.669.669 0 00.191-.479zm20.01 0v-.93q0-.733-.261-1.077a.776.776 0 00-.106-.116 1.216 1.216 0 00-.465-.249q-.248-.073-.563-.073a3.207 3.207 0 00-.528.04q-.641.108-.957.5.3.075.503.315a.851.851 0 01.191.438 1.145 1.145 0 01.011.162.943.943 0 01-.034.259.7.7 0 01-.206.333q-.24.218-.615.218a1.067 1.067 0 01-.248-.027q-.191-.045-.32-.168a.664.664 0 01-.062-.067.955.955 0 01-.204-.511 1.243 1.243 0 01-.006-.127 1.24 1.24 0 01.028-.273.888.888 0 01.145-.327q.172-.24.517-.48a2.5 2.5 0 01.377-.218q.241-.114.538-.202.555-.165 1.215-.165a3.935 3.935 0 01.672.054q.684.118 1.098.501.375.345.503.833a3.29 3.29 0 01.072.371q.028.195.041.422a8.146 8.146 0 01.014.489v4.17a2.127 2.127 0 00.007.184q.016.182.066.296a.446.446 0 00.032.06q.105.165.36.165.18 0 .338-.082a1.546 1.546 0 00.142-.086q.094-.063.195-.147l.165.255a5.87 5.87 0 01-.233.171q-.236.163-.422.251a1.728 1.728 0 01-.012.006 1.277 1.277 0 01-.271.087q-.131.027-.284.036a2.53 2.53 0 01-.143.004 2.258 2.258 0 01-.352-.025q-.444-.071-.653-.335-.25-.316-.281-.83a2.462 2.462 0 01-.004-.145 3.566 3.566 0 01-.349.489q-.316.368-.686.554a2.78 2.78 0 01-.962.274 3.434 3.434 0 01-.358.018 3.007 3.007 0 01-.518-.042q-.281-.049-.503-.157a1.347 1.347 0 01-.382-.273 1.558 1.558 0 01-.386-.707q-.062-.24-.07-.524a2.986 2.986 0 01-.001-.082 2.032 2.032 0 01.059-.504 1.5 1.5 0 01.309-.606q.367-.435.87-.69a6.936 6.936 0 01.383-.179q.201-.087.437-.177a16.483 16.483 0 01.507-.184q.84-.285 1.245-.525a.992.992 0 00.214-.166.669.669 0 00.191-.479zm57.225 0v-.93q0-.733-.261-1.077a.776.776 0 00-.106-.116 1.216 1.216 0 00-.465-.249q-.248-.073-.563-.073a3.207 3.207 0 00-.528.04q-.641.108-.957.5.3.075.503.315a.851.851 0 01.191.438 1.145 1.145 0 01.011.162.943.943 0 01-.034.259.7.7 0 01-.206.333q-.24.218-.615.218a1.067 1.067 0 01-.248-.027q-.191-.045-.32-.168a.664.664 0 01-.062-.067.955.955 0 01-.204-.511 1.243 1.243 0 01-.006-.127 1.24 1.24 0 01.028-.273.888.888 0 01.145-.327q.172-.24.517-.48a2.5 2.5 0 01.377-.218q.241-.114.538-.202.555-.165 1.215-.165a3.935 3.935 0 01.672.054q.684.118 1.098.501.375.345.503.833a3.29 3.29 0 01.072.371q.028.195.041.422a8.146 8.146 0 01.014.489v4.17a2.127 2.127 0 00.007.184q.016.182.066.296a.446.446 0 00.032.06q.105.165.36.165.18 0 .338-.082a1.546 1.546 0 00.142-.086q.094-.063.195-.147l.165.255a5.87 5.87 0 01-.233.171q-.236.163-.422.251a1.728 1.728 0 01-.012.006 1.277 1.277 0 01-.271.087q-.131.027-.284.036a2.53 2.53 0 01-.143.004 2.258 2.258 0 01-.352-.025q-.444-.071-.653-.335-.25-.316-.281-.83a2.462 2.462 0 01-.004-.145 3.566 3.566 0 01-.349.489q-.316.368-.686.554a2.78 2.78 0 01-.962.274 3.434 3.434 0 01-.358.018 3.007 3.007 0 01-.518-.042q-.281-.049-.503-.157a1.347 1.347 0 01-.382-.273 1.558 1.558 0 01-.386-.707q-.062-.24-.07-.524a2.986 2.986 0 01-.001-.082 2.032 2.032 0 01.059-.504 1.5 1.5 0 01.309-.606q.367-.435.87-.69a6.936 6.936 0 01.383-.179q.201-.087.437-.177a16.483 16.483 0 01.507-.184q.84-.285 1.245-.525a.992.992 0 00.214-.166.669.669 0 00.191-.479zm-90.705.9H2.61v2.7a4.308 4.308 0 00.008.281q.018.269.073.442a.819.819 0 00.039.102.621.621 0 00.339.316.862.862 0 00.081.029 1.786 1.786 0 00.186.044q.199.037.492.059a9.744 9.744 0 00.297.017v.3a19.902 19.902 0 00-.43-.02q-.706-.025-1.775-.025a60.592 60.592 0 00-.604.003q-.843.008-1.316.042v-.3a6.242 6.242 0 00.252-.019q.35-.033.536-.101a.533.533 0 00.319-.299.682.682 0 00.018-.046q.09-.255.09-.825V2.73q0-.57-.09-.825a.582.582 0 00-.114-.197.543.543 0 00-.223-.148 1.307 1.307 0 00-.163-.046q-.179-.04-.444-.062A6.652 6.652 0 000 1.44v-.3a12.801 12.801 0 00.351.02q.398.017.948.023a53.85 53.85 0 00.531.002l1.62-.015q.266-.014.598-.015a16.961 16.961 0 01.047 0 6.163 6.163 0 011.016.078q1.03.173 1.669.724a2.635 2.635 0 01.919 1.864 3.673 3.673 0 01.011.289q0 .825-.367 1.583-.368.757-1.245 1.267a3.394 3.394 0 01-.861.344q-.642.166-1.472.166zm55.545 4.29l-.87-.015q-.84-.03-1.23-.03a55.62 55.62 0 00-.577.003q-.81.008-1.283.042v-.3a6.242 6.242 0 00.252-.019q.35-.033.536-.101a.533.533 0 00.319-.299.682.682 0 00.018-.046q.09-.255.09-.825V2.73q0-.57-.09-.825a.582.582 0 00-.114-.197.543.543 0 00-.223-.148 1.307 1.307 0 00-.163-.046q-.179-.04-.444-.062a6.652 6.652 0 00-.181-.012v-.3a9.162 9.162 0 00.288.02q.47.025 1.167.025l1.275-.015a163.608 163.608 0 01.414-.012q.681-.018.951-.018a8.452 8.452 0 011.494.123q1.563.281 2.481 1.204a4.249 4.249 0 011.04 1.783q.206.669.26 1.477a8.925 8.925 0 01.02.603 7.042 7.042 0 01-.142 1.444 5.443 5.443 0 01-.503 1.421q-.645 1.23-1.867 1.898a5.323 5.323 0 01-1.616.556 7.312 7.312 0 01-1.302.111zM47.235 7.035v3.18a1.867 1.867 0 00.03.346q.079.418.368.614a1.304 1.304 0 00.337.159q.324.104.791.111a4.541 4.541 0 00.064 0v.315l-.36-.015a306.802 306.802 0 00-.535-.015q-1.074-.03-1.415-.03-.378 0-1.687.056a218.727 218.727 0 00-.083.004v-.315q.527 0 .792-.163a.62.62 0 00.093-.07.642.642 0 00.155-.228q.1-.235.1-.619V5.67a2.959 2.959 0 00-.02-.356q-.051-.422-.235-.649-.255-.315-.885-.315v-.315a10.097 10.097 0 00.817.044 9.113 9.113 0 00.113.001 7.018 7.018 0 00.637-.027q.297-.027.552-.082a3.246 3.246 0 00.371-.101v1.875q.27-.75.863-1.335a2.23 2.23 0 01.482-.368 1.685 1.685 0 01.83-.217 1.705 1.705 0 01.451.057 1.289 1.289 0 01.532.288 1.177 1.177 0 01.274.356 1.085 1.085 0 01.108.484 1.09 1.09 0 01-.061.37.969.969 0 01-.172.297.757.757 0 01-.55.276 1.037 1.037 0 01-.072.002.86.86 0 01-.323-.059.799.799 0 01-.239-.151.692.692 0 01-.223-.43.987.987 0 01-.01-.14.853.853 0 01.293-.647 1.398 1.398 0 01.217-.163.342.342 0 00-.246-.146.519.519 0 00-.069-.004 1.445 1.445 0 00-.877.299 1.973 1.973 0 00-.188.158 3.145 3.145 0 00-.688.976 3.663 3.663 0 00-.062.142 3.895 3.895 0 00-.194.602 2.87 2.87 0 00-.076.643zM10.965 0v10.365a2.336 2.336 0 00.016.284q.048.389.239.564.229.208.758.229a3.109 3.109 0 00.127.003v.315a159.577 159.577 0 00-.559-.023q-.701-.028-1.065-.035a10.797 10.797 0 00-.191-.002 11.849 11.849 0 00-.236.003q-.501.01-1.579.057v-.315q.527 0 .792-.163a.62.62 0 00.093-.07.642.642 0 00.155-.228q.1-.235.1-.619V1.8a2.959 2.959 0 00-.02-.356q-.051-.422-.235-.649Q9.105.48 8.475.48V.165q.465.045.93.045a7.018 7.018 0 00.637-.027q.297-.027.552-.082A3.246 3.246 0 0010.965 0zM88.2 0v10.365a2.336 2.336 0 00.016.284q.048.389.239.564.229.208.758.229a3.109 3.109 0 00.127.003v.315a159.577 159.577 0 00-.559-.023q-.701-.028-1.065-.035a10.797 10.797 0 00-.191-.002 11.849 11.849 0 00-.236.003q-.501.01-1.579.057v-.315q.527 0 .792-.163a.62.62 0 00.093-.07.642.642 0 00.155-.228q.1-.235.1-.619V1.8a2.959 2.959 0 00-.02-.356q-.051-.422-.235-.649Q86.34.48 85.71.48V.165q.465.045.93.045a7.018 7.018 0 00.637-.027q.297-.027.552-.082A3.246 3.246 0 0088.2 0zM57.96 2.7v7.5a5.206 5.206 0 00.007.282q.018.334.083.528a.7.7 0 00.095.191.559.559 0 00.227.184q.204.092.597.103a3.978 3.978 0 00.116.002 7.093 7.093 0 00.971-.062q.919-.127 1.534-.515a3.009 3.009 0 001.209-1.485 3.827 3.827 0 00.074-.203 6.328 6.328 0 00.223-.919q.081-.471.117-1.019a13.954 13.954 0 00.027-.897 12.095 12.095 0 00-.048-1.111q-.091-.988-.357-1.701a3.395 3.395 0 00-.51-.926 2.903 2.903 0 00-.802-.702q-.908-.54-2.453-.54a3.312 3.312 0 00-.243.008q-.287.022-.454.097a.574.574 0 00-.294.3.796.796 0 00-.029.075q-.09.27-.09.81zM42.84 3.87v6.495a2.336 2.336 0 00.016.284q.048.389.239.564.229.208.758.229a3.109 3.109 0 00.127.003v.315a159.577 159.577 0 00-.559-.023q-.701-.028-1.065-.035a10.797 10.797 0 00-.191-.002 11.849 11.849 0 00-.236.003q-.501.01-1.579.057v-.315q.527 0 .792-.163a.62.62 0 00.093-.07.642.642 0 00.155-.228q.1-.235.1-.619V5.67a2.959 2.959 0 00-.02-.356q-.051-.422-.235-.649-.255-.315-.885-.315v-.315a10.097 10.097 0 00.817.044 9.113 9.113 0 00.113.001 7.018 7.018 0 00.637-.027q.297-.027.552-.082a3.246 3.246 0 00.371-.101zm25.65 0v6.495a2.336 2.336 0 00.016.284q.048.389.239.564.229.208.758.229a3.109 3.109 0 00.127.003v.315a159.577 159.577 0 00-.559-.023q-.701-.028-1.065-.035a10.797 10.797 0 00-.191-.002 11.849 11.849 0 00-.236.003q-.501.01-1.579.057v-.315q.527 0 .792-.163a.62.62 0 00.093-.07.642.642 0 00.155-.228q.1-.235.1-.619V5.67a2.959 2.959 0 00-.02-.356q-.051-.422-.235-.649Q66.63 4.35 66 4.35v-.315a10.097 10.097 0 00.817.044 9.113 9.113 0 00.113.001 7.018 7.018 0 00.637-.027q.297-.027.552-.082a3.246 3.246 0 00.371-.101zm10.995 2.295v4.5q.21.435.615.698a1.61 1.61 0 00.615.233 2.159 2.159 0 00.36.029q1.997 0 2.135-3.354a12.573 12.573 0 00.01-.516q0-2.065-.613-2.905a1.326 1.326 0 00-1.127-.575 1.743 1.743 0 00-1.13.414 2.258 2.258 0 00-.085.074 2.311 2.311 0 00-.483.627q-.183.339-.297.775zM2.61 2.73v4.44h1.005a4.284 4.284 0 00.717-.056q.377-.064.669-.202a1.64 1.64 0 00.647-.529 2.801 2.801 0 00.412-.888q.15-.539.15-1.22a5.852 5.852 0 00-.046-.758q-.116-.891-.531-1.387a1.737 1.737 0 00-.738-.507q-.289-.108-.649-.153a4.32 4.32 0 00-.526-.03 3.312 3.312 0 00-.243.008q-.287.022-.454.097a.574.574 0 00-.294.3.796.796 0 00-.029.075q-.09.27-.09.81zm14.625 7.395v-2.94a1.012 1.012 0 01-.289.292 1.23 1.23 0 01-.086.053 4.575 4.575 0 01-.136.073q-.157.081-.381.186a20.935 20.935 0 01-.218.101 9.952 9.952 0 00-.382.17q-.315.148-.54.288a1.958 1.958 0 00-.509.457 2.324 2.324 0 00-.099.135 1.403 1.403 0 00-.201.465q-.046.19-.053.412a2.582 2.582 0 00-.001.083 2.201 2.201 0 00.032.389q.071.393.298.631.33.345.87.345a1.663 1.663 0 001.113-.434q.234-.202.444-.498a3.91 3.91 0 00.138-.208zm20.01 0v-2.94a1.012 1.012 0 01-.289.292 1.23 1.23 0 01-.086.053 4.575 4.575 0 01-.136.073q-.157.081-.381.186a20.935 20.935 0 01-.218.101 9.952 9.952 0 00-.382.17q-.315.148-.54.288a1.958 1.958 0 00-.509.457 2.324 2.324 0 00-.099.135 1.403 1.403 0 00-.201.465q-.046.19-.053.412a2.582 2.582 0 00-.001.083 2.201 2.201 0 00.032.389q.071.393.298.631.33.345.87.345a1.663 1.663 0 001.113-.434q.234-.202.444-.498a3.91 3.91 0 00.138-.208zm57.225 0v-2.94a1.012 1.012 0 01-.289.292 1.23 1.23 0 01-.086.053 4.575 4.575 0 01-.136.073q-.157.081-.381.186a20.935 20.935 0 01-.218.101 9.952 9.952 0 00-.382.17q-.315.148-.54.288a1.958 1.958 0 00-.509.457 2.324 2.324 0 00-.099.135 1.403 1.403 0 00-.201.465q-.046.19-.053.412a2.582 2.582 0 00-.001.083 2.201 2.201 0 00.032.389q.071.393.298.631.33.345.87.345a1.663 1.663 0 001.113-.434q.234-.202.444-.498a3.91 3.91 0 00.138-.208zM42.726.561a.921.921 0 00-.666-.276.93.93 0 00-.343.063.97.97 0 00-.332.222 1.17 1.17 0 00-.009.009.921.921 0 00-.276.666.93.93 0 00.063.343.97.97 0 00.222.332 1.17 1.17 0 00.009.009.921.921 0 00.666.276.93.93 0 00.343-.063.97.97 0 00.332-.222 1.17 1.17 0 00.009-.009.921.921 0 00.276-.666.93.93 0 00-.063-.343.97.97 0 00-.222-.332 1.17 1.17 0 00-.009-.009zm25.65 0a.921.921 0 00-.666-.276.93.93 0 00-.343.063.97.97 0 00-.332.222 1.17 1.17 0 00-.009.009.921.921 0 00-.276.666.93.93 0 00.063.343.97.97 0 00.222.332 1.17 1.17 0 00.009.009.921.921 0 00.666.276.93.93 0 00.343-.063.97.97 0 00.332-.222 1.17 1.17 0 00.009-.009.921.921 0 00.276-.666.93.93 0 00-.063-.343.97.97 0 00-.222-.332 1.17 1.17 0 00-.009-.009z" vector-effect="non-scaling-stroke" stroke-linecap="round" fill-rule="evenodd" font-size="12" stroke="#000" stroke-width=".25mm" fill="none"/></svg>