<svg width="104.55" height="14.58" viewBox="0 0 104.55 14.58"><title>Playfair Display</title><g id="svgGroup" stroke-linecap="round" fill-rule="evenodd" font-size="9pt" stroke="#000" stroke-width="0.25mm" fill="none" style="stroke:#000;stroke-width:0.25mm;fill:none"><path d="M 27.315 4.035 L 27.315 4.335 Q 27.015 4.365 26.783 4.605 Q 26.572 4.822 26.38 5.286 A 4.841 4.841 0 0 0 26.34 5.385 L 23.88 11.835 L 23.37 13.14 Q 23.085 13.875 22.725 14.19 A 1.293 1.293 0 0 1 22.224 14.478 A 1.509 1.509 0 0 1 22.185 14.49 Q 21.87 14.58 21.555 14.58 A 1.379 1.379 0 0 1 21.229 14.543 A 0.986 0.986 0 0 1 20.82 14.34 A 0.786 0.786 0 0 1 20.542 13.807 A 1.123 1.123 0 0 1 20.535 13.68 A 1.003 1.003 0 0 1 20.565 13.43 A 0.721 0.721 0 0 1 20.745 13.102 A 0.689 0.689 0 0 1 21.092 12.911 A 1.041 1.041 0 0 1 21.33 12.885 A 0.956 0.956 0 0 1 21.588 12.918 A 0.744 0.744 0 0 1 21.878 13.072 A 0.614 0.614 0 0 1 22.087 13.467 A 0.887 0.887 0 0 1 22.095 13.59 A 0.784 0.784 0 0 1 22.033 13.907 Q 21.937 14.128 21.69 14.265 A 0.112 0.112 0 0 0 21.712 14.273 Q 21.735 14.279 21.769 14.28 A 0.445 0.445 0 0 0 21.78 14.28 A 1.077 1.077 0 0 0 22.597 13.902 Q 22.753 13.732 22.886 13.484 A 3.331 3.331 0 0 0 23.055 13.11 L 23.58 11.745 L 20.865 5.19 A 3.351 3.351 0 0 0 20.726 4.937 Q 20.58 4.7 20.435 4.575 A 0.739 0.739 0 0 0 20.355 4.515 Q 20.1 4.35 19.845 4.35 L 19.845 4.035 Q 20.447 4.119 21.206 4.125 A 14.802 14.802 0 0 0 21.315 4.125 Q 22.057 4.125 23.239 4.037 A 50.673 50.673 0 0 0 23.265 4.035 L 23.265 4.35 Q 22.839 4.35 22.594 4.406 A 0.999 0.999 0 0 0 22.478 4.44 Q 22.23 4.53 22.23 4.875 A 1.366 1.366 0 0 0 22.259 5.147 Q 22.303 5.36 22.41 5.61 L 24.21 10.08 L 25.875 5.745 A 4.526 4.526 0 0 0 25.947 5.533 Q 26.016 5.312 26.034 5.155 A 0.894 0.894 0 0 0 26.04 5.055 A 0.692 0.692 0 0 0 26.009 4.841 A 0.532 0.532 0 0 0 25.77 4.545 Q 25.534 4.4 25.055 4.348 A 4.34 4.34 0 0 0 24.915 4.335 L 24.915 4.035 A 41.07 41.07 0 0 0 25.292 4.055 Q 25.826 4.08 26.175 4.08 A 16.533 16.533 0 0 0 26.645 4.074 Q 27.015 4.063 27.315 4.035 Z M 104.55 4.035 L 104.55 4.335 Q 104.25 4.365 104.018 4.605 Q 103.807 4.822 103.615 5.286 A 4.841 4.841 0 0 0 103.575 5.385 L 101.115 11.835 L 100.605 13.14 Q 100.32 13.875 99.96 14.19 A 1.293 1.293 0 0 1 99.459 14.478 A 1.509 1.509 0 0 1 99.42 14.49 Q 99.105 14.58 98.79 14.58 A 1.379 1.379 0 0 1 98.464 14.543 A 0.986 0.986 0 0 1 98.055 14.34 A 0.786 0.786 0 0 1 97.777 13.807 A 1.123 1.123 0 0 1 97.77 13.68 A 1.003 1.003 0 0 1 97.8 13.43 A 0.721 0.721 0 0 1 97.98 13.102 A 0.689 0.689 0 0 1 98.327 12.911 A 1.041 1.041 0 0 1 98.565 12.885 A 0.956 0.956 0 0 1 98.823 12.918 A 0.744 0.744 0 0 1 99.113 13.072 A 0.614 0.614 0 0 1 99.322 13.467 A 0.887 0.887 0 0 1 99.33 13.59 A 0.784 0.784 0 0 1 99.268 13.907 Q 99.172 14.128 98.925 14.265 A 0.112 0.112 0 0 0 98.947 14.273 Q 98.97 14.279 99.004 14.28 A 0.445 0.445 0 0 0 99.015 14.28 A 1.077 1.077 0 0 0 99.832 13.902 Q 99.988 13.732 100.121 13.484 A 3.331 3.331 0 0 0 100.29 13.11 L 100.815 11.745 L 98.1 5.19 A 3.351 3.351 0 0 0 97.961 4.937 Q 97.815 4.7 97.67 4.575 A 0.739 0.739 0 0 0 97.59 4.515 Q 97.335 4.35 97.08 4.35 L 97.08 4.035 Q 97.682 4.119 98.441 4.125 A 14.802 14.802 0 0 0 98.55 4.125 Q 99.292 4.125 100.474 4.037 A 50.673 50.673 0 0 0 100.5 4.035 L 100.5 4.35 Q 100.074 4.35 99.829 4.406 A 0.999 0.999 0 0 0 99.713 4.44 Q 99.465 4.53 99.465 4.875 A 1.366 1.366 0 0 0 99.494 5.147 Q 99.538 5.36 99.645 5.61 L 101.445 10.08 L 103.11 5.745 A 4.526 4.526 0 0 0 103.182 5.533 Q 103.251 5.312 103.269 5.155 A 0.894 0.894 0 0 0 103.275 5.055 A 0.692 0.692 0 0 0 103.244 4.841 A 0.532 0.532 0 0 0 103.005 4.545 Q 102.769 4.4 102.29 4.348 A 4.34 4.34 0 0 0 102.15 4.335 L 102.15 4.035 A 41.07 41.07 0 0 0 102.527 4.055 Q 103.061 4.08 103.41 4.08 A 16.533 16.533 0 0 0 103.88 4.074 Q 104.25 4.063 104.55 4.035 Z M 30.405 3.66 L 30.405 4.05 L 32.01 4.05 L 32.01 4.35 L 30.405 4.35 L 30.405 10.215 A 1.867 1.867 0 0 0 30.435 10.561 Q 30.514 10.979 30.803 11.175 A 1.304 1.304 0 0 0 31.14 11.334 Q 31.464 11.438 31.931 11.445 A 4.541 4.541 0 0 0 31.995 11.445 L 31.995 11.76 L 31.635 11.745 A 306.802 306.802 0 0 0 31.1 11.73 Q 30.026 11.7 29.685 11.7 Q 29.307 11.7 27.998 11.756 A 218.727 218.727 0 0 0 27.915 11.76 L 27.915 11.445 Q 28.442 11.445 28.707 11.282 A 0.62 0.62 0 0 0 28.8 11.212 A 0.642 0.642 0 0 0 28.955 10.984 Q 29.055 10.749 29.055 10.365 L 29.055 4.35 L 27.855 4.35 L 27.855 4.05 L 29.055 4.05 Q 29.055 2.861 29.189 2.159 A 4.128 4.128 0 0 1 29.22 2.01 A 3.032 3.032 0 0 1 29.511 1.229 A 2.642 2.642 0 0 1 29.82 0.78 Q 30.12 0.435 30.585 0.232 A 2.459 2.459 0 0 1 31.4 0.037 A 2.912 2.912 0 0 1 31.605 0.03 A 2.483 2.483 0 0 1 32.218 0.102 A 1.876 1.876 0 0 1 32.91 0.435 Q 33.375 0.81 33.375 1.365 A 0.866 0.866 0 0 1 33.33 1.651 A 0.742 0.742 0 0 1 33.15 1.935 A 0.76 0.76 0 0 1 32.638 2.158 A 1.013 1.013 0 0 1 32.58 2.16 A 0.908 0.908 0 0 1 32.261 2.106 A 0.819 0.819 0 0 1 31.995 1.942 A 0.716 0.716 0 0 1 31.766 1.507 A 1.027 1.027 0 0 1 31.755 1.35 A 0.937 0.937 0 0 1 31.78 1.126 A 0.663 0.663 0 0 1 31.927 0.84 A 0.785 0.785 0 0 1 32.281 0.613 A 1.012 1.012 0 0 1 32.385 0.585 Q 32.34 0.435 32.145 0.345 A 0.888 0.888 0 0 0 31.958 0.284 Q 31.821 0.255 31.65 0.255 A 1.239 1.239 0 0 0 31.321 0.297 A 1.05 1.05 0 0 0 31.065 0.405 Q 30.81 0.555 30.675 0.81 A 1.321 1.321 0 0 0 30.579 1.038 Q 30.493 1.302 30.458 1.695 A 8.863 8.863 0 0 0 30.435 2.037 Q 30.408 2.563 30.405 3.447 A 67.712 67.712 0 0 0 30.405 3.66 Z M 75.315 3.84 L 75.66 3.84 A 12.088 12.088 0 0 0 75.634 4.275 Q 75.604 4.949 75.6 6.11 A 102.175 102.175 0 0 0 75.6 6.39 L 75.255 6.39 A 4.684 4.684 0 0 0 75.061 5.616 Q 74.891 5.128 74.618 4.755 Q 74.145 4.11 73.215 4.11 A 1.55 1.55 0 0 0 72.809 4.161 A 1.167 1.167 0 0 0 72.33 4.417 A 1.009 1.009 0 0 0 72.004 5.025 A 1.462 1.462 0 0 0 71.985 5.265 A 1.258 1.258 0 0 0 72.075 5.747 A 1.175 1.175 0 0 0 72.345 6.142 Q 72.705 6.495 73.5 6.99 A 2.664 2.664 0 0 1 73.576 7.034 Q 73.703 7.11 73.905 7.245 A 18.97 18.97 0 0 1 74.347 7.542 Q 74.543 7.678 74.71 7.802 A 8.315 8.315 0 0 1 75.015 8.04 Q 75.435 8.385 75.698 8.835 A 1.929 1.929 0 0 1 75.946 9.603 A 2.414 2.414 0 0 1 75.96 9.87 A 2.109 2.109 0 0 1 75.847 10.576 A 1.768 1.768 0 0 1 75.217 11.415 A 2.759 2.759 0 0 1 73.98 11.925 A 3.706 3.706 0 0 1 73.395 11.97 A 3.676 3.676 0 0 1 72.803 11.925 A 2.691 2.691 0 0 1 72.21 11.76 Q 71.88 11.595 71.595 11.355 A 0.221 0.221 0 0 0 71.544 11.316 A 0.174 0.174 0 0 0 71.46 11.295 A 0.155 0.155 0 0 0 71.365 11.329 Q 71.317 11.365 71.275 11.44 A 0.623 0.623 0 0 0 71.272 11.445 Q 71.217 11.546 71.179 11.701 A 2.145 2.145 0 0 0 71.145 11.864 L 70.8 11.865 A 16.26 16.26 0 0 0 70.826 11.358 Q 70.856 10.568 70.86 9.196 A 142.621 142.621 0 0 0 70.86 8.865 L 71.205 8.865 A 9.229 9.229 0 0 0 71.327 9.639 Q 71.499 10.482 71.805 10.973 Q 72.231 11.655 73.246 11.67 A 3.103 3.103 0 0 0 73.29 11.67 Q 73.815 11.67 74.22 11.325 A 1.072 1.072 0 0 0 74.542 10.831 Q 74.6 10.653 74.618 10.436 A 2.398 2.398 0 0 0 74.625 10.245 A 1.42 1.42 0 0 0 74.506 9.659 A 1.376 1.376 0 0 0 74.228 9.255 Q 73.83 8.85 72.93 8.28 A 31.244 31.244 0 0 1 72.584 8.058 Q 72.21 7.814 71.948 7.626 A 8.363 8.363 0 0 1 71.798 7.515 Q 71.4 7.215 71.13 6.78 A 1.79 1.79 0 0 1 70.879 6.06 A 2.3 2.3 0 0 1 70.86 5.76 A 2.253 2.253 0 0 1 70.934 5.164 A 1.572 1.572 0 0 1 71.49 4.32 Q 72.12 3.825 73.08 3.825 A 3.017 3.017 0 0 1 73.582 3.865 A 2.291 2.291 0 0 1 74.04 3.99 A 2.932 2.932 0 0 1 74.354 4.134 Q 74.51 4.217 74.633 4.313 A 1.59 1.59 0 0 1 74.715 4.38 Q 74.848 4.477 74.942 4.495 A 0.22 0.22 0 0 0 74.985 4.5 Q 75.255 4.5 75.315 3.84 Z M 79.485 11.16 L 79.485 13.08 A 1.641 1.641 0 0 0 79.51 13.38 Q 79.581 13.757 79.845 13.928 A 1.207 1.207 0 0 0 80.148 14.064 Q 80.442 14.154 80.866 14.16 A 4.323 4.323 0 0 0 80.925 14.16 L 80.925 14.475 L 80.58 14.46 A 226.276 226.276 0 0 0 80.016 14.442 Q 79.093 14.415 78.765 14.415 A 8.821 8.821 0 0 0 78.564 14.418 Q 78.129 14.428 77.145 14.475 L 77.145 14.16 Q 77.6 14.16 77.828 14.024 A 0.526 0.526 0 0 0 77.918 13.958 A 0.562 0.562 0 0 0 78.05 13.76 Q 78.123 13.586 78.133 13.317 A 2.341 2.341 0 0 0 78.135 13.23 L 78.135 5.67 A 2.959 2.959 0 0 0 78.115 5.314 Q 78.064 4.892 77.88 4.665 Q 77.625 4.35 76.995 4.35 L 76.995 4.035 Q 77.46 4.08 77.925 4.08 A 7.018 7.018 0 0 0 78.562 4.053 Q 78.859 4.026 79.114 3.971 A 3.246 3.246 0 0 0 79.485 3.87 L 79.485 5.46 A 2.932 2.932 0 0 1 79.916 4.735 A 2.492 2.492 0 0 1 80.445 4.253 A 2.488 2.488 0 0 1 81.809 3.826 A 3.023 3.023 0 0 1 81.885 3.825 Q 82.68 3.825 83.318 4.26 Q 83.955 4.695 84.315 5.535 Q 84.675 6.375 84.675 7.545 A 6.423 6.423 0 0 1 84.468 9.193 A 5.825 5.825 0 0 1 84.308 9.705 A 3.86 3.86 0 0 1 83.661 10.851 A 3.549 3.549 0 0 1 83.168 11.34 A 2.766 2.766 0 0 1 81.827 11.926 A 3.737 3.737 0 0 1 81.24 11.97 Q 80.67 11.97 80.205 11.745 A 2.125 2.125 0 0 1 79.815 11.504 A 1.654 1.654 0 0 1 79.485 11.16 Z M 17.235 6.57 L 17.235 5.64 Q 17.235 4.907 16.974 4.563 A 0.776 0.776 0 0 0 16.868 4.447 A 1.216 1.216 0 0 0 16.403 4.198 Q 16.155 4.125 15.84 4.125 A 3.207 3.207 0 0 0 15.312 4.165 Q 14.671 4.273 14.355 4.665 Q 14.655 4.74 14.858 4.98 A 0.851 0.851 0 0 1 15.049 5.418 A 1.145 1.145 0 0 1 15.06 5.58 A 0.943 0.943 0 0 1 15.026 5.839 A 0.7 0.7 0 0 1 14.82 6.172 Q 14.58 6.39 14.205 6.39 A 1.067 1.067 0 0 1 13.957 6.363 Q 13.766 6.318 13.637 6.195 A 0.664 0.664 0 0 1 13.575 6.128 A 0.955 0.955 0 0 1 13.371 5.617 A 1.243 1.243 0 0 1 13.365 5.49 A 1.24 1.24 0 0 1 13.393 5.217 A 0.888 0.888 0 0 1 13.538 4.89 Q 13.71 4.65 14.055 4.41 A 2.5 2.5 0 0 1 14.432 4.192 Q 14.673 4.078 14.97 3.99 Q 15.525 3.825 16.185 3.825 A 3.935 3.935 0 0 1 16.857 3.879 Q 17.541 3.997 17.955 4.38 Q 18.33 4.725 18.458 5.213 A 3.29 3.29 0 0 1 18.53 5.584 Q 18.558 5.779 18.571 6.006 A 8.146 8.146 0 0 1 18.585 6.495 L 18.585 10.665 A 2.127 2.127 0 0 0 18.592 10.849 Q 18.608 11.031 18.658 11.145 A 0.446 0.446 0 0 0 18.69 11.205 Q 18.795 11.37 19.05 11.37 Q 19.23 11.37 19.388 11.288 A 1.546 1.546 0 0 0 19.53 11.202 Q 19.624 11.139 19.725 11.055 L 19.89 11.31 A 5.87 5.87 0 0 1 19.657 11.481 Q 19.421 11.644 19.235 11.732 A 1.728 1.728 0 0 1 19.223 11.738 A 1.277 1.277 0 0 1 18.952 11.825 Q 18.821 11.852 18.668 11.861 A 2.53 2.53 0 0 1 18.525 11.865 A 2.258 2.258 0 0 1 18.173 11.84 Q 17.729 11.769 17.52 11.505 Q 17.27 11.189 17.239 10.675 A 2.462 2.462 0 0 1 17.235 10.53 A 3.566 3.566 0 0 1 16.886 11.019 Q 16.57 11.387 16.2 11.573 A 2.78 2.78 0 0 1 15.238 11.847 A 3.434 3.434 0 0 1 14.88 11.865 A 3.007 3.007 0 0 1 14.362 11.823 Q 14.081 11.774 13.859 11.666 A 1.347 1.347 0 0 1 13.477 11.393 A 1.558 1.558 0 0 1 13.091 10.686 Q 13.029 10.446 13.021 10.162 A 2.986 2.986 0 0 1 13.02 10.08 A 2.032 2.032 0 0 1 13.079 9.576 A 1.5 1.5 0 0 1 13.388 8.97 Q 13.755 8.535 14.258 8.28 A 6.936 6.936 0 0 1 14.641 8.101 Q 14.842 8.014 15.078 7.924 A 16.483 16.483 0 0 1 15.585 7.74 Q 16.425 7.455 16.83 7.215 A 0.992 0.992 0 0 0 17.044 7.049 A 0.669 0.669 0 0 0 17.235 6.57 Z M 37.245 6.57 L 37.245 5.64 Q 37.245 4.907 36.984 4.563 A 0.776 0.776 0 0 0 36.878 4.447 A 1.216 1.216 0 0 0 36.413 4.198 Q 36.165 4.125 35.85 4.125 A 3.207 3.207 0 0 0 35.322 4.165 Q 34.681 4.273 34.365 4.665 Q 34.665 4.74 34.868 4.98 A 0.851 0.851 0 0 1 35.059 5.418 A 1.145 1.145 0 0 1 35.07 5.58 A 0.943 0.943 0 0 1 35.036 5.839 A 0.7 0.7 0 0 1 34.83 6.172 Q 34.59 6.39 34.215 6.39 A 1.067 1.067 0 0 1 33.967 6.363 Q 33.776 6.318 33.647 6.195 A 0.664 0.664 0 0 1 33.585 6.128 A 0.955 0.955 0 0 1 33.381 5.617 A 1.243 1.243 0 0 1 33.375 5.49 A 1.24 1.24 0 0 1 33.403 5.217 A 0.888 0.888 0 0 1 33.548 4.89 Q 33.72 4.65 34.065 4.41 A 2.5 2.5 0 0 1 34.442 4.192 Q 34.683 4.078 34.98 3.99 Q 35.535 3.825 36.195 3.825 A 3.935 3.935 0 0 1 36.867 3.879 Q 37.551 3.997 37.965 4.38 Q 38.34 4.725 38.468 5.213 A 3.29 3.29 0 0 1 38.54 5.584 Q 38.568 5.779 38.581 6.006 A 8.146 8.146 0 0 1 38.595 6.495 L 38.595 10.665 A 2.127 2.127 0 0 0 38.602 10.849 Q 38.618 11.031 38.668 11.145 A 0.446 0.446 0 0 0 38.7 11.205 Q 38.805 11.37 39.06 11.37 Q 39.24 11.37 39.398 11.288 A 1.546 1.546 0 0 0 39.54 11.202 Q 39.634 11.139 39.735 11.055 L 39.9 11.31 A 5.87 5.87 0 0 1 39.667 11.481 Q 39.431 11.644 39.245 11.732 A 1.728 1.728 0 0 1 39.233 11.738 A 1.277 1.277 0 0 1 38.962 11.825 Q 38.831 11.852 38.678 11.861 A 2.53 2.53 0 0 1 38.535 11.865 A 2.258 2.258 0 0 1 38.183 11.84 Q 37.739 11.769 37.53 11.505 Q 37.28 11.189 37.249 10.675 A 2.462 2.462 0 0 1 37.245 10.53 A 3.566 3.566 0 0 1 36.896 11.019 Q 36.58 11.387 36.21 11.573 A 2.78 2.78 0 0 1 35.248 11.847 A 3.434 3.434 0 0 1 34.89 11.865 A 3.007 3.007 0 0 1 34.372 11.823 Q 34.091 11.774 33.869 11.666 A 1.347 1.347 0 0 1 33.487 11.393 A 1.558 1.558 0 0 1 33.101 10.686 Q 33.039 10.446 33.031 10.162 A 2.986 2.986 0 0 1 33.03 10.08 A 2.032 2.032 0 0 1 33.089 9.576 A 1.5 1.5 0 0 1 33.398 8.97 Q 33.765 8.535 34.268 8.28 A 6.936 6.936 0 0 1 34.651 8.101 Q 34.852 8.014 35.088 7.924 A 16.483 16.483 0 0 1 35.595 7.74 Q 36.435 7.455 36.84 7.215 A 0.992 0.992 0 0 0 37.054 7.049 A 0.669 0.669 0 0 0 37.245 6.57 Z M 94.47 6.57 L 94.47 5.64 Q 94.47 4.907 94.209 4.563 A 0.776 0.776 0 0 0 94.103 4.447 A 1.216 1.216 0 0 0 93.638 4.198 Q 93.39 4.125 93.075 4.125 A 3.207 3.207 0 0 0 92.547 4.165 Q 91.906 4.273 91.59 4.665 Q 91.89 4.74 92.093 4.98 A 0.851 0.851 0 0 1 92.284 5.418 A 1.145 1.145 0 0 1 92.295 5.58 A 0.943 0.943 0 0 1 92.261 5.839 A 0.7 0.7 0 0 1 92.055 6.172 Q 91.815 6.39 91.44 6.39 A 1.067 1.067 0 0 1 91.192 6.363 Q 91.001 6.318 90.872 6.195 A 0.664 0.664 0 0 1 90.81 6.128 A 0.955 0.955 0 0 1 90.606 5.617 A 1.243 1.243 0 0 1 90.6 5.49 A 1.24 1.24 0 0 1 90.628 5.217 A 0.888 0.888 0 0 1 90.773 4.89 Q 90.945 4.65 91.29 4.41 A 2.5 2.5 0 0 1 91.667 4.192 Q 91.908 4.078 92.205 3.99 Q 92.76 3.825 93.42 3.825 A 3.935 3.935 0 0 1 94.092 3.879 Q 94.776 3.997 95.19 4.38 Q 95.565 4.725 95.693 5.213 A 3.29 3.29 0 0 1 95.765 5.584 Q 95.793 5.779 95.806 6.006 A 8.146 8.146 0 0 1 95.82 6.495 L 95.82 10.665 A 2.127 2.127 0 0 0 95.827 10.849 Q 95.843 11.031 95.893 11.145 A 0.446 0.446 0 0 0 95.925 11.205 Q 96.03 11.37 96.285 11.37 Q 96.465 11.37 96.623 11.288 A 1.546 1.546 0 0 0 96.765 11.202 Q 96.859 11.139 96.96 11.055 L 97.125 11.31 A 5.87 5.87 0 0 1 96.892 11.481 Q 96.656 11.644 96.47 11.732 A 1.728 1.728 0 0 1 96.458 11.738 A 1.277 1.277 0 0 1 96.187 11.825 Q 96.056 11.852 95.903 11.861 A 2.53 2.53 0 0 1 95.76 11.865 A 2.258 2.258 0 0 1 95.408 11.84 Q 94.964 11.769 94.755 11.505 Q 94.505 11.189 94.474 10.675 A 2.462 2.462 0 0 1 94.47 10.53 A 3.566 3.566 0 0 1 94.121 11.019 Q 93.805 11.387 93.435 11.573 A 2.78 2.78 0 0 1 92.473 11.847 A 3.434 3.434 0 0 1 92.115 11.865 A 3.007 3.007 0 0 1 91.597 11.823 Q 91.316 11.774 91.094 11.666 A 1.347 1.347 0 0 1 90.712 11.393 A 1.558 1.558 0 0 1 90.326 10.686 Q 90.264 10.446 90.256 10.162 A 2.986 2.986 0 0 1 90.255 10.08 A 2.032 2.032 0 0 1 90.314 9.576 A 1.5 1.5 0 0 1 90.623 8.97 Q 90.99 8.535 91.493 8.28 A 6.936 6.936 0 0 1 91.876 8.101 Q 92.077 8.014 92.313 7.924 A 16.483 16.483 0 0 1 92.82 7.74 Q 93.66 7.455 94.065 7.215 A 0.992 0.992 0 0 0 94.279 7.049 A 0.669 0.669 0 0 0 94.47 6.57 Z M 3.765 7.47 L 2.61 7.47 L 2.61 10.17 A 4.308 4.308 0 0 0 2.618 10.451 Q 2.636 10.72 2.691 10.893 A 0.819 0.819 0 0 0 2.73 10.995 A 0.621 0.621 0 0 0 3.069 11.311 A 0.862 0.862 0 0 0 3.15 11.34 A 1.786 1.786 0 0 0 3.336 11.384 Q 3.535 11.421 3.828 11.443 A 9.744 9.744 0 0 0 4.125 11.46 L 4.125 11.76 A 19.902 19.902 0 0 0 3.695 11.74 Q 2.989 11.715 1.92 11.715 A 60.592 60.592 0 0 0 1.316 11.718 Q 0.473 11.726 0 11.76 L 0 11.46 A 6.242 6.242 0 0 0 0.252 11.441 Q 0.602 11.408 0.788 11.34 A 0.533 0.533 0 0 0 1.107 11.041 A 0.682 0.682 0 0 0 1.125 10.995 Q 1.215 10.74 1.215 10.17 L 1.215 2.73 Q 1.215 2.16 1.125 1.905 A 0.582 0.582 0 0 0 1.011 1.708 A 0.543 0.543 0 0 0 0.788 1.56 A 1.307 1.307 0 0 0 0.625 1.514 Q 0.446 1.474 0.181 1.452 A 6.652 6.652 0 0 0 0 1.44 L 0 1.14 A 12.801 12.801 0 0 0 0.351 1.16 Q 0.749 1.177 1.299 1.183 A 53.85 53.85 0 0 0 1.83 1.185 L 3.45 1.17 Q 3.716 1.156 4.048 1.155 A 16.961 16.961 0 0 1 4.095 1.155 A 6.163 6.163 0 0 1 5.111 1.233 Q 6.141 1.406 6.78 1.957 A 2.635 2.635 0 0 1 7.699 3.821 A 3.673 3.673 0 0 1 7.71 4.11 Q 7.71 4.935 7.343 5.693 Q 6.975 6.45 6.098 6.96 A 3.394 3.394 0 0 1 5.237 7.304 Q 4.595 7.47 3.765 7.47 Z M 59.31 11.76 L 58.44 11.745 Q 57.6 11.715 57.21 11.715 A 55.62 55.62 0 0 0 56.633 11.718 Q 55.823 11.726 55.35 11.76 L 55.35 11.46 A 6.242 6.242 0 0 0 55.602 11.441 Q 55.952 11.408 56.138 11.34 A 0.533 0.533 0 0 0 56.457 11.041 A 0.682 0.682 0 0 0 56.475 10.995 Q 56.565 10.74 56.565 10.17 L 56.565 2.73 Q 56.565 2.16 56.475 1.905 A 0.582 0.582 0 0 0 56.361 1.708 A 0.543 0.543 0 0 0 56.138 1.56 A 1.307 1.307 0 0 0 55.975 1.514 Q 55.796 1.474 55.531 1.452 A 6.652 6.652 0 0 0 55.35 1.44 L 55.35 1.14 A 9.162 9.162 0 0 0 55.638 1.16 Q 56.108 1.185 56.805 1.185 L 58.08 1.17 A 163.608 163.608 0 0 1 58.494 1.158 Q 59.175 1.14 59.445 1.14 A 8.452 8.452 0 0 1 60.939 1.263 Q 62.502 1.544 63.42 2.467 A 4.249 4.249 0 0 1 64.46 4.25 Q 64.666 4.919 64.72 5.727 A 8.925 8.925 0 0 1 64.74 6.33 A 7.042 7.042 0 0 1 64.598 7.774 A 5.443 5.443 0 0 1 64.095 9.195 Q 63.45 10.425 62.228 11.093 A 5.323 5.323 0 0 1 60.612 11.649 A 7.312 7.312 0 0 1 59.31 11.76 Z M 47.235 7.035 L 47.235 10.215 A 1.867 1.867 0 0 0 47.265 10.561 Q 47.344 10.979 47.633 11.175 A 1.304 1.304 0 0 0 47.97 11.334 Q 48.294 11.438 48.761 11.445 A 4.541 4.541 0 0 0 48.825 11.445 L 48.825 11.76 L 48.465 11.745 A 306.802 306.802 0 0 0 47.93 11.73 Q 46.856 11.7 46.515 11.7 Q 46.137 11.7 44.828 11.756 A 218.727 218.727 0 0 0 44.745 11.76 L 44.745 11.445 Q 45.272 11.445 45.537 11.282 A 0.62 0.62 0 0 0 45.63 11.212 A 0.642 0.642 0 0 0 45.785 10.984 Q 45.885 10.749 45.885 10.365 L 45.885 5.67 A 2.959 2.959 0 0 0 45.865 5.314 Q 45.814 4.892 45.63 4.665 Q 45.375 4.35 44.745 4.35 L 44.745 4.035 A 10.097 10.097 0 0 0 45.562 4.079 A 9.113 9.113 0 0 0 45.675 4.08 A 7.018 7.018 0 0 0 46.312 4.053 Q 46.609 4.026 46.864 3.971 A 3.246 3.246 0 0 0 47.235 3.87 L 47.235 5.745 Q 47.505 4.995 48.098 4.41 A 2.23 2.23 0 0 1 48.58 4.042 A 1.685 1.685 0 0 1 49.41 3.825 A 1.705 1.705 0 0 1 49.861 3.882 A 1.289 1.289 0 0 1 50.393 4.17 A 1.177 1.177 0 0 1 50.667 4.526 A 1.085 1.085 0 0 1 50.775 5.01 A 1.09 1.09 0 0 1 50.714 5.38 A 0.969 0.969 0 0 1 50.542 5.677 A 0.757 0.757 0 0 1 49.992 5.953 A 1.037 1.037 0 0 1 49.92 5.955 A 0.86 0.86 0 0 1 49.597 5.896 A 0.799 0.799 0 0 1 49.358 5.745 A 0.692 0.692 0 0 1 49.135 5.315 A 0.987 0.987 0 0 1 49.125 5.175 A 0.853 0.853 0 0 1 49.418 4.528 A 1.398 1.398 0 0 1 49.635 4.365 A 0.342 0.342 0 0 0 49.389 4.219 A 0.519 0.519 0 0 0 49.32 4.215 A 1.445 1.445 0 0 0 48.443 4.514 A 1.973 1.973 0 0 0 48.255 4.672 A 3.145 3.145 0 0 0 47.567 5.648 A 3.663 3.663 0 0 0 47.505 5.79 A 3.895 3.895 0 0 0 47.311 6.392 A 2.87 2.87 0 0 0 47.235 7.035 Z M 10.965 0 L 10.965 10.365 A 2.336 2.336 0 0 0 10.981 10.649 Q 11.029 11.038 11.22 11.213 Q 11.449 11.421 11.978 11.442 A 3.109 3.109 0 0 0 12.105 11.445 L 12.105 11.76 A 159.577 159.577 0 0 0 11.546 11.737 Q 10.845 11.709 10.481 11.702 A 10.797 10.797 0 0 0 10.29 11.7 A 11.849 11.849 0 0 0 10.054 11.703 Q 9.553 11.713 8.475 11.76 L 8.475 11.445 Q 9.002 11.445 9.267 11.282 A 0.62 0.62 0 0 0 9.36 11.212 A 0.642 0.642 0 0 0 9.515 10.984 Q 9.615 10.749 9.615 10.365 L 9.615 1.8 A 2.959 2.959 0 0 0 9.595 1.444 Q 9.544 1.022 9.36 0.795 Q 9.105 0.48 8.475 0.48 L 8.475 0.165 Q 8.94 0.21 9.405 0.21 A 7.018 7.018 0 0 0 10.042 0.183 Q 10.339 0.156 10.594 0.101 A 3.246 3.246 0 0 0 10.965 0 Z M 88.2 0 L 88.2 10.365 A 2.336 2.336 0 0 0 88.216 10.649 Q 88.264 11.038 88.455 11.213 Q 88.684 11.421 89.213 11.442 A 3.109 3.109 0 0 0 89.34 11.445 L 89.34 11.76 A 159.577 159.577 0 0 0 88.781 11.737 Q 88.08 11.709 87.716 11.702 A 10.797 10.797 0 0 0 87.525 11.7 A 11.849 11.849 0 0 0 87.289 11.703 Q 86.788 11.713 85.71 11.76 L 85.71 11.445 Q 86.237 11.445 86.502 11.282 A 0.62 0.62 0 0 0 86.595 11.212 A 0.642 0.642 0 0 0 86.75 10.984 Q 86.85 10.749 86.85 10.365 L 86.85 1.8 A 2.959 2.959 0 0 0 86.83 1.444 Q 86.779 1.022 86.595 0.795 Q 86.34 0.48 85.71 0.48 L 85.71 0.165 Q 86.175 0.21 86.64 0.21 A 7.018 7.018 0 0 0 87.277 0.183 Q 87.574 0.156 87.829 0.101 A 3.246 3.246 0 0 0 88.2 0 Z M 57.96 2.7 L 57.96 10.2 A 5.206 5.206 0 0 0 57.967 10.482 Q 57.985 10.816 58.05 11.01 A 0.7 0.7 0 0 0 58.145 11.201 A 0.559 0.559 0 0 0 58.372 11.385 Q 58.576 11.477 58.969 11.488 A 3.978 3.978 0 0 0 59.085 11.49 A 7.093 7.093 0 0 0 60.056 11.428 Q 60.975 11.301 61.59 10.913 A 3.009 3.009 0 0 0 62.799 9.428 A 3.827 3.827 0 0 0 62.873 9.225 A 6.328 6.328 0 0 0 63.096 8.306 Q 63.177 7.835 63.213 7.287 A 13.954 13.954 0 0 0 63.24 6.39 A 12.095 12.095 0 0 0 63.192 5.279 Q 63.101 4.291 62.835 3.578 A 3.395 3.395 0 0 0 62.325 2.652 A 2.903 2.903 0 0 0 61.523 1.95 Q 60.615 1.41 59.07 1.41 A 3.312 3.312 0 0 0 58.827 1.418 Q 58.54 1.44 58.373 1.515 A 0.574 0.574 0 0 0 58.079 1.815 A 0.796 0.796 0 0 0 58.05 1.89 Q 57.96 2.16 57.96 2.7 Z M 42.84 3.87 L 42.84 10.365 A 2.336 2.336 0 0 0 42.856 10.649 Q 42.904 11.038 43.095 11.213 Q 43.324 11.421 43.853 11.442 A 3.109 3.109 0 0 0 43.98 11.445 L 43.98 11.76 A 159.577 159.577 0 0 0 43.421 11.737 Q 42.72 11.709 42.356 11.702 A 10.797 10.797 0 0 0 42.165 11.7 A 11.849 11.849 0 0 0 41.929 11.703 Q 41.428 11.713 40.35 11.76 L 40.35 11.445 Q 40.877 11.445 41.142 11.282 A 0.62 0.62 0 0 0 41.235 11.212 A 0.642 0.642 0 0 0 41.39 10.984 Q 41.49 10.749 41.49 10.365 L 41.49 5.67 A 2.959 2.959 0 0 0 41.47 5.314 Q 41.419 4.892 41.235 4.665 Q 40.98 4.35 40.35 4.35 L 40.35 4.035 A 10.097 10.097 0 0 0 41.167 4.079 A 9.113 9.113 0 0 0 41.28 4.08 A 7.018 7.018 0 0 0 41.917 4.053 Q 42.214 4.026 42.469 3.971 A 3.246 3.246 0 0 0 42.84 3.87 Z M 68.49 3.87 L 68.49 10.365 A 2.336 2.336 0 0 0 68.506 10.649 Q 68.554 11.038 68.745 11.213 Q 68.974 11.421 69.503 11.442 A 3.109 3.109 0 0 0 69.63 11.445 L 69.63 11.76 A 159.577 159.577 0 0 0 69.071 11.737 Q 68.37 11.709 68.006 11.702 A 10.797 10.797 0 0 0 67.815 11.7 A 11.849 11.849 0 0 0 67.579 11.703 Q 67.078 11.713 66 11.76 L 66 11.445 Q 66.527 11.445 66.792 11.282 A 0.62 0.62 0 0 0 66.885 11.212 A 0.642 0.642 0 0 0 67.04 10.984 Q 67.14 10.749 67.14 10.365 L 67.14 5.67 A 2.959 2.959 0 0 0 67.12 5.314 Q 67.069 4.892 66.885 4.665 Q 66.63 4.35 66 4.35 L 66 4.035 A 10.097 10.097 0 0 0 66.817 4.079 A 9.113 9.113 0 0 0 66.93 4.08 A 7.018 7.018 0 0 0 67.567 4.053 Q 67.864 4.026 68.119 3.971 A 3.246 3.246 0 0 0 68.49 3.87 Z M 79.485 6.165 L 79.485 10.665 Q 79.695 11.1 80.1 11.363 A 1.61 1.61 0 0 0 80.715 11.596 A 2.159 2.159 0 0 0 81.075 11.625 Q 83.072 11.625 83.21 8.271 A 12.573 12.573 0 0 0 83.22 7.755 Q 83.22 5.69 82.607 4.85 A 1.326 1.326 0 0 0 81.48 4.275 A 1.743 1.743 0 0 0 80.35 4.689 A 2.258 2.258 0 0 0 80.265 4.763 A 2.311 2.311 0 0 0 79.782 5.39 Q 79.599 5.729 79.485 6.165 Z M 2.61 2.73 L 2.61 7.17 L 3.615 7.17 A 4.284 4.284 0 0 0 4.332 7.114 Q 4.709 7.05 5.001 6.912 A 1.64 1.64 0 0 0 5.648 6.383 A 2.801 2.801 0 0 0 6.06 5.495 Q 6.21 4.956 6.21 4.275 A 5.852 5.852 0 0 0 6.164 3.517 Q 6.048 2.626 5.633 2.13 A 1.737 1.737 0 0 0 4.895 1.623 Q 4.606 1.515 4.246 1.47 A 4.32 4.32 0 0 0 3.72 1.44 A 3.312 3.312 0 0 0 3.477 1.448 Q 3.19 1.47 3.023 1.545 A 0.574 0.574 0 0 0 2.729 1.845 A 0.796 0.796 0 0 0 2.7 1.92 Q 2.61 2.19 2.61 2.73 Z M 17.235 10.125 L 17.235 7.185 A 1.012 1.012 0 0 1 16.946 7.477 A 1.23 1.23 0 0 1 16.86 7.53 A 4.575 4.575 0 0 1 16.724 7.603 Q 16.567 7.684 16.343 7.789 A 20.935 20.935 0 0 1 16.125 7.89 A 9.952 9.952 0 0 0 15.743 8.06 Q 15.428 8.208 15.203 8.348 A 1.958 1.958 0 0 0 14.694 8.805 A 2.324 2.324 0 0 0 14.595 8.94 A 1.403 1.403 0 0 0 14.394 9.405 Q 14.348 9.595 14.341 9.817 A 2.582 2.582 0 0 0 14.34 9.9 A 2.201 2.201 0 0 0 14.372 10.289 Q 14.443 10.682 14.67 10.92 Q 15 11.265 15.54 11.265 A 1.663 1.663 0 0 0 16.653 10.831 Q 16.887 10.629 17.097 10.333 A 3.91 3.91 0 0 0 17.235 10.125 Z M 37.245 10.125 L 37.245 7.185 A 1.012 1.012 0 0 1 36.956 7.477 A 1.23 1.23 0 0 1 36.87 7.53 A 4.575 4.575 0 0 1 36.734 7.603 Q 36.577 7.684 36.353 7.789 A 20.935 20.935 0 0 1 36.135 7.89 A 9.952 9.952 0 0 0 35.753 8.06 Q 35.438 8.208 35.213 8.348 A 1.958 1.958 0 0 0 34.704 8.805 A 2.324 2.324 0 0 0 34.605 8.94 A 1.403 1.403 0 0 0 34.404 9.405 Q 34.358 9.595 34.351 9.817 A 2.582 2.582 0 0 0 34.35 9.9 A 2.201 2.201 0 0 0 34.382 10.289 Q 34.453 10.682 34.68 10.92 Q 35.01 11.265 35.55 11.265 A 1.663 1.663 0 0 0 36.663 10.831 Q 36.897 10.629 37.107 10.333 A 3.91 3.91 0 0 0 37.245 10.125 Z M 94.47 10.125 L 94.47 7.185 A 1.012 1.012 0 0 1 94.181 7.477 A 1.23 1.23 0 0 1 94.095 7.53 A 4.575 4.575 0 0 1 93.959 7.603 Q 93.802 7.684 93.578 7.789 A 20.935 20.935 0 0 1 93.36 7.89 A 9.952 9.952 0 0 0 92.978 8.06 Q 92.663 8.208 92.438 8.348 A 1.958 1.958 0 0 0 91.929 8.805 A 2.324 2.324 0 0 0 91.83 8.94 A 1.403 1.403 0 0 0 91.629 9.405 Q 91.583 9.595 91.576 9.817 A 2.582 2.582 0 0 0 91.575 9.9 A 2.201 2.201 0 0 0 91.607 10.289 Q 91.678 10.682 91.905 10.92 Q 92.235 11.265 92.775 11.265 A 1.663 1.663 0 0 0 93.888 10.831 Q 94.122 10.629 94.332 10.333 A 3.91 3.91 0 0 0 94.47 10.125 Z M 42.726 0.561 A 0.921 0.921 0 0 0 42.06 0.285 A 0.93 0.93 0 0 0 41.717 0.348 A 0.97 0.97 0 0 0 41.385 0.57 A 1.17 1.17 0 0 0 41.376 0.579 A 0.921 0.921 0 0 0 41.1 1.245 A 0.93 0.93 0 0 0 41.163 1.588 A 0.97 0.97 0 0 0 41.385 1.92 A 1.17 1.17 0 0 0 41.394 1.929 A 0.921 0.921 0 0 0 42.06 2.205 A 0.93 0.93 0 0 0 42.403 2.142 A 0.97 0.97 0 0 0 42.735 1.92 A 1.17 1.17 0 0 0 42.744 1.911 A 0.921 0.921 0 0 0 43.02 1.245 A 0.93 0.93 0 0 0 42.957 0.902 A 0.97 0.97 0 0 0 42.735 0.57 A 1.17 1.17 0 0 0 42.726 0.561 Z M 68.376 0.561 A 0.921 0.921 0 0 0 67.71 0.285 A 0.93 0.93 0 0 0 67.367 0.348 A 0.97 0.97 0 0 0 67.035 0.57 A 1.17 1.17 0 0 0 67.026 0.579 A 0.921 0.921 0 0 0 66.75 1.245 A 0.93 0.93 0 0 0 66.813 1.588 A 0.97 0.97 0 0 0 67.035 1.92 A 1.17 1.17 0 0 0 67.044 1.929 A 0.921 0.921 0 0 0 67.71 2.205 A 0.93 0.93 0 0 0 68.053 2.142 A 0.97 0.97 0 0 0 68.385 1.92 A 1.17 1.17 0 0 0 68.394 1.911 A 0.921 0.921 0 0 0 68.67 1.245 A 0.93 0.93 0 0 0 68.607 0.902 A 0.97 0.97 0 0 0 68.385 0.57 A 1.17 1.17 0 0 0 68.376 0.561 Z" vector-effect="non-scaling-stroke"/></g></svg>
