<svg width="79.71" height="10.86" viewBox="0 0 79.71 10.86"><title>PT Sans Narrow</title><g id="svgGroup" stroke-linecap="round" fill-rule="evenodd" font-size="9pt" stroke="#000" stroke-width="0.25mm" fill="none" style="stroke:#000;stroke-width:0.25mm;fill:none"><path d="M 48.705 10.845 L 44.85 4.02 L 44.205 2.37 L 44.16 2.37 L 44.325 4.02 L 44.325 10.68 L 43.245 10.68 L 43.245 0.015 L 43.92 0.015 L 47.805 6.825 L 48.42 8.4 L 48.48 8.4 L 48.315 6.825 L 48.315 0.18 L 49.395 0.18 L 49.395 10.845 L 48.705 10.845 Z M 75.015 3.18 L 75.81 3.18 L 77.145 7.56 L 77.415 9 L 77.445 9 L 77.67 7.53 L 78.69 3.18 L 79.71 3.18 L 77.715 10.845 L 77.1 10.845 L 75.585 5.925 L 75.375 4.665 L 75.345 4.665 L 75.135 5.94 L 73.665 10.845 L 73.05 10.845 L 70.995 3.18 L 72.15 3.18 L 73.305 7.545 L 73.485 9 L 73.515 9 L 73.785 7.515 L 75.015 3.18 Z M 15.525 10.32 L 15.915 9.285 Q 16.2 9.48 16.718 9.653 Q 17.235 9.825 17.895 9.825 Q 18.665 9.825 19.171 9.478 A 1.719 1.719 0 0 0 19.26 9.413 A 1.297 1.297 0 0 0 19.702 8.745 Q 19.768 8.524 19.782 8.255 A 2.797 2.797 0 0 0 19.785 8.115 A 1.924 1.924 0 0 0 19.705 7.552 A 1.643 1.643 0 0 0 19.485 7.095 A 3.753 3.753 0 0 0 18.951 6.48 A 4.381 4.381 0 0 0 18.735 6.293 A 13.656 13.656 0 0 0 17.928 5.683 A 15.283 15.283 0 0 0 17.768 5.573 Q 17.25 5.22 16.8 4.793 Q 16.35 4.365 16.05 3.81 A 2.412 2.412 0 0 1 15.807 3.114 Q 15.751 2.821 15.75 2.486 A 4.05 4.05 0 0 1 15.75 2.475 Q 15.75 1.54 16.167 0.965 A 1.838 1.838 0 0 1 16.508 0.608 A 2.668 2.668 0 0 1 17.584 0.096 Q 17.996 0 18.48 0 A 7.13 7.13 0 0 1 19.147 0.03 Q 19.482 0.061 19.776 0.126 A 4.323 4.323 0 0 1 19.815 0.135 A 4.821 4.821 0 0 1 20.214 0.244 Q 20.403 0.305 20.56 0.377 A 2.256 2.256 0 0 1 20.76 0.48 L 20.4 1.47 A 1.812 1.812 0 0 0 20.192 1.363 Q 19.969 1.263 19.649 1.176 A 6.006 6.006 0 0 0 19.627 1.17 Q 19.157 1.044 18.549 1.036 A 6.306 6.306 0 0 0 18.465 1.035 A 2.621 2.621 0 0 0 18.021 1.07 Q 17.539 1.153 17.265 1.433 A 1.348 1.348 0 0 0 16.877 2.338 A 1.776 1.776 0 0 0 16.875 2.43 Q 16.875 2.955 17.175 3.36 A 3.874 3.874 0 0 0 17.633 3.872 A 4.768 4.768 0 0 0 17.925 4.125 Q 18.375 4.485 18.893 4.853 Q 19.41 5.22 19.86 5.67 Q 20.31 6.12 20.61 6.69 A 2.546 2.546 0 0 1 20.86 7.441 A 3.466 3.466 0 0 1 20.91 8.04 Q 20.91 9.36 20.13 10.11 A 2.543 2.543 0 0 1 19.048 10.716 Q 18.548 10.86 17.925 10.86 A 8.121 8.121 0 0 1 17.344 10.841 Q 16.826 10.803 16.448 10.695 A 5.59 5.59 0 0 1 16.078 10.576 Q 15.896 10.51 15.744 10.438 A 2.468 2.468 0 0 1 15.525 10.32 Z M 33.255 10.68 L 32.175 10.68 L 32.175 6.105 A 7.673 7.673 0 0 0 32.156 5.551 Q 32.117 5.012 31.995 4.67 A 1.505 1.505 0 0 0 31.913 4.478 A 0.888 0.888 0 0 0 31.269 4.003 A 1.472 1.472 0 0 0 30.975 3.975 A 1.641 1.641 0 0 0 30.506 4.039 A 1.307 1.307 0 0 0 29.985 4.335 Q 29.595 4.695 29.415 5.22 L 29.415 10.68 L 28.335 10.68 L 28.335 3.18 L 29.115 3.18 L 29.31 3.975 L 29.355 3.975 A 2.275 2.275 0 0 1 29.856 3.465 A 2.843 2.843 0 0 1 30.128 3.285 A 2.046 2.046 0 0 1 30.81 3.04 A 2.756 2.756 0 0 1 31.29 3 A 2.904 2.904 0 0 1 31.715 3.03 A 2.125 2.125 0 0 1 32.137 3.135 Q 32.505 3.27 32.753 3.593 A 1.736 1.736 0 0 1 32.946 3.916 Q 33.022 4.078 33.079 4.272 A 3.382 3.382 0 0 1 33.127 4.455 A 4.153 4.153 0 0 1 33.205 4.9 Q 33.233 5.128 33.245 5.39 A 9.237 9.237 0 0 1 33.255 5.82 L 33.255 10.68 Z M 12.12 0.18 L 12.12 1.215 L 9.54 1.215 L 9.54 10.68 L 8.415 10.68 L 8.415 1.215 L 5.835 1.215 L 5.835 0.18 L 12.12 0.18 Z M 0 10.68 L 0 0.285 A 5.298 5.298 0 0 1 0.82 0.125 A 6.039 6.039 0 0 1 1.02 0.105 Q 1.56 0.06 2.085 0.06 Q 2.685 0.06 3.27 0.195 Q 3.855 0.33 4.328 0.69 A 2.376 2.376 0 0 1 4.87 1.279 A 3.091 3.091 0 0 1 5.093 1.68 A 2.855 2.855 0 0 1 5.29 2.285 Q 5.385 2.729 5.385 3.285 Q 5.385 4.089 5.184 4.687 A 2.944 2.944 0 0 1 5.107 4.89 Q 4.83 5.55 4.373 5.963 Q 3.915 6.375 3.323 6.563 Q 2.73 6.75 2.1 6.75 L 1.905 6.75 A 5.44 5.44 0 0 1 1.712 6.746 A 6.376 6.376 0 0 1 1.62 6.743 Q 1.47 6.735 1.328 6.72 Q 1.22 6.709 1.16 6.697 A 0.594 0.594 0 0 1 1.125 6.69 L 1.125 10.68 L 0 10.68 Z M 22.62 4.485 L 22.26 3.63 Q 22.695 3.36 23.318 3.21 A 5.496 5.496 0 0 1 24.437 3.063 A 6.22 6.22 0 0 1 24.63 3.06 A 3.451 3.451 0 0 1 25.032 3.082 Q 25.231 3.105 25.397 3.154 A 1.527 1.527 0 0 1 25.642 3.248 A 1.603 1.603 0 0 1 26.039 3.518 A 1.413 1.413 0 0 1 26.243 3.758 A 1.801 1.801 0 0 1 26.513 4.413 A 2.103 2.103 0 0 1 26.527 4.493 A 5.244 5.244 0 0 1 26.593 5.215 A 5.885 5.885 0 0 1 26.595 5.355 Q 26.595 6.255 26.558 7.11 A 39.054 39.054 0 0 0 26.524 8.243 A 32.967 32.967 0 0 0 26.52 8.73 A 15.3 15.3 0 0 0 26.532 9.345 A 12.148 12.148 0 0 0 26.558 9.788 A 6.034 6.034 0 0 0 26.652 10.489 A 5.296 5.296 0 0 0 26.7 10.71 L 25.875 10.71 L 25.62 9.825 L 25.56 9.825 A 1.88 1.88 0 0 1 25.157 10.307 A 2.402 2.402 0 0 1 24.9 10.5 Q 24.465 10.785 23.73 10.785 A 1.9 1.9 0 0 1 23.057 10.67 A 1.688 1.688 0 0 1 22.403 10.223 A 1.868 1.868 0 0 1 21.977 9.429 Q 21.885 9.088 21.885 8.67 A 3.166 3.166 0 0 1 21.918 8.198 Q 21.955 7.952 22.034 7.745 A 1.727 1.727 0 0 1 22.102 7.59 Q 22.32 7.155 22.718 6.885 A 2.387 2.387 0 0 1 23.288 6.604 A 3.044 3.044 0 0 1 23.662 6.503 A 5.334 5.334 0 0 1 24.28 6.415 A 7.089 7.089 0 0 1 24.885 6.39 L 25.185 6.39 Q 25.335 6.39 25.5 6.405 A 10.758 10.758 0 0 0 25.531 6.018 Q 25.541 5.841 25.544 5.683 A 6.121 6.121 0 0 0 25.545 5.58 A 4.55 4.55 0 0 0 25.529 5.184 Q 25.494 4.79 25.385 4.545 A 0.888 0.888 0 0 0 25.29 4.38 A 0.748 0.748 0 0 0 24.966 4.135 Q 24.724 4.035 24.36 4.035 A 3.21 3.21 0 0 0 23.893 4.071 A 4.322 4.322 0 0 0 23.445 4.163 A 4.128 4.128 0 0 0 23.07 4.277 Q 22.816 4.369 22.62 4.485 Z M 51.525 4.485 L 51.165 3.63 Q 51.6 3.36 52.223 3.21 A 5.496 5.496 0 0 1 53.342 3.063 A 6.22 6.22 0 0 1 53.535 3.06 A 3.451 3.451 0 0 1 53.937 3.082 Q 54.136 3.105 54.302 3.154 A 1.527 1.527 0 0 1 54.547 3.248 A 1.603 1.603 0 0 1 54.944 3.518 A 1.413 1.413 0 0 1 55.148 3.758 A 1.801 1.801 0 0 1 55.418 4.413 A 2.103 2.103 0 0 1 55.432 4.493 A 5.244 5.244 0 0 1 55.498 5.215 A 5.885 5.885 0 0 1 55.5 5.355 Q 55.5 6.255 55.463 7.11 A 39.054 39.054 0 0 0 55.429 8.243 A 32.967 32.967 0 0 0 55.425 8.73 A 15.3 15.3 0 0 0 55.437 9.345 A 12.148 12.148 0 0 0 55.463 9.788 A 6.034 6.034 0 0 0 55.557 10.489 A 5.296 5.296 0 0 0 55.605 10.71 L 54.78 10.71 L 54.525 9.825 L 54.465 9.825 A 1.88 1.88 0 0 1 54.062 10.307 A 2.402 2.402 0 0 1 53.805 10.5 Q 53.37 10.785 52.635 10.785 A 1.9 1.9 0 0 1 51.962 10.67 A 1.688 1.688 0 0 1 51.308 10.223 A 1.868 1.868 0 0 1 50.882 9.429 Q 50.79 9.088 50.79 8.67 A 3.166 3.166 0 0 1 50.823 8.198 Q 50.86 7.952 50.939 7.745 A 1.727 1.727 0 0 1 51.007 7.59 Q 51.225 7.155 51.623 6.885 A 2.387 2.387 0 0 1 52.193 6.604 A 3.044 3.044 0 0 1 52.567 6.503 A 5.334 5.334 0 0 1 53.185 6.415 A 7.089 7.089 0 0 1 53.79 6.39 L 54.09 6.39 Q 54.24 6.39 54.405 6.405 A 10.758 10.758 0 0 0 54.436 6.018 Q 54.446 5.841 54.449 5.683 A 6.121 6.121 0 0 0 54.45 5.58 A 4.55 4.55 0 0 0 54.434 5.184 Q 54.399 4.79 54.29 4.545 A 0.888 0.888 0 0 0 54.195 4.38 A 0.748 0.748 0 0 0 53.871 4.135 Q 53.629 4.035 53.265 4.035 A 3.21 3.21 0 0 0 52.798 4.071 A 4.322 4.322 0 0 0 52.35 4.163 A 4.128 4.128 0 0 0 51.975 4.277 Q 51.721 4.369 51.525 4.485 Z M 34.47 10.395 L 34.8 9.45 Q 35.1 9.63 35.513 9.758 Q 35.925 9.885 36.36 9.885 Q 36.855 9.885 37.2 9.638 Q 37.521 9.407 37.543 8.91 A 1.687 1.687 0 0 0 37.545 8.835 A 1.691 1.691 0 0 0 37.514 8.503 Q 37.473 8.298 37.377 8.136 A 1.015 1.015 0 0 0 37.335 8.07 A 2.293 2.293 0 0 0 36.938 7.638 A 2.685 2.685 0 0 0 36.803 7.53 A 5.68 5.68 0 0 0 36.152 7.113 A 6.221 6.221 0 0 0 36.105 7.088 Q 35.73 6.885 35.408 6.6 Q 35.085 6.315 34.875 5.925 Q 34.696 5.594 34.67 5.11 A 3.169 3.169 0 0 1 34.665 4.935 A 2.84 2.84 0 0 1 34.716 4.381 Q 34.78 4.058 34.926 3.81 A 1.452 1.452 0 0 1 35.183 3.488 Q 35.641 3.055 36.436 3.006 A 3.394 3.394 0 0 1 36.645 3 Q 37.171 3 37.576 3.082 A 3.07 3.07 0 0 1 37.71 3.113 Q 38.16 3.225 38.49 3.42 L 38.205 4.32 A 2.715 2.715 0 0 0 37.866 4.172 A 3.591 3.591 0 0 0 37.545 4.073 Q 37.17 3.975 36.78 3.975 A 2.055 2.055 0 0 0 36.499 3.993 Q 36.176 4.037 35.999 4.194 A 0.618 0.618 0 0 0 35.992 4.2 Q 35.745 4.425 35.745 4.905 A 1.114 1.114 0 0 0 35.791 5.232 A 0.926 0.926 0 0 0 35.955 5.543 A 2.186 2.186 0 0 0 36.261 5.853 A 2.743 2.743 0 0 0 36.487 6.023 A 14.645 14.645 0 0 0 36.911 6.297 A 17.443 17.443 0 0 0 37.185 6.465 Q 37.56 6.69 37.883 6.998 A 2.543 2.543 0 0 1 38.375 7.653 A 2.9 2.9 0 0 1 38.415 7.733 A 1.892 1.892 0 0 1 38.562 8.165 Q 38.625 8.452 38.625 8.805 Q 38.625 9.225 38.49 9.6 Q 38.355 9.975 38.078 10.253 A 1.916 1.916 0 0 1 37.612 10.592 A 2.364 2.364 0 0 1 37.388 10.695 Q 36.975 10.86 36.42 10.86 A 5.772 5.772 0 0 1 35.913 10.839 Q 35.658 10.816 35.436 10.77 A 3.115 3.115 0 0 1 35.28 10.733 A 3.543 3.543 0 0 1 34.889 10.605 Q 34.656 10.513 34.47 10.395 Z M 57.24 10.68 L 57.24 3.18 L 58.005 3.18 L 58.2 3.975 L 58.245 3.975 Q 58.455 3.54 58.793 3.293 Q 59.13 3.045 59.61 3.045 A 2.118 2.118 0 0 1 59.941 3.073 Q 60.152 3.106 60.39 3.18 L 60.18 4.275 A 2.904 2.904 0 0 0 59.9 4.193 Q 59.754 4.158 59.623 4.146 A 1.472 1.472 0 0 0 59.49 4.14 A 1.356 1.356 0 0 0 59.142 4.182 A 1.005 1.005 0 0 0 58.71 4.418 A 1.235 1.235 0 0 0 58.387 4.913 A 1.643 1.643 0 0 0 58.32 5.16 L 58.32 10.68 L 57.24 10.68 Z M 61.35 10.68 L 61.35 3.18 L 62.115 3.18 L 62.31 3.975 L 62.355 3.975 Q 62.565 3.54 62.903 3.293 Q 63.24 3.045 63.72 3.045 A 2.118 2.118 0 0 1 64.051 3.073 Q 64.262 3.106 64.5 3.18 L 64.29 4.275 A 2.904 2.904 0 0 0 64.01 4.193 Q 63.864 4.158 63.733 4.146 A 1.472 1.472 0 0 0 63.6 4.14 A 1.356 1.356 0 0 0 63.252 4.182 A 1.005 1.005 0 0 0 62.82 4.418 A 1.235 1.235 0 0 0 62.497 4.913 A 1.643 1.643 0 0 0 62.43 5.16 L 62.43 10.68 L 61.35 10.68 Z M 65.13 6.93 Q 65.13 4.905 65.828 3.953 A 2.247 2.247 0 0 1 67.464 3.019 A 3.182 3.182 0 0 1 67.815 3 A 3.076 3.076 0 0 1 68.624 3.1 A 2.083 2.083 0 0 1 69.848 3.975 Q 70.465 4.898 70.498 6.722 A 11.536 11.536 0 0 1 70.5 6.93 Q 70.5 8.779 69.921 9.729 A 2.414 2.414 0 0 1 69.795 9.915 A 2.268 2.268 0 0 1 68.134 10.844 A 3.164 3.164 0 0 1 67.815 10.86 A 3.076 3.076 0 0 1 67.006 10.76 A 2.083 2.083 0 0 1 65.783 9.885 Q 65.165 8.962 65.132 7.138 A 11.536 11.536 0 0 1 65.13 6.93 Z M 66.255 6.93 Q 66.255 7.59 66.338 8.13 A 4.003 4.003 0 0 0 66.434 8.589 Q 66.496 8.814 66.582 9.006 A 2.397 2.397 0 0 0 66.608 9.06 A 1.801 1.801 0 0 0 66.816 9.397 A 1.412 1.412 0 0 0 67.095 9.668 A 1.138 1.138 0 0 0 67.631 9.874 A 1.479 1.479 0 0 0 67.815 9.885 A 1.367 1.367 0 0 0 68.365 9.779 Q 68.679 9.642 68.895 9.332 A 1.726 1.726 0 0 0 68.985 9.188 Q 69.315 8.598 69.366 7.392 A 10.948 10.948 0 0 0 69.375 6.93 A 8.871 8.871 0 0 0 69.349 6.235 A 7.051 7.051 0 0 0 69.293 5.738 Q 69.217 5.238 69.055 4.87 A 2.369 2.369 0 0 0 69.022 4.8 A 1.801 1.801 0 0 0 68.814 4.463 A 1.412 1.412 0 0 0 68.535 4.193 A 1.138 1.138 0 0 0 67.999 3.986 A 1.479 1.479 0 0 0 67.815 3.975 A 1.302 1.302 0 0 0 67.225 4.105 Q 66.955 4.24 66.757 4.515 A 1.784 1.784 0 0 0 66.653 4.68 A 2.382 2.382 0 0 0 66.443 5.202 Q 66.297 5.719 66.264 6.476 A 10.574 10.574 0 0 0 66.255 6.93 Z M 1.125 1.185 L 1.125 5.655 A 0.251 0.251 0 0 0 1.168 5.671 Q 1.211 5.684 1.275 5.69 A 1.092 1.092 0 0 0 1.313 5.693 A 80.343 80.343 0 0 0 1.558 5.707 A 87.711 87.711 0 0 0 1.575 5.708 A 4.761 4.761 0 0 0 1.822 5.715 A 4.374 4.374 0 0 0 1.838 5.715 L 2.025 5.715 Q 2.445 5.715 2.835 5.61 Q 3.225 5.505 3.525 5.228 A 1.737 1.737 0 0 0 3.819 4.866 Q 3.928 4.692 4.013 4.478 A 2.383 2.383 0 0 0 4.134 4.053 Q 4.2 3.713 4.2 3.285 Q 4.2 2.793 4.095 2.43 A 1.898 1.898 0 0 0 4.028 2.235 A 2.183 2.183 0 0 0 3.843 1.878 A 1.633 1.633 0 0 0 3.577 1.56 Q 3.3 1.305 2.925 1.2 Q 2.55 1.095 2.145 1.095 A 7.302 7.302 0 0 0 1.672 1.11 A 6.527 6.527 0 0 0 1.567 1.118 Q 1.29 1.14 1.125 1.185 Z M 25.515 8.85 L 25.515 7.26 Q 25.365 7.245 25.215 7.238 Q 25.065 7.23 24.915 7.23 Q 24.555 7.23 24.21 7.29 A 2.103 2.103 0 0 0 23.827 7.393 A 1.747 1.747 0 0 0 23.595 7.5 Q 23.325 7.65 23.168 7.905 A 0.999 0.999 0 0 0 23.047 8.204 Q 23.017 8.332 23.011 8.48 A 1.843 1.843 0 0 0 23.01 8.55 A 1.979 1.979 0 0 0 23.041 8.915 Q 23.106 9.258 23.303 9.48 A 0.955 0.955 0 0 0 24.001 9.809 A 1.265 1.265 0 0 0 24.06 9.81 Q 24.69 9.81 25.035 9.51 Q 25.38 9.21 25.515 8.85 Z M 54.42 8.85 L 54.42 7.26 Q 54.27 7.245 54.12 7.238 Q 53.97 7.23 53.82 7.23 Q 53.46 7.23 53.115 7.29 A 2.103 2.103 0 0 0 52.732 7.393 A 1.747 1.747 0 0 0 52.5 7.5 Q 52.23 7.65 52.073 7.905 A 0.999 0.999 0 0 0 51.952 8.204 Q 51.922 8.332 51.916 8.48 A 1.843 1.843 0 0 0 51.915 8.55 A 1.979 1.979 0 0 0 51.946 8.915 Q 52.011 9.258 52.208 9.48 A 0.955 0.955 0 0 0 52.906 9.809 A 1.265 1.265 0 0 0 52.965 9.81 Q 53.595 9.81 53.94 9.51 Q 54.285 9.21 54.42 8.85 Z" vector-effect="non-scaling-stroke"/></g></svg>
