<svg width="47.865" height="10.86"><path d="M25.665.48l-.375 1.095a2.666 2.666 0 00-.245-.101q-.307-.111-.767-.214-.663-.149-1.495-.15a9.34 9.34 0 00-.013 0 3.542 3.542 0 00-.544.039q-.287.045-.517.141a1.495 1.495 0 00-.424.263 1.593 1.593 0 00-.318.381 1.286 1.286 0 00-.177.661q0 .585.375.975a3.467 3.467 0 00.508.431 4.502 4.502 0 00.43.267 17.34 17.34 0 00.741.381 20.838 20.838 0 00.481.226q.66.3 1.223.698.562.397.937.952a2.126 2.126 0 01.315.765 3.012 3.012 0 01.06.615 3.266 3.266 0 01-.072.698 2.674 2.674 0 01-.168.517q-.24.54-.705.93a3.072 3.072 0 01-.732.451 3.819 3.819 0 01-.393.149 4.335 4.335 0 01-.776.167 5.821 5.821 0 01-.724.043q-1.125 0-1.86-.172-.735-.173-1.14-.383l.42-1.125q.312.176.893.346a9.616 9.616 0 00.127.037 5.025 5.025 0 00.812.151 6.625 6.625 0 00.703.036 4.462 4.462 0 00.651-.046 3.827 3.827 0 00.279-.051 2.38 2.38 0 00.428-.138 1.889 1.889 0 00.322-.177q.315-.218.503-.548a1.415 1.415 0 00.163-.472 1.884 1.884 0 00.024-.308 1.726 1.726 0 00-.062-.472 1.322 1.322 0 00-.313-.555 3.409 3.409 0 00-.527-.452 4.367 4.367 0 00-.41-.253 11.509 11.509 0 00-.82-.406 13.506 13.506 0 00-.403-.172q-.66-.27-1.222-.652-.563-.383-.938-.945-.348-.522-.373-1.309a3.886 3.886 0 01-.002-.124 2.852 2.852 0 01.13-.883A2.299 2.299 0 0120.4.72q.702-.591 1.89-.697A6.098 6.098 0 0122.83 0a10.823 10.823 0 01.874.034 8.219 8.219 0 01.791.101q.75.135 1.17.345zm15.51 10.2h-1.2V6.405q0-1.071-.283-1.658a1.711 1.711 0 00-.054-.104 1.105 1.105 0 00-.686-.523q-.197-.057-.438-.068a2.574 2.574 0 00-.114-.002q-.795 0-1.312.428-.518.427-.728 1.072v5.13h-1.2v-7.5H36l.225.915h.06a2.57 2.57 0 01.645-.601 3.207 3.207 0 01.323-.186 2.764 2.764 0 01.757-.249A3.851 3.851 0 0138.7 3q.573 0 1.016.124a2.682 2.682 0 01.064.019q.465.142.773.502a1.914 1.914 0 01.255.392q.094.19.165.419a3.564 3.564 0 01.044.157q.158.607.158 1.537v4.53zM14.925.18v1.11h-3.27v9.39H10.41V1.29H7.14V.18h7.785zm32.76 3.3l-.285.99a3.713 3.713 0 00-.329-.137q-.172-.063-.369-.119a6.65 6.65 0 00-.134-.036 3.959 3.959 0 00-.77-.12 4.621 4.621 0 00-.273-.008q-.66 0-.967.225-.308.225-.308.78a.901.901 0 00.037.266.691.691 0 00.233.342q.262.21.643.379a4.029 4.029 0 00.025.011q.397.172.87.337.472.165.87.435.397.27.667.683.27.412.27 1.087a2.592 2.592 0 01-.102.734 2.395 2.395 0 01-.055.166q-.158.42-.488.72a2.2 2.2 0 01-.5.338 2.796 2.796 0 01-.318.135q-.487.172-1.147.172-.671 0-1.185-.102a3.794 3.794 0 01-.27-.063q-.5-.137-.864-.317a3.149 3.149 0 01-.141-.073l.36-1.02a3.065 3.065 0 00.288.142q.158.068.344.132a6.65 6.65 0 00.268.086q.555.165 1.125.165a2.691 2.691 0 00.452-.036q.351-.06.613-.219a.818.818 0 00.361-.477q.059-.19.059-.438a1.206 1.206 0 00-.034-.295.829.829 0 00-.236-.41 2.096 2.096 0 00-.387-.287 2.672 2.672 0 00-.28-.14q-.398-.173-.87-.33a4.125 4.125 0 01-.77-.345 3.805 3.805 0 01-.1-.06q-.398-.248-.668-.638a1.396 1.396 0 01-.194-.425q-.052-.187-.068-.411a2.911 2.911 0 01-.008-.214 3 3 0 01.054-.59q.129-.639.561-.992a2.064 2.064 0 01.728-.375q.296-.088.649-.116A4.304 4.304 0 0145.375 3q.616 0 1.08.082a3.601 3.601 0 01.277.061q.512.133.899.311a3.79 3.79 0 01.054.026zm-19.71 1.155l-.375-.9a3.967 3.967 0 01.786-.361 5.03 5.03 0 01.542-.149 7.366 7.366 0 011.466-.164 8.181 8.181 0 01.116-.001q.78 0 1.253.21a2.147 2.147 0 01.358.2q.217.151.359.344a1.294 1.294 0 01.003.004q.247.337.33.742.082.405.082.81 0 .9-.045 1.755a32.907 32.907 0 00-.039 1.034 27.772 27.772 0 00-.006.586 12.234 12.234 0 00.021.735 10.363 10.363 0 00.024.315 5.345 5.345 0 00.086.589 4.406 4.406 0 00.079.326h-.885l-.315-1.05h-.075a2.311 2.311 0 01-.195.26 2.848 2.848 0 01-.142.153q-.203.202-.488.36a2.737 2.737 0 01-.349.16 3.589 3.589 0 01-.311.102 2.715 2.715 0 01-.401.079q-.201.024-.424.026a4.333 4.333 0 01-.03 0 2.707 2.707 0 01-.628-.071 2.394 2.394 0 01-.264-.079 2.141 2.141 0 01-.556-.297 1.967 1.967 0 01-.157-.13q-.3-.278-.472-.668a2.005 2.005 0 01-.153-.557 2.558 2.558 0 01-.02-.328 2.675 2.675 0 01.041-.482q.064-.351.229-.62.27-.443.758-.705a3.184 3.184 0 01.554-.231q.285-.09.616-.144a8.274 8.274 0 01.806-.091 10.783 10.783 0 01.701-.022h.413q.202 0 .412.03.045-.45.045-.81 0-.704-.24-1.047a.8.8 0 00-.09-.108.895.895 0 00-.291-.188q-.277-.116-.71-.137a4.101 4.101 0 00-.199-.005 3.966 3.966 0 00-.325.014 4.932 4.932 0 00-.222.024 6.797 6.797 0 00-.524.088 7.503 7.503 0 00-.076.017 5.057 5.057 0 00-.516.141 4.577 4.577 0 00-.069.024q-.278.097-.488.217zM0 10.68V.285Q.57.15 1.23.105 1.89.06 2.535.06q.69 0 1.403.135Q4.65.33 5.235.69a2.771 2.771 0 01.918.932 3.246 3.246 0 01.034.058 2.52 2.52 0 01.27.691q.074.309.092.668a4.832 4.832 0 01.006.246 4.436 4.436 0 01-.056.727q-.083.5-.289.893a3.081 3.081 0 01-.709.909 2.945 2.945 0 01-.206.164 3.653 3.653 0 01-1.146.55 4.225 4.225 0 01-.159.042q-.735.18-1.515.18h-.247a8.738 8.738 0 01-.268-.004 9.905 9.905 0 01-.093-.003Q1.68 6.735 1.5 6.72q-.166-.014-.242-.028a.663.663 0 01-.013-.002v3.99H0zm1.245-9.45v4.35a.35.35 0 00.049.015q.072.017.191.023l.345.015a8.577 8.577 0 00.262.007 7.51 7.51 0 00.083 0h.24q.51 0 1.013-.097a2.677 2.677 0 00.738-.256 2.478 2.478 0 00.169-.097 1.811 1.811 0 00.563-.566 2.216 2.216 0 00.089-.154q.248-.465.248-1.185a2.692 2.692 0 00-.035-.45q-.043-.252-.138-.46a1.531 1.531 0 00-.06-.117q-.232-.413-.614-.66a2.552 2.552 0 00-.745-.325 2.945 2.945 0 00-.118-.028q-.48-.105-.96-.105a18.578 18.578 0 00-.568.008 16.485 16.485 0 00-.182.007 4.155 4.155 0 00-.21.014q-.216.02-.36.061zM31.68 8.565V7.32q-.21-.015-.427-.022-.218-.008-.428-.008-.465 0-.907.053a3.347 3.347 0 00-.411.073 2.487 2.487 0 00-.369.122 1.532 1.532 0 00-.313.174 1.243 1.243 0 00-.228.216.884.884 0 00-.186.42 1.211 1.211 0 00-.016.202 1.198 1.198 0 00.082.451 1.105 1.105 0 00.293.412 1.296 1.296 0 00.681.316 1.784 1.784 0 00.279.021 2.682 2.682 0 00.396-.028 2.02 2.02 0 00.354-.084 2.446 2.446 0 00.325-.137 1.906 1.906 0 00.245-.148 1.946 1.946 0 00.266-.229 1.635 1.635 0 00.132-.154q.146-.195.221-.377a1.246 1.246 0 00.011-.028z" vector-effect="non-scaling-stroke" stroke-linecap="round" fill-rule="evenodd" font-size="12" stroke="#000" stroke-width=".25mm" fill="none"/></svg>