<svg width="79.71" height="10.86"><path d="M48.705 10.845L44.85 4.02l-.645-1.65h-.045l.165 1.65v6.66h-1.08V.015h.675l3.885 6.81.615 1.575h.06l-.165-1.575V.18h1.08v10.665h-.69zm26.31-7.665h.795l1.335 4.38.27 1.44h.03l.225-1.47 1.02-4.35h1.02l-1.995 7.665H77.1l-1.515-4.92-.21-1.26h-.03l-.21 1.275-1.47 4.905h-.615L70.995 3.18h1.155l1.155 4.365.18 1.455h.03l.27-1.485 1.23-4.335zm-59.49 7.14l.39-1.035q.285.195.803.368.517.172 1.177.172.77 0 1.276-.347a1.719 1.719 0 00.089-.065 1.297 1.297 0 00.442-.668q.066-.221.08-.49a2.797 2.797 0 00.003-.14 1.924 1.924 0 00-.08-.563 1.643 1.643 0 00-.22-.457 3.753 3.753 0 00-.534-.615 4.381 4.381 0 00-.216-.187 13.656 13.656 0 00-.807-.61 15.283 15.283 0 00-.16-.11q-.518-.353-.968-.78-.45-.428-.75-.983a2.412 2.412 0 01-.243-.696q-.056-.293-.057-.628a4.05 4.05 0 010-.011q0-.935.417-1.51a1.838 1.838 0 01.341-.357 2.668 2.668 0 011.076-.512Q17.996 0 18.48 0a7.13 7.13 0 01.667.03q.335.031.629.096a4.323 4.323 0 01.039.009 4.821 4.821 0 01.399.109q.189.061.346.133a2.256 2.256 0 01.2.103l-.36.99a1.812 1.812 0 00-.208-.107q-.223-.1-.543-.187a6.006 6.006 0 00-.022-.006q-.47-.126-1.078-.134a6.306 6.306 0 00-.084-.001 2.621 2.621 0 00-.444.035q-.482.083-.756.363a1.348 1.348 0 00-.388.905 1.776 1.776 0 00-.002.092q0 .525.3.93a3.874 3.874 0 00.458.512 4.768 4.768 0 00.292.253q.45.36.968.728.517.367.967.817.45.45.75 1.02a2.546 2.546 0 01.25.751 3.466 3.466 0 01.05.599q0 1.32-.78 2.07a2.543 2.543 0 01-1.082.606q-.5.144-1.123.144a8.121 8.121 0 01-.581-.019q-.518-.038-.896-.146a5.59 5.59 0 01-.37-.119q-.182-.066-.334-.138a2.468 2.468 0 01-.219-.118zm17.73.36h-1.08V6.105a7.673 7.673 0 00-.019-.554q-.039-.539-.161-.881a1.505 1.505 0 00-.082-.192.888.888 0 00-.644-.475 1.472 1.472 0 00-.294-.028 1.641 1.641 0 00-.469.064 1.307 1.307 0 00-.521.296q-.39.36-.57.885v5.46h-1.08v-7.5h.78l.195.795h.045a2.275 2.275 0 01.501-.51 2.843 2.843 0 01.272-.18 2.046 2.046 0 01.682-.245 2.756 2.756 0 01.48-.04 2.904 2.904 0 01.425.03 2.125 2.125 0 01.422.105q.368.135.616.458a1.736 1.736 0 01.193.323q.076.162.133.356a3.382 3.382 0 01.048.183 4.153 4.153 0 01.078.445q.028.228.04.49a9.237 9.237 0 01.01.43v4.86zM12.12.18v1.035H9.54v9.465H8.415V1.215h-2.58V.18h6.285zM0 10.68V.285a5.298 5.298 0 01.82-.16 6.039 6.039 0 01.2-.02Q1.56.06 2.085.06q.6 0 1.185.135.585.135 1.058.495a2.376 2.376 0 01.542.589 3.091 3.091 0 01.223.401 2.855 2.855 0 01.197.605q.095.444.095 1 0 .804-.201 1.402a2.944 2.944 0 01-.077.203q-.277.66-.734 1.073-.458.412-1.05.6-.593.187-1.223.187h-.195a5.44 5.44 0 01-.193-.004 6.376 6.376 0 01-.092-.003q-.15-.008-.292-.023-.108-.011-.168-.023a.594.594 0 01-.035-.007v3.99H0zm22.62-6.195l-.36-.855q.435-.27 1.058-.42a5.496 5.496 0 011.119-.147 6.22 6.22 0 01.193-.003 3.451 3.451 0 01.402.022q.199.023.365.072a1.527 1.527 0 01.245.094 1.603 1.603 0 01.397.27 1.413 1.413 0 01.204.24 1.801 1.801 0 01.27.655 2.103 2.103 0 01.014.08 5.244 5.244 0 01.066.722 5.885 5.885 0 01.002.14q0 .9-.037 1.755a39.054 39.054 0 00-.034 1.133 32.967 32.967 0 00-.004.487 15.3 15.3 0 00.012.615 12.148 12.148 0 00.026.443 6.034 6.034 0 00.094.701 5.296 5.296 0 00.048.221h-.825l-.255-.885h-.06a1.88 1.88 0 01-.403.482 2.402 2.402 0 01-.257.193q-.435.285-1.17.285a1.9 1.9 0 01-.673-.115 1.688 1.688 0 01-.654-.447 1.868 1.868 0 01-.426-.794q-.092-.341-.092-.759a3.166 3.166 0 01.033-.472q.037-.246.116-.453a1.727 1.727 0 01.068-.155q.218-.435.616-.705a2.387 2.387 0 01.57-.281 3.044 3.044 0 01.374-.101 5.334 5.334 0 01.618-.088 7.089 7.089 0 01.605-.025h.3q.15 0 .315.015a10.758 10.758 0 00.031-.387q.01-.177.013-.335a6.121 6.121 0 00.001-.103 4.55 4.55 0 00-.016-.396q-.035-.394-.144-.639a.888.888 0 00-.095-.165.748.748 0 00-.324-.245q-.242-.1-.606-.1a3.21 3.21 0 00-.467.036 4.322 4.322 0 00-.448.092 4.128 4.128 0 00-.375.114q-.254.092-.45.208zm28.905 0l-.36-.855q.435-.27 1.058-.42a5.496 5.496 0 011.119-.147 6.22 6.22 0 01.193-.003 3.451 3.451 0 01.402.022q.199.023.365.072a1.527 1.527 0 01.245.094 1.603 1.603 0 01.397.27 1.413 1.413 0 01.204.24 1.801 1.801 0 01.27.655 2.103 2.103 0 01.014.08 5.244 5.244 0 01.066.722 5.885 5.885 0 01.002.14q0 .9-.037 1.755a39.054 39.054 0 00-.034 1.133 32.967 32.967 0 00-.004.487 15.3 15.3 0 00.012.615 12.148 12.148 0 00.026.443 6.034 6.034 0 00.094.701 5.296 5.296 0 00.048.221h-.825l-.255-.885h-.06a1.88 1.88 0 01-.403.482 2.402 2.402 0 01-.257.193q-.435.285-1.17.285a1.9 1.9 0 01-.673-.115 1.688 1.688 0 01-.654-.447 1.868 1.868 0 01-.426-.794q-.092-.341-.092-.759a3.166 3.166 0 01.033-.472q.037-.246.116-.453a1.727 1.727 0 01.068-.155q.218-.435.616-.705a2.387 2.387 0 01.57-.281 3.044 3.044 0 01.374-.101 5.334 5.334 0 01.618-.088 7.089 7.089 0 01.605-.025h.3q.15 0 .315.015a10.758 10.758 0 00.031-.387q.01-.177.013-.335a6.121 6.121 0 00.001-.103 4.55 4.55 0 00-.016-.396q-.035-.394-.144-.639a.888.888 0 00-.095-.165.748.748 0 00-.324-.245q-.242-.1-.606-.1a3.21 3.21 0 00-.467.036 4.322 4.322 0 00-.448.092 4.128 4.128 0 00-.375.114q-.254.092-.45.208zm-17.055 5.91l.33-.945q.3.18.713.308.412.127.847.127.495 0 .84-.247.321-.231.343-.728a1.687 1.687 0 00.002-.075 1.691 1.691 0 00-.031-.332q-.041-.205-.137-.367a1.015 1.015 0 00-.042-.066 2.293 2.293 0 00-.397-.432 2.685 2.685 0 00-.135-.108 5.68 5.68 0 00-.651-.417 6.221 6.221 0 00-.047-.025q-.375-.203-.697-.488-.323-.285-.533-.675-.179-.331-.205-.815a3.169 3.169 0 01-.005-.175 2.84 2.84 0 01.051-.554q.064-.323.21-.571a1.452 1.452 0 01.257-.322q.458-.433 1.253-.482A3.394 3.394 0 0136.645 3q.526 0 .931.082a3.07 3.07 0 01.134.031q.45.112.78.307l-.285.9a2.715 2.715 0 00-.339-.148 3.591 3.591 0 00-.321-.099q-.375-.098-.765-.098a2.055 2.055 0 00-.281.018q-.323.044-.5.201a.618.618 0 00-.007.006q-.247.225-.247.705a1.114 1.114 0 00.046.327.926.926 0 00.164.311 2.186 2.186 0 00.306.31 2.743 2.743 0 00.226.17 14.645 14.645 0 00.424.274 17.443 17.443 0 00.274.168q.375.225.698.533a2.543 2.543 0 01.492.655 2.9 2.9 0 01.04.08 1.892 1.892 0 01.147.432q.063.287.063.64 0 .42-.135.795-.135.375-.412.653a1.916 1.916 0 01-.466.339 2.364 2.364 0 01-.224.103q-.413.165-.968.165a5.772 5.772 0 01-.507-.021q-.255-.023-.477-.069a3.115 3.115 0 01-.156-.037 3.543 3.543 0 01-.391-.128q-.233-.092-.419-.21zm22.77.285v-7.5h.765l.195.795h.045q.21-.435.548-.682.337-.248.817-.248a2.118 2.118 0 01.331.028q.211.033.449.107l-.21 1.095a2.904 2.904 0 00-.28-.082q-.146-.035-.277-.047a1.472 1.472 0 00-.133-.006 1.356 1.356 0 00-.348.042 1.005 1.005 0 00-.432.236 1.235 1.235 0 00-.323.495 1.643 1.643 0 00-.067.247v5.52h-1.08zm4.11 0v-7.5h.765l.195.795h.045q.21-.435.548-.682.337-.248.817-.248a2.118 2.118 0 01.331.028q.211.033.449.107l-.21 1.095a2.904 2.904 0 00-.28-.082q-.146-.035-.277-.047a1.472 1.472 0 00-.133-.006 1.356 1.356 0 00-.348.042 1.005 1.005 0 00-.432.236 1.235 1.235 0 00-.323.495 1.643 1.643 0 00-.067.247v5.52h-1.08zm3.78-3.75q0-2.025.698-2.977a2.247 2.247 0 011.636-.934A3.182 3.182 0 0167.815 3a3.076 3.076 0 01.809.1 2.083 2.083 0 011.224.875q.617.923.65 2.747a11.536 11.536 0 01.002.208q0 1.849-.579 2.799a2.414 2.414 0 01-.126.186 2.268 2.268 0 01-1.661.929 3.164 3.164 0 01-.319.016 3.076 3.076 0 01-.809-.1 2.083 2.083 0 01-1.223-.875q-.618-.923-.651-2.747a11.536 11.536 0 01-.002-.208zm1.125 0q0 .66.083 1.2a4.003 4.003 0 00.096.459q.062.225.148.417a2.397 2.397 0 00.026.054 1.801 1.801 0 00.208.337 1.412 1.412 0 00.279.271 1.138 1.138 0 00.536.206 1.479 1.479 0 00.184.011 1.367 1.367 0 00.55-.106q.314-.137.53-.447a1.726 1.726 0 00.09-.144q.33-.59.381-1.796a10.948 10.948 0 00.009-.462 8.871 8.871 0 00-.026-.695 7.051 7.051 0 00-.056-.497q-.076-.5-.238-.868a2.369 2.369 0 00-.033-.07 1.801 1.801 0 00-.208-.337 1.412 1.412 0 00-.279-.27 1.138 1.138 0 00-.536-.207 1.479 1.479 0 00-.184-.011 1.302 1.302 0 00-.59.13q-.27.135-.468.41a1.784 1.784 0 00-.104.165 2.382 2.382 0 00-.21.522q-.146.517-.179 1.274a10.574 10.574 0 00-.009.454zM1.125 1.185v4.47a.251.251 0 00.043.016q.043.013.107.019a1.092 1.092 0 00.038.003 80.343 80.343 0 00.245.014 87.711 87.711 0 00.017.001 4.761 4.761 0 00.247.007 4.374 4.374 0 00.016 0h.187q.42 0 .81-.105.39-.105.69-.382a1.737 1.737 0 00.294-.362q.109-.174.194-.388a2.383 2.383 0 00.121-.425q.066-.34.066-.768 0-.492-.105-.855a1.898 1.898 0 00-.067-.195 2.183 2.183 0 00-.185-.357 1.633 1.633 0 00-.266-.318q-.277-.255-.652-.36-.375-.105-.78-.105a7.302 7.302 0 00-.473.015 6.527 6.527 0 00-.105.008q-.277.022-.442.067zm24.39 7.665V7.26q-.15-.015-.3-.022-.15-.008-.3-.008-.36 0-.705.06a2.103 2.103 0 00-.383.103 1.747 1.747 0 00-.232.107q-.27.15-.427.405a.999.999 0 00-.121.299q-.03.128-.036.276a1.843 1.843 0 00-.001.07 1.979 1.979 0 00.031.365q.065.343.262.565a.955.955 0 00.698.329 1.265 1.265 0 00.059.001q.63 0 .975-.3t.48-.66zm28.905 0V7.26q-.15-.015-.3-.022-.15-.008-.3-.008-.36 0-.705.06a2.103 2.103 0 00-.383.103 1.747 1.747 0 00-.232.107q-.27.15-.427.405a.999.999 0 00-.121.299q-.03.128-.036.276a1.843 1.843 0 00-.001.07 1.979 1.979 0 00.031.365q.065.343.262.565a.955.955 0 00.698.329 1.265 1.265 0 00.059.001q.63 0 .975-.3t.48-.66z" vector-effect="non-scaling-stroke" stroke-linecap="round" fill-rule="evenodd" font-size="12" stroke="#000" stroke-width=".25mm" fill="none"/></svg>