<svg width="53.265" height="11.46"><path d="M23.07 8.04l.615 2.205a1.338 1.338 0 00.228.181 1.832 1.832 0 00.237.127q.285.127.855.127a3.203 3.203 0 00.659-.066 2.828 2.828 0 00.241-.061 2.274 2.274 0 00.481-.207 1.954 1.954 0 00.247-.168q.307-.248.487-.6a1.645 1.645 0 00.166-.558 2.062 2.062 0 00.014-.245 1.615 1.615 0 00-.078-.512 1.369 1.369 0 00-.29-.493q-.367-.405-.914-.72a14.503 14.503 0 00-.723-.388 17.326 17.326 0 00-.47-.227q-.645-.3-1.192-.712-.548-.413-.915-.99a2.251 2.251 0 01-.293-.72q-.075-.334-.075-.728a3.017 3.017 0 01.062-.623 2.41 2.41 0 01.163-.502q.225-.495.638-.84a2.826 2.826 0 01.707-.429 3.41 3.41 0 01.275-.103 3.7 3.7 0 01.745-.159A4.752 4.752 0 0125.47.6a10.24 10.24 0 01.928.04 7.91 7.91 0 01.745.103 7.795 7.795 0 01.441.095q.452.113.751.257 0 .205-.024.464a7.597 7.597 0 01-.014.129 20.345 20.345 0 01-.077.607 22.539 22.539 0 01-.013.09 22.839 22.839 0 01-.105.655 20.944 20.944 0 01-.007.043q-.052.29-.103.519a7.738 7.738 0 01-.017.073h-.39l-.6-2.055a1.927 1.927 0 00-.243-.088q-.122-.035-.263-.062a3.907 3.907 0 00-.176-.03 5.795 5.795 0 00-.593-.054 6.837 6.837 0 00-.285-.006 2.225 2.225 0 00-.532.06 1.564 1.564 0 00-.698.368 1.4 1.4 0 00-.424.768A2.087 2.087 0 0023.73 3a1.701 1.701 0 00.079.53 1.436 1.436 0 00.288.505q.368.42.923.75a15.037 15.037 0 00.879.482 17.257 17.257 0 00.314.156q.637.307 1.192.712.555.405.923.96a2.143 2.143 0 01.305.749q.062.293.062.631a3.191 3.191 0 01-.092.778 2.746 2.746 0 01-.156.452q-.247.555-.712.945-.465.39-1.14.6a4.532 4.532 0 01-.804.168 6.06 6.06 0 01-.726.042 6.815 6.815 0 01-.896-.056 5.124 5.124 0 01-.799-.169 6.518 6.518 0 01-.348-.114q-.481-.175-.717-.366.015-.255.053-.615a22.677 22.677 0 01.077-.647 24.963 24.963 0 01.013-.095 26.208 26.208 0 01.108-.72 24.336 24.336 0 01.004-.023q.046-.276.092-.49a6.526 6.526 0 01.028-.125h.39zm-7.815 2.805v.435H11.04v-.435q.33-.12.668-.21a6.44 6.44 0 01.442-.101 7.732 7.732 0 01.285-.049V1.56H10.14l-.795 2.145H8.97q-.042-.28-.071-.632a13.49 13.49 0 01-.004-.05q-.03-.383-.052-.78-.023-.398-.038-.78a21.535 21.535 0 01-.01-.319Q8.791.997 8.79.866a12.719 12.719 0 010-.086h8.715a13.774 13.774 0 010 .005q0 .293-.015.658a24.422 24.422 0 010 .012q-.015.375-.037.773l-.045.78q-.023.382-.068.697h-.39l-.78-2.145h-2.295v8.925q.39.075.728.15.337.075.652.21zm37.68-8.955h-.375L51.9.6a3.557 3.557 0 00-.308.013q-.163.014-.303.044a1.846 1.846 0 00-.131.033q-.308.09-.51.345-.149.187-.241.495a2.754 2.754 0 00-.06.24q-.065.323-.087.78a10.261 10.261 0 00-.01.48v.75h1.725v.75H50.25v6.015a5.685 5.685 0 011.016.209 4.951 4.951 0 01.424.151v.375h-3.78v-.375q.465-.27.99-.36V4.53h-1.14v-.39q.525-.33 1.14-.495V3.12a6.356 6.356 0 01.029-.627q.031-.309.094-.572a2.984 2.984 0 01.102-.338 2.751 2.751 0 01.231-.483 2.037 2.037 0 01.399-.477q.405-.353.953-.488a4.658 4.658 0 01.791-.122A5.537 5.537 0 0151.885 0q.103 0 .233.009a5.313 5.313 0 01.082.006 11.526 11.526 0 01.278.027 13.044 13.044 0 01.097.011 4.25 4.25 0 01.33.05 3.856 3.856 0 01.045.01 3.503 3.503 0 01.149.034q.09.023.166.048a10.065 10.065 0 01-.071.592 8.246 8.246 0 01-.057.331q-.082.427-.202.772zM2.67 7.17v3.315a5.235 5.235 0 01.582.097 4.594 4.594 0 01.183.046 7.452 7.452 0 01.494.151 6.402 6.402 0 01.181.066v.435H0v-.435q.3-.15.615-.225a17.379 17.379 0 01.596-.131 15.789 15.789 0 01.019-.004V1.59a4.918 4.918 0 01-.453-.1 4.208 4.208 0 01-.192-.057q-.3-.098-.585-.218V.78h1.35a13.87 13.87 0 00.708-.019A17.746 17.746 0 002.655.72 16.503 16.503 0 013.679.664 14.359 14.359 0 014.005.66q.735 0 1.44.158a3.719 3.719 0 01.895.319 3.32 3.32 0 01.357.213 2.785 2.785 0 01.842.92 3.264 3.264 0 01.043.078 2.629 2.629 0 01.252.693q.069.311.082.672a4.872 4.872 0 01.004.187q0 .885-.345 1.515-.345.63-.922 1.035a3.914 3.914 0 01-1.132.542 4.5 4.5 0 01-.181.051q-.735.187-1.515.187h-.232a7.54 7.54 0 01-.206-.003 9.21 9.21 0 01-.132-.004 7.288 7.288 0 01-.262-.016A6.422 6.422 0 012.91 7.2q-.159-.014-.234-.029a.709.709 0 01-.006-.001zm33.285 2.82l.21.24a1.33 1.33 0 01-.184.285 1.787 1.787 0 01-.191.195 2.647 2.647 0 01-.464.326 3.029 3.029 0 01-.121.064q-.33.165-.72.263-.39.097-.795.097a4.802 4.802 0 01-.784-.061 3.566 3.566 0 01-.776-.216 3.016 3.016 0 01-.902-.566 2.841 2.841 0 01-.223-.229 3.381 3.381 0 01-.57-.933 4.036 4.036 0 01-.113-.305q-.232-.72-.232-1.62a6.668 6.668 0 01.086-1.111q.191-1.123.799-1.814a2.881 2.881 0 011.63-.921 4.327 4.327 0 01.875-.084q.525 0 1.035.143.51.142.908.472a2.22 2.22 0 01.457.527 2.854 2.854 0 01.187.351q.21.463.242 1.114a4.919 4.919 0 01.006.243q0 .255-.022.518-.023.262-.083.562h-4.68a4.457 4.457 0 00.073.818 3.856 3.856 0 00.085.36 2.968 2.968 0 00.258.628 2.555 2.555 0 00.214.324q.315.405.795.638a2.272 2.272 0 00.624.193 3.076 3.076 0 00.501.039 3.928 3.928 0 00.964-.123 4.41 4.41 0 00.101-.027q.354-.098.591-.235a1.314 1.314 0 00.219-.155zm6.72-5.085H40.68a.803.803 0 00-.099.065q-.103.079-.231.213a3.807 3.807 0 00-.083.09 1.65 1.65 0 00-.174.239q-.077.125-.148.281a3.969 3.969 0 00-.12.297v4.455q.3.03.6.113a2.671 2.671 0 01.45.17 3.108 3.108 0 01.15.077v.375h-3.54v-.375a3.213 3.213 0 01.261-.13 2.357 2.357 0 01.249-.095q.24-.075.48-.135V4.65l-.99-.12v-.39q.48-.21.99-.337.51-.128.975-.203h.375v1.59h.06a2.398 2.398 0 01.187-.337 3.095 3.095 0 01.196-.263q.247-.3.57-.54.322-.24.705-.367a1.815 1.815 0 01.577-.095 1.898 1.898 0 01.21.012q.105.195.188.428a9.079 9.079 0 01.119.361 10.15 10.15 0 01.038.126v.39zm4.05 6v.375h-3.33v-.375q.225-.12.465-.202a6.808 6.808 0 01.301-.096 8.511 8.511 0 01.224-.062V4.65l-.99-.12v-.39a7.084 7.084 0 01.634-.226 8.411 8.411 0 01.311-.089q.51-.135 1.02-.225h.375v6.945q.3.075.54.158.24.082.45.202zM2.67 1.515v4.86a.386.386 0 00.053.017q.057.013.138.019a1.462 1.462 0 00.027.002 6.811 6.811 0 01.212.014 7.943 7.943 0 01.088.008 3.244 3.244 0 00.307.015h.24q.525 0 .99-.142.465-.143.818-.458a2.186 2.186 0 00.463-.593 2.638 2.638 0 00.099-.202 2.374 2.374 0 00.157-.526q.045-.245.052-.524a4.195 4.195 0 00.001-.105q0-.896-.37-1.466a1.84 1.84 0 00-.327-.379q-.629-.554-1.689-.609a4.615 4.615 0 00-.239-.006 14.952 14.952 0 00-.172.001q-.21.002-.364.011a4.65 4.65 0 00-.049.003q-.225.015-.435.06zM31.575 6.87h3.3q.015-.135.023-.262a4.267 4.267 0 00.007-.218 3.885 3.885 0 000-.03q0-.693-.187-1.182a1.963 1.963 0 00-.173-.348 1.173 1.173 0 00-.852-.55 1.779 1.779 0 00-.273-.02 2.016 2.016 0 00-.54.068 1.429 1.429 0 00-.765.51 1.798 1.798 0 00-.243.439q-.235.587-.297 1.593zM44.138.944a1.01 1.01 0 00-.038.286 1.098 1.098 0 00.012.163.763.763 0 00.25.475q.263.232.698.232.17 0 .312-.035a.857.857 0 00.378-.197.749.749 0 00.221-.364 1.035 1.035 0 00.034-.274 1.132 1.132 0 00-.012-.169.796.796 0 00-.243-.476.855.855 0 00-.401-.209 1.275 1.275 0 00-.289-.031q-.435 0-.697.24a.773.773 0 00-.225.359z" vector-effect="non-scaling-stroke" stroke-linecap="round" fill-rule="evenodd" font-size="12" stroke="#000" stroke-width=".25mm" fill="none"/></svg>