<svg width="54.945" height="14.295" viewBox="0 0 54.945 14.295"><title>Raleway</title><g id="svgGroup" stroke-linecap="round" fill-rule="evenodd" font-size="9pt" stroke="#000" stroke-width="0.25mm" fill="none" style="stroke:#000;stroke-width:0.25mm;fill:none"><path d="M 35.895 10.515 L 39.105 3.165 L 39.435 3.165 L 36.03 10.95 L 35.76 10.95 L 33.855 6.585 L 31.95 10.95 L 31.68 10.95 L 28.275 3.165 L 28.605 3.165 L 31.815 10.515 L 33.69 6.21 L 32.385 3.18 L 32.7 3.18 L 33.855 5.82 L 35.01 3.18 L 35.325 3.18 L 34.02 6.21 L 35.895 10.515 Z M 0.3 10.95 L 0 10.95 L 0 0.3 L 4.335 0.3 Q 4.98 0.3 5.535 0.577 Q 6.09 0.855 6.488 1.313 Q 6.885 1.77 7.11 2.348 Q 7.335 2.925 7.335 3.525 Q 7.335 4.14 7.14 4.71 A 3.276 3.276 0 0 1 6.629 5.667 A 3.121 3.121 0 0 1 6.585 5.723 Q 6.225 6.165 5.723 6.443 Q 5.22 6.72 4.62 6.765 L 7.32 10.95 L 6.96 10.95 L 4.26 6.765 L 0.3 6.765 L 0.3 10.95 Z M 49.2 14.295 L 49.2 13.995 Q 49.395 13.995 49.551 13.982 A 2.641 2.641 0 0 0 49.643 13.973 A 0.592 0.592 0 0 0 49.741 13.953 Q 49.794 13.937 49.834 13.912 A 0.254 0.254 0 0 0 49.905 13.845 A 0.256 0.256 0 0 0 49.93 13.815 Q 49.954 13.782 49.983 13.728 A 1.492 1.492 0 0 0 50.01 13.672 A 7.26 7.26 0 0 0 50.045 13.597 Q 50.098 13.482 50.184 13.285 A 56.781 56.781 0 0 0 50.205 13.237 Q 50.34 12.93 50.58 12.382 Q 50.795 11.893 51.129 11.133 A 1517.411 1517.411 0 0 1 51.21 10.95 L 47.595 3.165 L 47.925 3.165 L 51.36 10.575 L 54.615 3.165 L 54.945 3.165 L 50.31 13.74 A 1.181 1.181 0 0 1 50.184 13.954 Q 50.09 14.08 49.971 14.152 A 0.642 0.642 0 0 1 49.815 14.22 Q 49.515 14.295 49.2 14.295 Z M 27.585 7.065 L 27.585 7.23 L 20.46 7.23 Q 20.52 7.98 20.813 8.633 A 3.98 3.98 0 0 0 21.402 9.579 A 3.676 3.676 0 0 0 21.57 9.765 Q 22.035 10.245 22.643 10.522 Q 23.25 10.8 23.925 10.8 Q 24.375 10.8 24.803 10.68 Q 25.23 10.56 25.605 10.343 Q 25.98 10.125 26.265 9.825 Q 26.55 9.525 26.715 9.165 L 27 9.24 Q 26.835 9.645 26.528 9.983 Q 26.22 10.32 25.807 10.567 A 3.823 3.823 0 0 1 24.923 10.953 A 4.228 4.228 0 0 1 24.908 10.958 Q 24.42 11.1 23.91 11.1 Q 23.145 11.1 22.463 10.778 Q 21.78 10.455 21.27 9.893 A 4.345 4.345 0 0 1 20.465 8.599 A 4.913 4.913 0 0 1 20.46 8.587 Q 20.16 7.845 20.16 7.005 Q 20.16 6.18 20.445 5.46 Q 20.73 4.74 21.232 4.2 Q 21.735 3.66 22.403 3.352 Q 23.07 3.045 23.835 3.045 Q 24.615 3.045 25.298 3.36 Q 25.98 3.675 26.482 4.215 A 4.093 4.093 0 0 1 27.207 5.309 A 4.712 4.712 0 0 1 27.285 5.49 Q 27.585 6.225 27.585 7.065 Z M 14.445 6.93 L 14.445 6.045 Q 14.445 5.445 14.265 4.943 A 2.496 2.496 0 0 0 13.961 4.348 A 2.211 2.211 0 0 0 13.748 4.088 Q 13.41 3.735 12.938 3.54 A 2.595 2.595 0 0 0 12.174 3.357 A 3.133 3.133 0 0 0 11.895 3.345 A 2.997 2.997 0 0 0 11.23 3.423 A 4.035 4.035 0 0 0 10.68 3.593 A 5.484 5.484 0 0 0 9.909 3.963 A 6.956 6.956 0 0 0 9.375 4.305 L 9.195 4.065 A 7.87 7.87 0 0 1 10.103 3.527 Q 10.587 3.286 11.035 3.166 A 3.309 3.309 0 0 1 11.895 3.045 A 3.439 3.439 0 0 1 12.621 3.119 A 2.886 2.886 0 0 1 13.073 3.255 Q 13.605 3.465 13.973 3.855 A 2.63 2.63 0 0 1 14.453 4.581 A 3.142 3.142 0 0 1 14.543 4.8 A 3.31 3.31 0 0 1 14.717 5.546 A 4.227 4.227 0 0 1 14.745 6.045 L 14.745 10.35 Q 14.745 10.623 14.944 10.648 A 0.336 0.336 0 0 0 14.985 10.65 L 14.985 10.95 A 1.414 1.414 0 0 1 14.919 10.949 Q 14.81 10.943 14.775 10.92 A 0.461 0.461 0 0 1 14.572 10.759 A 0.603 0.603 0 0 1 14.535 10.703 A 0.689 0.689 0 0 1 14.446 10.386 A 0.823 0.823 0 0 1 14.445 10.35 L 14.445 9.63 A 3.491 3.491 0 0 1 13.169 10.656 A 4.133 4.133 0 0 1 13.035 10.718 A 4.59 4.59 0 0 1 11.336 11.097 A 5.331 5.331 0 0 1 11.145 11.1 Q 10.62 11.1 10.155 10.913 A 2.565 2.565 0 0 1 9.518 10.546 A 2.354 2.354 0 0 1 9.352 10.403 Q 9.015 10.08 8.82 9.645 Q 8.625 9.21 8.625 8.715 A 1.818 1.818 0 0 1 8.75 8.037 A 1.729 1.729 0 0 1 8.858 7.815 A 2.055 2.055 0 0 1 9.34 7.251 A 2.492 2.492 0 0 1 9.517 7.118 A 3.074 3.074 0 0 1 10.081 6.816 A 4.011 4.011 0 0 1 10.538 6.66 A 4.468 4.468 0 0 1 11.322 6.518 A 5.519 5.519 0 0 1 11.835 6.495 Q 12.51 6.495 13.2 6.607 A 7.208 7.208 0 0 1 13.924 6.762 A 5.632 5.632 0 0 1 14.445 6.93 Z M 46.02 6.93 L 46.02 6.045 Q 46.02 5.445 45.84 4.943 A 2.496 2.496 0 0 0 45.536 4.348 A 2.211 2.211 0 0 0 45.323 4.088 Q 44.985 3.735 44.513 3.54 A 2.595 2.595 0 0 0 43.749 3.357 A 3.133 3.133 0 0 0 43.47 3.345 A 2.997 2.997 0 0 0 42.805 3.423 A 4.035 4.035 0 0 0 42.255 3.593 A 5.484 5.484 0 0 0 41.484 3.963 A 6.956 6.956 0 0 0 40.95 4.305 L 40.77 4.065 A 7.87 7.87 0 0 1 41.678 3.527 Q 42.162 3.286 42.61 3.166 A 3.309 3.309 0 0 1 43.47 3.045 A 3.439 3.439 0 0 1 44.196 3.119 A 2.886 2.886 0 0 1 44.648 3.255 Q 45.18 3.465 45.548 3.855 A 2.63 2.63 0 0 1 46.028 4.581 A 3.142 3.142 0 0 1 46.118 4.8 A 3.31 3.31 0 0 1 46.292 5.546 A 4.227 4.227 0 0 1 46.32 6.045 L 46.32 10.35 Q 46.32 10.623 46.519 10.648 A 0.336 0.336 0 0 0 46.56 10.65 L 46.56 10.95 A 1.414 1.414 0 0 1 46.494 10.949 Q 46.385 10.943 46.35 10.92 A 0.461 0.461 0 0 1 46.147 10.759 A 0.603 0.603 0 0 1 46.11 10.703 A 0.689 0.689 0 0 1 46.021 10.386 A 0.823 0.823 0 0 1 46.02 10.35 L 46.02 9.63 A 3.491 3.491 0 0 1 44.744 10.656 A 4.133 4.133 0 0 1 44.61 10.718 A 4.59 4.59 0 0 1 42.911 11.097 A 5.331 5.331 0 0 1 42.72 11.1 Q 42.195 11.1 41.73 10.913 A 2.565 2.565 0 0 1 41.093 10.546 A 2.354 2.354 0 0 1 40.927 10.403 Q 40.59 10.08 40.395 9.645 Q 40.2 9.21 40.2 8.715 A 1.818 1.818 0 0 1 40.325 8.037 A 1.729 1.729 0 0 1 40.433 7.815 A 2.055 2.055 0 0 1 40.915 7.251 A 2.492 2.492 0 0 1 41.092 7.118 A 3.074 3.074 0 0 1 41.656 6.816 A 4.011 4.011 0 0 1 42.113 6.66 A 4.468 4.468 0 0 1 42.897 6.518 A 5.519 5.519 0 0 1 43.41 6.495 Q 44.085 6.495 44.775 6.607 A 7.208 7.208 0 0 1 45.499 6.762 A 5.632 5.632 0 0 1 46.02 6.93 Z M 17.25 9.795 L 17.25 0 L 17.55 0 L 17.55 9.795 A 1.13 1.13 0 0 0 17.588 10.096 A 0.826 0.826 0 0 0 17.82 10.485 A 0.911 0.911 0 0 0 18.27 10.714 A 1.323 1.323 0 0 0 18.54 10.74 Q 18.666 10.74 18.83 10.718 A 3.771 3.771 0 0 0 18.937 10.702 Q 19.17 10.665 19.365 10.605 L 19.47 10.845 Q 19.309 10.902 19.091 10.947 A 4.537 4.537 0 0 1 18.952 10.972 A 4.567 4.567 0 0 1 18.744 11.003 Q 18.57 11.025 18.435 11.025 A 1.329 1.329 0 0 1 18.03 10.966 A 1.078 1.078 0 0 1 17.58 10.688 A 1.136 1.136 0 0 1 17.273 10.074 A 1.609 1.609 0 0 1 17.25 9.795 Z M 0.3 0.6 L 0.3 6.465 L 4.44 6.465 A 2.425 2.425 0 0 0 5.108 6.376 A 2.108 2.108 0 0 0 5.52 6.21 A 2.652 2.652 0 0 0 6.338 5.542 Q 6.675 5.13 6.855 4.605 Q 7.035 4.08 7.035 3.525 Q 7.035 2.955 6.825 2.43 Q 6.615 1.905 6.248 1.5 Q 5.88 1.095 5.385 0.848 Q 4.89 0.6 4.335 0.6 L 0.3 0.6 Z M 20.46 6.93 L 27.27 6.93 A 4.369 4.369 0 0 0 27.081 5.871 A 3.911 3.911 0 0 0 26.94 5.49 Q 26.655 4.83 26.197 4.358 Q 25.74 3.885 25.14 3.615 Q 24.54 3.345 23.85 3.345 Q 23.16 3.345 22.56 3.615 Q 21.96 3.885 21.502 4.365 A 3.57 3.57 0 0 0 20.836 5.363 A 4.118 4.118 0 0 0 20.775 5.505 A 4.359 4.359 0 0 0 20.475 6.74 A 4.979 4.979 0 0 0 20.46 6.93 Z M 14.445 8.805 L 14.445 7.26 A 6.97 6.97 0 0 0 12.356 6.811 A 8.212 8.212 0 0 0 11.835 6.795 A 5.588 5.588 0 0 0 11.207 6.829 A 4.234 4.234 0 0 0 10.643 6.93 Q 10.11 7.065 9.728 7.32 Q 9.345 7.575 9.135 7.927 A 1.503 1.503 0 0 0 8.925 8.685 A 1.784 1.784 0 0 0 8.925 8.715 Q 8.925 9.15 9.097 9.532 Q 9.27 9.915 9.57 10.2 Q 9.87 10.485 10.275 10.643 A 2.354 2.354 0 0 0 11.058 10.799 A 2.697 2.697 0 0 0 11.145 10.8 A 4.687 4.687 0 0 0 12.334 10.654 A 4.098 4.098 0 0 0 12.982 10.425 A 3.389 3.389 0 0 0 13.608 10.064 A 2.445 2.445 0 0 0 14.22 9.42 A 1.405 1.405 0 0 0 14.357 9.186 Q 14.445 8.993 14.445 8.805 Z M 46.02 8.805 L 46.02 7.26 A 6.97 6.97 0 0 0 43.931 6.811 A 8.212 8.212 0 0 0 43.41 6.795 A 5.588 5.588 0 0 0 42.782 6.829 A 4.234 4.234 0 0 0 42.218 6.93 Q 41.685 7.065 41.303 7.32 Q 40.92 7.575 40.71 7.927 A 1.503 1.503 0 0 0 40.5 8.685 A 1.784 1.784 0 0 0 40.5 8.715 Q 40.5 9.15 40.673 9.532 Q 40.845 9.915 41.145 10.2 Q 41.445 10.485 41.85 10.643 A 2.354 2.354 0 0 0 42.633 10.799 A 2.697 2.697 0 0 0 42.72 10.8 A 4.687 4.687 0 0 0 43.909 10.654 A 4.098 4.098 0 0 0 44.557 10.425 A 3.389 3.389 0 0 0 45.183 10.064 A 2.445 2.445 0 0 0 45.795 9.42 A 1.405 1.405 0 0 0 45.932 9.186 Q 46.02 8.993 46.02 8.805 Z" vector-effect="non-scaling-stroke"/></g></svg>
