<svg width="54.945" height="14.295"><path d="M35.895 10.515l3.21-7.35h.33L36.03 10.95h-.27l-1.905-4.365-1.905 4.365h-.27l-3.405-7.785h.33l3.21 7.35L33.69 6.21l-1.305-3.03h.315l1.155 2.64 1.155-2.64h.315L34.02 6.21l1.875 4.305zM.3 10.95H0V.3h4.335q.645 0 1.2.277.555.278.953.736.397.457.622 1.035.225.577.225 1.177 0 .615-.195 1.185a3.276 3.276 0 01-.511.957 3.121 3.121 0 01-.044.056q-.36.442-.862.72-.503.277-1.103.322l2.7 4.185h-.36l-2.7-4.185H.3v4.185zm48.9 3.345v-.3q.195 0 .351-.013a2.641 2.641 0 00.092-.009.592.592 0 00.098-.02q.053-.016.093-.041a.254.254 0 00.071-.067.256.256 0 00.025-.03q.024-.033.053-.087a1.492 1.492 0 00.027-.056 7.26 7.26 0 00.035-.075q.053-.115.139-.312a56.781 56.781 0 00.021-.048l.375-.855.549-1.249a1517.411 1517.411 0 01.081-.183l-3.615-7.785h.33l3.435 7.41 3.255-7.41h.33L50.31 13.74a1.181 1.181 0 01-.126.214q-.094.126-.213.198a.642.642 0 01-.156.068q-.3.075-.615.075zm-21.615-7.23v.165H20.46q.06.75.353 1.403a3.98 3.98 0 00.589.946 3.676 3.676 0 00.168.186q.465.48 1.073.757.607.278 1.282.278.45 0 .878-.12.427-.12.802-.337.375-.218.66-.518.285-.3.45-.66L27 9.24q-.165.405-.472.743-.308.337-.721.584a3.823 3.823 0 01-.884.386 4.228 4.228 0 01-.015.005q-.488.142-.998.142-.765 0-1.447-.322-.683-.323-1.193-.885a4.345 4.345 0 01-.805-1.294 4.913 4.913 0 01-.005-.012q-.3-.742-.3-1.582 0-.825.285-1.545t.787-1.26q.503-.54 1.171-.848.667-.307 1.432-.307.78 0 1.463.315.682.315 1.184.855a4.093 4.093 0 01.725 1.094 4.712 4.712 0 01.078.181q.3.735.3 1.575zm-13.14-.135v-.885q0-.6-.18-1.102a2.496 2.496 0 00-.304-.595 2.211 2.211 0 00-.213-.26q-.338-.353-.81-.548a2.595 2.595 0 00-.764-.183 3.133 3.133 0 00-.279-.012 2.997 2.997 0 00-.665.078 4.035 4.035 0 00-.55.17 5.484 5.484 0 00-.771.37 6.956 6.956 0 00-.534.342l-.18-.24a7.87 7.87 0 01.908-.538q.484-.241.932-.361a3.309 3.309 0 01.86-.121 3.439 3.439 0 01.726.074 2.886 2.886 0 01.452.136q.532.21.9.6a2.63 2.63 0 01.48.726 3.142 3.142 0 01.09.219 3.31 3.31 0 01.174.746 4.227 4.227 0 01.028.499v4.305q0 .273.199.298a.336.336 0 00.041.002v.3a1.414 1.414 0 01-.066-.001q-.109-.006-.144-.029a.461.461 0 01-.203-.161.603.603 0 01-.037-.056.689.689 0 01-.089-.317.823.823 0 01-.001-.036v-.72a3.491 3.491 0 01-1.276 1.026 4.133 4.133 0 01-.134.062 4.59 4.59 0 01-1.699.379 5.331 5.331 0 01-.191.003q-.525 0-.99-.187a2.565 2.565 0 01-.637-.367 2.354 2.354 0 01-.166-.143q-.337-.323-.532-.758t-.195-.93a1.818 1.818 0 01.125-.678 1.729 1.729 0 01.108-.222 2.055 2.055 0 01.482-.564 2.492 2.492 0 01.177-.133 3.074 3.074 0 01.564-.302 4.011 4.011 0 01.457-.156 4.468 4.468 0 01.784-.142 5.519 5.519 0 01.513-.023q.675 0 1.365.112a7.208 7.208 0 01.724.155 5.632 5.632 0 01.521.168zm31.575 0v-.885q0-.6-.18-1.102a2.496 2.496 0 00-.304-.595 2.211 2.211 0 00-.213-.26q-.338-.353-.81-.548a2.595 2.595 0 00-.764-.183 3.133 3.133 0 00-.279-.012 2.997 2.997 0 00-.665.078 4.035 4.035 0 00-.55.17 5.484 5.484 0 00-.771.37 6.956 6.956 0 00-.534.342l-.18-.24a7.87 7.87 0 01.908-.538q.484-.241.932-.361a3.309 3.309 0 01.86-.121 3.439 3.439 0 01.726.074 2.886 2.886 0 01.452.136q.532.21.9.6a2.63 2.63 0 01.48.726 3.142 3.142 0 01.09.219 3.31 3.31 0 01.174.746 4.227 4.227 0 01.028.499v4.305q0 .273.199.298a.336.336 0 00.041.002v.3a1.414 1.414 0 01-.066-.001q-.109-.006-.144-.029a.461.461 0 01-.203-.161.603.603 0 01-.037-.056.689.689 0 01-.089-.317.823.823 0 01-.001-.036v-.72a3.491 3.491 0 01-1.276 1.026 4.133 4.133 0 01-.134.062 4.59 4.59 0 01-1.699.379 5.331 5.331 0 01-.191.003q-.525 0-.99-.187a2.565 2.565 0 01-.637-.367 2.354 2.354 0 01-.166-.143q-.337-.323-.532-.758t-.195-.93a1.818 1.818 0 01.125-.678 1.729 1.729 0 01.108-.222 2.055 2.055 0 01.482-.564 2.492 2.492 0 01.177-.133 3.074 3.074 0 01.564-.302 4.011 4.011 0 01.457-.156 4.468 4.468 0 01.784-.142 5.519 5.519 0 01.513-.023q.675 0 1.365.112a7.208 7.208 0 01.724.155 5.632 5.632 0 01.521.168zM17.25 9.795V0h.3v9.795a1.13 1.13 0 00.038.301.826.826 0 00.232.389.911.911 0 00.45.229 1.323 1.323 0 00.27.026q.126 0 .29-.022a3.771 3.771 0 00.107-.016q.233-.037.428-.097l.105.24q-.161.057-.379.102a4.537 4.537 0 01-.139.025 4.567 4.567 0 01-.208.031q-.174.022-.309.022a1.329 1.329 0 01-.405-.059 1.078 1.078 0 01-.45-.278 1.136 1.136 0 01-.307-.614 1.609 1.609 0 01-.023-.279zM.3.6v5.865h4.14a2.425 2.425 0 00.668-.089 2.108 2.108 0 00.412-.166 2.652 2.652 0 00.818-.668q.337-.412.517-.937.18-.525.18-1.08 0-.57-.21-1.095t-.577-.93q-.368-.405-.863-.652Q4.89.6 4.335.6H.3zm20.16 6.33h6.81a4.369 4.369 0 00-.189-1.059 3.911 3.911 0 00-.141-.381q-.285-.66-.743-1.132-.457-.473-1.057-.743-.6-.27-1.29-.27-.69 0-1.29.27-.6.27-1.058.75a3.57 3.57 0 00-.666.998 4.118 4.118 0 00-.061.142 4.359 4.359 0 00-.3 1.235 4.979 4.979 0 00-.015.19zm-6.015 1.875V7.26a6.97 6.97 0 00-2.089-.449 8.212 8.212 0 00-.521-.016 5.588 5.588 0 00-.628.034 4.234 4.234 0 00-.564.101q-.533.135-.915.39-.383.255-.593.607a1.503 1.503 0 00-.21.758 1.784 1.784 0 000 .03q0 .435.172.817.173.383.473.668.3.285.705.443a2.354 2.354 0 00.783.156 2.697 2.697 0 00.087.001 4.687 4.687 0 001.189-.146 4.098 4.098 0 00.648-.229 3.389 3.389 0 00.626-.361 2.445 2.445 0 00.612-.644 1.405 1.405 0 00.137-.234q.088-.193.088-.381zm31.575 0V7.26a6.97 6.97 0 00-2.089-.449 8.212 8.212 0 00-.521-.016 5.588 5.588 0 00-.628.034 4.234 4.234 0 00-.564.101q-.533.135-.915.39-.383.255-.593.607a1.503 1.503 0 00-.21.758 1.784 1.784 0 000 .03q0 .435.173.817.172.383.472.668.3.285.705.443a2.354 2.354 0 00.783.156 2.697 2.697 0 00.087.001 4.687 4.687 0 001.189-.146 4.098 4.098 0 00.648-.229 3.389 3.389 0 00.626-.361 2.445 2.445 0 00.612-.644 1.405 1.405 0 00.137-.234q.088-.193.088-.381z" vector-effect="non-scaling-stroke" stroke-linecap="round" fill-rule="evenodd" font-size="12" stroke="#000" stroke-width=".25mm" fill="none"/></svg>