<svg width="45.3" height="11.397" viewBox="0 0 45.3 11.397"><title>Roboto</title><g id="svgGroup" stroke-linecap="round" fill-rule="evenodd" font-size="9pt" stroke="#000" stroke-width="0.25mm" fill="none" style="stroke:#000;stroke-width:0.25mm;fill:none"><path d="M 6.929 11.25 L 4.094 6.687 L 0.396 6.687 L 0.396 11.25 L 0 11.25 L 0 0.586 L 3.398 0.586 A 5.034 5.034 0 0 1 4.461 0.692 Q 5.149 0.84 5.671 1.197 A 2.998 2.998 0 0 1 5.951 1.414 A 2.719 2.719 0 0 1 6.874 3.212 A 3.855 3.855 0 0 1 6.899 3.662 A 2.898 2.898 0 0 1 6.222 5.57 Q 5.544 6.387 4.497 6.584 L 7.346 11.147 L 7.346 11.25 L 6.929 11.25 Z M 23.958 7.236 L 23.958 7.361 A 6.975 6.975 0 0 1 23.863 8.545 Q 23.683 9.589 23.159 10.305 A 2.638 2.638 0 0 1 22.25 11.106 Q 21.737 11.374 21.094 11.395 A 3.389 3.389 0 0 1 20.984 11.396 A 3.697 3.697 0 0 1 20.064 11.286 A 3.1 3.1 0 0 1 19.387 11.027 A 2.792 2.792 0 0 1 18.281 9.998 L 18.281 11.25 L 17.886 11.25 L 17.886 0 L 18.281 0 L 18.281 4.768 A 3.223 3.223 0 0 1 18.8 4.043 A 2.722 2.722 0 0 1 19.384 3.582 A 2.916 2.916 0 0 1 20.526 3.205 A 3.694 3.694 0 0 1 20.969 3.179 A 2.912 2.912 0 0 1 22.002 3.355 A 2.557 2.557 0 0 1 23.159 4.244 Q 23.791 5.088 23.923 6.472 A 8.084 8.084 0 0 1 23.958 7.236 Z M 34.849 1.187 L 35.251 1.187 L 35.251 3.325 L 37.053 3.325 L 37.053 3.728 L 35.251 3.728 L 35.251 9.353 A 4.122 4.122 0 0 0 35.273 9.792 Q 35.322 10.242 35.477 10.519 A 1.067 1.067 0 0 0 35.526 10.598 Q 35.781 10.972 36.356 10.999 A 1.941 1.941 0 0 0 36.445 11.001 A 3.983 3.983 0 0 0 36.707 10.992 Q 36.849 10.982 37.012 10.963 A 8.473 8.473 0 0 0 37.229 10.935 L 37.295 11.309 Q 37.053 11.396 36.467 11.396 A 2.454 2.454 0 0 1 36.02 11.359 Q 35.771 11.312 35.58 11.21 A 1.092 1.092 0 0 1 35.229 10.917 A 1.482 1.482 0 0 1 35.008 10.501 Q 34.869 10.109 34.851 9.534 A 5.475 5.475 0 0 1 34.849 9.404 L 34.849 3.728 L 33.384 3.728 L 33.384 3.325 L 34.849 3.325 L 34.849 1.187 Z M 9.045 7.485 L 9.045 7.134 A 5.08 5.08 0 0 1 9.179 5.945 A 4.229 4.229 0 0 1 9.481 5.094 A 3.475 3.475 0 0 1 10.218 4.069 A 3.246 3.246 0 0 1 10.712 3.684 A 3.252 3.252 0 0 1 12.385 3.181 A 3.909 3.909 0 0 1 12.51 3.179 A 3.463 3.463 0 0 1 13.702 3.38 A 3.2 3.2 0 0 1 14.297 3.669 A 3.268 3.268 0 0 1 15.443 4.892 A 3.967 3.967 0 0 1 15.531 5.061 A 4.398 4.398 0 0 1 15.95 6.539 A 5.418 5.418 0 0 1 15.981 7.09 L 15.981 7.441 A 5.179 5.179 0 0 1 15.859 8.587 A 4.225 4.225 0 0 1 15.549 9.485 A 3.434 3.434 0 0 1 14.784 10.537 A 3.248 3.248 0 0 1 14.323 10.891 A 3.252 3.252 0 0 1 12.649 11.395 A 3.909 3.909 0 0 1 12.524 11.396 A 3.457 3.457 0 0 1 11.324 11.192 A 3.197 3.197 0 0 1 10.726 10.898 A 3.309 3.309 0 0 1 9.549 9.614 A 3.962 3.962 0 0 1 9.492 9.503 A 4.393 4.393 0 0 1 9.076 8.032 A 5.398 5.398 0 0 1 9.045 7.485 Z M 25.51 7.485 L 25.51 7.134 A 5.08 5.08 0 0 1 25.644 5.945 A 4.229 4.229 0 0 1 25.946 5.094 A 3.475 3.475 0 0 1 26.683 4.069 A 3.246 3.246 0 0 1 27.177 3.684 A 3.252 3.252 0 0 1 28.85 3.181 A 3.909 3.909 0 0 1 28.975 3.179 A 3.463 3.463 0 0 1 30.167 3.38 A 3.2 3.2 0 0 1 30.762 3.669 A 3.268 3.268 0 0 1 31.908 4.892 A 3.967 3.967 0 0 1 31.996 5.061 A 4.398 4.398 0 0 1 32.415 6.539 A 5.418 5.418 0 0 1 32.446 7.09 L 32.446 7.441 A 5.179 5.179 0 0 1 32.324 8.587 A 4.225 4.225 0 0 1 32.014 9.485 A 3.434 3.434 0 0 1 31.249 10.537 A 3.248 3.248 0 0 1 30.787 10.891 A 3.252 3.252 0 0 1 29.114 11.395 A 3.909 3.909 0 0 1 28.989 11.396 A 3.457 3.457 0 0 1 27.789 11.192 A 3.197 3.197 0 0 1 27.191 10.898 A 3.309 3.309 0 0 1 26.013 9.614 A 3.962 3.962 0 0 1 25.957 9.503 A 4.393 4.393 0 0 1 25.541 8.032 A 5.398 5.398 0 0 1 25.51 7.485 Z M 38.364 7.485 L 38.364 7.134 A 5.08 5.08 0 0 1 38.498 5.945 A 4.229 4.229 0 0 1 38.8 5.094 A 3.475 3.475 0 0 1 39.537 4.069 A 3.246 3.246 0 0 1 40.031 3.684 A 3.252 3.252 0 0 1 41.704 3.181 A 3.909 3.909 0 0 1 41.829 3.179 A 3.463 3.463 0 0 1 43.021 3.38 A 3.2 3.2 0 0 1 43.616 3.669 A 3.268 3.268 0 0 1 44.762 4.892 A 3.967 3.967 0 0 1 44.85 5.061 A 4.398 4.398 0 0 1 45.269 6.539 A 5.418 5.418 0 0 1 45.3 7.09 L 45.3 7.441 A 5.179 5.179 0 0 1 45.178 8.587 A 4.225 4.225 0 0 1 44.868 9.485 A 3.434 3.434 0 0 1 44.103 10.537 A 3.248 3.248 0 0 1 43.641 10.891 A 3.252 3.252 0 0 1 41.968 11.395 A 3.909 3.909 0 0 1 41.843 11.396 A 3.457 3.457 0 0 1 40.643 11.192 A 3.197 3.197 0 0 1 40.045 10.898 A 3.309 3.309 0 0 1 38.867 9.614 A 3.962 3.962 0 0 1 38.811 9.503 A 4.393 4.393 0 0 1 38.395 8.032 A 5.398 5.398 0 0 1 38.364 7.485 Z M 9.441 7.207 L 9.441 7.441 A 4.34 4.34 0 0 0 9.622 8.709 A 3.919 3.919 0 0 0 9.833 9.254 Q 10.225 10.078 10.924 10.54 A 2.802 2.802 0 0 0 12.357 10.997 A 3.412 3.412 0 0 0 12.524 11.001 A 2.929 2.929 0 0 0 13.684 10.777 A 2.788 2.788 0 0 0 14.733 9.983 A 3.57 3.57 0 0 0 15.49 8.372 A 5.064 5.064 0 0 0 15.586 7.361 L 15.586 7.134 Q 15.586 6.16 15.19 5.332 A 3.339 3.339 0 0 0 14.618 4.482 A 2.956 2.956 0 0 0 14.095 4.039 A 2.793 2.793 0 0 0 12.537 3.574 A 3.359 3.359 0 0 0 12.51 3.574 A 2.886 2.886 0 0 0 11.314 3.817 A 2.816 2.816 0 0 0 10.298 4.607 A 3.67 3.67 0 0 0 9.505 6.39 A 5.02 5.02 0 0 0 9.441 7.207 Z M 25.906 7.207 L 25.906 7.441 A 4.34 4.34 0 0 0 26.087 8.709 A 3.919 3.919 0 0 0 26.298 9.254 Q 26.689 10.078 27.389 10.54 A 2.802 2.802 0 0 0 28.822 10.997 A 3.412 3.412 0 0 0 28.989 11.001 A 2.929 2.929 0 0 0 30.149 10.777 A 2.788 2.788 0 0 0 31.198 9.983 A 3.57 3.57 0 0 0 31.954 8.372 A 5.064 5.064 0 0 0 32.051 7.361 L 32.051 7.134 Q 32.051 6.16 31.655 5.332 A 3.339 3.339 0 0 0 31.083 4.482 A 2.956 2.956 0 0 0 30.56 4.039 A 2.793 2.793 0 0 0 29.002 3.574 A 3.359 3.359 0 0 0 28.975 3.574 A 2.886 2.886 0 0 0 27.779 3.817 A 2.816 2.816 0 0 0 26.763 4.607 A 3.67 3.67 0 0 0 25.97 6.39 A 5.02 5.02 0 0 0 25.906 7.207 Z M 38.76 7.207 L 38.76 7.441 A 4.34 4.34 0 0 0 38.941 8.709 A 3.919 3.919 0 0 0 39.152 9.254 Q 39.543 10.078 40.243 10.54 A 2.802 2.802 0 0 0 41.676 10.997 A 3.412 3.412 0 0 0 41.843 11.001 A 2.929 2.929 0 0 0 43.003 10.777 A 2.788 2.788 0 0 0 44.052 9.983 A 3.57 3.57 0 0 0 44.808 8.372 A 5.064 5.064 0 0 0 44.905 7.361 L 44.905 7.134 Q 44.905 6.16 44.509 5.332 A 3.339 3.339 0 0 0 43.937 4.482 A 2.956 2.956 0 0 0 43.414 4.039 A 2.793 2.793 0 0 0 41.856 3.574 A 3.359 3.359 0 0 0 41.829 3.574 A 2.886 2.886 0 0 0 40.633 3.817 A 2.816 2.816 0 0 0 39.617 4.607 A 3.67 3.67 0 0 0 38.824 6.39 A 5.02 5.02 0 0 0 38.76 7.207 Z M 18.281 5.61 L 18.281 9.243 A 2.792 2.792 0 0 0 18.739 10.049 A 2.485 2.485 0 0 0 19.288 10.543 A 2.688 2.688 0 0 0 20.25 10.931 A 3.744 3.744 0 0 0 20.991 11.001 A 2.443 2.443 0 0 0 21.862 10.852 Q 22.475 10.62 22.881 10.027 A 3.295 3.295 0 0 0 23.3 9.133 Q 23.431 8.707 23.493 8.19 A 8.326 8.326 0 0 0 23.547 7.207 A 7.006 7.006 0 0 0 23.481 6.213 Q 23.336 5.2 22.87 4.537 Q 22.192 3.574 20.977 3.574 A 3.216 3.216 0 0 0 20.15 3.676 A 2.516 2.516 0 0 0 19.288 4.087 A 2.561 2.561 0 0 0 18.585 4.897 A 3.643 3.643 0 0 0 18.281 5.61 Z M 0.396 0.981 L 0.396 6.292 L 3.757 6.292 A 3.3 3.3 0 0 0 4.647 6.178 A 2.494 2.494 0 0 0 5.746 5.544 A 2.512 2.512 0 0 0 6.502 3.768 A 3.321 3.321 0 0 0 6.504 3.662 A 2.979 2.979 0 0 0 6.386 2.802 A 2.292 2.292 0 0 0 5.665 1.699 A 2.825 2.825 0 0 0 4.565 1.129 Q 4.148 1.014 3.653 0.989 A 5.558 5.558 0 0 0 3.369 0.981 L 0.396 0.981 Z" vector-effect="non-scaling-stroke"/></g></svg>
