<svg width="80.054" height="11.58"><path d="M59.414 2.263V3.94h-.395V2.446a2.978 2.978 0 00-1.257-1.076 3.791 3.791 0 00-.947-.291q-.429-.076-.917-.076a5.25 5.25 0 00-.925.077q-.815.146-1.371.572a2.501 2.501 0 00-.479.473 1.753 1.753 0 00-.367 1.083 1.891 1.891 0 00.595 1.413 2.368 2.368 0 00.105.096 2.89 2.89 0 00.483.327q.731.405 2.047.742a12.906 12.906 0 011.023.313q.998.355 1.613.803a3.782 3.782 0 01.041.03 2.194 2.194 0 01.89 1.611 3.147 3.147 0 01.015.312 2.484 2.484 0 01-.194.998q-.254.585-.839.998a3.872 3.872 0 01-1.452.617 5.489 5.489 0 01-1.133.112 5.42 5.42 0 01-2.055-.4 3.853 3.853 0 01-1.637-1.248V8.174h.396v1.589q.571.747 1.457 1.084a5.131 5.131 0 001.839.337 5.037 5.037 0 001.003-.094q.749-.153 1.307-.55a2.352 2.352 0 00.543-.525 1.892 1.892 0 00.362-1.145 2.204 2.204 0 00-.131-.774 1.928 1.928 0 00-.605-.83 3.323 3.323 0 00-.5-.33q-.747-.411-2.053-.769-1.604-.432-2.452-.969a3.618 3.618 0 01-.217-.148 2.034 2.034 0 01-.821-1.431 3.027 3.027 0 01-.025-.396 2.29 2.29 0 01.234-1.043q.225-.449.668-.792a2.986 2.986 0 01.094-.07q.996-.71 2.541-.71a5.892 5.892 0 011.043.088 4.345 4.345 0 011.056.326 3.24 3.24 0 011.417 1.241zM1.194.769h3.032a6.275 6.275 0 01.977.071q.523.083.944.261a2.835 2.835 0 01.672.397 2.356 2.356 0 01.844 1.432 3.589 3.589 0 01.064.695q0 .901-.575 1.637a2.588 2.588 0 01-1.343.898 3.327 3.327 0 01-.228.058q.775.134 1.254.47a1.801 1.801 0 01.394.373A2.319 2.319 0 017.656 8a3.332 3.332 0 01.071.708v1.077a2.946 2.946 0 00.017.329q.04.353.172.567a.811.811 0 00.027.042.702.702 0 00.513.3 1.049 1.049 0 00.128.007h.374v.396h-.374a1.63 1.63 0 01-.365-.038q-.422-.097-.616-.442a2.004 2.004 0 01-.212-.571q-.052-.244-.059-.524a3.477 3.477 0 010-.08V8.723a2.531 2.531 0 00-.103-.739 1.933 1.933 0 00-.641-.953 2.445 2.445 0 00-.82-.431q-.349-.11-.769-.152a5.425 5.425 0 00-.531-.025H1.589v4.615h1.194v.395H0v-.395h1.194V1.165H0V.769h1.194zm71.14 10.657h-1.296a31.858 31.858 0 01-.044-.244q-.037-.213-.061-.369a7.025 7.025 0 01-.024-.167 4.136 4.136 0 01-.028-.341 5.073 5.073 0 01-.005-.22v-.117a3.337 3.337 0 01-.971.979 4.081 4.081 0 01-.299.182 3.559 3.559 0 01-1.134.387 4.722 4.722 0 01-.789.064q-.971 0-1.578-.466a1.992 1.992 0 01-.154-.131 1.987 1.987 0 01-.621-1.299 2.729 2.729 0 01-.013-.265 1.966 1.966 0 01.694-1.523 2.858 2.858 0 01.281-.22 3.491 3.491 0 011.059-.484q.47-.131 1.029-.171a7.222 7.222 0 01.526-.019h1.97V5.845a2.474 2.474 0 00-.081-.655 1.771 1.771 0 00-.552-.887 2.088 2.088 0 00-.784-.421q-.438-.132-1-.132a4.739 4.739 0 00-1.012.105 4.178 4.178 0 00-.397.107 3.845 3.845 0 00-.642.272 3.068 3.068 0 00-.475.314l-.008 1.267h-.395l.007-1.508q.564-.418 1.329-.685a4.796 4.796 0 011.593-.268q1.109 0 1.835.488a2.459 2.459 0 01.209.157 2.087 2.087 0 01.707 1.218 3.175 3.175 0 01.062.642v3.97a7.144 7.144 0 00.026.608 5.338 5.338 0 00.084.593h.952v.396zm-47.197-3.97v.154q0 1.36-.437 2.3a3.448 3.448 0 01-.354.6q-.791 1.07-2.183 1.07a3.902 3.902 0 01-.817-.082 2.946 2.946 0 01-.82-.303 2.828 2.828 0 01-1.08-1.036l-.051 1.267h-.33V.396h-1.194V0h1.589v4.944a3.081 3.081 0 01.827-.994 2.999 2.999 0 01.243-.171 2.717 2.717 0 011.001-.374 3.652 3.652 0 01.617-.051q1.399 0 2.194 1.11a3.922 3.922 0 01.577 1.233q.15.532.196 1.164a8.065 8.065 0 01.022.595zm54.917 0v.154q0 1.36-.437 2.3a3.448 3.448 0 01-.354.6q-.791 1.07-2.183 1.07a3.902 3.902 0 01-.817-.082 2.946 2.946 0 01-.82-.303 2.828 2.828 0 01-1.08-1.036l-.051 1.267h-.33V.396h-1.194V0h1.589v4.944a3.081 3.081 0 01.827-.994 2.999 2.999 0 01.243-.171 2.717 2.717 0 011.001-.374 3.652 3.652 0 01.617-.051q1.399 0 2.194 1.11a3.922 3.922 0 01.577 1.233q.15.532.196 1.164a8.065 8.065 0 01.022.595zM36.299 1.362h.403v2.139h1.948v.403h-1.948v5.478a4.549 4.549 0 00.023.478q.051.482.214.773a1.029 1.029 0 00.092.137q.33.414.872.414.234 0 .417-.015a8.199 8.199 0 00.101-.008l.261-.027a29.36 29.36 0 00.144-.016l.073.359a2.761 2.761 0 01-.451.081q-.215.02-.485.021a7.656 7.656 0 01-.038.001 1.949 1.949 0 01-.493-.059 1.318 1.318 0 01-.719-.461q-.414-.52-.414-1.678V3.904h-1.465v-.403h1.465V1.362zM62.095.396h-1.194V0h1.589v11.03h1.194v.396h-2.783v-.396h1.194V.396zM10.232 7.617V7.31a5.17 5.17 0 01.147-1.265 3.779 3.779 0 01.816-1.585 3.124 3.124 0 012.264-1.099 4.099 4.099 0 01.237-.007 3.509 3.509 0 011.241.212 3.117 3.117 0 011.268.894 3.846 3.846 0 01.877 1.865 5.401 5.401 0 01.086.985v.307a5.204 5.204 0 01-.147 1.269 3.778 3.778 0 01-.816 1.588 3.118 3.118 0 01-2.258 1.099 4.062 4.062 0 01-.236.007 3.505 3.505 0 01-1.262-.22 3.134 3.134 0 01-1.25-.886 3.837 3.837 0 01-.877-1.85 5.403 5.403 0 01-.09-1.007zm16.428 0V7.31a5.17 5.17 0 01.147-1.265 3.779 3.779 0 01.816-1.585 3.124 3.124 0 012.265-1.099 4.099 4.099 0 01.237-.007 3.509 3.509 0 011.24.212 3.117 3.117 0 011.268.894 3.846 3.846 0 01.877 1.865 5.401 5.401 0 01.086.985v.307a5.204 5.204 0 01-.147 1.269 3.778 3.778 0 01-.816 1.588 3.118 3.118 0 01-2.258 1.099 4.062 4.062 0 01-.236.007 3.505 3.505 0 01-1.261-.22 3.134 3.134 0 01-1.251-.886 3.837 3.837 0 01-.877-1.85 5.403 5.403 0 01-.09-1.007zm13.579 0V7.31a5.17 5.17 0 01.147-1.265 3.779 3.779 0 01.816-1.585 3.124 3.124 0 012.265-1.099 4.099 4.099 0 01.237-.007 3.509 3.509 0 011.24.212 3.117 3.117 0 011.268.894 3.846 3.846 0 01.877 1.865 5.401 5.401 0 01.086.985v.307a5.204 5.204 0 01-.147 1.269 3.778 3.778 0 01-.816 1.588 3.118 3.118 0 01-2.258 1.099 4.062 4.062 0 01-.236.007 3.505 3.505 0 01-1.261-.22 3.134 3.134 0 01-1.251-.886 3.837 3.837 0 01-.877-1.85 5.403 5.403 0 01-.09-1.007zM10.627 7.31v.307a4.437 4.437 0 00.178 1.28 3.642 3.642 0 00.657 1.251 2.69 2.69 0 001.968 1.025 3.63 3.63 0 00.281.011 3.009 3.009 0 001.075-.185 2.685 2.685 0 001.151-.855 3.778 3.778 0 00.811-2.029 4.916 4.916 0 00.024-.498V7.31a4.217 4.217 0 00-.223-1.395 3.73 3.73 0 00-.619-1.114 2.685 2.685 0 00-1.957-1.04 3.477 3.477 0 00-.277-.011 3.004 3.004 0 00-1.08.187 2.684 2.684 0 00-1.154.864 3.838 3.838 0 00-.825 2.195 4.868 4.868 0 00-.01.314zm16.429 0v.307a4.437 4.437 0 00.177 1.28 3.642 3.642 0 00.658 1.251 2.69 2.69 0 001.967 1.025 3.63 3.63 0 00.281.011 3.009 3.009 0 001.075-.185 2.685 2.685 0 001.152-.855 3.778 3.778 0 00.81-2.029 4.916 4.916 0 00.025-.498V7.31a4.217 4.217 0 00-.224-1.395 3.73 3.73 0 00-.619-1.114 2.685 2.685 0 00-1.956-1.04 3.477 3.477 0 00-.277-.011 3.004 3.004 0 00-1.08.187 2.684 2.684 0 00-1.154.864 3.838 3.838 0 00-.825 2.195 4.868 4.868 0 00-.01.314zm13.579 0v.307a4.437 4.437 0 00.177 1.28 3.642 3.642 0 00.658 1.251 2.69 2.69 0 001.967 1.025 3.63 3.63 0 00.281.011 3.009 3.009 0 001.075-.185 2.685 2.685 0 001.152-.855 3.778 3.778 0 00.81-2.029 4.916 4.916 0 00.025-.498V7.31a4.217 4.217 0 00-.224-1.395 3.73 3.73 0 00-.619-1.114 2.685 2.685 0 00-1.956-1.04 3.477 3.477 0 00-.277-.011 3.004 3.004 0 00-1.08.187 2.684 2.684 0 00-1.154.864 3.838 3.838 0 00-.825 2.195 4.868 4.868 0 00-.01.314zm-15.908.3v-.154a6.745 6.745 0 00-.086-1.104q-.151-.914-.574-1.573a2.246 2.246 0 00-.683-.699q-.438-.278-1.011-.322a2.868 2.868 0 00-.217-.008 3.652 3.652 0 00-.703.063q-.414.082-.736.267a1.929 1.929 0 00-.352.26 3.296 3.296 0 00-.905 1.446v3.633q.286.806.971 1.285.685.48 1.739.48 1.253 0 1.905-.967a3.48 3.48 0 00.457-1.014q.128-.457.172-1a7.355 7.355 0 00.023-.593zm54.917 0v-.154a6.745 6.745 0 00-.086-1.104q-.151-.914-.574-1.573a2.246 2.246 0 00-.683-.699q-.438-.278-1.011-.322a2.868 2.868 0 00-.217-.008 3.652 3.652 0 00-.703.063q-.414.082-.736.267a1.929 1.929 0 00-.352.26 3.296 3.296 0 00-.905 1.446v3.633q.286.806.971 1.285.685.48 1.739.48 1.253 0 1.905-.967a3.48 3.48 0 00.457-1.014q.128-.457.172-1a7.355 7.355 0 00.023-.593zM1.589 1.165v4.863h2.564a6.149 6.149 0 00.872-.058q.984-.141 1.534-.631a2.281 2.281 0 00.603-.826 2.28 2.28 0 00.17-.888 2.912 2.912 0 00-.093-.754 2.018 2.018 0 00-.687-1.073q-.781-.633-2.326-.633H1.589zm69.287 8.122V7.405h-1.948a6.104 6.104 0 00-.933.067q-.826.128-1.403.5a2.253 2.253 0 00-.48.407 1.576 1.576 0 00-.399 1.069 1.618 1.618 0 00.492 1.194 1.966 1.966 0 00.05.048 1.842 1.842 0 00.908.452 2.634 2.634 0 00.52.049 4.201 4.201 0 00.986-.111 3.329 3.329 0 00.962-.394q.828-.505 1.245-1.399z" vector-effect="non-scaling-stroke" stroke-linecap="round" fill-rule="evenodd" font-size="12" stroke="#000" stroke-width=".25mm" fill="none"/></svg>