<svg width="108.179" height="11.397"><path d="M50.757 7.925h.849a6.507 6.507 0 01-.134.981q-.113.51-.309.912a2.695 2.695 0 01-.523.74 2.8 2.8 0 01-1.317.721q-.442.11-.964.117a5.294 5.294 0 01-.07 0 3.281 3.281 0 01-1.148-.192 2.859 2.859 0 01-1.291-.976 4.064 4.064 0 01-.669-1.365q-.164-.574-.212-1.258a8.293 8.293 0 01-.02-.552V4.739a7.207 7.207 0 01.098-1.228q.119-.687.382-1.237a3.594 3.594 0 01.432-.692Q46.772.439 48.354.439a4.174 4.174 0 01.943.101q.676.156 1.159.558a2.56 2.56 0 01.213.198 2.904 2.904 0 01.581.921q.17.415.263.93a6.973 6.973 0 01.093.779h-.849a6.517 6.517 0 00-.1-.741q-.175-.882-.585-1.332a1.783 1.783 0 00-.795-.495q-.401-.128-.923-.128a2.593 2.593 0 00-.846.132 2.144 2.144 0 00-1.036.769q-.674.901-.674 2.615v2.285q0 1.699.652 2.644a2.153 2.153 0 00.757.694q.411.22.931.247a2.855 2.855 0 00.151.004 3.941 3.941 0 00.645-.049q.343-.057.612-.18a1.623 1.623 0 00.544-.393 2.013 2.013 0 00.337-.54q.224-.513.307-1.286a7.75 7.75 0 00.023-.247zM5.471 11.25L3.333 6.812H.842v4.438H0V.586h2.922q1.271 0 2.043.631a2.499 2.499 0 01.217.2 2.74 2.74 0 01.675 1.235q.127.487.127 1.076a3.624 3.624 0 01-.137 1.012 3.063 3.063 0 01-.361.801 2.587 2.587 0 01-1.34 1.08l2.219 4.534v.095h-.894zm55.408-7.925h.776l.022 1.26q.352-.645.897-1.025.546-.381 1.242-.381 2.073 0 2.124 2.761v5.31h-.806V6.028q-.007-1.062-.373-1.568-.366-.505-1.15-.505a1.59 1.59 0 00-1.017.367 2.106 2.106 0 00-.129.113 2.585 2.585 0 00-.484.631q-.158.285-.273.634a4.439 4.439 0 00-.016.05v5.5h-.813V3.325zm21.401 0h.777l.022 1.26q.351-.645.897-1.025.545-.381 1.241-.381 2.073 0 2.124 2.761v5.31h-.805V6.028q-.008-1.062-.374-1.568-.366-.505-1.15-.505a1.59 1.59 0 00-1.017.367 2.106 2.106 0 00-.129.113 2.585 2.585 0 00-.483.631q-.159.285-.274.634a4.439 4.439 0 00-.016.05v5.5h-.813V3.325zM94.241 5.5h-.813a1.614 1.614 0 00-.102-.581 1.461 1.461 0 00-.36-.535 1.566 1.566 0 00-.869-.419 2.177 2.177 0 00-.332-.025 2.279 2.279 0 00-.468.046q-.398.083-.671.321a1.188 1.188 0 00-.418.862 1.562 1.562 0 00-.003.09 1.144 1.144 0 00.061.38.976.976 0 00.261.396q.323.3 1.392.813a19.141 19.141 0 01.51.231q.46.218.752.394a3.054 3.054 0 01.261.173 2.6 2.6 0 01.357.322 1.985 1.985 0 01.273.378 1.668 1.668 0 01.18.522 2.251 2.251 0 01.033.39 2.285 2.285 0 01-.104.705 1.85 1.85 0 01-.577.855 2.353 2.353 0 01-1.006.494q-.351.082-.762.084a4.255 4.255 0 01-.027 0 3.524 3.524 0 01-.821-.09 2.483 2.483 0 01-1.087-.554q-.729-.645-.729-1.663h.821a2.027 2.027 0 00.08.489 1.404 1.404 0 00.414.658q.458.406 1.322.406a2.485 2.485 0 00.499-.047q.315-.065.559-.217a1.46 1.46 0 00.143-.102 1.172 1.172 0 00.45-.853 1.535 1.535 0 00.004-.121 1.137 1.137 0 00-.308-.78 1.585 1.585 0 00-.116-.117q-.425-.385-1.44-.843-1.014-.458-1.417-.761a2.495 2.495 0 01-.312-.277q-.174-.184-.281-.386a1.594 1.594 0 01-.159-.473 2.162 2.162 0 01-.032-.377 2.075 2.075 0 01.16-.824 1.969 1.969 0 01.5-.688q.659-.597 1.706-.597a3.239 3.239 0 01.767.086 2.25 2.25 0 011.035.551 2.122 2.122 0 01.654 1.337 2.954 2.954 0 01.02.347zM20.859 6.782v.879a8.418 8.418 0 01-.056 1.01q-.062.509-.191.925a3.21 3.21 0 01-.393.848 2.069 2.069 0 01-1.51.927 2.999 2.999 0 01-.398.025 2.535 2.535 0 01-.921-.159q-.633-.245-1.04-.864a2.954 2.954 0 01-.112-.185l-.037 1.062h-.754V0h.805v4.431q.624-1.172 1.87-1.247a2.884 2.884 0 01.174-.005 2.873 2.873 0 01.771.097 2.003 2.003 0 011.141.807q.617.887.65 2.629a10.249 10.249 0 01.001.07zm46.949.96v-.821q0-1.86.651-2.801.652-.941 1.934-.941 1.348 0 2.014 1.208V0h.813v11.25h-.762l-.036-1.018q-.597 1.043-1.757 1.152a2.979 2.979 0 01-.279.012 2.617 2.617 0 01-.823-.122 2.087 2.087 0 01-1.085-.83 3.313 3.313 0 01-.427-.905q-.235-.758-.243-1.797zm34.958 0v-.821q0-1.86.652-2.801.652-.941 1.934-.941 1.347 0 2.014 1.208V0h.813v11.25h-.762l-.037-1.018q-.596 1.043-1.757 1.152a2.979 2.979 0 01-.279.012 2.617 2.617 0 01-.823-.122 2.087 2.087 0 01-1.085-.83 3.313 3.313 0 01-.427-.905q-.234-.758-.243-1.797zm-27.729.132v-.967q0-1.743.761-2.736a2.442 2.442 0 011.771-.977 3.314 3.314 0 01.324-.015 3.139 3.139 0 01.81.098 2.157 2.157 0 011.157.744 2.664 2.664 0 01.428.794q.254.724.264 1.776a8.788 8.788 0 010 .008v.762h-4.71v.447a5.145 5.145 0 00.057.79q.066.425.21.768a2.324 2.324 0 00.316.544 1.895 1.895 0 001.324.721 2.752 2.752 0 00.32.018 2.602 2.602 0 00.94-.164 2.345 2.345 0 00.957-.693l.425.542a2.509 2.509 0 01-1.613.995 3.916 3.916 0 01-.746.067 3.43 3.43 0 01-.945-.123 2.528 2.528 0 01-1.245-.792q-.657-.761-.778-2.057a6.516 6.516 0 01-.027-.55zm20.778 0v-.967q0-1.743.762-2.736a2.442 2.442 0 011.771-.977 3.314 3.314 0 01.324-.015 3.139 3.139 0 01.81.098 2.157 2.157 0 011.156.744 2.664 2.664 0 01.429.794q.254.724.263 1.776a8.788 8.788 0 01.001.008v.762h-4.71v.447a5.145 5.145 0 00.057.79q.066.425.209.768a2.324 2.324 0 00.316.544 1.895 1.895 0 001.324.721 2.752 2.752 0 00.321.018 2.602 2.602 0 00.94-.164 2.345 2.345 0 00.957-.693l.424.542a2.509 2.509 0 01-1.612.995 3.916 3.916 0 01-.746.067 3.43 3.43 0 01-.945-.123 2.528 2.528 0 01-1.245-.792q-.657-.761-.778-2.057a6.516 6.516 0 01-.028-.55zm-65.302-6.57h.813v2.021h1.355v.733h-1.355v5.266q0 .652.194.97a.637.637 0 00.437.299 1.051 1.051 0 00.211.02q.164 0 .461-.051a7.463 7.463 0 00.125-.022l.022.732a1.165 1.165 0 01-.214.07q-.239.054-.584.054a1.456 1.456 0 01-.694-.155q-.594-.316-.731-1.276a4.333 4.333 0 01-.04-.531V4.058H29.29v-.733h1.223V1.304zM7.778 7.822v-.937q0-1.292.441-2.176a3.163 3.163 0 01.336-.534 2.491 2.491 0 011.82-.984 3.366 3.366 0 01.296-.012 2.971 2.971 0 01.966.149 2.461 2.461 0 011.155.832 3.355 3.355 0 01.569 1.124q.142.475.189 1.043a6.954 6.954 0 01.022.536v.842q0 1.249-.401 2.103a3.047 3.047 0 01-.379.614 2.509 2.509 0 01-1.822.963 3.38 3.38 0 01-.284.011 2.973 2.973 0 01-.969-.151 2.479 2.479 0 01-1.133-.801q-.667-.818-.783-2.166a6.722 6.722 0 01-.023-.456zm14.656 0v-.937q0-1.292.441-2.176a3.163 3.163 0 01.335-.534 2.491 2.491 0 011.821-.984 3.366 3.366 0 01.296-.012 2.971 2.971 0 01.965.149 2.461 2.461 0 011.156.832 3.355 3.355 0 01.568 1.124q.143.475.189 1.043a6.954 6.954 0 01.023.536v.842q0 1.249-.401 2.103a3.047 3.047 0 01-.379.614 2.509 2.509 0 01-1.823.963 3.38 3.38 0 01-.283.011 2.973 2.973 0 01-.969-.151 2.479 2.479 0 01-1.133-.801q-.667-.818-.783-2.166a6.722 6.722 0 01-.023-.456zm11.565 0v-.937q0-1.292.441-2.176a3.163 3.163 0 01.335-.534 2.491 2.491 0 011.821-.984 3.366 3.366 0 01.296-.012 2.971 2.971 0 01.965.149 2.461 2.461 0 011.155.832 3.355 3.355 0 01.569 1.124q.143.475.189 1.043a6.954 6.954 0 01.022.536v.842q0 1.249-.4 2.103a3.047 3.047 0 01-.38.614 2.509 2.509 0 01-1.822.963 3.38 3.38 0 01-.283.011 2.973 2.973 0 01-.969-.151 2.479 2.479 0 01-1.133-.801q-.668-.818-.783-2.166a6.722 6.722 0 01-.023-.456zm19.211 0v-.937q0-1.292.441-2.176a3.163 3.163 0 01.336-.534 2.491 2.491 0 011.82-.984 3.366 3.366 0 01.297-.012 2.971 2.971 0 01.965.149 2.461 2.461 0 011.155.832 3.355 3.355 0 01.569 1.124q.142.475.189 1.043a6.954 6.954 0 01.022.536v.842q0 1.249-.401 2.103a3.047 3.047 0 01-.379.614 2.509 2.509 0 01-1.822.963 3.38 3.38 0 01-.284.011 2.973 2.973 0 01-.969-.151 2.479 2.479 0 01-1.133-.801q-.667-.818-.783-2.166a6.722 6.722 0 01-.023-.456zM8.599 6.826v.879q0 1.37.553 2.153.52.739 1.421.781a2.368 2.368 0 00.113.003q1.003 0 1.534-.754a2.577 2.577 0 00.345-.721q.189-.605.194-1.44v-.842a5.469 5.469 0 00-.06-.836q-.069-.446-.218-.808a2.582 2.582 0 00-.279-.513 1.869 1.869 0 00-.59-.552q-.37-.213-.842-.234a2.334 2.334 0 00-.099-.002 1.86 1.86 0 00-.776.158q-.388.176-.677.547a2.294 2.294 0 00-.048.064 2.717 2.717 0 00-.393.816q-.17.564-.178 1.301zm14.655 0v.879q0 1.37.553 2.153.521.739 1.422.781a2.368 2.368 0 00.113.003q1.003 0 1.534-.754a2.577 2.577 0 00.345-.721q.189-.605.194-1.44v-.842a5.469 5.469 0 00-.06-.836q-.069-.446-.218-.808a2.582 2.582 0 00-.279-.513 1.869 1.869 0 00-.59-.552q-.37-.213-.842-.234a2.334 2.334 0 00-.099-.002 1.86 1.86 0 00-.776.158q-.388.176-.677.547a2.294 2.294 0 00-.048.064 2.717 2.717 0 00-.393.816q-.171.564-.179 1.301zm11.565 0v.879q0 1.37.553 2.153.521.739 1.422.781a2.368 2.368 0 00.113.003q1.003 0 1.534-.754a2.577 2.577 0 00.345-.721q.189-.605.193-1.44v-.842a5.469 5.469 0 00-.059-.836q-.069-.446-.218-.808a2.582 2.582 0 00-.279-.513 1.869 1.869 0 00-.59-.552q-.37-.213-.842-.234a2.334 2.334 0 00-.099-.002 1.86 1.86 0 00-.776.158q-.388.176-.677.547a2.294 2.294 0 00-.048.064 2.717 2.717 0 00-.394.816q-.17.564-.178 1.301zm19.212 0v.879q0 1.37.553 2.153.521.739 1.422.781a2.368 2.368 0 00.112.003q1.004 0 1.535-.754a2.577 2.577 0 00.345-.721q.189-.605.193-1.44v-.842a5.469 5.469 0 00-.06-.836q-.069-.446-.218-.808a2.582 2.582 0 00-.279-.513 1.869 1.869 0 00-.59-.552q-.37-.213-.842-.234a2.334 2.334 0 00-.098-.002 1.86 1.86 0 00-.777.158q-.388.176-.677.547a2.294 2.294 0 00-.048.064 2.717 2.717 0 00-.393.816q-.17.564-.178 1.301zm-33.985.886v-.791q0-1.508-.446-2.233A1.467 1.467 0 0018.567 4a2.377 2.377 0 00-.432-.038 1.955 1.955 0 00-.88.191q-.668.331-1.003 1.238v3.925a2.348 2.348 0 00.305.549 1.924 1.924 0 00.428.415q.483.34 1.164.34a2.109 2.109 0 00.578-.074 1.464 1.464 0 00.854-.633 2.314 2.314 0 00.257-.563q.204-.645.208-1.638zm48.589-.842v.791a8.066 8.066 0 00.036.791q.079.794.329 1.286a1.927 1.927 0 00.093.164 1.5 1.5 0 001.085.691 2.371 2.371 0 00.369.027 2.079 2.079 0 00.86-.171q.484-.217.809-.709a2.773 2.773 0 00.191-.343V5.288a2.619 2.619 0 00-.38-.656q-.537-.659-1.444-.669a2.539 2.539 0 00-.029-.001q-.996 0-1.454.711-.457.71-.465 2.197zm34.959 0v.791a8.066 8.066 0 00.036.791q.078.794.328 1.286a1.927 1.927 0 00.094.164 1.5 1.5 0 001.085.691 2.371 2.371 0 00.368.027 2.079 2.079 0 00.861-.171q.483-.217.808-.709a2.773 2.773 0 00.192-.343V5.288a2.619 2.619 0 00-.381-.656q-.537-.659-1.443-.669a2.539 2.539 0 00-.029-.001q-.996 0-1.454.711-.458.71-.465 2.197zM.842 1.377v4.658h2.227a2.226 2.226 0 00.692-.103 1.808 1.808 0 00.817-.545 2.26 2.26 0 00.519-1.119 3.138 3.138 0 00.045-.54 3.452 3.452 0 00-.063-.681q-.083-.411-.275-.728a1.877 1.877 0 00-.248-.327q-.586-.615-1.641-.615H.842zM75.85 6.599h3.889v-.212a4.939 4.939 0 00-.095-.892q-.317-1.511-1.673-1.553a2.529 2.529 0 00-.078-.002 2.165 2.165 0 00-.632.088 1.637 1.637 0 00-.844.59 2.36 2.36 0 00-.342.653q-.11.311-.167.692a5.791 5.791 0 00-.058.636zm20.778 0h3.89v-.212a4.939 4.939 0 00-.095-.892q-.318-1.511-1.673-1.553a2.529 2.529 0 00-.078-.002 2.165 2.165 0 00-.633.088 1.637 1.637 0 00-.843.59 2.36 2.36 0 00-.342.653q-.11.311-.167.692a5.791 5.791 0 00-.059.636z" vector-effect="non-scaling-stroke" stroke-linecap="round" fill-rule="evenodd" font-size="12" stroke="#000" stroke-width=".25mm" fill="none"/></svg>