<svg width="63.334" height="14.444"><path d="M.111 10.778V8.704h1v1.37q.469.174 1.151.222a7.861 7.861 0 00.553.019 3.537 3.537 0 00.62-.051q.342-.061.614-.195a1.747 1.747 0 00.349-.226 1.544 1.544 0 00.556-1.089 2.178 2.178 0 00.009-.198 1.93 1.93 0 00-.029-.347q-.039-.212-.128-.385a1.782 1.782 0 00-.426-.537 2.512 2.512 0 00-.293-.216q-.173-.11-.383-.21a12.21 12.21 0 00-.435-.197 16.731 16.731 0 00-.491-.201q-.5-.185-.991-.398-.491-.213-.889-.528a2.399 2.399 0 01-.608-.722 2.779 2.779 0 01-.04-.074 2.152 2.152 0 01-.202-.601A2.984 2.984 0 010 3.593a2.633 2.633 0 01.167-.955 2.358 2.358 0 01.722-.981 3.034 3.034 0 011.141-.576Q2.597.926 3.296.926a5.563 5.563 0 011.784.281 5.13 5.13 0 01.661.274v2.038h-1V2.185a3.529 3.529 0 00-.839-.228 4.725 4.725 0 00-.698-.05 3.435 3.435 0 00-.581.046q-.308.053-.553.167a1.553 1.553 0 00-.403.269 1.671 1.671 0 00-.364.474 1.482 1.482 0 00-.155.674 1.761 1.761 0 00.028.322q.036.194.119.352a1.099 1.099 0 00.011.02 1.586 1.586 0 00.324.408 1.91 1.91 0 00.12.102 2.481 2.481 0 00.32.208q.165.091.358.17a3.988 3.988 0 00.026.011 139.341 139.341 0 00.438.174l.497.196a16.549 16.549 0 011.009.435 4.007 4.007 0 01.674.399 3.567 3.567 0 01.197.157 2.45 2.45 0 01.609.792 2.779 2.779 0 01.002.004 2.073 2.073 0 01.158.461q.073.327.073.733a2.879 2.879 0 01-.157.971 2.466 2.466 0 01-.759 1.076 3.13 3.13 0 01-1.229.62q-.455.12-.992.143a5.987 5.987 0 01-.252.005 6.707 6.707 0 01-1.996-.291 6.169 6.169 0 01-.615-.227zm59.982-4.111l1.278-1.815v-.037h-.63v-.926h2.5v.926h-.87l-1.834 2.537 1.926 2.833h.871v.926h-2.778v-.926h.648v-.037l-1.333-1.963-1.371 1.963v.037h.759v.926h-2.592v-.926h.833l1.926-2.704-1.815-2.666h-.852v-.926h2.686v.926h-.593v.037l1.241 1.815zM40.704 9.074h.963v2.037h-5.556v-.833a21.952 21.952 0 001.598-1.419 16.655 16.655 0 001.31-1.442q1.166-1.454 1.166-2.454 0-.667-.314-1.056-.3-.37-1.087-.388a3.566 3.566 0 00-.08 0 3.506 3.506 0 00-1.208.22 4.142 4.142 0 00-.237.094v1.352h-.963V3.296a5.931 5.931 0 011.264-.525 4.714 4.714 0 011.274-.178 3.972 3.972 0 01.724.061q.402.075.718.24a1.954 1.954 0 01.428.3 1.981 1.981 0 01.6 1.115 2.905 2.905 0 01.048.543 2.992 2.992 0 01-.19 1.013q-.283.787-.986 1.672a16.422 16.422 0 01-2.583 2.611v.037h3.111V9.074zm8.648-5.185h1.982l.055.592h.037a3.019 3.019 0 01.794-.543 2.54 2.54 0 011.076-.234 2.321 2.321 0 011.07.243q.443.226.787.662a3.017 3.017 0 01.051.067q.653.879.716 2.266a6.645 6.645 0 01.006.299 6.111 6.111 0 01-.118 1.239q-.163.786-.55 1.396a3.639 3.639 0 01-.212.3 3.074 3.074 0 01-.792.725 2.672 2.672 0 01-1.439.395 3.092 3.092 0 01-1.217-.255 3.657 3.657 0 01-.172-.078l-.037.018v2.538H52.5v.925h-3.148v-.925h.926V4.815h-.926v-.926zm-3.833 8.889h-1.26a11.177 11.177 0 01.268-1.933 12.691 12.691 0 01.112-.456 21.776 21.776 0 01.787-2.398 25.088 25.088 0 011.019-2.26 41.902 41.902 0 01.551-1.039 33.776 33.776 0 01.541-.951l-.018-.037h-3.778v1.24h-.963V2.778h5.926v.796a30.887 30.887 0 00-1.213 2.167q-.565 1.111-1 2.259a16.439 16.439 0 00-.695 2.343q-.259 1.194-.277 2.435zM11.667 5.926v-1.5q1.278-.722 2.611-.722a4.011 4.011 0 01.681.054q.666.115 1.087.473a1.626 1.626 0 01.482.73q.093.271.124.605a3.749 3.749 0 01.015.341v4.278h.926v.926h-1.926l-.056-.833-.037-.019a3.07 3.07 0 01-.855.709 2.726 2.726 0 01-1.33.328 2.651 2.651 0 01-.653-.076 1.856 1.856 0 01-.875-.489 1.908 1.908 0 01-.559-1.268 2.551 2.551 0 01-.006-.167 2.114 2.114 0 01.141-.788q.236-.593.869-.952a3.657 3.657 0 01.833-.336q.806-.223 1.946-.238a12.551 12.551 0 01.156-.001h.315V5.889q0-.397-.109-.66a.834.834 0 00-.215-.312q-.3-.266-.971-.286a3.762 3.762 0 00-.113-.001 4.629 4.629 0 00-.639.041q-.342.048-.629.15a2.484 2.484 0 00-.25.105v1h-.963zM20.278 0v4.352l.037.018a2.727 2.727 0 011.833-.666q1.204 0 1.936 1.018a3.734 3.734 0 01.591 1.328q.123.513.138 1.111a6.734 6.734 0 01.002.172 5.911 5.911 0 01-.11 1.179q-.145.708-.477 1.256a3.268 3.268 0 01-.348.473 3.072 3.072 0 01-1.908 1.008 4.421 4.421 0 01-.657.047q-1.056 0-2.148-.352V.926h-.926V0h2.037zM7.222 11.111v-.926h.926V.926h-.926V0h2.037v10.185h.926v.926H7.222zM26.31 6.389a5.823 5.823 0 00-.106 1.148 6.941 6.941 0 00.008.342q.073 1.467.779 2.39.455.594 1.093.844a2.786 2.786 0 001.027.183q1.352 0 2.185-1.074a3.453 3.453 0 00.274-.41q.56-.984.56-2.442 0-.901-.211-1.593a3.208 3.208 0 00-.576-1.11 2.526 2.526 0 00-1.089-.793 2.893 2.893 0 00-1.013-.17 2.734 2.734 0 00-1.286.301 2.91 2.91 0 00-.89.736 3.272 3.272 0 00-.293.414q-.322.54-.462 1.234zm-6.032-1.148v5.018a5.565 5.565 0 001.084.111 5.179 5.179 0 00.009 0 2.883 2.883 0 00.672-.073 1.877 1.877 0 001.022-.612 2.052 2.052 0 00.355-.628q.228-.619.228-1.557a6.346 6.346 0 00-.049-.814q-.053-.41-.164-.748a2.741 2.741 0 00-.24-.54 1.573 1.573 0 00-.466-.511q-.378-.257-.914-.257-.815 0-1.537.611zm31.111.185v4.667q.556.277 1.296.277a2.138 2.138 0 00.675-.101 1.736 1.736 0 00.853-.621 2.271 2.271 0 00.332-.649q.201-.594.214-1.456a7.988 7.988 0 000-.117 6.884 6.884 0 00-.038-.752q-.084-.767-.357-1.235a1.748 1.748 0 00-.086-.133q-.482-.676-1.296-.676a1.922 1.922 0 00-1.2.425 2.854 2.854 0 00-.393.371zM27.371 7.37q0 1.463.472 2.232.472.768 1.361.768a1.546 1.546 0 00.653-.134q.327-.15.567-.47a1.958 1.958 0 00.076-.109 2.344 2.344 0 00.264-.578q.179-.574.197-1.409a8.789 8.789 0 00.002-.189 6.707 6.707 0 00-.064-.969q-.276-1.882-1.751-1.882a1.827 1.827 0 00-.571.085 1.444 1.444 0 00-.753.572q-.411.596-.45 1.825a8.309 8.309 0 00-.003.258zm-11.815.408h-.445q-1.199 0-1.876.285a2.209 2.209 0 00-.087.039 1.208 1.208 0 00-.429.326q-.256.315-.256.813 0 .39.145.64a.788.788 0 00.188.221 1.186 1.186 0 00.517.236 1.68 1.68 0 00.335.032 2.412 2.412 0 001.769-.758 3.322 3.322 0 00.139-.149V7.778z" vector-effect="non-scaling-stroke" stroke-linecap="round" fill-rule="evenodd" font-size="12" stroke="#000" stroke-width=".25mm" fill="none"/></svg>