<svg width="95.58" height="10.26"><path d="M0 8.76l.33-.33q.54.63 1.305 1.005.765.375 1.665.375a3.933 3.933 0 00.587-.042 3.03 3.03 0 00.493-.115 2.785 2.785 0 00.47-.202 2.235 2.235 0 00.347-.233q.338-.278.526-.668.187-.39.187-.87 0-.495-.15-.832a1.928 1.928 0 00-.375-.562 1.846 1.846 0 00-.022-.023 2.475 2.475 0 00-.497-.382 2.806 2.806 0 00-.081-.046 8.968 8.968 0 00-.52-.262 10.205 10.205 0 00-.185-.083L2.55 4.8a6.698 6.698 0 01-.366-.171 8.531 8.531 0 01-.301-.159q-.353-.195-.653-.472a2.224 2.224 0 01-.431-.554 2.582 2.582 0 01-.064-.121 1.83 1.83 0 01-.152-.467Q.54 2.63.54 2.37a2.282 2.282 0 01.09-.65 2.046 2.046 0 01.12-.31q.21-.435.585-.75a2.628 2.628 0 01.683-.411A3.11 3.11 0 012.22.173Q2.73 0 3.33 0a3.902 3.902 0 01.821.083 3.045 3.045 0 01.762.27 4.721 4.721 0 01.611.374 3.545 3.545 0 01.506.443l-.3.33q-.435-.48-1.035-.765Q4.095.45 3.33.45a3.372 3.372 0 00-.713.071q-.559.121-.959.447a1.657 1.657 0 00-.632 1.208 2.168 2.168 0 00-.006.164 2.089 2.089 0 00.028.354q.042.242.145.434.172.322.435.555.262.232.562.39.3.157.57.277l1.53.69q.405.18.788.398.382.217.675.517a2.234 2.234 0 01.437.649 2.556 2.556 0 01.027.064q.173.412.173.982 0 .57-.225 1.043-.225.472-.63.825a2.757 2.757 0 01-.684.432 3.354 3.354 0 01-.291.115 3.61 3.61 0 01-.8.172 4.477 4.477 0 01-.46.023 4.951 4.951 0 01-.914-.08 3.626 3.626 0 01-1.006-.34Q.57 9.42 0 8.76zm44.64 0l.33-.33q.54.63 1.305 1.005.765.375 1.665.375a3.933 3.933 0 00.587-.042 3.03 3.03 0 00.493-.115 2.785 2.785 0 00.47-.202 2.235 2.235 0 00.347-.233q.338-.278.526-.668.187-.39.187-.87 0-.495-.15-.832a1.928 1.928 0 00-.375-.562 1.846 1.846 0 00-.022-.023 2.475 2.475 0 00-.497-.382 2.806 2.806 0 00-.081-.046 8.968 8.968 0 00-.52-.262 10.205 10.205 0 00-.185-.083l-1.53-.69a6.698 6.698 0 01-.366-.171 8.531 8.531 0 01-.301-.159q-.353-.195-.653-.472a2.224 2.224 0 01-.431-.554 2.582 2.582 0 01-.064-.121 1.83 1.83 0 01-.152-.467q-.043-.226-.043-.486a2.282 2.282 0 01.09-.65 2.046 2.046 0 01.12-.31q.21-.435.585-.75a2.628 2.628 0 01.683-.411 3.11 3.11 0 01.202-.076Q47.37 0 47.97 0a3.902 3.902 0 01.821.083 3.045 3.045 0 01.762.27 4.721 4.721 0 01.611.374 3.545 3.545 0 01.506.443l-.3.33q-.435-.48-1.035-.765-.6-.285-1.365-.285a3.372 3.372 0 00-.713.071q-.559.121-.959.447a1.657 1.657 0 00-.632 1.208 2.168 2.168 0 00-.006.164 2.089 2.089 0 00.028.354q.042.242.145.434.172.322.435.555.262.232.562.39.3.157.57.277l1.53.69q.405.18.788.398.382.217.675.517a2.234 2.234 0 01.437.649 2.556 2.556 0 01.027.064q.173.412.173.982 0 .57-.225 1.043-.225.472-.63.825a2.757 2.757 0 01-.684.432 3.354 3.354 0 01-.291.115 3.61 3.61 0 01-.8.172 4.477 4.477 0 01-.46.023 4.951 4.951 0 01-.914-.08 3.626 3.626 0 01-1.006-.34q-.81-.42-1.38-1.08zM16.32 7.53V2.91h.45v4.56a5.7 5.7 0 00.032.626q.082.739.373 1.159.405.585 1.335.585.675 0 1.23-.375.555-.375 1.23-1.185V2.91h.45v7.17h-.39l-.06-1.23h-.03a6.264 6.264 0 01-.586.602 4.878 4.878 0 01-.539.418q-.585.39-1.335.39a2.951 2.951 0 01-.622-.061q-.384-.083-.668-.277a1.575 1.575 0 01-.345-.322 2.025 2.025 0 01-.319-.597q-.193-.551-.205-1.36a7.333 7.333 0 01-.001-.113zm44.52 2.55h-.45V2.91h.39l.06 1.14h.03a7.673 7.673 0 01.646-.579 6.139 6.139 0 01.509-.366 2.385 2.385 0 011.19-.371 2.907 2.907 0 01.145-.004 2.951 2.951 0 01.622.061q.384.083.668.278a1.575 1.575 0 01.345.321 2.025 2.025 0 01.319.597q.193.551.205 1.36a7.333 7.333 0 01.001.113v4.62h-.45V5.52a5.7 5.7 0 00-.032-.626q-.082-.738-.373-1.159-.405-.585-1.335-.585-.675 0-1.237.36-.409.262-.885.713a10.94 10.94 0 00-.368.367v5.49zm6.51-.81l.3-.36q.45.39.99.66a2.379 2.379 0 00.566.194q.264.057.572.071a4.546 4.546 0 00.212.005 2.705 2.705 0 00.399-.028 1.985 1.985 0 00.396-.099 1.94 1.94 0 00.306-.143 1.474 1.474 0 00.264-.195q.225-.21.345-.487.12-.278.12-.578a1.32 1.32 0 00-.036-.316 1.037 1.037 0 00-.129-.306q-.165-.263-.42-.465a2.399 2.399 0 00-.498-.303 2.715 2.715 0 00-.08-.035q-.322-.135-.637-.255-.42-.15-.832-.315a4.228 4.228 0 01-.566-.275 3.705 3.705 0 01-.184-.115 1.908 1.908 0 01-.531-.522 1.848 1.848 0 01-.017-.025q-.21-.323-.21-.788 0-.375.143-.712.142-.338.427-.593a1.93 1.93 0 01.409-.278 2.466 2.466 0 01.296-.127 2.476 2.476 0 01.477-.116q.234-.034.498-.034.54 0 1.065.203a3.614 3.614 0 01.604.297 3.052 3.052 0 01.311.22l-.27.36q-.36-.27-.765-.465T69.9 3.15a2.839 2.839 0 00-.368.023q-.225.029-.412.097a1.768 1.768 0 00-.283.131 1.326 1.326 0 00-.257.192 1.418 1.418 0 00-.239.299 1.274 1.274 0 00-.076.151q-.105.247-.105.517a1.211 1.211 0 00.029.27.907.907 0 00.121.293 1.421 1.421 0 00.315.343 1.67 1.67 0 00.082.062 3.113 3.113 0 00.387.228 3.673 3.673 0 00.168.079q.308.135.638.255.42.165.855.33t.773.398q.337.232.555.585.205.332.216.818a2.464 2.464 0 01.001.059q0 .39-.157.75-.158.36-.45.63a1.986 1.986 0 01-.401.284 2.599 2.599 0 01-.335.151 2.588 2.588 0 01-.589.141 3.335 3.335 0 01-.408.024 3.878 3.878 0 01-.898-.1 3.276 3.276 0 01-.572-.192 5.169 5.169 0 01-.703-.376 4.197 4.197 0 01-.437-.322zM40.32 6.51h-5.28a4.478 4.478 0 00.077.846 3.771 3.771 0 00.126.482 3.483 3.483 0 00.336.729 3.039 3.039 0 00.234.328q.367.45.885.698a2.539 2.539 0 00.843.231 3.128 3.128 0 00.319.016 3.588 3.588 0 00.577-.044 2.716 2.716 0 00.518-.136q.48-.18.885-.48l.21.39a6.199 6.199 0 01-.544.304 7.593 7.593 0 01-.364.169q-.368.159-.902.202a5.172 5.172 0 01-.41.015q-.675 0-1.267-.255-.593-.255-1.043-.742a3.376 3.376 0 01-.579-.876 4.05 4.05 0 01-.126-.302q-.255-.69-.255-1.575a4.979 4.979 0 01.079-.902 3.999 3.999 0 01.183-.673q.263-.705.691-1.192a3.033 3.033 0 01.879-.699 2.912 2.912 0 01.103-.051q.555-.263 1.155-.263a2.944 2.944 0 01.89.128 2.325 2.325 0 011.083.72 2.743 2.743 0 01.521.958q.129.4.177.884a6.149 6.149 0 01.029.61v.233q0 .111-.03.245a1.451 1.451 0 010 .002zm12.84-2.49l-.24-.36a5.177 5.177 0 01.131-.092q.128-.087.297-.193a3.754 3.754 0 01.319-.178 4.825 4.825 0 01.281-.129 4.457 4.457 0 01.448-.161 5.412 5.412 0 01.294-.079q.405-.098.84-.098a3.03 3.03 0 01.443.031q.237.035.435.11a1.638 1.638 0 01.172.077q.42.217.675.592.255.375.36.863.105.487.105 1.027v4.65h-.39l-.06-.96h-.03q-.57.45-1.23.795-.66.345-1.38.345a2.806 2.806 0 01-.653-.074 2.564 2.564 0 01-.142-.038 1.923 1.923 0 01-.55-.262 1.801 1.801 0 01-.11-.083 1.569 1.569 0 01-.39-.478 1.882 1.882 0 01-.06-.122q-.155-.346-.164-.817a3.074 3.074 0 01-.001-.061q0-1.036.85-1.641a2.867 2.867 0 01.29-.181q1.14-.623 3.57-.893a4.597 4.597 0 00.003-.158 4.763 4.763 0 00-.055-.719 2.516 2.516 0 00-.135-.518 2.161 2.161 0 00-.128-.277q-.195-.353-.547-.57a1.362 1.362 0 00-.389-.16q-.233-.058-.519-.058a3.298 3.298 0 00-.515.039 2.873 2.873 0 00-.22.044 3.696 3.696 0 00-.531.168 3.319 3.319 0 00-.114.049 5.453 5.453 0 00-.354.175 4.497 4.497 0 00-.194.11 4.787 4.787 0 00-.174.11q-.135.091-.238.175zm-19.74-.39l-.3.33q-.36-.345-.795-.577a1.958 1.958 0 00-.662-.21 2.515 2.515 0 00-.343-.023q-.57 0-1.072.248-.503.247-.87.69a3.09 3.09 0 00-.427.684 3.836 3.836 0 00-.151.381 4.024 4.024 0 00-.193.953 4.834 4.834 0 00-.017.404 4.983 4.983 0 00.055.757 3.902 3.902 0 00.14.601q.195.607.555 1.05.36.442.863.682a2.478 2.478 0 00.872.23 2.988 2.988 0 00.245.01 2.569 2.569 0 00.725-.1 2.282 2.282 0 00.393-.155q.502-.255.892-.615l.27.33q-.45.405-1.012.683a2.699 2.699 0 01-.924.26 3.332 3.332 0 01-.344.017 3.268 3.268 0 01-.928-.129 2.963 2.963 0 01-.347-.126q-.585-.255-1.012-.735a3.265 3.265 0 01-.484-.724 4.103 4.103 0 01-.191-.453 4.211 4.211 0 01-.204-.87 5.553 5.553 0 01-.044-.713q0-.9.263-1.605a3.954 3.954 0 01.329-.686 3.19 3.19 0 01.376-.499q.442-.48 1.02-.735.577-.255 1.222-.255a3.356 3.356 0 01.527.039q.293.047.535.149a1.838 1.838 0 01.183.09q.495.277.855.622zm44.4 6.45h-.48V.18h2.37q.84 0 1.5.143a3.502 3.502 0 01.568.171 2.574 2.574 0 01.542.294q.45.322.69.84a2.451 2.451 0 01.18.571q.051.265.059.568a4.349 4.349 0 01.001.113q0 1.425-.9 2.123-.9.697-2.58.697h-1.95v4.38zm-66.81.18q-.645 0-1.222-.255-.578-.255-1.013-.735-.435-.48-.69-1.177a4.119 4.119 0 01-.212-.889 5.411 5.411 0 01-.043-.694 5.429 5.429 0 01.063-.848 4.108 4.108 0 01.192-.757 3.937 3.937 0 01.322-.686 3.154 3.154 0 01.368-.499q.435-.48 1.013-.735.577-.255 1.222-.255t1.223.255q.577.255 1.012.735.435.48.69 1.185.255.705.255 1.605 0 .885-.255 1.583a3.902 3.902 0 01-.338.706 3.179 3.179 0 01-.352.471q-.435.48-1.012.735-.578.255-1.223.255zm81.39 0q-.645 0-1.222-.255-.578-.255-1.013-.735-.435-.48-.69-1.177a4.119 4.119 0 01-.212-.889 5.411 5.411 0 01-.043-.694 5.429 5.429 0 01.063-.848 4.108 4.108 0 01.192-.757 3.937 3.937 0 01.322-.686 3.154 3.154 0 01.368-.499q.435-.48 1.013-.735.577-.255 1.222-.255t1.223.255q.577.255 1.012.735.435.48.69 1.185.255.705.255 1.605 0 .885-.255 1.583a3.902 3.902 0 01-.338.706 3.179 3.179 0 01-.352.471q-.435.48-1.012.735-.578.255-1.223.255zm-67.65-.18h-.45V2.91h.39l.06 1.35h.03a4.109 4.109 0 01.494-.721 3.477 3.477 0 01.376-.374q.51-.435 1.17-.435a1.958 1.958 0 01.293.021 1.771 1.771 0 01.052.009 1.147 1.147 0 01.19.053 1.515 1.515 0 01.155.067l-.12.42a2.483 2.483 0 00-.107-.042q-.11-.04-.192-.055a.741.741 0 00-.001 0 1.049 1.049 0 00-.084-.012q-.087-.009-.206-.011a3.68 3.68 0 00-.04 0q-.495 0-1.035.428-.54.427-.975 1.492v4.98zm61.11 0h-.45V2.91h.39l.06 1.35h.03a4.109 4.109 0 01.494-.721 3.477 3.477 0 01.376-.374q.51-.435 1.17-.435a1.958 1.958 0 01.293.021 1.771 1.771 0 01.052.009 1.147 1.147 0 01.19.053 1.515 1.515 0 01.155.067l-.12.42a2.483 2.483 0 00-.107-.042q-.11-.04-.192-.055a.741.741 0 00-.001 0 1.049 1.049 0 00-.084-.012q-.087-.009-.206-.011a3.68 3.68 0 00-.04 0q-.495 0-1.035.428-.54.427-.975 1.492v4.98zm-74.85-.24q.57 0 1.065-.24t.855-.682a3.24 3.24 0 00.438-.717 3.943 3.943 0 00.132-.333q.21-.608.21-1.358a4.509 4.509 0 00-.082-.875 3.829 3.829 0 00-.128-.482 3.736 3.736 0 00-.279-.636 3.022 3.022 0 00-.291-.429q-.36-.443-.855-.69-.495-.248-1.065-.248t-1.065.248q-.495.247-.855.69a3.143 3.143 0 00-.408.658 3.94 3.94 0 00-.162.407 4.024 4.024 0 00-.193.953 4.834 4.834 0 00-.017.404 4.634 4.634 0 00.059.757 3.669 3.669 0 00.151.601 3.684 3.684 0 00.302.663 3.09 3.09 0 00.268.387q.36.442.855.682.495.24 1.065.24zm81.39 0q.57 0 1.065-.24t.855-.682a3.24 3.24 0 00.438-.717 3.943 3.943 0 00.132-.333q.21-.608.21-1.358a4.509 4.509 0 00-.082-.875 3.829 3.829 0 00-.128-.482 3.736 3.736 0 00-.279-.636 3.022 3.022 0 00-.291-.429q-.36-.443-.855-.69-.495-.248-1.065-.248t-1.065.248q-.495.247-.855.69a3.143 3.143 0 00-.408.658 3.94 3.94 0 00-.162.407 4.024 4.024 0 00-.193.953 4.834 4.834 0 00-.017.404 4.634 4.634 0 00.059.757 3.669 3.669 0 00.151.601 3.684 3.684 0 00.302.663 3.09 3.09 0 00.268.387q.36.442.855.682.495.24 1.065.24zM77.82.6v4.68h1.77a7.422 7.422 0 00.837-.044q.985-.112 1.541-.511.694-.499.764-1.59a3.951 3.951 0 00.008-.255q0-.777-.282-1.264a1.477 1.477 0 00-.513-.528 2.691 2.691 0 00-.642-.277Q80.595.6 79.53.6h-1.71zM35.04 6.09h4.86a5.859 5.859 0 00-.049-.782q-.054-.403-.169-.728a2.22 2.22 0 00-.397-.71 2.011 2.011 0 00-1.474-.715 2.758 2.758 0 00-.161-.005q-.48 0-.93.203-.45.202-.802.585-.353.382-.585.922a3.588 3.588 0 00-.216.694 4.624 4.624 0 00-.077.536zm22.23 2.52V6q-1.185.135-1.995.338-.583.145-1.003.334a3.382 3.382 0 00-.302.153q-.495.285-.712.653a1.571 1.571 0 00-.214.71 1.91 1.91 0 00-.004.122 2.304 2.304 0 00.021.319q.023.164.071.304a1.273 1.273 0 00.035.09 1.302 1.302 0 00.183.304 1.125 1.125 0 00.17.168 1.445 1.445 0 00.508.26 1.632 1.632 0 00.01.003 2.229 2.229 0 00.5.079 2.559 2.559 0 00.122.003q.66 0 1.275-.307a5.084 5.084 0 00.517-.301q.244-.161.503-.363a9.799 9.799 0 00.315-.259z" vector-effect="non-scaling-stroke" stroke-linecap="round" fill-rule="evenodd" font-size="12" stroke="#000" stroke-width=".25mm" fill="none"/></svg>