<svg width="47.76" height="11.865"><path d="M0 7.785v-6.54h1.02V7.65a6.073 6.073 0 00.036.68q.049.438.167.798.202.622.562 1.027.36.405.87.6a2.943 2.943 0 00.721.172 3.703 3.703 0 00.419.023 3.515 3.515 0 00.653-.058 2.833 2.833 0 00.487-.137q.51-.195.87-.6.36-.405.563-1.027a3.873 3.873 0 00.145-.635q.043-.292.053-.62a6.838 6.838 0 00.004-.223V1.245h1.02v6.54a6.379 6.379 0 01-.091 1.098 5.475 5.475 0 01-.111.499 3.605 3.605 0 01-.419.971 3.292 3.292 0 01-.234.327 2.927 2.927 0 01-.872.721 3.571 3.571 0 01-.305.149 3.602 3.602 0 01-.777.231q-.368.068-.789.081a6.515 6.515 0 01-.197.003 5.681 5.681 0 01-.79-.052q-.418-.059-.771-.184a3.187 3.187 0 01-.201-.079q-.728-.315-1.178-.87a3.436 3.436 0 01-.598-1.115 4.001 4.001 0 01-.054-.183 5.8 5.8 0 01-.189-1.151A6.86 6.86 0 010 7.785zm27.465 3.855V4.155a10.723 10.723 0 01.301-.078q.364-.089.869-.192.561-.114 1.314-.142a13.521 13.521 0 01.486-.008q.885 0 1.478.255a2.418 2.418 0 01.618.379 2.134 2.134 0 01.327.349 2.774 2.774 0 01.385.728 3.49 3.49 0 01.117.404 5.912 5.912 0 01.121.785 7.544 7.544 0 01.029.67v4.335h-.975V7.62a10.12 10.12 0 00-.016-.583q-.016-.285-.05-.531a4.843 4.843 0 00-.046-.281 2.991 2.991 0 00-.117-.428q-.103-.288-.258-.502-.263-.36-.69-.518a2.291 2.291 0 00-.384-.101q-.306-.056-.689-.056a10.854 10.854 0 00-.491.011q-.387.017-.701.064a10.947 10.947 0 00-.203.032q-.273.046-.401.086a.668.668 0 00-.049.017v6.81h-.975zm-2.58-7.755v7.485a10.723 10.723 0 01-.301.078q-.364.089-.869.192-.561.114-1.314.142a13.521 13.521 0 01-.486.008q-.87 0-1.455-.255a2.488 2.488 0 01-.643-.401 2.234 2.234 0 01-.302-.319 2.716 2.716 0 01-.392-.713 3.443 3.443 0 01-.125-.412 5.692 5.692 0 01-.132-.831 7.244 7.244 0 01-.026-.624v-4.35h.975V7.92q0 .825.12 1.395a2.944 2.944 0 00.119.42q.109.29.271.502.27.353.698.51.359.133.852.154a4.466 4.466 0 00.19.004 10.925 10.925 0 00.492-.011q.243-.011.459-.033a5.923 5.923 0 00.249-.031 10.822 10.822 0 00.178-.028q.357-.058.467-.107v-6.81h.975zm22.875 0v7.485a10.723 10.723 0 01-.301.078q-.364.089-.869.192-.561.114-1.314.142a13.521 13.521 0 01-.486.008q-.87 0-1.455-.255a2.488 2.488 0 01-.643-.401 2.234 2.234 0 01-.302-.319 2.716 2.716 0 01-.392-.713 3.443 3.443 0 01-.125-.412 5.692 5.692 0 01-.132-.831 7.244 7.244 0 01-.026-.624v-4.35h.975V7.92q0 .825.12 1.395a2.944 2.944 0 00.119.42q.109.29.271.502.27.353.698.51.359.133.852.154a4.466 4.466 0 00.19.004 10.925 10.925 0 00.492-.011q.243-.011.459-.033a5.923 5.923 0 00.249-.031 10.822 10.822 0 00.178-.028q.357-.058.467-.107v-6.81h.975zM11.16 0v4.35q.255-.195.818-.413.562-.217 1.327-.217a4.02 4.02 0 01.793.075 3.157 3.157 0 01.7.225q.652.3 1.102.84.45.54.683 1.282a5.089 5.089 0 01.207 1.063 6.238 6.238 0 01.025.565 5.521 5.521 0 01-.074.923 4.283 4.283 0 01-.203.772q-.278.75-.78 1.275-.503.525-1.2.802a3.916 3.916 0 01-1.034.251 4.849 4.849 0 01-.519.027 13.191 13.191 0 01-.669-.016q-.598-.03-1.041-.119a12.708 12.708 0 01-.454-.099q-.212-.051-.393-.103a5.576 5.576 0 01-.263-.083V.18L11.16 0zm25.755 1.425v2.46h3.09v.825h-3.09v4.125a6.345 6.345 0 00.013.425q.026.377.1.647a2.096 2.096 0 00.093.273q.094.221.229.365.21.225.51.3a2.488 2.488 0 00.388.064 3.138 3.138 0 00.272.011 4.34 4.34 0 00.386-.016q.178-.016.329-.048a1.834 1.834 0 00.275-.078 7.037 7.037 0 00.218-.087q.208-.087.347-.165a1.959 1.959 0 00.02-.011l.24.81q-.161.103-.505.228a7.925 7.925 0 01-.23.08q-.525.172-1.14.172-.72 0-1.207-.188a1.848 1.848 0 01-.516-.296 1.658 1.658 0 01-.264-.273 2.077 2.077 0 01-.284-.513 2.81 2.81 0 01-.129-.44 5.164 5.164 0 01-.082-.538q-.028-.28-.036-.597a9.576 9.576 0 01-.002-.215v-7.14l.975-.18zM11.16 5.295v5.43q.187.062.525.12a8.807 8.807 0 00.143.022 4.81 4.81 0 00.303.036q.352.031.827.032a15.134 15.134 0 00.032 0 3.146 3.146 0 00.925-.13 2.475 2.475 0 001.1-.687 2.645 2.645 0 00.591-1.052q.125-.407.16-.899a5.575 5.575 0 00.014-.397 5.529 5.529 0 00-.076-.93 4.906 4.906 0 00-.059-.293 3.132 3.132 0 00-.204-.602 2.591 2.591 0 00-.231-.403 2.174 2.174 0 00-.78-.678 2.527 2.527 0 00-.007-.004q-.44-.23-1.069-.253a3.877 3.877 0 00-.139-.002q-.345 0-.66.067a4.019 4.019 0 00-.412.111 3.431 3.431 0 00-.173.062 3.755 3.755 0 00-.253.109 2.748 2.748 0 00-.219.116q-.203.12-.338.225z" vector-effect="non-scaling-stroke" stroke-linecap="round" fill-rule="evenodd" font-size="12" stroke="#000" stroke-width=".25mm" fill="none"/></svg>