<svg width="47.76" height="11.865" viewBox="0 0 47.76 11.865"><title>Ubuntu</title><g id="svgGroup" stroke-linecap="round" fill-rule="evenodd" font-size="9pt" stroke="#000" stroke-width="0.25mm" fill="none" style="stroke:#000;stroke-width:0.25mm;fill:none"><path d="M 0 7.785 L 0 1.245 L 1.02 1.245 L 1.02 7.65 A 6.073 6.073 0 0 0 1.056 8.33 Q 1.105 8.768 1.223 9.128 Q 1.425 9.75 1.785 10.155 Q 2.145 10.56 2.655 10.755 A 2.943 2.943 0 0 0 3.376 10.927 A 3.703 3.703 0 0 0 3.795 10.95 A 3.515 3.515 0 0 0 4.448 10.892 A 2.833 2.833 0 0 0 4.935 10.755 Q 5.445 10.56 5.805 10.155 Q 6.165 9.75 6.368 9.128 A 3.873 3.873 0 0 0 6.513 8.493 Q 6.556 8.201 6.566 7.873 A 6.838 6.838 0 0 0 6.57 7.65 L 6.57 1.245 L 7.59 1.245 L 7.59 7.785 A 6.379 6.379 0 0 1 7.499 8.883 A 5.475 5.475 0 0 1 7.388 9.382 A 3.605 3.605 0 0 1 6.969 10.353 A 3.292 3.292 0 0 1 6.735 10.68 A 2.927 2.927 0 0 1 5.863 11.401 A 3.571 3.571 0 0 1 5.558 11.55 A 3.602 3.602 0 0 1 4.781 11.781 Q 4.413 11.849 3.992 11.862 A 6.515 6.515 0 0 1 3.795 11.865 A 5.681 5.681 0 0 1 3.005 11.813 Q 2.587 11.754 2.234 11.629 A 3.187 3.187 0 0 1 2.033 11.55 Q 1.305 11.235 0.855 10.68 A 3.436 3.436 0 0 1 0.257 9.565 A 4.001 4.001 0 0 1 0.203 9.382 A 5.8 5.8 0 0 1 0.014 8.231 A 6.86 6.86 0 0 1 0 7.785 Z M 27.465 11.64 L 27.465 4.155 A 10.723 10.723 0 0 1 27.766 4.077 Q 28.13 3.988 28.635 3.885 Q 29.196 3.771 29.949 3.743 A 13.521 13.521 0 0 1 30.435 3.735 Q 31.32 3.735 31.913 3.99 A 2.418 2.418 0 0 1 32.531 4.369 A 2.134 2.134 0 0 1 32.858 4.718 A 2.774 2.774 0 0 1 33.243 5.446 A 3.49 3.49 0 0 1 33.36 5.85 A 5.912 5.912 0 0 1 33.481 6.635 A 7.544 7.544 0 0 1 33.51 7.305 L 33.51 11.64 L 32.535 11.64 L 32.535 7.62 A 10.12 10.12 0 0 0 32.519 7.037 Q 32.503 6.752 32.469 6.506 A 4.843 4.843 0 0 0 32.423 6.225 A 2.991 2.991 0 0 0 32.306 5.797 Q 32.203 5.509 32.048 5.295 Q 31.785 4.935 31.358 4.777 A 2.291 2.291 0 0 0 30.974 4.676 Q 30.668 4.62 30.285 4.62 A 10.854 10.854 0 0 0 29.794 4.631 Q 29.407 4.648 29.093 4.695 A 10.947 10.947 0 0 0 28.89 4.727 Q 28.617 4.773 28.489 4.813 A 0.668 0.668 0 0 0 28.44 4.83 L 28.44 11.64 L 27.465 11.64 Z M 24.885 3.885 L 24.885 11.37 A 10.723 10.723 0 0 1 24.584 11.448 Q 24.22 11.537 23.715 11.64 Q 23.154 11.754 22.401 11.782 A 13.521 13.521 0 0 1 21.915 11.79 Q 21.045 11.79 20.46 11.535 A 2.488 2.488 0 0 1 19.817 11.134 A 2.234 2.234 0 0 1 19.515 10.815 A 2.716 2.716 0 0 1 19.123 10.102 A 3.443 3.443 0 0 1 18.998 9.69 A 5.692 5.692 0 0 1 18.866 8.859 A 7.244 7.244 0 0 1 18.84 8.235 L 18.84 3.885 L 19.815 3.885 L 19.815 7.92 Q 19.815 8.745 19.935 9.315 A 2.944 2.944 0 0 0 20.054 9.735 Q 20.163 10.025 20.325 10.237 Q 20.595 10.59 21.023 10.747 Q 21.382 10.88 21.875 10.901 A 4.466 4.466 0 0 0 22.065 10.905 A 10.925 10.925 0 0 0 22.557 10.894 Q 22.8 10.883 23.016 10.861 A 5.923 5.923 0 0 0 23.265 10.83 A 10.822 10.822 0 0 0 23.443 10.802 Q 23.8 10.744 23.91 10.695 L 23.91 3.885 L 24.885 3.885 Z M 47.76 3.885 L 47.76 11.37 A 10.723 10.723 0 0 1 47.459 11.448 Q 47.095 11.537 46.59 11.64 Q 46.029 11.754 45.276 11.782 A 13.521 13.521 0 0 1 44.79 11.79 Q 43.92 11.79 43.335 11.535 A 2.488 2.488 0 0 1 42.692 11.134 A 2.234 2.234 0 0 1 42.39 10.815 A 2.716 2.716 0 0 1 41.998 10.102 A 3.443 3.443 0 0 1 41.873 9.69 A 5.692 5.692 0 0 1 41.741 8.859 A 7.244 7.244 0 0 1 41.715 8.235 L 41.715 3.885 L 42.69 3.885 L 42.69 7.92 Q 42.69 8.745 42.81 9.315 A 2.944 2.944 0 0 0 42.929 9.735 Q 43.038 10.025 43.2 10.237 Q 43.47 10.59 43.898 10.747 Q 44.257 10.88 44.75 10.901 A 4.466 4.466 0 0 0 44.94 10.905 A 10.925 10.925 0 0 0 45.432 10.894 Q 45.675 10.883 45.891 10.861 A 5.923 5.923 0 0 0 46.14 10.83 A 10.822 10.822 0 0 0 46.318 10.802 Q 46.675 10.744 46.785 10.695 L 46.785 3.885 L 47.76 3.885 Z M 11.16 0 L 11.16 4.35 Q 11.415 4.155 11.978 3.937 Q 12.54 3.72 13.305 3.72 A 4.02 4.02 0 0 1 14.098 3.795 A 3.157 3.157 0 0 1 14.798 4.02 Q 15.45 4.32 15.9 4.86 Q 16.35 5.4 16.583 6.142 A 5.089 5.089 0 0 1 16.79 7.205 A 6.238 6.238 0 0 1 16.815 7.77 A 5.521 5.521 0 0 1 16.741 8.693 A 4.283 4.283 0 0 1 16.538 9.465 Q 16.26 10.215 15.758 10.74 Q 15.255 11.265 14.558 11.542 A 3.916 3.916 0 0 1 13.524 11.793 A 4.849 4.849 0 0 1 13.005 11.82 A 13.191 13.191 0 0 1 12.336 11.804 Q 11.738 11.774 11.295 11.685 A 12.708 12.708 0 0 1 10.841 11.586 Q 10.629 11.535 10.448 11.483 A 5.576 5.576 0 0 1 10.185 11.4 L 10.185 0.18 L 11.16 0 Z M 36.915 1.425 L 36.915 3.885 L 40.005 3.885 L 40.005 4.71 L 36.915 4.71 L 36.915 8.835 A 6.345 6.345 0 0 0 36.928 9.26 Q 36.954 9.637 37.028 9.907 A 2.096 2.096 0 0 0 37.121 10.18 Q 37.215 10.401 37.35 10.545 Q 37.56 10.77 37.86 10.845 A 2.488 2.488 0 0 0 38.248 10.909 A 3.138 3.138 0 0 0 38.52 10.92 A 4.34 4.34 0 0 0 38.906 10.904 Q 39.084 10.888 39.235 10.856 A 1.834 1.834 0 0 0 39.51 10.778 A 7.037 7.037 0 0 0 39.728 10.691 Q 39.936 10.604 40.075 10.526 A 1.959 1.959 0 0 0 40.095 10.515 L 40.335 11.325 Q 40.174 11.428 39.83 11.553 A 7.925 7.925 0 0 1 39.6 11.633 Q 39.075 11.805 38.46 11.805 Q 37.74 11.805 37.253 11.617 A 1.848 1.848 0 0 1 36.737 11.321 A 1.658 1.658 0 0 1 36.473 11.048 A 2.077 2.077 0 0 1 36.189 10.535 A 2.81 2.81 0 0 1 36.06 10.095 A 5.164 5.164 0 0 1 35.978 9.557 Q 35.95 9.277 35.942 8.96 A 9.576 9.576 0 0 1 35.94 8.745 L 35.94 1.605 L 36.915 1.425 Z M 11.16 5.295 L 11.16 10.725 Q 11.347 10.787 11.685 10.845 A 8.807 8.807 0 0 0 11.828 10.867 A 4.81 4.81 0 0 0 12.131 10.903 Q 12.483 10.934 12.958 10.935 A 15.134 15.134 0 0 0 12.99 10.935 A 3.146 3.146 0 0 0 13.915 10.805 A 2.475 2.475 0 0 0 15.015 10.118 A 2.645 2.645 0 0 0 15.606 9.066 Q 15.731 8.659 15.766 8.167 A 5.575 5.575 0 0 0 15.78 7.77 A 5.529 5.529 0 0 0 15.704 6.84 A 4.906 4.906 0 0 0 15.645 6.547 A 3.132 3.132 0 0 0 15.441 5.945 A 2.591 2.591 0 0 0 15.21 5.542 A 2.174 2.174 0 0 0 14.43 4.864 A 2.527 2.527 0 0 0 14.423 4.86 Q 13.983 4.63 13.354 4.607 A 3.877 3.877 0 0 0 13.215 4.605 Q 12.87 4.605 12.555 4.672 A 4.019 4.019 0 0 0 12.143 4.783 A 3.431 3.431 0 0 0 11.97 4.845 A 3.755 3.755 0 0 0 11.717 4.954 A 2.748 2.748 0 0 0 11.498 5.07 Q 11.295 5.19 11.16 5.295 Z" vector-effect="non-scaling-stroke"/></g></svg>
