<svg width="38.511" height="11.016" viewBox="0 0 38.511 11.016"><title>Arimo</title><g id="svgGroup" stroke-linecap="round" fill-rule="evenodd" font-size="9pt" stroke="#000" stroke-width="0.25mm" fill="none" style="stroke:#000;stroke-width:0.25mm;fill:none"><path d="M 25.232 10.869 L 23.928 10.869 L 23.928 5.845 Q 23.928 4.952 23.738 4.487 A 1.132 1.132 0 0 0 23.613 4.255 Q 23.366 3.91 22.806 3.836 A 2.509 2.509 0 0 0 22.478 3.816 A 1.768 1.768 0 0 0 21.841 3.926 A 1.575 1.575 0 0 0 21.145 4.46 Q 20.756 4.972 20.675 5.815 A 4.868 4.868 0 0 0 20.654 6.277 L 20.654 10.869 L 19.343 10.869 L 19.343 4.636 A 69.373 69.373 0 0 0 19.342 4.155 Q 19.335 3.194 19.299 2.944 L 20.544 2.944 A 0.252 0.252 0 0 1 20.547 2.962 Q 20.553 3.007 20.558 3.122 A 8.532 8.532 0 0 1 20.559 3.142 Q 20.565 3.281 20.574 3.454 A 72.157 72.157 0 0 0 20.577 3.512 Q 20.588 3.721 20.603 4.299 L 20.625 4.299 A 4.213 4.213 0 0 1 20.917 3.802 Q 21.083 3.561 21.265 3.386 A 1.869 1.869 0 0 1 21.599 3.127 A 2.241 2.241 0 0 1 22.315 2.857 A 3.155 3.155 0 0 1 22.939 2.798 Q 23.84 2.798 24.364 3.157 A 1.631 1.631 0 0 1 24.868 3.723 Q 24.99 3.943 25.071 4.219 A 3.058 3.058 0 0 1 25.093 4.299 L 25.115 4.299 Q 25.453 3.641 25.908 3.287 A 2.04 2.04 0 0 1 26.107 3.149 A 2.377 2.377 0 0 1 26.885 2.856 A 3.281 3.281 0 0 1 27.517 2.798 A 3.489 3.489 0 0 1 28.165 2.854 Q 28.878 2.989 29.264 3.45 Q 29.762 4.045 29.806 5.338 A 7.53 7.53 0 0 1 29.81 5.588 L 29.81 10.869 L 28.506 10.869 L 28.506 5.845 Q 28.506 4.952 28.316 4.487 A 1.132 1.132 0 0 0 28.191 4.255 Q 27.943 3.91 27.384 3.836 A 2.509 2.509 0 0 0 27.056 3.816 A 1.86 1.86 0 0 0 26.45 3.91 A 1.526 1.526 0 0 0 25.712 4.457 Q 25.342 4.95 25.257 5.763 A 4.949 4.949 0 0 0 25.232 6.277 L 25.232 10.869 Z M 9.946 10.869 L 8.518 10.869 L 7.339 7.852 L 2.637 7.852 L 1.45 10.869 L 0 10.869 L 4.211 0.549 L 5.801 0.549 L 9.946 10.869 Z M 12.334 10.869 L 11.016 10.869 L 11.016 4.79 A 36.993 36.993 0 0 0 11.005 3.911 A 49.319 49.319 0 0 0 10.972 2.944 L 12.217 2.944 A 244.312 244.312 0 0 1 12.237 3.412 Q 12.269 4.178 12.274 4.463 A 5.258 5.258 0 0 1 12.275 4.563 L 12.305 4.563 A 6.431 6.431 0 0 1 12.479 4.068 Q 12.672 3.585 12.897 3.312 A 1.346 1.346 0 0 1 13.03 3.171 A 1.344 1.344 0 0 1 13.561 2.88 Q 13.837 2.798 14.187 2.798 A 2.029 2.029 0 0 1 14.684 2.861 A 2.267 2.267 0 0 1 14.722 2.871 L 14.722 4.08 Q 14.545 4.03 14.288 4.014 A 4.303 4.303 0 0 0 14.019 4.006 A 1.503 1.503 0 0 0 13.421 4.121 Q 13.08 4.267 12.841 4.599 A 1.848 1.848 0 0 0 12.766 4.713 Q 12.334 5.42 12.334 6.738 L 12.334 10.869 Z M 37.595 9.998 A 3.067 3.067 0 0 0 38.151 9.089 Q 38.511 8.203 38.511 6.899 A 8.204 8.204 0 0 0 38.44 5.785 Q 38.265 4.511 37.654 3.798 Q 37.051 3.095 35.974 2.886 A 5.232 5.232 0 0 0 34.98 2.798 A 5.057 5.057 0 0 0 34.095 2.871 Q 32.077 3.23 31.586 5.352 A 6.889 6.889 0 0 0 31.428 6.899 A 7.799 7.799 0 0 0 31.466 7.684 Q 31.528 8.299 31.693 8.805 A 3.43 3.43 0 0 0 32.314 9.957 A 2.768 2.768 0 0 0 32.594 10.246 Q 33.127 10.721 33.895 10.903 A 4.523 4.523 0 0 0 34.937 11.016 Q 35.577 11.016 36.105 10.878 A 2.947 2.947 0 0 0 37.595 9.998 Z M 17.292 10.869 L 15.974 10.869 L 15.974 2.944 L 17.292 2.944 L 17.292 10.869 Z M 37.126 6.899 A 8.771 8.771 0 0 0 37.09 6.069 Q 36.993 5.056 36.639 4.515 Q 36.152 3.772 35.002 3.772 Q 33.845 3.772 33.329 4.53 Q 32.859 5.22 32.817 6.617 A 9.359 9.359 0 0 0 32.812 6.899 A 7.788 7.788 0 0 0 32.853 7.719 Q 32.956 8.688 33.322 9.254 A 1.666 1.666 0 0 0 34.529 10.013 A 2.612 2.612 0 0 0 34.922 10.042 A 2.894 2.894 0 0 0 35.559 9.976 Q 35.963 9.885 36.253 9.666 A 1.572 1.572 0 0 0 36.617 9.28 A 2.444 2.444 0 0 0 36.906 8.659 Q 37.126 7.965 37.126 6.899 Z M 5.186 2.212 L 4.988 1.604 L 4.922 1.809 Q 4.739 2.417 4.38 3.369 L 3.062 6.76 L 6.921 6.76 L 5.596 3.354 A 14.133 14.133 0 0 1 5.391 2.816 A 19.209 19.209 0 0 1 5.186 2.212 Z M 17.292 1.26 L 15.974 1.26 L 15.974 0 L 17.292 0 L 17.292 1.26 Z" vector-effect="non-scaling-stroke"/></g></svg>
