<svg width="107.959" height="15" viewBox="0 0 107.959 15"><title>Open Sans Condensed</title><g id="svgGroup" stroke-linecap="round" fill-rule="evenodd" font-size="9pt" stroke="#000" stroke-width="0.25mm" fill="none" style="stroke:#000;stroke-width:0.25mm;fill:none"><path d="M 24.749 11.396 L 24.06 11.396 L 24.06 5.918 A 4.989 4.989 0 0 0 24.019 5.246 Q 23.918 4.506 23.569 4.186 A 0.967 0.967 0 0 0 22.888 3.94 A 1.686 1.686 0 0 0 22.333 4.027 Q 21.853 4.193 21.581 4.68 A 2.516 2.516 0 0 0 21.363 5.228 Q 21.211 5.769 21.177 6.558 A 11.057 11.057 0 0 0 21.167 7.031 L 21.167 11.396 L 20.471 11.396 L 20.471 3.45 L 21.057 3.45 L 21.116 4.556 L 21.182 4.556 A 2.323 2.323 0 0 1 21.486 4.023 A 1.904 1.904 0 0 1 21.899 3.625 A 1.807 1.807 0 0 1 22.475 3.351 A 1.654 1.654 0 0 1 22.903 3.296 A 2.181 2.181 0 0 1 23.459 3.363 A 1.467 1.467 0 0 1 24.287 3.915 A 1.882 1.882 0 0 1 24.55 4.429 Q 24.721 4.926 24.745 5.664 A 7.548 7.548 0 0 1 24.749 5.903 L 24.749 11.396 Z M 45.608 11.396 L 44.92 11.396 L 44.92 5.918 A 4.989 4.989 0 0 0 44.878 5.246 Q 44.777 4.506 44.428 4.186 A 0.967 0.967 0 0 0 43.748 3.94 A 1.686 1.686 0 0 0 43.193 4.027 Q 42.713 4.193 42.44 4.68 A 2.516 2.516 0 0 0 42.222 5.228 Q 42.07 5.769 42.036 6.558 A 11.057 11.057 0 0 0 42.026 7.031 L 42.026 11.396 L 41.331 11.396 L 41.331 3.45 L 41.917 3.45 L 41.975 4.556 L 42.041 4.556 A 2.323 2.323 0 0 1 42.345 4.023 A 1.904 1.904 0 0 1 42.759 3.625 A 1.807 1.807 0 0 1 43.335 3.351 A 1.654 1.654 0 0 1 43.762 3.296 A 2.181 2.181 0 0 1 44.318 3.363 A 1.467 1.467 0 0 1 45.147 3.915 A 1.882 1.882 0 0 1 45.409 4.429 Q 45.581 4.926 45.604 5.664 A 7.548 7.548 0 0 1 45.608 5.903 L 45.608 11.396 Z M 72.048 11.396 L 71.36 11.396 L 71.36 5.918 A 4.989 4.989 0 0 0 71.319 5.246 Q 71.218 4.506 70.868 4.186 A 0.967 0.967 0 0 0 70.188 3.94 A 1.686 1.686 0 0 0 69.633 4.027 Q 69.153 4.193 68.881 4.68 A 2.516 2.516 0 0 0 68.662 5.228 Q 68.51 5.769 68.477 6.558 A 11.057 11.057 0 0 0 68.467 7.031 L 68.467 11.396 L 67.771 11.396 L 67.771 3.45 L 68.357 3.45 L 68.416 4.556 L 68.482 4.556 A 2.323 2.323 0 0 1 68.785 4.023 A 1.904 1.904 0 0 1 69.199 3.625 A 1.807 1.807 0 0 1 69.775 3.351 A 1.654 1.654 0 0 1 70.203 3.296 A 2.181 2.181 0 0 1 70.759 3.363 A 1.467 1.467 0 0 1 71.587 3.915 A 1.882 1.882 0 0 1 71.85 4.429 Q 72.021 4.926 72.045 5.664 A 7.548 7.548 0 0 1 72.048 5.903 L 72.048 11.396 Z M 90.842 11.396 L 90.154 11.396 L 90.154 5.918 A 4.989 4.989 0 0 0 90.113 5.246 Q 90.012 4.506 89.662 4.186 A 0.967 0.967 0 0 0 88.982 3.94 A 1.686 1.686 0 0 0 88.427 4.027 Q 87.947 4.193 87.675 4.68 A 2.516 2.516 0 0 0 87.456 5.228 Q 87.304 5.769 87.271 6.558 A 11.057 11.057 0 0 0 87.261 7.031 L 87.261 11.396 L 86.565 11.396 L 86.565 3.45 L 87.151 3.45 L 87.21 4.556 L 87.275 4.556 A 2.323 2.323 0 0 1 87.579 4.023 A 1.904 1.904 0 0 1 87.993 3.625 A 1.807 1.807 0 0 1 88.569 3.351 A 1.654 1.654 0 0 1 88.997 3.296 A 2.181 2.181 0 0 1 89.553 3.363 A 1.467 1.467 0 0 1 90.381 3.915 A 1.882 1.882 0 0 1 90.644 4.429 Q 90.815 4.926 90.839 5.664 A 7.548 7.548 0 0 1 90.842 5.903 L 90.842 11.396 Z M 29.231 11.169 L 29.231 10.393 A 2.765 2.765 0 0 0 29.614 10.568 Q 29.804 10.638 30.025 10.694 A 5.029 5.029 0 0 0 30.176 10.73 A 5.153 5.153 0 0 0 31.289 10.854 A 1.755 1.755 0 0 0 32.052 10.691 A 1.749 1.749 0 0 0 32.637 10.232 A 2.192 2.192 0 0 0 33.122 9.166 A 3.03 3.03 0 0 0 33.164 8.65 A 3.408 3.408 0 0 0 33.121 8.087 Q 33.071 7.789 32.964 7.548 A 1.699 1.699 0 0 0 32.791 7.244 A 2.002 2.002 0 0 0 32.491 6.919 Q 32.152 6.618 31.587 6.318 A 8.416 8.416 0 0 0 31.362 6.204 A 8.516 8.516 0 0 1 30.886 5.945 Q 30.424 5.674 30.146 5.414 A 2.433 2.433 0 0 1 30.125 5.394 A 2.454 2.454 0 0 1 29.517 4.482 A 2.839 2.839 0 0 1 29.375 3.95 Q 29.33 3.689 29.321 3.391 A 5.079 5.079 0 0 1 29.319 3.237 Q 29.319 2.446 29.641 1.831 Q 29.963 1.216 30.542 0.875 A 2.453 2.453 0 0 1 31.809 0.535 A 4.83 4.83 0 0 1 32.439 0.574 A 3.764 3.764 0 0 1 32.941 0.674 Q 33.274 0.765 33.515 0.866 A 2.371 2.371 0 0 1 33.743 0.974 L 33.464 1.663 A 3.755 3.755 0 0 0 32.388 1.295 A 3.381 3.381 0 0 0 31.809 1.245 A 1.893 1.893 0 0 0 31.195 1.341 A 1.602 1.602 0 0 0 30.524 1.783 A 1.83 1.83 0 0 0 30.083 2.664 A 2.644 2.644 0 0 0 30.029 3.208 A 3.664 3.664 0 0 0 30.064 3.732 Q 30.104 4.006 30.189 4.231 A 1.623 1.623 0 0 0 30.388 4.607 A 1.946 1.946 0 0 0 30.671 4.914 Q 31.066 5.268 31.795 5.64 A 5.723 5.723 0 0 1 32.498 6.042 Q 32.849 6.279 33.106 6.545 A 2.837 2.837 0 0 1 33.38 6.874 A 2.689 2.689 0 0 1 33.838 8.018 A 3.587 3.587 0 0 1 33.882 8.591 A 3.868 3.868 0 0 1 33.775 9.527 A 2.765 2.765 0 0 1 33.149 10.726 A 2.371 2.371 0 0 1 31.429 11.54 A 3.017 3.017 0 0 1 31.289 11.543 Q 30.391 11.543 29.741 11.359 A 3.144 3.144 0 0 1 29.231 11.169 Z M 59.883 10.554 L 59.883 11.213 Q 59.422 11.479 58.728 11.531 A 4.693 4.693 0 0 1 58.381 11.543 A 2.649 2.649 0 0 1 56.598 10.884 A 3.458 3.458 0 0 1 55.92 10.077 Q 55.684 9.697 55.504 9.223 A 6.37 6.37 0 0 1 55.415 8.976 Q 55.039 7.851 55.002 6.35 A 13.513 13.513 0 0 1 54.998 6.013 A 11.768 11.768 0 0 1 55.087 4.518 Q 55.283 2.992 55.91 1.985 A 3.501 3.501 0 0 1 56.606 1.158 A 2.673 2.673 0 0 1 58.396 0.52 Q 59.378 0.52 60.11 0.974 L 59.78 1.604 A 2.503 2.503 0 0 0 58.503 1.211 A 3.03 3.03 0 0 0 58.381 1.208 Q 57.173 1.208 56.459 2.487 Q 55.954 3.39 55.806 4.786 A 11.811 11.811 0 0 0 55.745 6.028 A 11.095 11.095 0 0 0 55.807 7.238 Q 55.873 7.837 56.008 8.356 A 6.343 6.343 0 0 0 56.074 8.591 Q 56.34 9.469 56.79 10.02 A 2.711 2.711 0 0 0 57.019 10.269 A 2.008 2.008 0 0 0 58.447 10.854 A 3.89 3.89 0 0 0 59.127 10.798 Q 59.526 10.727 59.856 10.567 A 2.421 2.421 0 0 0 59.883 10.554 Z M 8.76 10.298 L 8.694 10.298 L 8.745 11.169 L 8.745 15 L 8.049 15 L 8.049 3.45 L 8.621 3.45 L 8.694 4.541 L 8.76 4.541 Q 9.053 3.94 9.511 3.618 Q 9.968 3.296 10.51 3.296 A 1.919 1.919 0 0 1 12.345 4.49 Q 12.772 5.371 12.83 6.903 A 13.174 13.174 0 0 1 12.839 7.405 A 11.103 11.103 0 0 1 12.785 8.543 Q 12.665 9.702 12.281 10.441 A 3.215 3.215 0 0 1 12.268 10.466 A 2.391 2.391 0 0 1 11.86 11.034 A 1.696 1.696 0 0 1 10.606 11.543 A 1.917 1.917 0 0 1 9.511 11.21 A 2.085 2.085 0 0 1 8.78 10.343 A 2.497 2.497 0 0 1 8.76 10.298 Z M 77.835 4.453 L 77.893 4.453 L 77.864 3.567 L 77.864 0 L 78.56 0 L 78.56 11.396 L 77.988 11.396 L 77.93 10.283 L 77.864 10.283 A 2.779 2.779 0 0 1 77.57 10.776 A 2.073 2.073 0 0 1 77.124 11.217 A 1.738 1.738 0 0 1 76.084 11.543 A 1.907 1.907 0 0 1 74.261 10.349 Q 73.837 9.468 73.779 7.936 A 13.257 13.257 0 0 1 73.77 7.434 Q 73.77 5.519 74.289 4.468 A 3.116 3.116 0 0 1 74.348 4.354 A 2.291 2.291 0 0 1 74.793 3.768 Q 75.301 3.296 76.055 3.296 A 1.833 1.833 0 0 1 77.009 3.566 A 2.208 2.208 0 0 1 77.069 3.604 A 2.181 2.181 0 0 1 77.779 4.354 A 2.603 2.603 0 0 1 77.835 4.453 Z M 107.234 4.453 L 107.293 4.453 L 107.263 3.567 L 107.263 0 L 107.959 0 L 107.959 11.396 L 107.388 11.396 L 107.329 10.283 L 107.263 10.283 A 2.779 2.779 0 0 1 106.97 10.776 A 2.073 2.073 0 0 1 106.524 11.217 A 1.738 1.738 0 0 1 105.483 11.543 A 1.907 1.907 0 0 1 103.661 10.349 Q 103.236 9.468 103.178 7.936 A 13.257 13.257 0 0 1 103.169 7.434 Q 103.169 5.519 103.688 4.468 A 3.116 3.116 0 0 1 103.748 4.354 A 2.291 2.291 0 0 1 104.192 3.768 Q 104.701 3.296 105.454 3.296 A 1.833 1.833 0 0 1 106.408 3.566 A 2.208 2.208 0 0 1 106.469 3.604 A 2.181 2.181 0 0 1 107.179 4.354 A 2.603 2.603 0 0 1 107.234 4.453 Z M 47.183 11.096 L 47.183 10.283 A 1.679 1.679 0 0 0 47.52 10.541 Q 47.68 10.635 47.874 10.709 A 2.793 2.793 0 0 0 47.9 10.719 A 2.626 2.626 0 0 0 48.816 10.884 Q 49.431 10.884 49.783 10.481 A 1.374 1.374 0 0 0 50.08 9.892 Q 50.131 9.683 50.134 9.437 A 2.546 2.546 0 0 0 50.134 9.404 Q 50.134 8.877 49.882 8.514 A 1.719 1.719 0 0 0 49.691 8.29 Q 49.418 8.015 48.919 7.69 A 14.51 14.51 0 0 1 48.544 7.447 Q 48.189 7.207 47.973 7.023 A 2.341 2.341 0 0 1 47.809 6.87 Q 47.512 6.563 47.347 6.182 Q 47.183 5.801 47.183 5.273 A 2.078 2.078 0 0 1 47.306 4.546 A 1.845 1.845 0 0 1 47.761 3.856 A 1.97 1.97 0 0 1 48.987 3.307 A 2.651 2.651 0 0 1 49.233 3.296 A 3.356 3.356 0 0 1 49.961 3.371 A 2.41 2.41 0 0 1 50.837 3.75 L 50.479 4.358 Q 49.878 3.955 49.204 3.955 A 1.689 1.689 0 0 0 48.778 4.006 A 1.205 1.205 0 0 0 48.223 4.318 A 1.216 1.216 0 0 0 47.874 5.025 A 1.701 1.701 0 0 0 47.857 5.273 Q 47.857 5.801 48.106 6.156 Q 48.355 6.511 49.16 7.017 Q 49.951 7.537 50.244 7.848 Q 50.537 8.159 50.68 8.536 A 2.145 2.145 0 0 1 50.795 8.993 A 2.903 2.903 0 0 1 50.823 9.404 A 3.074 3.074 0 0 1 50.761 10.043 Q 50.642 10.603 50.295 10.975 A 1.697 1.697 0 0 1 49.479 11.456 Q 49.161 11.543 48.772 11.543 A 3.583 3.583 0 0 1 48.308 11.514 Q 48.063 11.482 47.852 11.414 A 2.176 2.176 0 0 1 47.82 11.404 A 3.613 3.613 0 0 1 47.581 11.314 Q 47.46 11.263 47.36 11.209 A 1.525 1.525 0 0 1 47.183 11.096 Z M 92.417 11.096 L 92.417 10.283 A 1.679 1.679 0 0 0 92.755 10.541 Q 92.915 10.635 93.109 10.709 A 2.793 2.793 0 0 0 93.135 10.719 A 2.626 2.626 0 0 0 94.05 10.884 Q 94.666 10.884 95.017 10.481 A 1.374 1.374 0 0 0 95.315 9.892 Q 95.365 9.683 95.369 9.437 A 2.546 2.546 0 0 0 95.369 9.404 Q 95.369 8.877 95.116 8.514 A 1.719 1.719 0 0 0 94.926 8.29 Q 94.652 8.015 94.153 7.69 A 14.51 14.51 0 0 1 93.779 7.447 Q 93.424 7.207 93.208 7.023 A 2.341 2.341 0 0 1 93.043 6.87 Q 92.747 6.563 92.582 6.182 Q 92.417 5.801 92.417 5.273 A 2.078 2.078 0 0 1 92.54 4.546 A 1.845 1.845 0 0 1 92.996 3.856 A 1.97 1.97 0 0 1 94.221 3.307 A 2.651 2.651 0 0 1 94.468 3.296 A 3.356 3.356 0 0 1 95.195 3.371 A 2.41 2.41 0 0 1 96.072 3.75 L 95.713 4.358 Q 95.112 3.955 94.439 3.955 A 1.689 1.689 0 0 0 94.013 4.006 A 1.205 1.205 0 0 0 93.457 4.318 A 1.216 1.216 0 0 0 93.108 5.025 A 1.701 1.701 0 0 0 93.091 5.273 Q 93.091 5.801 93.34 6.156 Q 93.589 6.511 94.395 7.017 Q 95.186 7.537 95.479 7.848 Q 95.772 8.159 95.914 8.536 A 2.145 2.145 0 0 1 96.029 8.993 A 2.903 2.903 0 0 1 96.057 9.404 A 3.074 3.074 0 0 1 95.995 10.043 Q 95.876 10.603 95.53 10.975 A 1.697 1.697 0 0 1 94.713 11.456 Q 94.396 11.543 94.006 11.543 A 3.583 3.583 0 0 1 93.542 11.514 Q 93.297 11.482 93.086 11.414 A 2.176 2.176 0 0 1 93.054 11.404 A 3.613 3.613 0 0 1 92.816 11.314 Q 92.694 11.263 92.595 11.209 A 1.525 1.525 0 0 1 92.417 11.096 Z M 39.236 11.396 L 38.665 11.396 L 38.577 10.283 L 38.547 10.283 A 2.786 2.786 0 0 1 38.183 10.889 A 1.675 1.675 0 0 1 36.819 11.543 Q 36.043 11.543 35.57 10.924 A 2.162 2.162 0 0 1 35.209 10.174 Q 35.125 9.87 35.105 9.511 A 4.256 4.256 0 0 1 35.098 9.265 A 3.054 3.054 0 0 1 35.19 8.495 A 2.164 2.164 0 0 1 35.779 7.467 Q 36.405 6.858 37.496 6.759 A 4.581 4.581 0 0 1 37.691 6.746 L 38.547 6.702 L 38.547 6.042 Q 38.547 5.113 38.353 4.605 A 1.498 1.498 0 0 0 38.269 4.42 A 0.921 0.921 0 0 0 37.611 3.935 A 1.366 1.366 0 0 0 37.346 3.911 Q 36.665 3.911 35.955 4.358 L 35.654 3.809 Q 36.482 3.296 37.39 3.296 A 2.441 2.441 0 0 1 37.925 3.35 Q 38.262 3.426 38.506 3.607 A 1.322 1.322 0 0 1 38.804 3.915 Q 39.175 4.447 39.227 5.593 A 8.609 8.609 0 0 1 39.236 5.984 L 39.236 11.396 Z M 6.101 7.534 A 14.328 14.328 0 0 0 6.174 6.028 A 17.511 17.511 0 0 0 6.174 5.922 Q 6.164 4.297 5.851 3.141 A 5.301 5.301 0 0 0 5.387 1.959 A 3.667 3.667 0 0 0 5.183 1.631 Q 4.833 1.13 4.369 0.858 A 2.45 2.45 0 0 0 3.106 0.535 Q 2.132 0.535 1.464 1.067 A 2.84 2.84 0 0 0 0.776 1.89 A 3.871 3.871 0 0 0 0.62 2.195 Q 0.195 3.116 0.061 4.568 A 15.819 15.819 0 0 0 0 6.013 A 17.7 17.7 0 0 0 0 6.119 Q 0.016 8.693 0.784 10.104 A 3.607 3.607 0 0 0 1.013 10.473 Q 1.776 11.543 3.084 11.543 Q 4.585 11.543 5.38 10.115 A 4.16 4.16 0 0 0 5.398 10.081 Q 5.935 9.095 6.101 7.534 Z M 18.706 6.775 L 18.706 7.419 L 14.941 7.419 A 10.348 10.348 0 0 0 14.986 8.327 Q 15.075 9.239 15.336 9.825 A 2.582 2.582 0 0 0 15.432 10.02 Q 15.908 10.884 16.875 10.884 A 2.591 2.591 0 0 0 17.679 10.749 Q 18.055 10.627 18.45 10.393 L 18.45 11.067 A 3.094 3.094 0 0 1 17.415 11.487 A 2.884 2.884 0 0 1 16.846 11.543 Q 15.68 11.543 15.013 10.624 A 2.872 2.872 0 0 1 14.909 10.47 Q 14.408 9.677 14.277 8.421 A 9.134 9.134 0 0 1 14.231 7.478 A 11.06 11.06 0 0 1 14.284 6.354 Q 14.402 5.21 14.777 4.477 A 3.138 3.138 0 0 1 14.835 4.369 A 2.396 2.396 0 0 1 15.289 3.78 A 1.822 1.822 0 0 1 16.575 3.296 A 1.671 1.671 0 0 1 17.896 3.905 A 2.468 2.468 0 0 1 18.135 4.237 A 3.523 3.523 0 0 1 18.515 5.148 Q 18.633 5.582 18.678 6.1 A 7.783 7.783 0 0 1 18.706 6.775 Z M 84.8 6.775 L 84.8 7.419 L 81.035 7.419 A 10.348 10.348 0 0 0 81.08 8.327 Q 81.168 9.239 81.43 9.825 A 2.582 2.582 0 0 0 81.526 10.02 Q 82.002 10.884 82.969 10.884 A 2.591 2.591 0 0 0 83.773 10.749 Q 84.149 10.627 84.544 10.393 L 84.544 11.067 A 3.094 3.094 0 0 1 83.509 11.487 A 2.884 2.884 0 0 1 82.94 11.543 Q 81.774 11.543 81.106 10.624 A 2.872 2.872 0 0 1 81.002 10.47 Q 80.501 9.677 80.371 8.421 A 9.134 9.134 0 0 1 80.325 7.478 A 11.06 11.06 0 0 1 80.378 6.354 Q 80.495 5.21 80.871 4.477 A 3.138 3.138 0 0 1 80.929 4.369 A 2.396 2.396 0 0 1 81.383 3.78 A 1.822 1.822 0 0 1 82.669 3.296 A 1.671 1.671 0 0 1 83.99 3.905 A 2.468 2.468 0 0 1 84.229 4.237 A 3.523 3.523 0 0 1 84.609 5.148 Q 84.727 5.582 84.772 6.1 A 7.783 7.783 0 0 1 84.8 6.775 Z M 101.777 6.775 L 101.777 7.419 L 98.013 7.419 A 10.348 10.348 0 0 0 98.058 8.327 Q 98.146 9.239 98.407 9.825 A 2.582 2.582 0 0 0 98.504 10.02 Q 98.98 10.884 99.946 10.884 A 2.591 2.591 0 0 0 100.751 10.749 Q 101.127 10.627 101.521 10.393 L 101.521 11.067 A 3.094 3.094 0 0 1 100.487 11.487 A 2.884 2.884 0 0 1 99.917 11.543 Q 98.751 11.543 98.084 10.624 A 2.872 2.872 0 0 1 97.98 10.47 Q 97.479 9.677 97.348 8.421 A 9.134 9.134 0 0 1 97.302 7.478 A 11.06 11.06 0 0 1 97.356 6.354 Q 97.473 5.21 97.848 4.477 A 3.138 3.138 0 0 1 97.907 4.369 A 2.396 2.396 0 0 1 98.36 3.78 A 1.822 1.822 0 0 1 99.646 3.296 A 1.671 1.671 0 0 1 100.967 3.905 A 2.468 2.468 0 0 1 101.206 4.237 A 3.523 3.523 0 0 1 101.586 5.148 Q 101.704 5.582 101.749 6.1 A 7.783 7.783 0 0 1 101.777 6.775 Z M 0.747 6.028 Q 0.747 8.416 1.344 9.635 A 2.782 2.782 0 0 0 1.723 10.225 A 1.715 1.715 0 0 0 3.084 10.854 A 1.741 1.741 0 0 0 4.506 10.164 A 2.828 2.828 0 0 0 4.83 9.646 Q 5.427 8.438 5.427 6.028 A 15.624 15.624 0 0 0 5.381 4.781 Q 5.281 3.532 4.963 2.716 A 3.863 3.863 0 0 0 4.841 2.435 A 2.698 2.698 0 0 0 4.456 1.836 A 1.711 1.711 0 0 0 3.106 1.223 A 1.756 1.756 0 0 0 1.668 1.913 A 2.783 2.783 0 0 0 1.337 2.45 A 4.821 4.821 0 0 0 1.013 3.376 Q 0.785 4.297 0.752 5.594 A 17.511 17.511 0 0 0 0.747 6.028 Z M 65.962 8.54 A 10.214 10.214 0 0 0 66.021 7.405 A 9.845 9.845 0 0 0 65.967 6.347 Q 65.836 5.138 65.383 4.373 A 2.725 2.725 0 0 0 65.104 3.98 A 1.894 1.894 0 0 0 63.604 3.296 Q 61.628 3.296 61.257 6.008 A 10.38 10.38 0 0 0 61.172 7.405 A 12.835 12.835 0 0 0 61.172 7.485 Q 61.18 8.719 61.426 9.59 A 3.84 3.84 0 0 0 61.791 10.477 A 2.747 2.747 0 0 0 61.95 10.722 Q 62.249 11.13 62.653 11.335 A 2.002 2.002 0 0 0 63.574 11.543 A 2.565 2.565 0 0 0 63.634 11.542 Q 64.77 11.516 65.387 10.477 A 2.986 2.986 0 0 0 65.394 10.465 Q 65.829 9.726 65.962 8.54 Z M 77.864 7.888 L 77.864 7.434 A 11.874 11.874 0 0 0 77.831 6.521 Q 77.745 5.403 77.428 4.794 A 1.751 1.751 0 0 0 77.093 4.334 Q 76.699 3.955 76.099 3.955 A 1.253 1.253 0 0 0 75.477 4.106 Q 75.089 4.323 74.868 4.852 Q 74.495 5.75 74.495 7.449 A 12.265 12.265 0 0 0 74.525 8.347 Q 74.592 9.244 74.8 9.837 A 3.028 3.028 0 0 0 74.883 10.049 A 1.829 1.829 0 0 0 75.146 10.487 A 1.214 1.214 0 0 0 76.128 10.935 A 1.418 1.418 0 0 0 76.826 10.765 Q 77.174 10.573 77.413 10.162 Q 77.845 9.422 77.863 8.012 A 9.709 9.709 0 0 0 77.864 7.888 Z M 107.263 7.888 L 107.263 7.434 A 11.874 11.874 0 0 0 107.231 6.521 Q 107.144 5.403 106.827 4.794 A 1.751 1.751 0 0 0 106.492 4.334 Q 106.098 3.955 105.498 3.955 A 1.253 1.253 0 0 0 104.877 4.106 Q 104.488 4.323 104.268 4.852 Q 103.894 5.75 103.894 7.449 A 12.265 12.265 0 0 0 103.925 8.347 Q 103.991 9.244 104.199 9.837 A 3.028 3.028 0 0 0 104.282 10.049 A 1.829 1.829 0 0 0 104.546 10.487 A 1.214 1.214 0 0 0 105.527 10.935 A 1.418 1.418 0 0 0 106.226 10.765 Q 106.574 10.573 106.813 10.162 Q 107.244 9.422 107.262 8.012 A 9.709 9.709 0 0 0 107.263 7.888 Z M 8.745 7.134 L 8.745 7.361 Q 8.745 9.192 9.177 10.052 Q 9.607 10.908 10.486 10.913 A 1.82 1.82 0 0 0 10.496 10.913 A 1.204 1.204 0 0 0 11.485 10.438 A 1.896 1.896 0 0 0 11.715 10.06 A 3.25 3.25 0 0 0 11.921 9.452 Q 12.071 8.834 12.105 7.94 A 14.359 14.359 0 0 0 12.114 7.405 Q 12.114 5.89 11.825 5.039 A 2.934 2.934 0 0 0 11.741 4.819 Q 11.392 4.013 10.585 3.959 A 1.772 1.772 0 0 0 10.466 3.955 A 1.546 1.546 0 0 0 9.876 4.063 Q 9.504 4.215 9.257 4.581 A 1.879 1.879 0 0 0 9.17 4.724 A 2.65 2.65 0 0 0 8.946 5.29 Q 8.745 6.006 8.745 7.134 Z M 62.219 9.795 A 2.869 2.869 0 0 0 62.307 10.005 A 1.837 1.837 0 0 0 62.591 10.449 A 1.27 1.27 0 0 0 63.589 10.884 A 1.35 1.35 0 0 0 64.842 10.068 Q 65.295 9.199 65.295 7.405 Q 65.295 5.362 64.697 4.529 A 1.296 1.296 0 0 0 63.589 3.955 Q 62.695 3.955 62.296 4.819 Q 61.936 5.6 61.901 7.08 A 13.797 13.797 0 0 0 61.897 7.405 Q 61.897 8.931 62.219 9.795 Z M 38.547 8.13 L 38.547 7.302 L 37.72 7.346 A 3.242 3.242 0 0 0 37.175 7.419 Q 36.887 7.484 36.662 7.604 A 1.469 1.469 0 0 0 36.295 7.877 Q 35.901 8.284 35.841 9.011 A 3.285 3.285 0 0 0 35.83 9.28 Q 35.83 10.144 36.138 10.547 A 0.978 0.978 0 0 0 36.844 10.943 A 1.281 1.281 0 0 0 36.973 10.95 A 1.208 1.208 0 0 0 37.937 10.5 A 1.832 1.832 0 0 0 38.134 10.214 A 2.736 2.736 0 0 0 38.382 9.591 Q 38.546 8.987 38.547 8.143 A 8.848 8.848 0 0 0 38.547 8.13 Z M 14.956 6.79 L 18.01 6.79 Q 18.01 5.479 17.611 4.702 A 1.943 1.943 0 0 0 17.372 4.336 Q 17.191 4.121 16.969 4.019 A 1.034 1.034 0 0 0 16.531 3.926 Q 15.095 3.926 14.956 6.79 Z M 81.05 6.79 L 84.104 6.79 Q 84.104 5.479 83.705 4.702 A 1.943 1.943 0 0 0 83.466 4.336 Q 83.284 4.121 83.062 4.019 A 1.034 1.034 0 0 0 82.625 3.926 Q 81.189 3.926 81.05 6.79 Z M 98.027 6.79 L 101.082 6.79 Q 101.082 5.479 100.682 4.702 A 1.943 1.943 0 0 0 100.443 4.336 Q 100.262 4.121 100.04 4.019 A 1.034 1.034 0 0 0 99.602 3.926 Q 98.167 3.926 98.027 6.79 Z" vector-effect="non-scaling-stroke"/></g></svg>
