<svg width="34.23" height="12.45" viewBox="0 0 34.23 12.45"><title>Oswald</title><g id="svgGroup" stroke-linecap="round" fill-rule="evenodd" font-size="9pt" stroke="#000" stroke-width="0.25mm" fill="none" style="stroke:#000;stroke-width:0.25mm;fill:none"><path d="M 14.13 12.285 L 12.705 3.615 L 13.41 3.615 L 14.61 11.37 L 16.095 3.615 L 16.875 3.615 L 18.39 11.34 L 19.515 3.615 L 20.22 3.615 L 18.825 12.285 L 18 12.285 L 16.5 4.68 L 15.03 12.285 L 14.13 12.285 Z M 7.38 9.945 L 8.055 9.75 A 4.787 4.787 0 0 0 8.125 10.305 Q 8.242 10.922 8.519 11.279 A 1.398 1.398 0 0 0 8.55 11.318 A 1.372 1.372 0 0 0 9.45 11.802 A 1.987 1.987 0 0 0 9.72 11.82 A 1.9 1.9 0 0 0 10.13 11.779 Q 10.397 11.72 10.595 11.577 A 1.105 1.105 0 0 0 10.74 11.453 Q 11.071 11.114 11.098 10.516 A 2.397 2.397 0 0 0 11.1 10.41 Q 11.1 9.545 10.031 8.566 A 7.142 7.142 0 0 0 9.825 8.385 L 8.82 7.53 A 6.799 6.799 0 0 1 8.41 7.147 Q 8.06 6.79 7.868 6.465 Q 7.575 5.97 7.575 5.325 A 2.285 2.285 0 0 1 7.641 4.761 A 1.576 1.576 0 0 1 8.108 3.968 A 1.794 1.794 0 0 1 8.917 3.549 Q 9.203 3.48 9.54 3.48 A 2.371 2.371 0 0 1 10.124 3.548 A 1.582 1.582 0 0 1 10.98 4.08 Q 11.397 4.585 11.484 5.419 A 4.296 4.296 0 0 1 11.505 5.745 L 10.92 5.925 A 3.964 3.964 0 0 0 10.848 5.263 Q 10.609 4.093 9.608 4.08 A 1.74 1.74 0 0 0 9.585 4.08 Q 9.088 4.08 8.765 4.296 A 1.088 1.088 0 0 0 8.655 4.38 A 0.973 0.973 0 0 0 8.34 4.928 A 1.469 1.469 0 0 0 8.31 5.235 Q 8.31 5.721 8.491 6.07 A 1.375 1.375 0 0 0 8.498 6.083 Q 8.685 6.435 9.195 6.885 L 10.23 7.8 A 18.808 18.808 0 0 1 10.565 8.104 Q 10.713 8.241 10.837 8.364 A 7.845 7.845 0 0 1 11.063 8.595 A 2.938 2.938 0 0 1 11.454 9.129 A 3.541 3.541 0 0 1 11.588 9.383 A 2.233 2.233 0 0 1 11.782 10.055 A 2.84 2.84 0 0 1 11.805 10.425 A 2.446 2.446 0 0 1 11.731 11.042 A 1.725 1.725 0 0 1 11.235 11.888 Q 10.678 12.408 9.736 12.42 A 3.52 3.52 0 0 1 9.69 12.42 Q 8.67 12.42 8.07 11.76 A 2.475 2.475 0 0 1 7.566 10.89 Q 7.421 10.468 7.38 9.945 Z M 24.81 7.11 L 24.81 6.495 A 12.856 12.856 0 0 0 24.8 5.958 Q 24.779 5.47 24.719 5.132 A 3.231 3.231 0 0 0 24.698 5.025 A 2.175 2.175 0 0 0 24.622 4.755 Q 24.511 4.441 24.323 4.29 Q 24.06 4.08 23.61 4.08 A 1.785 1.785 0 0 0 23.167 4.132 A 1.291 1.291 0 0 0 22.613 4.425 A 0.934 0.934 0 0 0 22.387 4.751 Q 22.258 5.047 22.235 5.51 A 4.189 4.189 0 0 0 22.23 5.715 L 22.23 5.94 L 21.45 5.94 Q 21.45 4.68 21.96 4.08 Q 22.363 3.606 23.179 3.506 A 3.82 3.82 0 0 1 23.64 3.48 A 2.676 2.676 0 0 1 24.197 3.534 Q 24.845 3.672 25.163 4.163 A 2.12 2.12 0 0 1 25.396 4.675 Q 25.605 5.333 25.605 6.405 L 25.605 10.77 A 17.208 17.208 0 0 0 25.606 10.942 Q 25.608 11.135 25.614 11.389 A 59.617 59.617 0 0 0 25.62 11.633 A 39.045 39.045 0 0 0 25.626 11.822 Q 25.637 12.158 25.647 12.263 A 0.597 0.597 0 0 0 25.65 12.285 L 24.96 12.285 A 4.228 4.228 0 0 0 24.943 12.079 Q 24.933 11.987 24.918 11.885 A 8.484 8.484 0 0 0 24.885 11.67 L 24.825 11.13 Q 24.63 11.685 24.135 12.053 Q 23.64 12.42 23.01 12.42 A 1.88 1.88 0 0 1 22.416 12.33 A 1.551 1.551 0 0 1 21.75 11.895 A 1.8 1.8 0 0 1 21.308 10.978 A 2.53 2.53 0 0 1 21.27 10.53 Q 21.27 9.941 21.43 9.517 A 1.812 1.812 0 0 1 21.54 9.278 A 1.918 1.918 0 0 1 21.807 8.914 Q 21.954 8.754 22.151 8.596 A 4.737 4.737 0 0 1 22.538 8.318 A 9.739 9.739 0 0 1 23.011 8.031 Q 23.538 7.73 24.313 7.35 A 45.09 45.09 0 0 1 24.81 7.11 Z M 29.865 8.73 L 29.865 7.185 A 16.073 16.073 0 0 1 29.882 6.426 Q 29.919 5.644 30.038 5.093 Q 30.21 4.29 30.645 3.885 A 1.432 1.432 0 0 1 31.244 3.558 Q 31.465 3.495 31.729 3.483 A 2.84 2.84 0 0 1 31.86 3.48 A 1.974 1.974 0 0 1 32.384 3.547 A 1.674 1.674 0 0 1 32.768 3.705 Q 33.165 3.93 33.435 4.275 L 33.435 0.135 L 34.23 0.135 L 34.23 12.285 L 33.435 12.285 L 33.435 11.625 A 2.66 2.66 0 0 1 32.956 12.074 A 1.774 1.774 0 0 1 31.905 12.42 Q 31.155 12.42 30.713 12.045 A 1.643 1.643 0 0 1 30.361 11.619 Q 30.247 11.424 30.161 11.179 A 3.557 3.557 0 0 1 30.068 10.868 A 5.424 5.424 0 0 1 29.961 10.314 Q 29.865 9.648 29.865 8.73 Z M 0 8.835 L 0 3.525 Q 0 2.405 0.304 1.621 A 2.973 2.973 0 0 1 0.683 0.923 Q 1.257 0.146 2.506 0.023 A 5.047 5.047 0 0 1 3 0 A 4.438 4.438 0 0 1 3.838 0.074 Q 4.311 0.165 4.671 0.369 A 2.03 2.03 0 0 1 5.31 0.93 Q 6 1.86 6 3.525 L 6 8.85 A 7.095 7.095 0 0 1 5.935 9.844 Q 5.791 10.855 5.333 11.505 Q 4.665 12.45 3 12.45 Q 1.997 12.45 1.356 12.104 A 1.966 1.966 0 0 1 0.668 11.498 Q 0 10.545 0 8.835 Z M 5.175 9.015 L 5.175 3.405 A 6.18 6.18 0 0 0 5.133 2.662 Q 5.035 1.85 4.703 1.365 A 1.441 1.441 0 0 0 4 0.832 Q 3.745 0.735 3.424 0.698 A 3.703 3.703 0 0 0 3 0.675 Q 2.285 0.675 1.826 0.908 A 1.39 1.39 0 0 0 1.298 1.365 Q 0.825 2.055 0.825 3.405 L 0.825 9.015 A 6.317 6.317 0 0 0 0.867 9.767 Q 0.965 10.587 1.298 11.078 A 1.448 1.448 0 0 0 2.013 11.622 Q 2.27 11.718 2.591 11.754 A 3.687 3.687 0 0 0 3 11.775 Q 4.23 11.775 4.703 11.07 A 2.39 2.39 0 0 0 4.995 10.436 Q 5.09 10.126 5.135 9.748 A 6.237 6.237 0 0 0 5.175 9.015 Z M 27.39 12.285 L 27.39 0.135 L 28.185 0.135 L 28.185 12.285 L 27.39 12.285 Z M 33.435 11.07 L 33.435 4.845 A 3.665 3.665 0 0 0 33.018 4.483 Q 32.783 4.31 32.555 4.214 A 1.442 1.442 0 0 0 31.995 4.095 A 1.683 1.683 0 0 0 31.675 4.124 Q 31.351 4.187 31.155 4.388 A 1.15 1.15 0 0 0 30.953 4.678 Q 30.883 4.82 30.832 4.997 A 2.802 2.802 0 0 0 30.765 5.295 A 5.865 5.865 0 0 0 30.71 5.725 Q 30.66 6.248 30.66 6.99 L 30.66 8.79 Q 30.66 9.835 30.763 10.47 A 4.764 4.764 0 0 0 30.773 10.53 Q 30.885 11.175 31.178 11.49 A 0.948 0.948 0 0 0 31.654 11.764 Q 31.806 11.803 31.986 11.805 A 1.824 1.824 0 0 0 32.01 11.805 Q 32.415 11.805 32.783 11.595 Q 33.15 11.385 33.435 11.07 Z M 24.81 10.545 L 24.81 7.695 A 65.824 65.824 0 0 0 24.227 8.004 Q 23.507 8.39 23.125 8.624 A 7.358 7.358 0 0 0 23.04 8.678 A 3.031 3.031 0 0 0 22.697 8.928 Q 22.443 9.144 22.298 9.383 A 1.438 1.438 0 0 0 22.141 9.76 Q 22.065 10.042 22.065 10.41 Q 22.065 11.13 22.395 11.445 A 1.126 1.126 0 0 0 23.19 11.76 A 1.454 1.454 0 0 0 23.205 11.76 Q 23.73 11.76 24.143 11.415 A 2.542 2.542 0 0 0 24.735 10.689 A 2.993 2.993 0 0 0 24.81 10.545 Z" vector-effect="non-scaling-stroke"/></g></svg>
