<svg width="47.865" height="10.86" viewBox="0 0 47.865 10.86"><title>PT Sans</title><g id="svgGroup" stroke-linecap="round" fill-rule="evenodd" font-size="9pt" stroke="#000" stroke-width="0.25mm" fill="none" style="stroke:#000;stroke-width:0.25mm;fill:none"><path d="M 25.665 0.48 L 25.29 1.575 A 2.666 2.666 0 0 0 25.045 1.474 Q 24.738 1.363 24.278 1.26 Q 23.615 1.111 22.783 1.11 A 9.34 9.34 0 0 0 22.77 1.11 A 3.542 3.542 0 0 0 22.226 1.149 Q 21.939 1.194 21.709 1.29 A 1.495 1.495 0 0 0 21.285 1.553 A 1.593 1.593 0 0 0 20.967 1.934 A 1.286 1.286 0 0 0 20.79 2.595 Q 20.79 3.18 21.165 3.57 A 3.467 3.467 0 0 0 21.673 4.001 A 4.502 4.502 0 0 0 22.103 4.268 A 17.34 17.34 0 0 0 22.844 4.649 A 20.838 20.838 0 0 0 23.325 4.875 Q 23.985 5.175 24.548 5.573 Q 25.11 5.97 25.485 6.525 A 2.126 2.126 0 0 1 25.8 7.29 A 3.012 3.012 0 0 1 25.86 7.905 A 3.266 3.266 0 0 1 25.788 8.603 A 2.674 2.674 0 0 1 25.62 9.12 Q 25.38 9.66 24.915 10.05 A 3.072 3.072 0 0 1 24.183 10.501 A 3.819 3.819 0 0 1 23.79 10.65 A 4.335 4.335 0 0 1 23.014 10.817 A 5.821 5.821 0 0 1 22.29 10.86 Q 21.165 10.86 20.43 10.688 Q 19.695 10.515 19.29 10.305 L 19.71 9.18 Q 20.022 9.356 20.603 9.526 A 9.616 9.616 0 0 0 20.73 9.563 A 5.025 5.025 0 0 0 21.542 9.714 A 6.625 6.625 0 0 0 22.245 9.75 A 4.462 4.462 0 0 0 22.896 9.704 A 3.827 3.827 0 0 0 23.175 9.653 A 2.38 2.38 0 0 0 23.603 9.515 A 1.889 1.889 0 0 0 23.925 9.338 Q 24.24 9.12 24.428 8.79 A 1.415 1.415 0 0 0 24.591 8.318 A 1.884 1.884 0 0 0 24.615 8.01 A 1.726 1.726 0 0 0 24.553 7.538 A 1.322 1.322 0 0 0 24.24 6.983 A 3.409 3.409 0 0 0 23.713 6.531 A 4.367 4.367 0 0 0 23.303 6.278 A 11.509 11.509 0 0 0 22.483 5.872 A 13.506 13.506 0 0 0 22.08 5.7 Q 21.42 5.43 20.858 5.048 Q 20.295 4.665 19.92 4.103 Q 19.572 3.581 19.547 2.794 A 3.886 3.886 0 0 1 19.545 2.67 A 2.852 2.852 0 0 1 19.675 1.787 A 2.299 2.299 0 0 1 20.4 0.72 Q 21.102 0.129 22.29 0.023 A 6.098 6.098 0 0 1 22.83 0 A 10.823 10.823 0 0 1 23.704 0.034 A 8.219 8.219 0 0 1 24.495 0.135 Q 25.245 0.27 25.665 0.48 Z M 41.175 10.68 L 39.975 10.68 L 39.975 6.405 Q 39.975 5.334 39.692 4.747 A 1.711 1.711 0 0 0 39.638 4.643 A 1.105 1.105 0 0 0 38.952 4.12 Q 38.755 4.063 38.514 4.052 A 2.574 2.574 0 0 0 38.4 4.05 Q 37.605 4.05 37.088 4.478 Q 36.57 4.905 36.36 5.55 L 36.36 10.68 L 35.16 10.68 L 35.16 3.18 L 36 3.18 L 36.225 4.095 L 36.285 4.095 A 2.57 2.57 0 0 1 36.93 3.494 A 3.207 3.207 0 0 1 37.253 3.308 A 2.764 2.764 0 0 1 38.01 3.059 A 3.851 3.851 0 0 1 38.7 3 Q 39.273 3 39.716 3.124 A 2.682 2.682 0 0 1 39.78 3.143 Q 40.245 3.285 40.553 3.645 A 1.914 1.914 0 0 1 40.808 4.037 Q 40.902 4.227 40.973 4.456 A 3.564 3.564 0 0 1 41.017 4.613 Q 41.175 5.22 41.175 6.15 L 41.175 10.68 Z M 14.925 0.18 L 14.925 1.29 L 11.655 1.29 L 11.655 10.68 L 10.41 10.68 L 10.41 1.29 L 7.14 1.29 L 7.14 0.18 L 14.925 0.18 Z M 47.685 3.48 L 47.4 4.47 A 3.713 3.713 0 0 0 47.071 4.333 Q 46.899 4.27 46.702 4.214 A 6.65 6.65 0 0 0 46.568 4.178 A 3.959 3.959 0 0 0 45.798 4.058 A 4.621 4.621 0 0 0 45.525 4.05 Q 44.865 4.05 44.558 4.275 Q 44.25 4.5 44.25 5.055 A 0.901 0.901 0 0 0 44.287 5.321 A 0.691 0.691 0 0 0 44.52 5.663 Q 44.782 5.873 45.163 6.042 A 4.029 4.029 0 0 0 45.188 6.053 Q 45.585 6.225 46.058 6.39 Q 46.53 6.555 46.928 6.825 Q 47.325 7.095 47.595 7.508 Q 47.865 7.92 47.865 8.595 A 2.592 2.592 0 0 1 47.763 9.329 A 2.395 2.395 0 0 1 47.708 9.495 Q 47.55 9.915 47.22 10.215 A 2.2 2.2 0 0 1 46.72 10.553 A 2.796 2.796 0 0 1 46.402 10.688 Q 45.915 10.86 45.255 10.86 Q 44.584 10.86 44.07 10.758 A 3.794 3.794 0 0 1 43.8 10.695 Q 43.3 10.558 42.936 10.378 A 3.149 3.149 0 0 1 42.795 10.305 L 43.155 9.285 A 3.065 3.065 0 0 0 43.443 9.427 Q 43.601 9.495 43.787 9.559 A 6.65 6.65 0 0 0 44.055 9.645 Q 44.61 9.81 45.18 9.81 A 2.691 2.691 0 0 0 45.632 9.774 Q 45.983 9.714 46.245 9.555 A 0.818 0.818 0 0 0 46.606 9.078 Q 46.665 8.888 46.665 8.64 A 1.206 1.206 0 0 0 46.631 8.345 A 0.829 0.829 0 0 0 46.395 7.935 A 2.096 2.096 0 0 0 46.008 7.648 A 2.672 2.672 0 0 0 45.728 7.508 Q 45.33 7.335 44.858 7.178 A 4.125 4.125 0 0 1 44.088 6.833 A 3.805 3.805 0 0 1 43.988 6.773 Q 43.59 6.525 43.32 6.135 A 1.396 1.396 0 0 1 43.126 5.71 Q 43.074 5.523 43.058 5.299 A 2.911 2.911 0 0 1 43.05 5.085 A 3 3 0 0 1 43.104 4.495 Q 43.233 3.856 43.665 3.503 A 2.064 2.064 0 0 1 44.393 3.128 Q 44.689 3.04 45.042 3.012 A 4.304 4.304 0 0 1 45.375 3 Q 45.991 3 46.455 3.082 A 3.601 3.601 0 0 1 46.732 3.143 Q 47.244 3.276 47.631 3.454 A 3.79 3.79 0 0 1 47.685 3.48 Z M 27.975 4.635 L 27.6 3.735 A 3.967 3.967 0 0 1 28.386 3.374 A 5.03 5.03 0 0 1 28.928 3.225 A 7.366 7.366 0 0 1 30.394 3.061 A 8.181 8.181 0 0 1 30.51 3.06 Q 31.29 3.06 31.763 3.27 A 2.147 2.147 0 0 1 32.121 3.47 Q 32.338 3.621 32.48 3.814 A 1.294 1.294 0 0 1 32.483 3.818 Q 32.73 4.155 32.813 4.56 Q 32.895 4.965 32.895 5.37 Q 32.895 6.27 32.85 7.125 A 32.907 32.907 0 0 0 32.811 8.159 A 27.772 27.772 0 0 0 32.805 8.745 A 12.234 12.234 0 0 0 32.826 9.48 A 10.363 10.363 0 0 0 32.85 9.795 A 5.345 5.345 0 0 0 32.936 10.384 A 4.406 4.406 0 0 0 33.015 10.71 L 32.13 10.71 L 31.815 9.66 L 31.74 9.66 A 2.311 2.311 0 0 1 31.545 9.92 A 2.848 2.848 0 0 1 31.403 10.073 Q 31.2 10.275 30.915 10.433 A 2.737 2.737 0 0 1 30.566 10.593 A 3.589 3.589 0 0 1 30.255 10.695 A 2.715 2.715 0 0 1 29.854 10.774 Q 29.653 10.798 29.43 10.8 A 4.333 4.333 0 0 1 29.4 10.8 A 2.707 2.707 0 0 1 28.772 10.729 A 2.394 2.394 0 0 1 28.508 10.65 A 2.141 2.141 0 0 1 27.952 10.353 A 1.967 1.967 0 0 1 27.795 10.223 Q 27.495 9.945 27.323 9.555 A 2.005 2.005 0 0 1 27.17 8.998 A 2.558 2.558 0 0 1 27.15 8.67 A 2.675 2.675 0 0 1 27.191 8.188 Q 27.255 7.837 27.42 7.568 Q 27.69 7.125 28.178 6.863 A 3.184 3.184 0 0 1 28.732 6.632 Q 29.017 6.542 29.348 6.488 A 8.274 8.274 0 0 1 30.154 6.397 A 10.783 10.783 0 0 1 30.855 6.375 L 31.268 6.375 Q 31.47 6.375 31.68 6.405 Q 31.725 5.955 31.725 5.595 Q 31.725 4.891 31.485 4.548 A 0.8 0.8 0 0 0 31.395 4.44 A 0.895 0.895 0 0 0 31.104 4.252 Q 30.827 4.136 30.394 4.115 A 4.101 4.101 0 0 0 30.195 4.11 A 3.966 3.966 0 0 0 29.87 4.124 A 4.932 4.932 0 0 0 29.648 4.148 A 6.797 6.797 0 0 0 29.124 4.236 A 7.503 7.503 0 0 0 29.048 4.253 A 5.057 5.057 0 0 0 28.532 4.394 A 4.577 4.577 0 0 0 28.463 4.418 Q 28.185 4.515 27.975 4.635 Z M 0 10.68 L 0 0.285 Q 0.57 0.15 1.23 0.105 Q 1.89 0.06 2.535 0.06 Q 3.225 0.06 3.938 0.195 Q 4.65 0.33 5.235 0.69 A 2.771 2.771 0 0 1 6.153 1.622 A 3.246 3.246 0 0 1 6.187 1.68 A 2.52 2.52 0 0 1 6.457 2.371 Q 6.531 2.68 6.549 3.039 A 4.832 4.832 0 0 1 6.555 3.285 A 4.436 4.436 0 0 1 6.499 4.012 Q 6.416 4.512 6.21 4.905 A 3.081 3.081 0 0 1 5.501 5.814 A 2.945 2.945 0 0 1 5.295 5.978 A 3.653 3.653 0 0 1 4.149 6.528 A 4.225 4.225 0 0 1 3.99 6.57 Q 3.255 6.75 2.475 6.75 L 2.228 6.75 A 8.738 8.738 0 0 1 1.96 6.746 A 9.905 9.905 0 0 1 1.867 6.743 Q 1.68 6.735 1.5 6.72 Q 1.334 6.706 1.258 6.692 A 0.663 0.663 0 0 1 1.245 6.69 L 1.245 10.68 L 0 10.68 Z M 1.245 1.23 L 1.245 5.58 A 0.35 0.35 0 0 0 1.294 5.595 Q 1.366 5.612 1.485 5.618 Q 1.65 5.625 1.83 5.633 A 8.577 8.577 0 0 0 2.092 5.64 A 7.51 7.51 0 0 0 2.175 5.64 L 2.415 5.64 Q 2.925 5.64 3.428 5.543 A 2.677 2.677 0 0 0 4.166 5.287 A 2.478 2.478 0 0 0 4.335 5.19 A 1.811 1.811 0 0 0 4.898 4.624 A 2.216 2.216 0 0 0 4.987 4.47 Q 5.235 4.005 5.235 3.285 A 2.692 2.692 0 0 0 5.2 2.835 Q 5.157 2.583 5.062 2.375 A 1.531 1.531 0 0 0 5.002 2.258 Q 4.77 1.845 4.388 1.598 A 2.552 2.552 0 0 0 3.643 1.273 A 2.945 2.945 0 0 0 3.525 1.245 Q 3.045 1.14 2.565 1.14 A 18.578 18.578 0 0 0 1.997 1.148 A 16.485 16.485 0 0 0 1.815 1.155 A 4.155 4.155 0 0 0 1.605 1.169 Q 1.389 1.189 1.245 1.23 Z M 31.68 8.565 L 31.68 7.32 Q 31.47 7.305 31.253 7.298 Q 31.035 7.29 30.825 7.29 Q 30.36 7.29 29.918 7.343 A 3.347 3.347 0 0 0 29.507 7.416 A 2.487 2.487 0 0 0 29.138 7.538 A 1.532 1.532 0 0 0 28.825 7.712 A 1.243 1.243 0 0 0 28.597 7.928 A 0.884 0.884 0 0 0 28.411 8.348 A 1.211 1.211 0 0 0 28.395 8.55 A 1.198 1.198 0 0 0 28.477 9.001 A 1.105 1.105 0 0 0 28.77 9.413 A 1.296 1.296 0 0 0 29.451 9.729 A 1.784 1.784 0 0 0 29.73 9.75 A 2.682 2.682 0 0 0 30.126 9.722 A 2.02 2.02 0 0 0 30.48 9.638 A 2.446 2.446 0 0 0 30.805 9.501 A 1.906 1.906 0 0 0 31.05 9.353 A 1.946 1.946 0 0 0 31.316 9.124 A 1.635 1.635 0 0 0 31.448 8.97 Q 31.594 8.775 31.669 8.593 A 1.246 1.246 0 0 0 31.68 8.565 Z" vector-effect="non-scaling-stroke"/></g></svg>
