<svg width="108.179" height="11.397" viewBox="0 0 108.179 11.397"><title>Roboto Condensed</title><g id="svgGroup" stroke-linecap="round" fill-rule="evenodd" font-size="9pt" stroke="#000" stroke-width="0.25mm" fill="none" style="stroke:#000;stroke-width:0.25mm;fill:none"><path d="M 50.757 7.925 L 51.606 7.925 A 6.507 6.507 0 0 1 51.472 8.906 Q 51.359 9.416 51.163 9.818 A 2.695 2.695 0 0 1 50.64 10.558 A 2.8 2.8 0 0 1 49.323 11.279 Q 48.881 11.389 48.359 11.396 A 5.294 5.294 0 0 1 48.289 11.396 A 3.281 3.281 0 0 1 47.141 11.204 A 2.859 2.859 0 0 1 45.85 10.228 A 4.064 4.064 0 0 1 45.181 8.863 Q 45.017 8.289 44.969 7.605 A 8.293 8.293 0 0 1 44.949 7.053 L 44.949 4.739 A 7.207 7.207 0 0 1 45.047 3.511 Q 45.166 2.824 45.429 2.274 A 3.594 3.594 0 0 1 45.861 1.582 Q 46.772 0.439 48.354 0.439 A 4.174 4.174 0 0 1 49.297 0.54 Q 49.973 0.696 50.456 1.098 A 2.56 2.56 0 0 1 50.669 1.296 A 2.904 2.904 0 0 1 51.25 2.217 Q 51.42 2.632 51.513 3.147 A 6.973 6.973 0 0 1 51.606 3.926 L 50.757 3.926 A 6.517 6.517 0 0 0 50.657 3.185 Q 50.482 2.303 50.072 1.853 A 1.783 1.783 0 0 0 49.277 1.358 Q 48.876 1.23 48.354 1.23 A 2.593 2.593 0 0 0 47.508 1.362 A 2.144 2.144 0 0 0 46.472 2.131 Q 45.798 3.032 45.798 4.746 L 45.798 7.031 Q 45.798 8.73 46.45 9.675 A 2.153 2.153 0 0 0 47.207 10.369 Q 47.618 10.589 48.138 10.616 A 2.855 2.855 0 0 0 48.289 10.62 A 3.941 3.941 0 0 0 48.934 10.571 Q 49.277 10.514 49.546 10.391 A 1.623 1.623 0 0 0 50.09 9.998 A 2.013 2.013 0 0 0 50.427 9.458 Q 50.651 8.945 50.734 8.172 A 7.75 7.75 0 0 0 50.757 7.925 Z M 5.471 11.25 L 3.333 6.812 L 0.842 6.812 L 0.842 11.25 L 0 11.25 L 0 0.586 L 2.922 0.586 Q 4.193 0.586 4.965 1.217 A 2.499 2.499 0 0 1 5.182 1.417 A 2.74 2.74 0 0 1 5.857 2.652 Q 5.984 3.139 5.984 3.728 A 3.624 3.624 0 0 1 5.847 4.74 A 3.063 3.063 0 0 1 5.486 5.541 A 2.587 2.587 0 0 1 4.146 6.621 L 6.365 11.155 L 6.365 11.25 L 5.471 11.25 Z M 60.879 3.325 L 61.655 3.325 L 61.677 4.585 Q 62.029 3.94 62.574 3.56 Q 63.12 3.179 63.816 3.179 Q 65.889 3.179 65.94 5.94 L 65.94 11.25 L 65.134 11.25 L 65.134 6.028 Q 65.127 4.966 64.761 4.46 Q 64.395 3.955 63.611 3.955 A 1.59 1.59 0 0 0 62.594 4.322 A 2.106 2.106 0 0 0 62.465 4.435 A 2.585 2.585 0 0 0 61.981 5.066 Q 61.823 5.351 61.708 5.7 A 4.439 4.439 0 0 0 61.692 5.75 L 61.692 11.25 L 60.879 11.25 L 60.879 3.325 Z M 82.28 3.325 L 83.057 3.325 L 83.079 4.585 Q 83.43 3.94 83.976 3.56 Q 84.521 3.179 85.217 3.179 Q 87.29 3.179 87.341 5.94 L 87.341 11.25 L 86.536 11.25 L 86.536 6.028 Q 86.528 4.966 86.162 4.46 Q 85.796 3.955 85.012 3.955 A 1.59 1.59 0 0 0 83.995 4.322 A 2.106 2.106 0 0 0 83.866 4.435 A 2.585 2.585 0 0 0 83.383 5.066 Q 83.224 5.351 83.109 5.7 A 4.439 4.439 0 0 0 83.093 5.75 L 83.093 11.25 L 82.28 11.25 L 82.28 3.325 Z M 94.241 5.5 L 93.428 5.5 A 1.614 1.614 0 0 0 93.326 4.919 A 1.461 1.461 0 0 0 92.966 4.384 A 1.566 1.566 0 0 0 92.097 3.965 A 2.177 2.177 0 0 0 91.765 3.94 A 2.279 2.279 0 0 0 91.297 3.986 Q 90.899 4.069 90.626 4.307 A 1.188 1.188 0 0 0 90.208 5.169 A 1.562 1.562 0 0 0 90.205 5.259 A 1.144 1.144 0 0 0 90.266 5.639 A 0.976 0.976 0 0 0 90.527 6.035 Q 90.85 6.335 91.919 6.848 A 19.141 19.141 0 0 1 92.429 7.079 Q 92.889 7.297 93.181 7.473 A 3.054 3.054 0 0 1 93.442 7.646 A 2.6 2.6 0 0 1 93.799 7.968 A 1.985 1.985 0 0 1 94.072 8.346 A 1.668 1.668 0 0 1 94.252 8.868 A 2.251 2.251 0 0 1 94.285 9.258 A 2.285 2.285 0 0 1 94.181 9.963 A 1.85 1.85 0 0 1 93.604 10.818 A 2.353 2.353 0 0 1 92.598 11.312 Q 92.247 11.394 91.836 11.396 A 4.255 4.255 0 0 1 91.809 11.396 A 3.524 3.524 0 0 1 90.988 11.306 A 2.483 2.483 0 0 1 89.901 10.752 Q 89.172 10.107 89.172 9.089 L 89.993 9.089 A 2.027 2.027 0 0 0 90.073 9.578 A 1.404 1.404 0 0 0 90.487 10.236 Q 90.945 10.642 91.809 10.642 A 2.485 2.485 0 0 0 92.308 10.595 Q 92.623 10.53 92.867 10.378 A 1.46 1.46 0 0 0 93.01 10.276 A 1.172 1.172 0 0 0 93.46 9.423 A 1.535 1.535 0 0 0 93.464 9.302 A 1.137 1.137 0 0 0 93.156 8.522 A 1.585 1.585 0 0 0 93.04 8.405 Q 92.615 8.02 91.6 7.562 Q 90.586 7.104 90.183 6.801 A 2.495 2.495 0 0 1 89.871 6.524 Q 89.697 6.34 89.59 6.138 A 1.594 1.594 0 0 1 89.431 5.665 A 2.162 2.162 0 0 1 89.399 5.288 A 2.075 2.075 0 0 1 89.559 4.464 A 1.969 1.969 0 0 1 90.059 3.776 Q 90.718 3.179 91.765 3.179 A 3.239 3.239 0 0 1 92.532 3.265 A 2.25 2.25 0 0 1 93.567 3.816 A 2.122 2.122 0 0 1 94.221 5.153 A 2.954 2.954 0 0 1 94.241 5.5 Z M 20.859 6.782 L 20.859 7.661 A 8.418 8.418 0 0 1 20.803 8.671 Q 20.741 9.18 20.612 9.596 A 3.21 3.21 0 0 1 20.219 10.444 A 2.069 2.069 0 0 1 18.709 11.371 A 2.999 2.999 0 0 1 18.311 11.396 A 2.535 2.535 0 0 1 17.39 11.237 Q 16.757 10.992 16.35 10.373 A 2.954 2.954 0 0 1 16.238 10.188 L 16.201 11.25 L 15.447 11.25 L 15.447 0 L 16.252 0 L 16.252 4.431 Q 16.876 3.259 18.122 3.184 A 2.884 2.884 0 0 1 18.296 3.179 A 2.873 2.873 0 0 1 19.067 3.276 A 2.003 2.003 0 0 1 20.208 4.083 Q 20.825 4.97 20.858 6.712 A 10.249 10.249 0 0 1 20.859 6.782 Z M 67.808 7.742 L 67.808 6.921 Q 67.808 5.061 68.459 4.12 Q 69.111 3.179 70.393 3.179 Q 71.741 3.179 72.407 4.387 L 72.407 0 L 73.22 0 L 73.22 11.25 L 72.458 11.25 L 72.422 10.232 Q 71.825 11.275 70.665 11.384 A 2.979 2.979 0 0 1 70.386 11.396 A 2.617 2.617 0 0 1 69.563 11.274 A 2.087 2.087 0 0 1 68.478 10.444 A 3.313 3.313 0 0 1 68.051 9.539 Q 67.816 8.781 67.808 7.742 Z M 102.766 7.742 L 102.766 6.921 Q 102.766 5.061 103.418 4.12 Q 104.07 3.179 105.352 3.179 Q 106.699 3.179 107.366 4.387 L 107.366 0 L 108.179 0 L 108.179 11.25 L 107.417 11.25 L 107.38 10.232 Q 106.784 11.275 105.623 11.384 A 2.979 2.979 0 0 1 105.344 11.396 A 2.617 2.617 0 0 1 104.521 11.274 A 2.087 2.087 0 0 1 103.436 10.444 A 3.313 3.313 0 0 1 103.009 9.539 Q 102.775 8.781 102.766 7.742 Z M 75.037 7.874 L 75.037 6.907 Q 75.037 5.164 75.798 4.171 A 2.442 2.442 0 0 1 77.569 3.194 A 3.314 3.314 0 0 1 77.893 3.179 A 3.139 3.139 0 0 1 78.703 3.277 A 2.157 2.157 0 0 1 79.86 4.021 A 2.664 2.664 0 0 1 80.288 4.815 Q 80.542 5.539 80.552 6.591 A 8.788 8.788 0 0 1 80.552 6.599 L 80.552 7.361 L 75.842 7.361 L 75.842 7.808 A 5.145 5.145 0 0 0 75.899 8.598 Q 75.965 9.023 76.109 9.366 A 2.324 2.324 0 0 0 76.425 9.91 A 1.895 1.895 0 0 0 77.749 10.631 A 2.752 2.752 0 0 0 78.069 10.649 A 2.602 2.602 0 0 0 79.009 10.485 A 2.345 2.345 0 0 0 79.966 9.792 L 80.391 10.334 A 2.509 2.509 0 0 1 78.778 11.329 A 3.916 3.916 0 0 1 78.032 11.396 A 3.43 3.43 0 0 1 77.087 11.273 A 2.528 2.528 0 0 1 75.842 10.481 Q 75.185 9.72 75.064 8.424 A 6.516 6.516 0 0 1 75.037 7.874 Z M 95.815 7.874 L 95.815 6.907 Q 95.815 5.164 96.577 4.171 A 2.442 2.442 0 0 1 98.348 3.194 A 3.314 3.314 0 0 1 98.672 3.179 A 3.139 3.139 0 0 1 99.482 3.277 A 2.157 2.157 0 0 1 100.638 4.021 A 2.664 2.664 0 0 1 101.067 4.815 Q 101.321 5.539 101.33 6.591 A 8.788 8.788 0 0 1 101.331 6.599 L 101.331 7.361 L 96.621 7.361 L 96.621 7.808 A 5.145 5.145 0 0 0 96.678 8.598 Q 96.744 9.023 96.887 9.366 A 2.324 2.324 0 0 0 97.203 9.91 A 1.895 1.895 0 0 0 98.527 10.631 A 2.752 2.752 0 0 0 98.848 10.649 A 2.602 2.602 0 0 0 99.788 10.485 A 2.345 2.345 0 0 0 100.745 9.792 L 101.169 10.334 A 2.509 2.509 0 0 1 99.557 11.329 A 3.916 3.916 0 0 1 98.811 11.396 A 3.43 3.43 0 0 1 97.866 11.273 A 2.528 2.528 0 0 1 96.621 10.481 Q 95.964 9.72 95.843 8.424 A 6.516 6.516 0 0 1 95.815 7.874 Z M 30.513 1.304 L 31.326 1.304 L 31.326 3.325 L 32.681 3.325 L 32.681 4.058 L 31.326 4.058 L 31.326 9.324 Q 31.326 9.976 31.52 10.294 A 0.637 0.637 0 0 0 31.957 10.593 A 1.051 1.051 0 0 0 32.168 10.613 Q 32.332 10.613 32.629 10.562 A 7.463 7.463 0 0 0 32.754 10.54 L 32.776 11.272 A 1.165 1.165 0 0 1 32.562 11.342 Q 32.323 11.396 31.978 11.396 A 1.456 1.456 0 0 1 31.284 11.241 Q 30.69 10.925 30.553 9.965 A 4.333 4.333 0 0 1 30.513 9.434 L 30.513 4.058 L 29.29 4.058 L 29.29 3.325 L 30.513 3.325 L 30.513 1.304 Z M 7.778 7.822 L 7.778 6.885 Q 7.778 5.593 8.219 4.709 A 3.163 3.163 0 0 1 8.555 4.175 A 2.491 2.491 0 0 1 10.375 3.191 A 3.366 3.366 0 0 1 10.671 3.179 A 2.971 2.971 0 0 1 11.637 3.328 A 2.461 2.461 0 0 1 12.792 4.16 A 3.355 3.355 0 0 1 13.361 5.284 Q 13.503 5.759 13.55 6.327 A 6.954 6.954 0 0 1 13.572 6.863 L 13.572 7.705 Q 13.572 8.954 13.171 9.808 A 3.047 3.047 0 0 1 12.792 10.422 A 2.509 2.509 0 0 1 10.97 11.385 A 3.38 3.38 0 0 1 10.686 11.396 A 2.973 2.973 0 0 1 9.717 11.245 A 2.479 2.479 0 0 1 8.584 10.444 Q 7.917 9.626 7.801 8.278 A 6.722 6.722 0 0 1 7.778 7.822 Z M 22.434 7.822 L 22.434 6.885 Q 22.434 5.593 22.875 4.709 A 3.163 3.163 0 0 1 23.21 4.175 A 2.491 2.491 0 0 1 25.031 3.191 A 3.366 3.366 0 0 1 25.327 3.179 A 2.971 2.971 0 0 1 26.292 3.328 A 2.461 2.461 0 0 1 27.448 4.16 A 3.355 3.355 0 0 1 28.016 5.284 Q 28.159 5.759 28.205 6.327 A 6.954 6.954 0 0 1 28.228 6.863 L 28.228 7.705 Q 28.228 8.954 27.827 9.808 A 3.047 3.047 0 0 1 27.448 10.422 A 2.509 2.509 0 0 1 25.625 11.385 A 3.38 3.38 0 0 1 25.342 11.396 A 2.973 2.973 0 0 1 24.373 11.245 A 2.479 2.479 0 0 1 23.24 10.444 Q 22.573 9.626 22.457 8.278 A 6.722 6.722 0 0 1 22.434 7.822 Z M 33.999 7.822 L 33.999 6.885 Q 33.999 5.593 34.44 4.709 A 3.163 3.163 0 0 1 34.775 4.175 A 2.491 2.491 0 0 1 36.596 3.191 A 3.366 3.366 0 0 1 36.892 3.179 A 2.971 2.971 0 0 1 37.857 3.328 A 2.461 2.461 0 0 1 39.012 4.16 A 3.355 3.355 0 0 1 39.581 5.284 Q 39.724 5.759 39.77 6.327 A 6.954 6.954 0 0 1 39.792 6.863 L 39.792 7.705 Q 39.792 8.954 39.392 9.808 A 3.047 3.047 0 0 1 39.012 10.422 A 2.509 2.509 0 0 1 37.19 11.385 A 3.38 3.38 0 0 1 36.907 11.396 A 2.973 2.973 0 0 1 35.938 11.245 A 2.479 2.479 0 0 1 34.805 10.444 Q 34.137 9.626 34.022 8.278 A 6.722 6.722 0 0 1 33.999 7.822 Z M 53.21 7.822 L 53.21 6.885 Q 53.21 5.593 53.651 4.709 A 3.163 3.163 0 0 1 53.987 4.175 A 2.491 2.491 0 0 1 55.807 3.191 A 3.366 3.366 0 0 1 56.104 3.179 A 2.971 2.971 0 0 1 57.069 3.328 A 2.461 2.461 0 0 1 58.224 4.16 A 3.355 3.355 0 0 1 58.793 5.284 Q 58.935 5.759 58.982 6.327 A 6.954 6.954 0 0 1 59.004 6.863 L 59.004 7.705 Q 59.004 8.954 58.603 9.808 A 3.047 3.047 0 0 1 58.224 10.422 A 2.509 2.509 0 0 1 56.402 11.385 A 3.38 3.38 0 0 1 56.118 11.396 A 2.973 2.973 0 0 1 55.149 11.245 A 2.479 2.479 0 0 1 54.016 10.444 Q 53.349 9.626 53.233 8.278 A 6.722 6.722 0 0 1 53.21 7.822 Z M 8.599 6.826 L 8.599 7.705 Q 8.599 9.075 9.152 9.858 Q 9.672 10.597 10.573 10.639 A 2.368 2.368 0 0 0 10.686 10.642 Q 11.689 10.642 12.22 9.888 A 2.577 2.577 0 0 0 12.565 9.167 Q 12.754 8.562 12.759 7.727 L 12.759 6.885 A 5.469 5.469 0 0 0 12.699 6.049 Q 12.63 5.603 12.481 5.241 A 2.582 2.582 0 0 0 12.202 4.728 A 1.869 1.869 0 0 0 11.612 4.176 Q 11.242 3.963 10.77 3.942 A 2.334 2.334 0 0 0 10.671 3.94 A 1.86 1.86 0 0 0 9.895 4.098 Q 9.507 4.274 9.218 4.645 A 2.294 2.294 0 0 0 9.17 4.709 A 2.717 2.717 0 0 0 8.777 5.525 Q 8.607 6.089 8.599 6.826 Z M 23.254 6.826 L 23.254 7.705 Q 23.254 9.075 23.807 9.858 Q 24.328 10.597 25.229 10.639 A 2.368 2.368 0 0 0 25.342 10.642 Q 26.345 10.642 26.876 9.888 A 2.577 2.577 0 0 0 27.221 9.167 Q 27.41 8.562 27.415 7.727 L 27.415 6.885 A 5.469 5.469 0 0 0 27.355 6.049 Q 27.286 5.603 27.137 5.241 A 2.582 2.582 0 0 0 26.858 4.728 A 1.869 1.869 0 0 0 26.268 4.176 Q 25.898 3.963 25.426 3.942 A 2.334 2.334 0 0 0 25.327 3.94 A 1.86 1.86 0 0 0 24.551 4.098 Q 24.163 4.274 23.874 4.645 A 2.294 2.294 0 0 0 23.826 4.709 A 2.717 2.717 0 0 0 23.433 5.525 Q 23.262 6.089 23.254 6.826 Z M 34.819 6.826 L 34.819 7.705 Q 34.819 9.075 35.372 9.858 Q 35.893 10.597 36.794 10.639 A 2.368 2.368 0 0 0 36.907 10.642 Q 37.91 10.642 38.441 9.888 A 2.577 2.577 0 0 0 38.786 9.167 Q 38.975 8.562 38.979 7.727 L 38.979 6.885 A 5.469 5.469 0 0 0 38.92 6.049 Q 38.851 5.603 38.702 5.241 A 2.582 2.582 0 0 0 38.423 4.728 A 1.869 1.869 0 0 0 37.833 4.176 Q 37.463 3.963 36.991 3.942 A 2.334 2.334 0 0 0 36.892 3.94 A 1.86 1.86 0 0 0 36.116 4.098 Q 35.728 4.274 35.439 4.645 A 2.294 2.294 0 0 0 35.391 4.709 A 2.717 2.717 0 0 0 34.997 5.525 Q 34.827 6.089 34.819 6.826 Z M 54.031 6.826 L 54.031 7.705 Q 54.031 9.075 54.584 9.858 Q 55.105 10.597 56.006 10.639 A 2.368 2.368 0 0 0 56.118 10.642 Q 57.122 10.642 57.653 9.888 A 2.577 2.577 0 0 0 57.998 9.167 Q 58.187 8.562 58.191 7.727 L 58.191 6.885 A 5.469 5.469 0 0 0 58.131 6.049 Q 58.062 5.603 57.913 5.241 A 2.582 2.582 0 0 0 57.634 4.728 A 1.869 1.869 0 0 0 57.044 4.176 Q 56.674 3.963 56.202 3.942 A 2.334 2.334 0 0 0 56.104 3.94 A 1.86 1.86 0 0 0 55.327 4.098 Q 54.939 4.274 54.65 4.645 A 2.294 2.294 0 0 0 54.602 4.709 A 2.717 2.717 0 0 0 54.209 5.525 Q 54.039 6.089 54.031 6.826 Z M 20.046 7.712 L 20.046 6.921 Q 20.046 5.413 19.6 4.688 A 1.467 1.467 0 0 0 18.567 4 A 2.377 2.377 0 0 0 18.135 3.962 A 1.955 1.955 0 0 0 17.255 4.153 Q 16.587 4.484 16.252 5.391 L 16.252 9.316 A 2.348 2.348 0 0 0 16.557 9.865 A 1.924 1.924 0 0 0 16.985 10.28 Q 17.468 10.62 18.149 10.62 A 2.109 2.109 0 0 0 18.727 10.546 A 1.464 1.464 0 0 0 19.581 9.913 A 2.314 2.314 0 0 0 19.838 9.35 Q 20.042 8.705 20.046 7.712 Z M 68.635 6.87 L 68.635 7.661 A 8.066 8.066 0 0 0 68.671 8.452 Q 68.75 9.246 69 9.738 A 1.927 1.927 0 0 0 69.093 9.902 A 1.5 1.5 0 0 0 70.178 10.593 A 2.371 2.371 0 0 0 70.547 10.62 A 2.079 2.079 0 0 0 71.407 10.449 Q 71.891 10.232 72.216 9.74 A 2.773 2.773 0 0 0 72.407 9.397 L 72.407 5.288 A 2.619 2.619 0 0 0 72.027 4.632 Q 71.49 3.973 70.583 3.963 A 2.539 2.539 0 0 0 70.554 3.962 Q 69.558 3.962 69.1 4.673 Q 68.643 5.383 68.635 6.87 Z M 103.594 6.87 L 103.594 7.661 A 8.066 8.066 0 0 0 103.63 8.452 Q 103.708 9.246 103.958 9.738 A 1.927 1.927 0 0 0 104.052 9.902 A 1.5 1.5 0 0 0 105.137 10.593 A 2.371 2.371 0 0 0 105.505 10.62 A 2.079 2.079 0 0 0 106.366 10.449 Q 106.849 10.232 107.174 9.74 A 2.773 2.773 0 0 0 107.366 9.397 L 107.366 5.288 A 2.619 2.619 0 0 0 106.985 4.632 Q 106.448 3.973 105.542 3.963 A 2.539 2.539 0 0 0 105.513 3.962 Q 104.517 3.962 104.059 4.673 Q 103.601 5.383 103.594 6.87 Z M 0.842 1.377 L 0.842 6.035 L 3.069 6.035 A 2.226 2.226 0 0 0 3.761 5.932 A 1.808 1.808 0 0 0 4.578 5.387 A 2.26 2.26 0 0 0 5.097 4.268 A 3.138 3.138 0 0 0 5.142 3.728 A 3.452 3.452 0 0 0 5.079 3.047 Q 4.996 2.636 4.804 2.319 A 1.877 1.877 0 0 0 4.556 1.992 Q 3.97 1.377 2.915 1.377 L 0.842 1.377 Z M 75.85 6.599 L 79.739 6.599 L 79.739 6.387 A 4.939 4.939 0 0 0 79.644 5.495 Q 79.327 3.984 77.971 3.942 A 2.529 2.529 0 0 0 77.893 3.94 A 2.165 2.165 0 0 0 77.261 4.028 A 1.637 1.637 0 0 0 76.417 4.618 A 2.36 2.36 0 0 0 76.075 5.271 Q 75.965 5.582 75.908 5.963 A 5.791 5.791 0 0 0 75.85 6.599 Z M 96.628 6.599 L 100.518 6.599 L 100.518 6.387 A 4.939 4.939 0 0 0 100.423 5.495 Q 100.105 3.984 98.75 3.942 A 2.529 2.529 0 0 0 98.672 3.94 A 2.165 2.165 0 0 0 98.039 4.028 A 1.637 1.637 0 0 0 97.196 4.618 A 2.36 2.36 0 0 0 96.854 5.271 Q 96.744 5.582 96.687 5.963 A 5.791 5.791 0 0 0 96.628 6.599 Z" vector-effect="non-scaling-stroke"/></g></svg>
