<svg width="95.58" height="10.26" viewBox="0 0 95.58 10.26"><title>Source Sans Pro</title><g id="svgGroup" stroke-linecap="round" fill-rule="evenodd" font-size="9pt" stroke="#000" stroke-width="0.25mm" fill="none" style="stroke:#000;stroke-width:0.25mm;fill:none"><path d="M 0 8.76 L 0.33 8.43 Q 0.87 9.06 1.635 9.435 Q 2.4 9.81 3.3 9.81 A 3.933 3.933 0 0 0 3.887 9.768 A 3.03 3.03 0 0 0 4.38 9.653 A 2.785 2.785 0 0 0 4.85 9.451 A 2.235 2.235 0 0 0 5.197 9.218 Q 5.535 8.94 5.723 8.55 Q 5.91 8.16 5.91 7.68 Q 5.91 7.185 5.76 6.848 A 1.928 1.928 0 0 0 5.385 6.286 A 1.846 1.846 0 0 0 5.363 6.263 A 2.475 2.475 0 0 0 4.866 5.881 A 2.806 2.806 0 0 0 4.785 5.835 A 8.968 8.968 0 0 0 4.265 5.573 A 10.205 10.205 0 0 0 4.08 5.49 L 2.55 4.8 A 6.698 6.698 0 0 1 2.184 4.629 A 8.531 8.531 0 0 1 1.883 4.47 Q 1.53 4.275 1.23 3.998 A 2.224 2.224 0 0 1 0.799 3.444 A 2.582 2.582 0 0 1 0.735 3.323 A 1.83 1.83 0 0 1 0.583 2.856 Q 0.54 2.63 0.54 2.37 A 2.282 2.282 0 0 1 0.63 1.72 A 2.046 2.046 0 0 1 0.75 1.41 Q 0.96 0.975 1.335 0.66 A 2.628 2.628 0 0 1 2.018 0.249 A 3.11 3.11 0 0 1 2.22 0.173 Q 2.73 0 3.33 0 A 3.902 3.902 0 0 1 4.151 0.083 A 3.045 3.045 0 0 1 4.913 0.353 A 4.721 4.721 0 0 1 5.524 0.727 A 3.545 3.545 0 0 1 6.03 1.17 L 5.73 1.5 Q 5.295 1.02 4.695 0.735 Q 4.095 0.45 3.33 0.45 A 3.372 3.372 0 0 0 2.617 0.521 Q 2.058 0.642 1.658 0.968 A 1.657 1.657 0 0 0 1.026 2.176 A 2.168 2.168 0 0 0 1.02 2.34 A 2.089 2.089 0 0 0 1.048 2.694 Q 1.09 2.936 1.193 3.128 Q 1.365 3.45 1.628 3.683 Q 1.89 3.915 2.19 4.073 Q 2.49 4.23 2.76 4.35 L 4.29 5.04 Q 4.695 5.22 5.078 5.438 Q 5.46 5.655 5.753 5.955 A 2.234 2.234 0 0 1 6.19 6.604 A 2.556 2.556 0 0 1 6.217 6.668 Q 6.39 7.08 6.39 7.65 Q 6.39 8.22 6.165 8.693 Q 5.94 9.165 5.535 9.518 A 2.757 2.757 0 0 1 4.851 9.95 A 3.354 3.354 0 0 1 4.56 10.065 A 3.61 3.61 0 0 1 3.76 10.237 A 4.477 4.477 0 0 1 3.3 10.26 A 4.951 4.951 0 0 1 2.386 10.18 A 3.626 3.626 0 0 1 1.38 9.84 Q 0.57 9.42 0 8.76 Z M 44.64 8.76 L 44.97 8.43 Q 45.51 9.06 46.275 9.435 Q 47.04 9.81 47.94 9.81 A 3.933 3.933 0 0 0 48.527 9.768 A 3.03 3.03 0 0 0 49.02 9.653 A 2.785 2.785 0 0 0 49.49 9.451 A 2.235 2.235 0 0 0 49.837 9.218 Q 50.175 8.94 50.363 8.55 Q 50.55 8.16 50.55 7.68 Q 50.55 7.185 50.4 6.848 A 1.928 1.928 0 0 0 50.025 6.286 A 1.846 1.846 0 0 0 50.003 6.263 A 2.475 2.475 0 0 0 49.506 5.881 A 2.806 2.806 0 0 0 49.425 5.835 A 8.968 8.968 0 0 0 48.905 5.573 A 10.205 10.205 0 0 0 48.72 5.49 L 47.19 4.8 A 6.698 6.698 0 0 1 46.824 4.629 A 8.531 8.531 0 0 1 46.523 4.47 Q 46.17 4.275 45.87 3.998 A 2.224 2.224 0 0 1 45.439 3.444 A 2.582 2.582 0 0 1 45.375 3.323 A 1.83 1.83 0 0 1 45.223 2.856 Q 45.18 2.63 45.18 2.37 A 2.282 2.282 0 0 1 45.27 1.72 A 2.046 2.046 0 0 1 45.39 1.41 Q 45.6 0.975 45.975 0.66 A 2.628 2.628 0 0 1 46.658 0.249 A 3.11 3.11 0 0 1 46.86 0.173 Q 47.37 0 47.97 0 A 3.902 3.902 0 0 1 48.791 0.083 A 3.045 3.045 0 0 1 49.553 0.353 A 4.721 4.721 0 0 1 50.164 0.727 A 3.545 3.545 0 0 1 50.67 1.17 L 50.37 1.5 Q 49.935 1.02 49.335 0.735 Q 48.735 0.45 47.97 0.45 A 3.372 3.372 0 0 0 47.257 0.521 Q 46.698 0.642 46.298 0.968 A 1.657 1.657 0 0 0 45.666 2.176 A 2.168 2.168 0 0 0 45.66 2.34 A 2.089 2.089 0 0 0 45.688 2.694 Q 45.73 2.936 45.833 3.128 Q 46.005 3.45 46.268 3.683 Q 46.53 3.915 46.83 4.073 Q 47.13 4.23 47.4 4.35 L 48.93 5.04 Q 49.335 5.22 49.718 5.438 Q 50.1 5.655 50.393 5.955 A 2.234 2.234 0 0 1 50.83 6.604 A 2.556 2.556 0 0 1 50.857 6.668 Q 51.03 7.08 51.03 7.65 Q 51.03 8.22 50.805 8.693 Q 50.58 9.165 50.175 9.518 A 2.757 2.757 0 0 1 49.491 9.95 A 3.354 3.354 0 0 1 49.2 10.065 A 3.61 3.61 0 0 1 48.4 10.237 A 4.477 4.477 0 0 1 47.94 10.26 A 4.951 4.951 0 0 1 47.026 10.18 A 3.626 3.626 0 0 1 46.02 9.84 Q 45.21 9.42 44.64 8.76 Z M 16.32 7.53 L 16.32 2.91 L 16.77 2.91 L 16.77 7.47 A 5.7 5.7 0 0 0 16.802 8.096 Q 16.884 8.835 17.175 9.255 Q 17.58 9.84 18.51 9.84 Q 19.185 9.84 19.74 9.465 Q 20.295 9.09 20.97 8.28 L 20.97 2.91 L 21.42 2.91 L 21.42 10.08 L 21.03 10.08 L 20.97 8.85 L 20.94 8.85 A 6.264 6.264 0 0 1 20.354 9.452 A 4.878 4.878 0 0 1 19.815 9.87 Q 19.23 10.26 18.48 10.26 A 2.951 2.951 0 0 1 17.858 10.199 Q 17.474 10.116 17.19 9.922 A 1.575 1.575 0 0 1 16.845 9.6 A 2.025 2.025 0 0 1 16.526 9.003 Q 16.333 8.452 16.321 7.643 A 7.333 7.333 0 0 1 16.32 7.53 Z M 60.84 10.08 L 60.39 10.08 L 60.39 2.91 L 60.78 2.91 L 60.84 4.05 L 60.87 4.05 A 7.673 7.673 0 0 1 61.516 3.471 A 6.139 6.139 0 0 1 62.025 3.105 A 2.385 2.385 0 0 1 63.215 2.734 A 2.907 2.907 0 0 1 63.36 2.73 A 2.951 2.951 0 0 1 63.982 2.791 Q 64.366 2.874 64.65 3.069 A 1.575 1.575 0 0 1 64.995 3.39 A 2.025 2.025 0 0 1 65.314 3.987 Q 65.507 4.538 65.519 5.347 A 7.333 7.333 0 0 1 65.52 5.46 L 65.52 10.08 L 65.07 10.08 L 65.07 5.52 A 5.7 5.7 0 0 0 65.038 4.894 Q 64.956 4.156 64.665 3.735 Q 64.26 3.15 63.33 3.15 Q 62.655 3.15 62.093 3.51 Q 61.684 3.772 61.208 4.223 A 10.94 10.94 0 0 0 60.84 4.59 L 60.84 10.08 Z M 67.35 9.27 L 67.65 8.91 Q 68.1 9.3 68.64 9.57 A 2.379 2.379 0 0 0 69.206 9.764 Q 69.47 9.821 69.778 9.835 A 4.546 4.546 0 0 0 69.99 9.84 A 2.705 2.705 0 0 0 70.389 9.812 A 1.985 1.985 0 0 0 70.785 9.713 A 1.94 1.94 0 0 0 71.091 9.57 A 1.474 1.474 0 0 0 71.355 9.375 Q 71.58 9.165 71.7 8.888 Q 71.82 8.61 71.82 8.31 A 1.32 1.32 0 0 0 71.784 7.994 A 1.037 1.037 0 0 0 71.655 7.688 Q 71.49 7.425 71.235 7.223 A 2.399 2.399 0 0 0 70.737 6.92 A 2.715 2.715 0 0 0 70.657 6.885 Q 70.335 6.75 70.02 6.63 Q 69.6 6.48 69.188 6.315 A 4.228 4.228 0 0 1 68.622 6.04 A 3.705 3.705 0 0 1 68.438 5.925 A 1.908 1.908 0 0 1 67.907 5.403 A 1.848 1.848 0 0 1 67.89 5.378 Q 67.68 5.055 67.68 4.59 Q 67.68 4.215 67.823 3.878 Q 67.965 3.54 68.25 3.285 A 1.93 1.93 0 0 1 68.659 3.007 A 2.466 2.466 0 0 1 68.955 2.88 A 2.476 2.476 0 0 1 69.432 2.764 Q 69.666 2.73 69.93 2.73 Q 70.47 2.73 70.995 2.933 A 3.614 3.614 0 0 1 71.599 3.23 A 3.052 3.052 0 0 1 71.91 3.45 L 71.64 3.81 Q 71.28 3.54 70.875 3.345 Q 70.47 3.15 69.9 3.15 A 2.839 2.839 0 0 0 69.532 3.173 Q 69.307 3.202 69.12 3.27 A 1.768 1.768 0 0 0 68.837 3.401 A 1.326 1.326 0 0 0 68.58 3.593 A 1.418 1.418 0 0 0 68.341 3.892 A 1.274 1.274 0 0 0 68.265 4.043 Q 68.16 4.29 68.16 4.56 A 1.211 1.211 0 0 0 68.189 4.83 A 0.907 0.907 0 0 0 68.31 5.123 A 1.421 1.421 0 0 0 68.625 5.466 A 1.67 1.67 0 0 0 68.707 5.528 A 3.113 3.113 0 0 0 69.094 5.756 A 3.673 3.673 0 0 0 69.262 5.835 Q 69.57 5.97 69.9 6.09 Q 70.32 6.255 70.755 6.42 Q 71.19 6.585 71.528 6.818 Q 71.865 7.05 72.083 7.403 Q 72.288 7.735 72.299 8.221 A 2.464 2.464 0 0 1 72.3 8.28 Q 72.3 8.67 72.143 9.03 Q 71.985 9.39 71.693 9.66 A 1.986 1.986 0 0 1 71.292 9.944 A 2.599 2.599 0 0 1 70.957 10.095 A 2.588 2.588 0 0 1 70.368 10.236 A 3.335 3.335 0 0 1 69.96 10.26 A 3.878 3.878 0 0 1 69.062 10.16 A 3.276 3.276 0 0 1 68.49 9.968 A 5.169 5.169 0 0 1 67.787 9.592 A 4.197 4.197 0 0 1 67.35 9.27 Z M 40.32 6.51 L 35.04 6.51 A 4.478 4.478 0 0 0 35.117 7.356 A 3.771 3.771 0 0 0 35.243 7.838 A 3.483 3.483 0 0 0 35.579 8.567 A 3.039 3.039 0 0 0 35.813 8.895 Q 36.18 9.345 36.698 9.593 A 2.539 2.539 0 0 0 37.541 9.824 A 3.128 3.128 0 0 0 37.86 9.84 A 3.588 3.588 0 0 0 38.437 9.796 A 2.716 2.716 0 0 0 38.955 9.66 Q 39.435 9.48 39.84 9.18 L 40.05 9.57 A 6.199 6.199 0 0 1 39.506 9.874 A 7.593 7.593 0 0 1 39.142 10.043 Q 38.774 10.202 38.24 10.245 A 5.172 5.172 0 0 1 37.83 10.26 Q 37.155 10.26 36.563 10.005 Q 35.97 9.75 35.52 9.263 A 3.376 3.376 0 0 1 34.941 8.387 A 4.05 4.05 0 0 1 34.815 8.085 Q 34.56 7.395 34.56 6.51 A 4.979 4.979 0 0 1 34.639 5.608 A 3.999 3.999 0 0 1 34.822 4.935 Q 35.085 4.23 35.513 3.743 A 3.033 3.033 0 0 1 36.392 3.044 A 2.912 2.912 0 0 1 36.495 2.993 Q 37.05 2.73 37.65 2.73 A 2.944 2.944 0 0 1 38.54 2.858 A 2.325 2.325 0 0 1 39.623 3.578 A 2.743 2.743 0 0 1 40.144 4.536 Q 40.273 4.936 40.321 5.42 A 6.149 6.149 0 0 1 40.35 6.03 L 40.35 6.263 Q 40.35 6.374 40.32 6.508 A 1.451 1.451 0 0 1 40.32 6.51 Z M 53.16 4.02 L 52.92 3.66 A 5.177 5.177 0 0 1 53.051 3.568 Q 53.179 3.481 53.348 3.375 A 3.754 3.754 0 0 1 53.667 3.197 A 4.825 4.825 0 0 1 53.948 3.068 A 4.457 4.457 0 0 1 54.396 2.907 A 5.412 5.412 0 0 1 54.69 2.828 Q 55.095 2.73 55.53 2.73 A 3.03 3.03 0 0 1 55.973 2.761 Q 56.21 2.796 56.408 2.871 A 1.638 1.638 0 0 1 56.58 2.948 Q 57 3.165 57.255 3.54 Q 57.51 3.915 57.615 4.403 Q 57.72 4.89 57.72 5.43 L 57.72 10.08 L 57.33 10.08 L 57.27 9.12 L 57.24 9.12 Q 56.67 9.57 56.01 9.915 Q 55.35 10.26 54.63 10.26 A 2.806 2.806 0 0 1 53.977 10.186 A 2.564 2.564 0 0 1 53.835 10.148 A 1.923 1.923 0 0 1 53.285 9.886 A 1.801 1.801 0 0 1 53.175 9.803 A 1.569 1.569 0 0 1 52.785 9.325 A 1.882 1.882 0 0 1 52.725 9.203 Q 52.57 8.857 52.561 8.386 A 3.074 3.074 0 0 1 52.56 8.325 Q 52.56 7.289 53.41 6.684 A 2.867 2.867 0 0 1 53.7 6.503 Q 54.84 5.88 57.27 5.61 A 4.597 4.597 0 0 0 57.273 5.452 A 4.763 4.763 0 0 0 57.218 4.733 A 2.516 2.516 0 0 0 57.083 4.215 A 2.161 2.161 0 0 0 56.955 3.938 Q 56.76 3.585 56.408 3.368 A 1.362 1.362 0 0 0 56.019 3.208 Q 55.786 3.15 55.5 3.15 A 3.298 3.298 0 0 0 54.985 3.189 A 2.873 2.873 0 0 0 54.765 3.233 A 3.696 3.696 0 0 0 54.234 3.401 A 3.319 3.319 0 0 0 54.12 3.45 A 5.453 5.453 0 0 0 53.766 3.625 A 4.497 4.497 0 0 0 53.572 3.735 A 4.787 4.787 0 0 0 53.398 3.845 Q 53.263 3.936 53.16 4.02 Z M 33.42 3.63 L 33.12 3.96 Q 32.76 3.615 32.325 3.383 A 1.958 1.958 0 0 0 31.663 3.173 A 2.515 2.515 0 0 0 31.32 3.15 Q 30.75 3.15 30.248 3.398 Q 29.745 3.645 29.378 4.088 A 3.09 3.09 0 0 0 28.951 4.772 A 3.836 3.836 0 0 0 28.8 5.153 A 4.024 4.024 0 0 0 28.607 6.106 A 4.834 4.834 0 0 0 28.59 6.51 A 4.983 4.983 0 0 0 28.645 7.267 A 3.902 3.902 0 0 0 28.785 7.868 Q 28.98 8.475 29.34 8.918 Q 29.7 9.36 30.203 9.6 A 2.478 2.478 0 0 0 31.075 9.83 A 2.988 2.988 0 0 0 31.32 9.84 A 2.569 2.569 0 0 0 32.045 9.74 A 2.282 2.282 0 0 0 32.438 9.585 Q 32.94 9.33 33.33 8.97 L 33.6 9.3 Q 33.15 9.705 32.588 9.983 A 2.699 2.699 0 0 1 31.664 10.243 A 3.332 3.332 0 0 1 31.32 10.26 A 3.268 3.268 0 0 1 30.392 10.131 A 2.963 2.963 0 0 1 30.045 10.005 Q 29.46 9.75 29.033 9.27 A 3.265 3.265 0 0 1 28.549 8.546 A 4.103 4.103 0 0 1 28.358 8.093 A 4.211 4.211 0 0 1 28.154 7.223 A 5.553 5.553 0 0 1 28.11 6.51 Q 28.11 5.61 28.373 4.905 A 3.954 3.954 0 0 1 28.702 4.219 A 3.19 3.19 0 0 1 29.078 3.72 Q 29.52 3.24 30.098 2.985 Q 30.675 2.73 31.32 2.73 A 3.356 3.356 0 0 1 31.847 2.769 Q 32.14 2.816 32.382 2.918 A 1.838 1.838 0 0 1 32.565 3.008 Q 33.06 3.285 33.42 3.63 Z M 77.82 10.08 L 77.34 10.08 L 77.34 0.18 L 79.71 0.18 Q 80.55 0.18 81.21 0.323 A 3.502 3.502 0 0 1 81.778 0.494 A 2.574 2.574 0 0 1 82.32 0.788 Q 82.77 1.11 83.01 1.628 A 2.451 2.451 0 0 1 83.19 2.199 Q 83.241 2.464 83.249 2.767 A 4.349 4.349 0 0 1 83.25 2.88 Q 83.25 4.305 82.35 5.003 Q 81.45 5.7 79.77 5.7 L 77.82 5.7 L 77.82 10.08 Z M 11.01 10.26 Q 10.365 10.26 9.788 10.005 Q 9.21 9.75 8.775 9.27 Q 8.34 8.79 8.085 8.093 A 4.119 4.119 0 0 1 7.873 7.204 A 5.411 5.411 0 0 1 7.83 6.51 A 5.429 5.429 0 0 1 7.893 5.662 A 4.108 4.108 0 0 1 8.085 4.905 A 3.937 3.937 0 0 1 8.407 4.219 A 3.154 3.154 0 0 1 8.775 3.72 Q 9.21 3.24 9.788 2.985 Q 10.365 2.73 11.01 2.73 Q 11.655 2.73 12.233 2.985 Q 12.81 3.24 13.245 3.72 Q 13.68 4.2 13.935 4.905 Q 14.19 5.61 14.19 6.51 Q 14.19 7.395 13.935 8.093 A 3.902 3.902 0 0 1 13.597 8.799 A 3.179 3.179 0 0 1 13.245 9.27 Q 12.81 9.75 12.233 10.005 Q 11.655 10.26 11.01 10.26 Z M 92.4 10.26 Q 91.755 10.26 91.178 10.005 Q 90.6 9.75 90.165 9.27 Q 89.73 8.79 89.475 8.093 A 4.119 4.119 0 0 1 89.263 7.204 A 5.411 5.411 0 0 1 89.22 6.51 A 5.429 5.429 0 0 1 89.283 5.662 A 4.108 4.108 0 0 1 89.475 4.905 A 3.937 3.937 0 0 1 89.797 4.219 A 3.154 3.154 0 0 1 90.165 3.72 Q 90.6 3.24 91.178 2.985 Q 91.755 2.73 92.4 2.73 Q 93.045 2.73 93.623 2.985 Q 94.2 3.24 94.635 3.72 Q 95.07 4.2 95.325 4.905 Q 95.58 5.61 95.58 6.51 Q 95.58 7.395 95.325 8.093 A 3.902 3.902 0 0 1 94.987 8.799 A 3.179 3.179 0 0 1 94.635 9.27 Q 94.2 9.75 93.623 10.005 Q 93.045 10.26 92.4 10.26 Z M 24.75 10.08 L 24.3 10.08 L 24.3 2.91 L 24.69 2.91 L 24.75 4.26 L 24.78 4.26 A 4.109 4.109 0 0 1 25.274 3.539 A 3.477 3.477 0 0 1 25.65 3.165 Q 26.16 2.73 26.82 2.73 A 1.958 1.958 0 0 1 27.113 2.751 A 1.771 1.771 0 0 1 27.165 2.76 A 1.147 1.147 0 0 1 27.355 2.813 A 1.515 1.515 0 0 1 27.51 2.88 L 27.39 3.3 A 2.483 2.483 0 0 0 27.283 3.258 Q 27.173 3.218 27.091 3.203 A 0.741 0.741 0 0 0 27.09 3.203 A 1.049 1.049 0 0 0 27.006 3.191 Q 26.919 3.182 26.8 3.18 A 3.68 3.68 0 0 0 26.76 3.18 Q 26.265 3.18 25.725 3.608 Q 25.185 4.035 24.75 5.1 L 24.75 10.08 Z M 85.86 10.08 L 85.41 10.08 L 85.41 2.91 L 85.8 2.91 L 85.86 4.26 L 85.89 4.26 A 4.109 4.109 0 0 1 86.384 3.539 A 3.477 3.477 0 0 1 86.76 3.165 Q 87.27 2.73 87.93 2.73 A 1.958 1.958 0 0 1 88.223 2.751 A 1.771 1.771 0 0 1 88.275 2.76 A 1.147 1.147 0 0 1 88.465 2.813 A 1.515 1.515 0 0 1 88.62 2.88 L 88.5 3.3 A 2.483 2.483 0 0 0 88.393 3.258 Q 88.283 3.218 88.201 3.203 A 0.741 0.741 0 0 0 88.2 3.203 A 1.049 1.049 0 0 0 88.116 3.191 Q 88.029 3.182 87.91 3.18 A 3.68 3.68 0 0 0 87.87 3.18 Q 87.375 3.18 86.835 3.608 Q 86.295 4.035 85.86 5.1 L 85.86 10.08 Z M 11.01 9.84 Q 11.58 9.84 12.075 9.6 Q 12.57 9.36 12.93 8.918 A 3.24 3.24 0 0 0 13.368 8.201 A 3.943 3.943 0 0 0 13.5 7.868 Q 13.71 7.26 13.71 6.51 A 4.509 4.509 0 0 0 13.628 5.635 A 3.829 3.829 0 0 0 13.5 5.153 A 3.736 3.736 0 0 0 13.221 4.517 A 3.022 3.022 0 0 0 12.93 4.088 Q 12.57 3.645 12.075 3.398 Q 11.58 3.15 11.01 3.15 Q 10.44 3.15 9.945 3.398 Q 9.45 3.645 9.09 4.088 A 3.143 3.143 0 0 0 8.682 4.746 A 3.94 3.94 0 0 0 8.52 5.153 A 4.024 4.024 0 0 0 8.327 6.106 A 4.834 4.834 0 0 0 8.31 6.51 A 4.634 4.634 0 0 0 8.369 7.267 A 3.669 3.669 0 0 0 8.52 7.868 A 3.684 3.684 0 0 0 8.822 8.531 A 3.09 3.09 0 0 0 9.09 8.918 Q 9.45 9.36 9.945 9.6 Q 10.44 9.84 11.01 9.84 Z M 92.4 9.84 Q 92.97 9.84 93.465 9.6 Q 93.96 9.36 94.32 8.918 A 3.24 3.24 0 0 0 94.758 8.201 A 3.943 3.943 0 0 0 94.89 7.868 Q 95.1 7.26 95.1 6.51 A 4.509 4.509 0 0 0 95.018 5.635 A 3.829 3.829 0 0 0 94.89 5.153 A 3.736 3.736 0 0 0 94.611 4.517 A 3.022 3.022 0 0 0 94.32 4.088 Q 93.96 3.645 93.465 3.398 Q 92.97 3.15 92.4 3.15 Q 91.83 3.15 91.335 3.398 Q 90.84 3.645 90.48 4.088 A 3.143 3.143 0 0 0 90.072 4.746 A 3.94 3.94 0 0 0 89.91 5.153 A 4.024 4.024 0 0 0 89.717 6.106 A 4.834 4.834 0 0 0 89.7 6.51 A 4.634 4.634 0 0 0 89.759 7.267 A 3.669 3.669 0 0 0 89.91 7.868 A 3.684 3.684 0 0 0 90.212 8.531 A 3.09 3.09 0 0 0 90.48 8.918 Q 90.84 9.36 91.335 9.6 Q 91.83 9.84 92.4 9.84 Z M 77.82 0.6 L 77.82 5.28 L 79.59 5.28 A 7.422 7.422 0 0 0 80.427 5.236 Q 81.412 5.124 81.968 4.725 Q 82.662 4.226 82.732 3.135 A 3.951 3.951 0 0 0 82.74 2.88 Q 82.74 2.103 82.458 1.616 A 1.477 1.477 0 0 0 81.945 1.088 A 2.691 2.691 0 0 0 81.303 0.811 Q 80.595 0.6 79.53 0.6 L 77.82 0.6 Z M 35.04 6.09 L 39.9 6.09 A 5.859 5.859 0 0 0 39.851 5.308 Q 39.797 4.905 39.682 4.58 A 2.22 2.22 0 0 0 39.285 3.87 A 2.011 2.011 0 0 0 37.811 3.155 A 2.758 2.758 0 0 0 37.65 3.15 Q 37.17 3.15 36.72 3.353 Q 36.27 3.555 35.918 3.938 Q 35.565 4.32 35.333 4.86 A 3.588 3.588 0 0 0 35.117 5.554 A 4.624 4.624 0 0 0 35.04 6.09 Z M 57.27 8.61 L 57.27 6 Q 56.085 6.135 55.275 6.338 Q 54.692 6.483 54.272 6.672 A 3.382 3.382 0 0 0 53.97 6.825 Q 53.475 7.11 53.258 7.478 A 1.571 1.571 0 0 0 53.044 8.188 A 1.91 1.91 0 0 0 53.04 8.31 A 2.304 2.304 0 0 0 53.061 8.629 Q 53.084 8.793 53.132 8.933 A 1.273 1.273 0 0 0 53.167 9.023 A 1.302 1.302 0 0 0 53.35 9.327 A 1.125 1.125 0 0 0 53.52 9.495 A 1.445 1.445 0 0 0 54.028 9.755 A 1.632 1.632 0 0 0 54.038 9.758 A 2.229 2.229 0 0 0 54.538 9.837 A 2.559 2.559 0 0 0 54.66 9.84 Q 55.32 9.84 55.935 9.533 A 5.084 5.084 0 0 0 56.452 9.232 Q 56.696 9.071 56.955 8.869 A 9.799 9.799 0 0 0 57.27 8.61 Z" vector-effect="non-scaling-stroke"/></g></svg>
