<svg width="24" height="18" viewBox="0 0 24 18" fill="none" xmlns="http://www.w3.org/2000/svg">
<path fill-rule="evenodd" clip-rule="evenodd" d="M15 0C10.04 0 6 4.04 6 9C6 13.96 10.04 18 15 18C19.96 18 24 13.96 24 9C24 4.04 19.96 0 15 0ZM6.01 2.68C3.64 3.8 2 6.21 2 9C2 11.79 3.64 14.2 6.01 15.32V17.48C2.52 16.24 0 12.91 0 9C0 5.09 2.52 1.76 6.01 0.52V2.68ZM16 5V8H19V10H16V13H14V10H11V8H14V5H16ZM8 9C8 12.86 11.14 16 15 16C18.86 16 22 12.86 22 9C22 5.14 18.86 2 15 2C11.14 2 8 5.14 8 9Z" fill="currentColor"/>
</svg>
