<svg xmlns="http://www.w3.org/2000/svg" viewBox="0 0 79 139">
	<defs>
		<style>
			.cls-1{fill:#fff;}.cls-2{fill:#c4c4c4;}.cls-3{fill:none;stroke:#c4c4c4;stroke-width:2px;}.cls-4{fill:#e7e7e7;}
		</style>
	</defs>
	<g>
		<g>
			<rect class="cls-1" x="-30.33" y="30.82" width="140.19" height="78.89" transform="translate(-30.69 109.72) rotate(-90)"/>
			<path class="cls-2" d="M7.51,14.71l16.68.07a2.31,2.31,0,0,1,2.3,2.33h0a2.3,2.3,0,0,1-2.32,2.3L7.49,19.34A2.33,2.33,0,0,1,5.18,17h0A2.31,2.31,0,0,1,7.51,14.71Z"/>
			<rect class="cls-2" x="32.11" y="-4.06" width="2.31" height="56.24" rx="1.16" transform="matrix(0, -1, 1, 0, 9.06, 57.22)"/>
			<rect class="cls-2" x="18.84" y="58.89" width="4.63" height="32.47" rx="2.31" transform="translate(-54.06 95.95) rotate(-89.74)"/>
			<path class="cls-2" d="M6.19,61.26l9.27,0a1.15,1.15,0,0,1,1.15,1.16h0a1.16,1.16,0,0,1-1.16,1.16l-9.27,0A1.15,1.15,0,0,1,5,62.41H5A1.15,1.15,0,0,1,6.19,61.26Z"/>
			<path class="cls-2" d="M22.4,61.33l9.27,0a1.16,1.16,0,0,1,1.15,1.17h0a1.15,1.15,0,0,1-1.16,1.15l-9.27,0a1.16,1.16,0,0,1-1.15-1.16h0A1.16,1.16,0,0,1,22.4,61.33Z"/>
			<path class="cls-2" d="M6.06,80.48l11,0a1.15,1.15,0,0,1,1.15,1.16h0a1.15,1.15,0,0,1-1.16,1.15l-11,0a1.16,1.16,0,0,1-1.16-1.16h0A1.16,1.16,0,0,1,6.06,80.48Z"/>
			<path class="cls-2" d="M73.15,99.46l-19.56-.09a1.15,1.15,0,0,0-1.16,1.15h0a1.15,1.15,0,0,0,1.15,1.16l19.56.09a1.15,1.15,0,0,0,1.16-1.15h0A1.15,1.15,0,0,0,73.15,99.46Z"/>
			<path class="cls-2" d="M6,91.43l11,0a1.15,1.15,0,0,1,1.15,1.16h0A1.15,1.15,0,0,1,17,93.79L6,93.74a1.16,1.16,0,0,1-1.16-1.16h0A1.16,1.16,0,0,1,6,91.43Z"/>
			<path class="cls-2" d="M62.17,86.26l11,0a1.17,1.17,0,0,1,1.15,1.17h0a1.16,1.16,0,0,1-1.16,1.15l-11,0A1.16,1.16,0,0,1,61,87.41h0A1.16,1.16,0,0,1,62.17,86.26Z"/>
			<path class="cls-2" d="M25.92,104.78l-20-.09a1.15,1.15,0,0,0-1.16,1.15h0A1.15,1.15,0,0,0,5.94,107l20,.09a1.15,1.15,0,0,0,1.16-1.15h0A1.15,1.15,0,0,0,25.92,104.78Z"/>
			<path class="cls-2" d="M24,80.56l49.28.22a1.16,1.16,0,0,1,1.16,1.16h0a1.18,1.18,0,0,1-1.17,1.16l-49.28-.23a1.15,1.15,0,0,1-1.15-1.16h0A1.15,1.15,0,0,1,24,80.56Z"/>
			<path class="cls-2" d="M47.71,99.34,6,99.15a1.15,1.15,0,0,0-1.16,1.15h0A1.17,1.17,0,0,0,6,101.47l41.74.18a1.16,1.16,0,0,0,1.17-1.15h0A1.16,1.16,0,0,0,47.71,99.34Z"/>
			<path class="cls-2" d="M23.9,91.51l49.28.22a1.16,1.16,0,0,1,1.16,1.16h0a1.18,1.18,0,0,1-1.17,1.16l-49.28-.23a1.15,1.15,0,0,1-1.15-1.16h0A1.15,1.15,0,0,1,23.9,91.51Z"/>
			<path class="cls-2" d="M6,86l49.28.22a1.15,1.15,0,0,1,1.15,1.16h0a1.16,1.16,0,0,1-1.16,1.16L6,88.32a1.15,1.15,0,0,1-1.15-1.16h0A1.15,1.15,0,0,1,6,86Z"/>
			<path class="cls-2" d="M73.13,105l-41.79-.19A1.18,1.18,0,0,0,30.17,106h0a1.17,1.17,0,0,0,1.15,1.16l41.8.19a1.17,1.17,0,0,0,1.16-1.16h0A1.16,1.16,0,0,0,73.13,105Z"/>
			<path class="cls-2" d="M38.62,61.41l9.26,0A1.16,1.16,0,0,1,49,62.61h0a1.16,1.16,0,0,1-1.17,1.15l-9.26,0a1.16,1.16,0,0,1-1.16-1.16h0A1.16,1.16,0,0,1,38.62,61.41Z"/>
			<path class="cls-2" d="M54.83,61.48l9.27,0a1.15,1.15,0,0,1,1.15,1.16h0a1.15,1.15,0,0,1-1.16,1.15l-9.27,0a1.15,1.15,0,0,1-1.15-1.16h0A1.15,1.15,0,0,1,54.83,61.48Z"/>
			<path class="cls-2" d="M5.7,4.65l4.63,0a.45.45,0,0,1,.46.46h0a.46.46,0,0,1-.46.46l-4.63,0a.46.46,0,0,1-.46-.46h0A.47.47,0,0,1,5.7,4.65Z"/>
			<path class="cls-2" d="M5.69,6.51l4.63,0a.45.45,0,0,1,.46.46h0a.45.45,0,0,1-.46.46l-4.63,0A.46.46,0,0,1,5.23,7h0A.45.45,0,0,1,5.69,6.51Z"/>
			<path class="cls-2" d="M5.69,8.36l4.63,0a.47.47,0,0,1,.46.46h0a.46.46,0,0,1-.47.46l-4.63,0a.47.47,0,0,1-.46-.46h0A.46.46,0,0,1,5.69,8.36Z"/>
			<path class="cls-3" d="M56.12,5.88,72.55,6a1.31,1.31,0,0,1,1.31,1.32h0a1.31,1.31,0,0,1-1.32,1.31L56.11,8.51A1.32,1.32,0,0,1,54.8,7.19h0A1.3,1.3,0,0,1,56.12,5.88Z"/>
			<rect class="cls-4" x="27.33" y="9.56" width="24.99" height="69.44" rx="10" transform="translate(-4.63 83.91) rotate(-89.74)"/>
			<path class="cls-2" d="M29.36,44.42,9.54,56.64l60.56.28-20-18L33.54,50.07Z"/>
			<circle class="cls-1" cx="14.39" cy="40.41" r="3.76"/>
			<rect class="cls-4" x="8.41" y="108" width="24.99" height="32.41" rx="10" transform="matrix(0, -1, 1, 0, -103.39, 144.55)"/>
			<path class="cls-2" d="M17.35,124.37,9.13,136.65l25,.11-8.23-18L19.06,130Z"/>
			<circle class="cls-1" cx="12.56" cy="118.49" r="3.76"/>
			<rect class="cls-4" x="45.64" y="108.16" width="24.99" height="32.41" rx="10" transform="translate(-66.49 181.94) rotate(-89.74)"/>
			<path class="cls-2" d="M54.58,124.54l-8.22,12.27,25,.11-8.23-18-6.85,11.24Z"/>
			<circle class="cls-1" cx="49.78" cy="118.66" r="3.76"/>
		</g>
	</g>
</svg>
