<svg width="86" height="96" fill="none" xmlns="http://www.w3.org/2000/svg"><g clip-path="url(#clip0)"><path d="M71.1153 91.0345H1.65381V1.65515H54.5769L71.1153 18.2069v72.8276z" fill="#fff"/><path d="M54.5769 1.65515V18.2069h16.5385L54.5769 1.65515z" fill="#A9A9A9"/><path d="M71.1154 19.8621H54.5769c-.9096 0-1.6538-.7449-1.6538-1.6552V1.65517C52.9231.744828 53.6673 0 54.5769 0c.4466 0 .86.182069 1.1743.48l16.5384 16.5517c.645.6455.645 1.6883 0 2.3338-.3142.3145-.7277.4966-1.1742.4966zm-14.8846-3.3104h10.8988L56.2308 5.64414V16.5517z" fill="#686868"/><path d="M38.0385 92.6897H1.65385C.744231 92.6897 0 91.9448 0 91.0345V1.65517C0 .744828.744231 0 1.65385 0H54.5769c.4466 0 .86.182069 1.1743.48l16.5384 16.5517c.2977.3145.4796.7283.4796 1.1752V48c0 .9103-.7442 1.6552-1.6538 1.6552S69.4615 48.9103 69.4615 48V18.8855L53.8988 3.31034H3.30769V89.3793H38.0385c.9096 0 1.6538.7448 1.6538 1.6552 0 .9103-.7442 1.6552-1.6538 1.6552z" fill="#686868"/><path d="M64.5 94.3449c10.9607 0 19.8461-8.8926 19.8461-19.8621 0-10.9695-8.8854-19.8621-19.8461-19.8621-10.9608 0-19.8462 8.8926-19.8462 19.8621 0 10.9695 8.8854 19.8621 19.8462 19.8621z" fill="#A9A9A9"/><path d="M64.5 96.0001c-11.8746 0-21.5-9.6331-21.5-21.5173 0-11.8841 9.6254-21.5172 21.5-21.5172S86 62.5987 86 74.4828c-.0165 11.8842-9.6254 21.5007-21.5 21.5173zm0-39.7242c-10.0554 0-18.1923 8.1435-18.1923 18.2069 0 10.0635 8.1369 18.2069 18.1923 18.2069 10.0554 0 18.1923-8.1434 18.1923-18.2069-.0165-10.0469-8.1535-18.1903-18.1923-18.2069z" fill="#686868"/><path d="M64.5 86.069c-.9096 0-1.6538-.7448-1.6538-1.6551V64.5518c0-.9104.7442-1.6552 1.6538-1.6552.9097 0 1.6539.7448 1.6539 1.6552v19.8621c0 .9103-.7442 1.6551-1.6539 1.6551z" fill="#fff"/><path d="M74.4231 76.138H54.5769c-.9096 0-1.6538-.7448-1.6538-1.6552 0-.9103.7442-1.6552 1.6538-1.6552h19.8462c.9096 0 1.6538.7449 1.6538 1.6552 0 .9104-.7442 1.6552-1.6538 1.6552z" fill="#fff"/></g><defs><clipPath id="clip0"><path fill="#fff" d="M0 0h86v96H0z"/></clipPath></defs></svg>
