<svg width="21" height="21" viewBox="0 0 21 21" fill="none" xmlns="http://www.w3.org/2000/svg">
    <path d="M12.2577 9.04336L10.491 10.81L8.71605 9.04336L7.54105 10.2184L9.31605 11.985L7.54938 13.7517L8.72438 14.9267L10.491 13.16L12.2577 14.9267L13.4327 13.7517L11.666 11.985L13.4327 10.2184L12.2577 9.04336ZM13.4077 3.65169L12.5744 2.81836H8.40772L7.57438 3.65169H4.65771V5.31836H16.3244V3.65169H13.4077ZM5.49105 16.1517C5.49105 17.0684 6.24105 17.8184 7.15772 17.8184H13.8244C14.741 17.8184 15.491 17.0684 15.491 16.1517V6.15169H5.49105V16.1517ZM7.15772 7.81836H13.8244V16.1517H7.15772V7.81836Z" fill="#479696"/>
</svg>
