<?xml version="1.0" encoding="utf-8"?>
<!-- Generator: Adobe Illustrator 22.1.0, SVG Export Plug-In . SVG Version: 6.00 Build 0)  -->
<svg version="1.1" id="Layer_1" xmlns="http://www.w3.org/2000/svg" xmlns:xlink="http://www.w3.org/1999/xlink" x="0px" y="0px"
	 viewBox="0 0 20 20" style="enable-background:new 0 0 20 20;" xml:space="preserve">
	<g id="AMP-Logo-Icon" fill="#0075C2">
<path d="M13.3,9.1l-4,6.6H8.5l0.7-4.3l-2.2,0h0c-0.2,0-0.4-0.2-0.4-0.4c0-0.1,0.1-0.2,0.1-0.2l4-6.6l0.7,0l-0.7,4.3l2.2,0l0,0
	c0.2,0,0.4,0.2,0.4,0.4C13.4,9,13.3,9.1,13.3,9.1L13.3,9.1z M10,0.5c-5.3,0-9.6,4.3-9.6,9.5c0,5.3,4.3,9.5,9.6,9.5
	c5.3,0,9.6-4.3,9.6-9.5C19.6,4.7,15.3,0.5,10,0.5z"/></g>
</svg>

