<svg width="12" height="9" viewBox="0 0 12 9" fill="none" xmlns="http://www.w3.org/2000/svg">
    <path d="M3.67502 0.958984H5.17502V5.85898C5.17502 6.35898 5.07502 6.75898 4.87502 7.05898C4.67502 7.35898 4.37503 7.65898 4.07503 7.85898C3.67503 8.05898 3.27503 8.15898 2.87503 8.15898C2.07503 8.15898 1.57503 7.95898 1.07503 7.55898C0.675025 7.15898 0.475025 6.65898 0.475025 5.95898H1.97503C1.97503 6.25898 2.07502 6.55898 2.17502 6.75898C2.27503 6.95898 2.57503 6.95898 2.87503 6.95898C3.17503 6.95898 3.37503 6.85898 3.57503 6.65898C3.77503 6.45898 3.77503 6.15898 3.77503 5.85898V0.958984H3.67502Z" fill="white" />
    <path d="M10.075 6.25937C10.075 5.95937 9.97503 5.75938 9.77503 5.65938C9.57503 5.55938 9.27502 5.35938 8.67502 5.15938C8.17502 4.95938 7.77503 4.85938 7.47503 4.65938C6.67503 4.25938 6.27503 3.65937 6.27503 2.85938C6.27503 2.45938 6.37503 2.15937 6.57503 1.85938C6.77503 1.55937 7.07503 1.35937 7.47503 1.15937C7.97503 0.959375 8.47503 0.859375 8.97503 0.859375C9.47503 0.859375 9.97502 0.959375 10.375 1.15937C10.775 1.35937 11.075 1.55937 11.275 1.95937C11.475 2.25937 11.575 2.65937 11.575 3.05937H10.075C10.075 2.75937 9.97503 2.45937 9.77503 2.25937C9.57503 2.05937 9.27502 1.95937 8.87502 1.95937C8.47502 1.95937 8.27503 2.05937 8.07503 2.15937C7.87503 2.35937 7.77503 2.45937 7.77503 2.75937C7.77503 2.95937 7.87503 3.15937 8.07503 3.35938C8.27503 3.55938 8.67503 3.65937 9.07503 3.75937C9.87503 4.05937 10.475 4.35938 10.875 4.65938C11.275 4.95938 11.475 5.45937 11.475 6.05937C11.475 6.65937 11.275 7.15937 10.775 7.45937C10.275 7.85937 9.67502 7.95937 8.87502 7.95937C8.37502 7.95937 7.87502 7.85938 7.37502 7.65938C6.97502 7.45938 6.57502 7.15938 6.37502 6.85938C6.17502 6.55937 5.97503 6.05938 5.97503 5.65938H7.47503C7.47503 6.45938 7.97502 6.85938 8.87502 6.85938C9.17502 6.85938 9.47502 6.75938 9.67502 6.65938C9.97502 6.65938 10.075 6.45937 10.075 6.25937Z" fill="white" />
</svg>
