<?xml version="1.0" encoding="utf-8"?>
<!-- Generator: Adobe Illustrator 22.1.0, SVG Export Plug-In . SVG Version: 6.00 Build 0)  -->
<svg version="1.1" id="Layer_1" xmlns="http://www.w3.org/2000/svg" xmlns:xlink="http://www.w3.org/1999/xlink" x="0px" y="0px"
	 viewBox="908.3604125976562 898.2000122070312 183.05340576171875 200.39996337890625" style="enable-background:new 0 0 2000 2000;" xml:space="preserve">
<style type="text/css">
	.st0{opacity:0.8;fill:none;stroke:url(#SVGID_1_);stroke-width:9.6838;stroke-miterlimit:10;enable-background:new    ;}
	.st1{opacity:0.8;fill:none;stroke:url(#SVGID_2_);stroke-width:10.1244;stroke-miterlimit:10;enable-background:new    ;}
	.st2{fill:none;stroke:url(#SVGID_3_);stroke-width:2.4095;stroke-miterlimit:10;}
	.st3{fill:url(#SVGID_4_);}
	.st4{fill:#FFFFFF;stroke:url(#SVGID_5_);stroke-width:2.4095;stroke-miterlimit:10;}
	.st5{fill:none;stroke:url(#SVGID_6_);stroke-width:2.4095;stroke-miterlimit:10;}
	.st6{fill:#0DD7FF;fill-opacity:0.7;}
	.st7{opacity:0.7;fill:#0DD7FF;enable-background:new    ;}
	.st8{fill:url(#SVGID_7_);fill-opacity:0.75;}
	.st9{fill:none;stroke:url(#SVGID_8_);stroke-width:2.4095;stroke-linecap:round;stroke-miterlimit:10;}
	.st10{fill:none;stroke:url(#SVGID_9_);stroke-width:2.4095;stroke-linecap:round;stroke-miterlimit:10;}
	.st11{fill:#FFFFFF;fill-opacity:0.75;stroke:url(#SVGID_10_);stroke-width:2.4095;stroke-miterlimit:10;}
	.st12{fill:url(#SVGID_11_);fill-opacity:0.75;}
	.st13{fill:none;stroke:url(#SVGID_12_);stroke-width:2.4095;stroke-linecap:round;stroke-miterlimit:10;}
	.st14{fill:none;stroke:url(#SVGID_13_);stroke-width:2.4095;stroke-linecap:round;stroke-miterlimit:10;}
	.st15{fill:#FFFFFF;}
	.st16{fill:#167DD2;}
	.st17{opacity:0.3;fill:#0DD7FF;enable-background:new    ;}
	.st18{opacity:0.5;fill:none;stroke:#FFFFFF;stroke-width:2.4095;stroke-linecap:round;stroke-miterlimit:10;}
</style>
<linearGradient id="SVGID_1_" gradientUnits="userSpaceOnUse" x1="-12002.9561" y1="893.2319" x2="-11948.1289" y2="893.2319" gradientTransform="matrix(0.3305 -0.9438 -0.9438 -0.3305 5754.7773 -10044.6777)">
	<stop  offset="0" style="stop-color:#0389FF"/>
	<stop  offset="0.5" style="stop-color:#0DD7FF"/>
	<stop  offset="1" style="stop-color:#FFFFFF"/>
</linearGradient>
<line class="st0" x1="954.3" y1="935.3" x2="953.8" y2="989.9"/>
<linearGradient id="SVGID_2_" gradientUnits="userSpaceOnUse" x1="-12020.958" y1="879.0432" x2="-11920.0166" y2="879.0432" gradientTransform="matrix(0.3305 -0.9438 -0.9438 -0.3305 5754.7773 -10044.6777)">
	<stop  offset="0" style="stop-color:#0389FF"/>
	<stop  offset="0.5" style="stop-color:#0DD7FF"/>
	<stop  offset="1" style="stop-color:#FFFFFF"/>
</linearGradient>
<line class="st1" x1="969.7" y1="910.9" x2="968.5" y2="1014"/>
<g>

		<linearGradient id="SVGID_3_" gradientUnits="userSpaceOnUse" x1="1008.2053" y1="1053.8057" x2="1008.2053" y2="1103.8019" gradientTransform="matrix(1 0 0 -1 0 2002)">
		<stop  offset="0" style="stop-color:#1C79C4"/>
		<stop  offset="0.51" style="stop-color:#0389FF"/>
		<stop  offset="1" style="stop-color:#0DD7FF"/>
	</linearGradient>
	<line class="st2" x1="1008.2" y1="948.2" x2="1008.2" y2="900.8"/>

		<linearGradient id="SVGID_4_" gradientUnits="userSpaceOnUse" x1="1008.2053" y1="1053.8057" x2="1008.2053" y2="1103.8019" gradientTransform="matrix(1 0 0 -1 0 2002)">
		<stop  offset="0" style="stop-color:#1C79C4"/>
		<stop  offset="0.51" style="stop-color:#0389FF"/>
		<stop  offset="1" style="stop-color:#0DD7FF"/>
	</linearGradient>
	<polygon class="st3" points="1018.1,908.8 1016.3,910.4 1008.2,901.7 1000.1,910.4 998.4,908.8 1008.2,898.2 	"/>
</g>
<linearGradient id="SVGID_5_" gradientUnits="userSpaceOnUse" x1="941.6317" y1="1014.0682" x2="1040.9495" y2="1014.0682">
	<stop  offset="0" style="stop-color:#187CCE"/>
	<stop  offset="1" style="stop-color:#0DD5FE"/>
</linearGradient>
<polygon class="st4" points="942.8,1098.6 1039.7,1045.5 1039.7,929.6 942.8,982.7 "/>
<linearGradient id="SVGID_6_" gradientUnits="userSpaceOnUse" x1="943.079" y1="1027.4312" x2="1041.1453" y2="1027.4312" gradientTransform="matrix(1 0 0 -1 0 2002)">
	<stop  offset="0" style="stop-color:#1C79C4"/>
	<stop  offset="0.51" style="stop-color:#0389FF"/>
	<stop  offset="1" style="stop-color:#0DD7FF"/>
</linearGradient>
<line class="st5" x1="1040.6" y1="948" x2="943.7" y2="1001.1"/>
<ellipse transform="matrix(0.1104 -0.9939 0.9939 0.1104 -124.5549 1829.4717)" class="st6" cx="959.7" cy="984.3" rx="2.8" ry="2.8"/>
<ellipse transform="matrix(0.1094 -0.994 0.994 0.1094 -133.3753 1826.4724)" class="st6" cx="952.6" cy="987.7" rx="2.8" ry="2.8"/>
<ellipse transform="matrix(0.1094 -0.994 0.994 0.1094 -111.5842 1834.7726)" class="st6" cx="968.1" cy="979.7" rx="2.8" ry="2.8"/>
<ellipse transform="matrix(0.1172 -0.9931 0.9931 0.1172 23.327 1872.063)" class="st7" cx="1064.6" cy="922.9" rx="3.4" ry="3.5"/>
<ellipse transform="matrix(0.1172 -0.9931 0.9931 0.1172 -144.5006 1781.6594)" class="st7" cx="929.9" cy="972.1" rx="3.4" ry="3.5"/>
<ellipse transform="matrix(0.1172 -0.9931 0.9931 0.1172 -261.0735 1874.2338)" class="st7" cx="923.7" cy="1084" rx="3.4" ry="3.5"/>
<ellipse transform="matrix(0.1172 -0.9931 0.9931 0.1172 -116.1821 1770.166)" class="st7" cx="937.6" cy="950.4" rx="3.4" ry="3.5"/>
<ellipse transform="matrix(0.1172 -0.9931 0.9931 0.1172 -177.6883 1787.7156)" class="st7" cx="916.7" cy="993.8" rx="3.4" ry="3.5"/>
<ellipse transform="matrix(0.1172 -0.9931 0.9931 0.1172 2.8353 1930.9661)" class="st7" cx="1087.5" cy="963.9" rx="3.4" ry="3.5"/>
<ellipse transform="matrix(0.1172 -0.9931 0.9931 0.1172 14.4208 1901.3986)" class="st7" cx="1076.7" cy="942.6" rx="3.4" ry="3.5"/>
<ellipse transform="matrix(0.1172 -0.9931 0.9931 0.1172 -255.1249 1856.6938)" class="st7" cx="916.8" cy="1071.8" rx="3.4" ry="3.5"/>
<ellipse transform="matrix(0.1172 -0.9931 0.9931 0.1172 -141.707 1747.8772)" class="st7" cx="912.3" cy="953.6" rx="3.4" ry="3.5"/>
<linearGradient id="SVGID_7_" gradientUnits="userSpaceOnUse" x1="988.4651" y1="1030.0048" x2="988.4651" y2="980.6591">
	<stop  offset="0" style="stop-color:#187CCE"/>
	<stop  offset="0" style="stop-color:#187FD0"/>
	<stop  offset="1" style="stop-color:#0DD5FE"/>
</linearGradient>
<polygon class="st8" points="972.5,1030 1004.4,1013.6 1004.4,980.7 972.5,997 "/>
<linearGradient id="SVGID_8_" gradientUnits="userSpaceOnUse" x1="976.1646" y1="969.6558" x2="1000.2975" y2="969.6558" gradientTransform="matrix(1 0 0 -1 0 2002)">
	<stop  offset="0" style="stop-color:#1C79C4"/>
	<stop  offset="0.51" style="stop-color:#0389FF"/>
	<stop  offset="1" style="stop-color:#0DD7FF"/>
</linearGradient>
<line class="st9" x1="977.4" y1="1038.1" x2="999.1" y2="1026.6"/>
<linearGradient id="SVGID_9_" gradientUnits="userSpaceOnUse" x1="976.1646" y1="961.2227" x2="1000.2975" y2="961.2227" gradientTransform="matrix(1 0 0 -1 0 2002)">
	<stop  offset="0" style="stop-color:#1C79C4"/>
	<stop  offset="0.51" style="stop-color:#0389FF"/>
	<stop  offset="1" style="stop-color:#0DD7FF"/>
</linearGradient>
<line class="st10" x1="977.4" y1="1046.5" x2="999.1" y2="1035"/>
<g>
	<linearGradient id="SVGID_10_" gradientUnits="userSpaceOnUse" x1="1016.4717" y1="1038.5374" x2="1063.432" y2="1038.5374">
		<stop  offset="0" style="stop-color:#187CCE"/>
		<stop  offset="1" style="stop-color:#0DD5FE"/>
	</linearGradient>
	<polygon class="st11" points="1062.2,981.4 1017.7,1004.3 1017.7,1095.7 1062.2,1072.8 	"/>
	<linearGradient id="SVGID_11_" gradientUnits="userSpaceOnUse" x1="1039.6508" y1="1046.2155" x2="1039.6508" y2="996.8698">
		<stop  offset="0" style="stop-color:#187CCE"/>
		<stop  offset="0" style="stop-color:#187FD0"/>
		<stop  offset="1" style="stop-color:#0DD5FE"/>
	</linearGradient>
	<polygon class="st12" points="1023.7,1046.2 1055.6,1029.9 1055.6,996.9 1023.7,1013.2 	"/>

		<linearGradient id="SVGID_12_" gradientUnits="userSpaceOnUse" x1="1023.5676" y1="954.687" x2="1056.0122" y2="954.687" gradientTransform="matrix(1 0 0 -1 0 2002)">
		<stop  offset="0" style="stop-color:#1C79C4"/>
		<stop  offset="0.51" style="stop-color:#0389FF"/>
		<stop  offset="1" style="stop-color:#0DD7FF"/>
	</linearGradient>
	<line class="st13" x1="1024.8" y1="1055.3" x2="1054.8" y2="1039.4"/>

		<linearGradient id="SVGID_13_" gradientUnits="userSpaceOnUse" x1="1023.5676" y1="945.752" x2="1056.0122" y2="945.752" gradientTransform="matrix(1 0 0 -1 0 2002)">
		<stop  offset="0" style="stop-color:#1C79C4"/>
		<stop  offset="0.51" style="stop-color:#0389FF"/>
		<stop  offset="1" style="stop-color:#0DD7FF"/>
	</linearGradient>
	<line class="st14" x1="1024.8" y1="1064.2" x2="1054.8" y2="1048.3"/>
	<path class="st15" d="M1043.8,1018.9l-5,11.6l-0.9,0.3l0.9-6.7l-2.8,0.9l0,0c-0.2,0.1-0.5-0.1-0.5-0.4c0-0.1,0.1-0.4,0.1-0.4
		l5-11.6l0.9-0.3l-0.9,6.8l2.8-0.9l0,0c0.3-0.1,0.5,0.1,0.5,0.4C1043.8,1018.6,1043.8,1018.8,1043.8,1018.9L1043.8,1018.9z"/>
</g>
<polygon class="st16" points="968.6,1083 943.7,1097.1 943.7,1002.4 968.6,989 "/>
<polygon class="st17" points="1013.1,975.4 1032.9,964.4 1032.9,973.6 1013.6,984.7 "/>
<polygon class="st17" points="1013.1,988.5 1032.9,977.4 1032.9,982.8 1013.6,993.7 "/>
<path class="st15" d="M956.2,1000c-4.7,2.2-8.6,8.1-8.6,13.1c0,5,3.9,7.4,8.6,5.2c4.7-2.2,8.6-8.1,8.6-13.1
	C964.8,1000.2,960.9,997.8,956.2,1000z M948.4,1012.7c0-1.2,0.2-2.4,0.7-3.7l3.7,9.1C950.2,1018,948.4,1016,948.4,1012.7z
	 M956.2,1017.4c-0.8,0.3-1.5,0.6-2.2,0.7l2.3-8.2l2.4,5.8c0,0,0,0.1,0.1,0.1C958,1016.4,957.1,1017,956.2,1017.4z M957.2,1004.8
	c0.5-0.2,0.9-0.5,0.9-0.5c0.4-0.2,0.4-0.9-0.1-0.7c0,0-1.3,0.7-2.1,1.1c-0.8,0.3-2,0.8-2,0.8c-0.4,0.2-0.5,0.9,0,0.7
	c0,0,0.4-0.1,0.8-0.3l1.2,3l-1.7,6.2l-2.8-7.6c0.5-0.2,0.9-0.5,0.9-0.5c0.4-0.2,0.4-0.9-0.1-0.7c0,0-1.3,0.7-2.1,1.1
	c-0.1,0.1-0.3,0.1-0.5,0.2c1.4-2.9,3.8-5.4,6.5-6.7c2-0.9,3.9-1,5.2-0.2c0,0-0.1,0-0.1,0c-0.8,0.3-1.3,1.3-1.3,2.1
	c0,0.7,0.4,1.1,0.8,1.6c0.3,0.4,0.6,1,0.6,2c0,0.7-0.3,1.6-0.6,2.9l-0.8,3.1L957.2,1004.8z M963,1002.1c0.6,0.9,1,2.1,1,3.5
	c0,3-1.5,6.4-3.8,8.9l2.3-8.4c0.4-1.4,0.6-2.4,0.6-3.2C963,1002.6,963,1002.3,963,1002.1z"/>
<path class="st18" d="M970.6,1021.2"/>
<line class="st18" x1="948.6" y1="1028.4" x2="963.6" y2="1020.5"/>
<line class="st18" x1="948.6" y1="1036.3" x2="963.6" y2="1028.4"/>
<line class="st18" x1="948.6" y1="1044.3" x2="963.6" y2="1036.3"/>
</svg>
