<svg version="1.1" id="Layer_1" xmlns="http://www.w3.org/2000/svg" x="0" y="0" viewBox="908.36 898.2 183.053 200.4" xml:space="preserve"><style>.st6,.st7{fill:#0dd7ff}.st6{fill-opacity:.7}.st7{opacity:.7;enable-background:new}.st15{fill:#fff}.st17{opacity:.3;fill:#0dd7ff;enable-background:new}.st18{opacity:.5;fill:none;stroke:#fff;stroke-width:2.4095;stroke-linecap:round;stroke-miterlimit:10}</style><linearGradient id="SVGID_1_" gradientUnits="userSpaceOnUse" x1="-12002.956" y1="893.232" x2="-11948.129" y2="893.232" gradientTransform="scale(1 -1) rotate(70.701 -4202.73 9078.704)"><stop offset="0" stop-color="#0389ff"/><stop offset=".5" stop-color="#0dd7ff"/><stop offset="1" stop-color="#fff"/></linearGradient><path opacity=".8" fill="none" stroke="url(#SVGID_1_)" stroke-width="9.684" stroke-miterlimit="10" d="M954.3 935.3l-.5 54.6"/><linearGradient id="SVGID_2_" gradientUnits="userSpaceOnUse" x1="-12020.958" y1="879.043" x2="-11920.017" y2="879.043" gradientTransform="scale(1 -1) rotate(70.701 -4202.73 9078.704)"><stop offset="0" stop-color="#0389ff"/><stop offset=".5" stop-color="#0dd7ff"/><stop offset="1" stop-color="#fff"/></linearGradient><path opacity=".8" fill="none" stroke="url(#SVGID_2_)" stroke-width="10.124" stroke-miterlimit="10" d="M969.7 910.9l-1.2 103.1"/><linearGradient id="SVGID_3_" gradientUnits="userSpaceOnUse" x1="1008.205" y1="1053.806" x2="1008.205" y2="1103.802" gradientTransform="matrix(1 0 0 -1 0 2002)"><stop offset="0" stop-color="#1c79c4"/><stop offset=".51" stop-color="#0389ff"/><stop offset="1" stop-color="#0dd7ff"/></linearGradient><path fill="none" stroke="url(#SVGID_3_)" stroke-width="2.409" stroke-miterlimit="10" d="M1008.2 948.2v-47.4"/><linearGradient id="SVGID_4_" gradientUnits="userSpaceOnUse" x1="1008.205" y1="1053.806" x2="1008.205" y2="1103.802" gradientTransform="matrix(1 0 0 -1 0 2002)"><stop offset="0" stop-color="#1c79c4"/><stop offset=".51" stop-color="#0389ff"/><stop offset="1" stop-color="#0dd7ff"/></linearGradient><path fill="url(#SVGID_4_)" d="M1018.1 908.8l-1.8 1.6-8.1-8.7-8.1 8.7-1.7-1.6 9.8-10.6z"/><linearGradient id="SVGID_5_" gradientUnits="userSpaceOnUse" x1="941.632" y1="1014.068" x2="1040.949" y2="1014.068"><stop offset="0" stop-color="#187cce"/><stop offset="1" stop-color="#0dd5fe"/></linearGradient><path fill="#fff" stroke="url(#SVGID_5_)" stroke-width="2.409" stroke-miterlimit="10" d="M942.8 1098.6l96.9-53.1V929.6l-96.9 53.1z"/><linearGradient id="SVGID_6_" gradientUnits="userSpaceOnUse" x1="943.079" y1="1027.431" x2="1041.145" y2="1027.431" gradientTransform="matrix(1 0 0 -1 0 2002)"><stop offset="0" stop-color="#1c79c4"/><stop offset=".51" stop-color="#0389ff"/><stop offset="1" stop-color="#0dd7ff"/></linearGradient><path fill="none" stroke="url(#SVGID_6_)" stroke-width="2.409" stroke-miterlimit="10" d="M1040.6 948l-96.9 53.1"/><circle transform="rotate(-83.662 959.692 984.3)" class="st6" cx="959.7" cy="984.3" r="2.8"/><circle transform="rotate(-83.719 952.574 987.664)" class="st6" cx="952.6" cy="987.7" r="2.8"/><circle transform="rotate(-83.719 968.102 979.654)" class="st6" cx="968.1" cy="979.7" r="2.8"/><ellipse transform="rotate(-83.269 1064.656 922.92)" class="st7" cx="1064.6" cy="922.9" rx="3.4" ry="3.5"/><ellipse transform="rotate(-83.269 929.891 972.116)" class="st7" cx="929.9" cy="972.1" rx="3.4" ry="3.5"/><ellipse transform="rotate(-83.269 923.675 1083.974)" class="st7" cx="923.7" cy="1084" rx="3.4" ry="3.5"/><ellipse transform="rotate(-83.269 937.586 950.441)" class="st7" cx="937.6" cy="950.4" rx="3.4" ry="3.5"/><ellipse transform="rotate(-83.269 916.704 993.812)" class="st7" cx="916.7" cy="993.8" rx="3.4" ry="3.5"/><ellipse transform="rotate(-83.269 1087.542 963.897)" class="st7" cx="1087.5" cy="963.9" rx="3.4" ry="3.5"/><ellipse transform="rotate(-83.269 1076.703 942.597)" class="st7" cx="1076.7" cy="942.6" rx="3.4" ry="3.5"/><ellipse transform="rotate(-83.269 916.784 1071.857)" class="st7" cx="916.8" cy="1071.8" rx="3.4" ry="3.5"/><ellipse transform="rotate(-83.269 912.286 953.654)" class="st7" cx="912.3" cy="953.6" rx="3.4" ry="3.5"/><linearGradient id="SVGID_7_" gradientUnits="userSpaceOnUse" x1="988.465" y1="1030.005" x2="988.465" y2="980.659"><stop offset="0" stop-color="#187cce"/><stop offset="0" stop-color="#187fd0"/><stop offset="1" stop-color="#0dd5fe"/></linearGradient><path fill="url(#SVGID_7_)" fill-opacity=".75" d="M972.5 1030l31.9-16.4v-32.9L972.5 997z"/><linearGradient id="SVGID_8_" gradientUnits="userSpaceOnUse" x1="976.165" y1="969.656" x2="1000.298" y2="969.656" gradientTransform="matrix(1 0 0 -1 0 2002)"><stop offset="0" stop-color="#1c79c4"/><stop offset=".51" stop-color="#0389ff"/><stop offset="1" stop-color="#0dd7ff"/></linearGradient><path fill="none" stroke="url(#SVGID_8_)" stroke-width="2.409" stroke-linecap="round" stroke-miterlimit="10" d="M977.4 1038.1l21.7-11.5"/><linearGradient id="SVGID_9_" gradientUnits="userSpaceOnUse" x1="976.165" y1="961.223" x2="1000.298" y2="961.223" gradientTransform="matrix(1 0 0 -1 0 2002)"><stop offset="0" stop-color="#1c79c4"/><stop offset=".51" stop-color="#0389ff"/><stop offset="1" stop-color="#0dd7ff"/></linearGradient><path fill="none" stroke="url(#SVGID_9_)" stroke-width="2.409" stroke-linecap="round" stroke-miterlimit="10" d="M977.4 1046.5l21.7-11.5"/><linearGradient id="SVGID_10_" gradientUnits="userSpaceOnUse" x1="1016.472" y1="1038.537" x2="1063.432" y2="1038.537"><stop offset="0" stop-color="#187cce"/><stop offset="1" stop-color="#0dd5fe"/></linearGradient><path fill="#fff" fill-opacity=".75" stroke="url(#SVGID_10_)" stroke-width="2.409" stroke-miterlimit="10" d="M1062.2 981.4l-44.5 22.9v91.4l44.5-22.9z"/><linearGradient id="SVGID_11_" gradientUnits="userSpaceOnUse" x1="1039.651" y1="1046.216" x2="1039.651" y2="996.87"><stop offset="0" stop-color="#187cce"/><stop offset="0" stop-color="#187fd0"/><stop offset="1" stop-color="#0dd5fe"/></linearGradient><path fill="url(#SVGID_11_)" fill-opacity=".75" d="M1023.7 1046.2l31.9-16.3v-33l-31.9 16.3z"/><linearGradient id="SVGID_12_" gradientUnits="userSpaceOnUse" x1="1023.568" y1="954.687" x2="1056.012" y2="954.687" gradientTransform="matrix(1 0 0 -1 0 2002)"><stop offset="0" stop-color="#1c79c4"/><stop offset=".51" stop-color="#0389ff"/><stop offset="1" stop-color="#0dd7ff"/></linearGradient><path fill="none" stroke="url(#SVGID_12_)" stroke-width="2.409" stroke-linecap="round" stroke-miterlimit="10" d="M1024.8 1055.3l30-15.9"/><linearGradient id="SVGID_13_" gradientUnits="userSpaceOnUse" x1="1023.568" y1="945.752" x2="1056.012" y2="945.752" gradientTransform="matrix(1 0 0 -1 0 2002)"><stop offset="0" stop-color="#1c79c4"/><stop offset=".51" stop-color="#0389ff"/><stop offset="1" stop-color="#0dd7ff"/></linearGradient><path fill="none" stroke="url(#SVGID_13_)" stroke-width="2.409" stroke-linecap="round" stroke-miterlimit="10" d="M1024.8 1064.2l30-15.9"/><path class="st15" d="M1043.8 1018.9l-5 11.6-.9.3.9-6.7-2.8.9c-.2.1-.5-.1-.5-.4 0-.1.1-.4.1-.4l5-11.6.9-.3-.9 6.8 2.8-.9c.3-.1.5.1.5.4-.1 0-.1.2-.1.3z"/><path fill="#167dd2" d="M968.6 1083l-24.9 14.1v-94.7l24.9-13.4z"/><path class="st17" d="M1013.1 975.4l19.8-11v9.2l-19.3 11.1zM1013.1 988.5l19.8-11.1v5.4l-19.3 10.9z"/><path class="st15" d="M956.2 1000c-4.7 2.2-8.6 8.1-8.6 13.1s3.9 7.4 8.6 5.2c4.7-2.2 8.6-8.1 8.6-13.1s-3.9-7.4-8.6-5.2zm-7.8 12.7c0-1.2.2-2.4.7-3.7l3.7 9.1c-2.6-.1-4.4-2.1-4.4-5.4zm7.8 4.7c-.8.3-1.5.6-2.2.7l2.3-8.2 2.4 5.8s0 .1.1.1c-.8.6-1.7 1.2-2.6 1.6zm1-12.6c.5-.2.9-.5.9-.5.4-.2.4-.9-.1-.7 0 0-1.3.7-2.1 1.1-.8.3-2 .8-2 .8-.4.2-.5.9 0 .7 0 0 .4-.1.8-.3l1.2 3-1.7 6.2-2.8-7.6c.5-.2.9-.5.9-.5.4-.2.4-.9-.1-.7 0 0-1.3.7-2.1 1.1-.1.1-.3.1-.5.2 1.4-2.9 3.8-5.4 6.5-6.7 2-.9 3.9-1 5.2-.2h-.1c-.8.3-1.3 1.3-1.3 2.1 0 .7.4 1.1.8 1.6.3.4.6 1 .6 2 0 .7-.3 1.6-.6 2.9l-.8 3.1-2.7-7.6zm5.8-2.7c.6.9 1 2.1 1 3.5 0 3-1.5 6.4-3.8 8.9l2.3-8.4c.4-1.4.6-2.4.6-3.2-.1-.3-.1-.6-.1-.8z"/><path class="st18" d="M948.6 1028.4l15-7.9M948.6 1036.3l15-7.9M948.6 1044.3l15-8"/></svg>