<svg width="21" height="21" viewBox="0 0 21 21" fill="none" xmlns="http://www.w3.org/2000/svg">
    <path d="M9.86345 16.8148H9.16345L9.96345 12.3148H7.66345C7.46345 12.3148 7.26345 12.1148 7.26345 11.9148C7.26345 11.8148 7.36345 11.7148 7.36345 11.7148L11.5635 4.71484H12.3635L11.5635 9.31484H13.8635C14.0635 9.31484 14.2635 9.51484 14.2635 9.71484C14.2635 9.81484 14.2635 9.91484 14.1635 9.91484L9.86345 16.8148ZM10.6635 0.714844C5.16345 0.714844 0.663452 5.21484 0.663452 10.7148C0.663452 16.2148 5.16345 20.7148 10.6635 20.7148C16.1635 20.7148 20.6635 16.2148 20.6635 10.7148C20.6635 5.21484 16.1635 0.714844 10.6635 0.714844Z" />
</svg>
