<svg xmlns="http://www.w3.org/2000/svg">
	<path class="outer" d="M48 12c19.9 0 36 16.1 36 36S67.9 84 48 84 12 67.9 12 48s16.1-36 36-36" fill="none" />
	<path class="inner" transform="translate(33, 33)" d="M15,0 C23.2845834,0 30,6.71583331 30,15 C30,23.2841667 23.2845834,30 15,30 C6.71583335,30 0,23.2841667 0,15 C0,6.71583331 6.71583335,0 15,0 Z M13.8508333,24.0979167 L20.1429167,13.6258333 C20.2141667,13.5308333 20.26375,13.41875 20.26375,13.29125 C20.26375,12.9766667 20.0091667,12.7220833 19.695,12.7220833 C19.6770834,12.7220833 19.6391667,12.7229167 19.6391667,12.7229167 L16.1308334,12.7270833 L17.28625,5.89291666 L16.1270833,5.88833331 L9.85541665,16.3479167 C9.85541665,16.3479167 9.72958334,16.57625 9.72958334,16.71125 C9.72958334,17.0254167 9.98458332,17.2804167 10.29875,17.2804167 C10.3145833,17.2804167 10.3475,17.2795833 10.3475,17.2795833 L13.8379167,17.2745833 L12.7108333,24.0979167 L13.8508333,24.0979167 Z" fill="none" />
</svg>
