<svg width="21" height="21" viewBox="0 0 21 21" fill="none" xmlns="http://www.w3.org/2000/svg">
    <path fillRule="evenodd" clipRule="evenodd" d="M0.345627 10.7207C0.345627 16.2207 4.84563 20.7207 10.3456 20.7207C15.8456 20.7207 20.3456 16.2207 20.3456 10.7207C20.3456 5.2207 15.8456 0.720703 10.3456 0.720703C4.84563 0.720703 0.345627 5.2207 0.345627 10.7207Z" fill="white" />
    <path d="M9.54563 16.8207H8.84563L9.64563 12.3207H7.34563C7.14563 12.3207 6.94563 12.1207 6.94563 11.9207C6.94563 11.8207 7.04563 11.7207 7.04563 11.7207L11.2456 4.7207H12.0456L11.2456 9.3207H13.5456C13.7456 9.3207 13.9456 9.5207 13.9456 9.7207C13.9456 9.8207 13.9456 9.9207 13.8456 9.9207L9.54563 16.8207ZM10.3456 0.720703C4.84563 0.720703 0.345627 5.2207 0.345627 10.7207C0.345627 16.2207 4.84563 20.7207 10.3456 20.7207C15.8456 20.7207 20.3456 16.2207 20.3456 10.7207C20.3456 5.2207 15.8456 0.720703 10.3456 0.720703Z" fill="#37414B" />
    <circle cx="10.3456" cy="10.7207" r="9" stroke="#BB522E" strokeWidth="2" />
    <line x1="15.9518" y1="17.7833" x2="3.22383" y2="5.05536" stroke="#BB522E" strokeWidth="2" />
    <line x1="19.2379" y1="18.5552" x2="2.71443" y2="1.68601" stroke="white" strokeWidth="2" />
</svg>
