<svg width="21" height="21" viewBox="0 0 21 21" fill="none" xmlns="http://www.w3.org/2000/svg">
    <path fill-rule="evenodd" clip-rule="evenodd" d="M0.912598 10.2832C0.912598 15.7832 5.4126 20.2832 10.9126 20.2832C16.4126 20.2832 20.9126 15.7832 20.9126 10.2832C20.9126 4.7832 16.4126 0.283203 10.9126 0.283203C5.4126 0.283203 0.912598 4.7832 0.912598 10.2832Z" fill="white"/>
    <path d="M10.1126 16.3832H9.4126L10.2126 11.8832H7.9126C7.7126 11.8832 7.5126 11.6832 7.5126 11.4832C7.5126 11.3832 7.6126 11.2832 7.6126 11.2832L11.8126 4.2832H12.6126L11.8126 8.8832H14.1126C14.3126 8.8832 14.5126 9.0832 14.5126 9.2832C14.5126 9.3832 14.5126 9.4832 14.4126 9.4832L10.1126 16.3832ZM10.9126 0.283203C5.4126 0.283203 0.912598 4.7832 0.912598 10.2832C0.912598 15.7832 5.4126 20.2832 10.9126 20.2832C16.4126 20.2832 20.9126 15.7832 20.9126 10.2832C20.9126 4.7832 16.4126 0.283203 10.9126 0.283203Z" fill="#37414B"/>
    <circle cx="10.9126" cy="10.2832" r="9" stroke="#BB522E" stroke-width="2"/>
    <line x1="16.5185" y1="17.3458" x2="3.79056" y2="4.61786" stroke="#BB522E" stroke-width="2"/>
    <line x1="19.8051" y1="18.1177" x2="3.28165" y2="1.24851" stroke="white" stroke-width="2"/>
</svg>
