<svg width="311" height="72" xmlns="http://www.w3.org/2000/svg"><g fill="none" fill-rule="evenodd"><path d="M152.623 48h-10.616V36.56c-.05-1.644.186-3.19.71-4.635.523-1.445 1.258-2.716 2.205-3.813a12.162 12.162 0 013.402-2.729 12.097 12.097 0 014.3-1.383v4.935c-1.895.648-3.19 1.607-3.889 2.878-.697 1.271-1.046 2.829-1.046 4.673h4.934V48zm15.926 0h-10.617V36.56c-.05-1.644.187-3.19.71-4.635.523-1.445 1.259-2.716 2.206-3.813a12.161 12.161 0 013.401-2.729 12.097 12.097 0 014.3-1.383v4.935c-1.895.648-3.19 1.607-3.888 2.878-.698 1.271-1.047 2.829-1.047 4.673h4.935V48z" fill="#FFF" fill-rule="nonzero"/><path d="M0 36.5h104M207 36.5h104" stroke="#FFF" opacity=".2" stroke-linecap="round"/></g></svg>