<svg width="311px" height="72px" viewBox="0 0 311 72" version="1.1" xmlns="http://www.w3.org/2000/svg">
    <g id="Quote-black" stroke="none" stroke-width="1" fill="none" fill-rule="evenodd">
        <g id="Group-3" transform="translate(0.000000, 24.000000)">
            <path d="M152.623324,24 L142.006502,24 L142.006502,12.5607477 C141.956657,10.9158796 142.193415,9.37072374 142.716782,7.92523364 C143.240149,6.47974355 143.975344,5.20872822 144.922389,4.11214953 C145.869435,3.01557084 147.00338,2.10592262 148.324259,1.38317757 C149.645137,0.660432523 151.078145,0.199377944 152.623324,0 L152.623324,4.93457944 C150.729233,5.58255776 149.433296,6.54204972 148.735473,7.81308411 C148.037651,9.0841185 147.688745,10.6417353 147.688745,12.4859813 L152.623324,12.4859813 L152.623324,24 Z M168.548558,24 L157.931735,24 L157.931735,12.5607477 C157.881891,10.9158796 158.118648,9.37072374 158.642016,7.92523364 C159.165383,6.47974355 159.900578,5.20872822 160.847623,4.11214953 C161.794668,3.01557084 162.928613,2.10592262 164.249492,1.38317757 C165.570371,0.660432523 167.003379,0.199377944 168.548558,0 L168.548558,4.93457944 C166.654467,5.58255776 165.35853,6.54204972 164.660707,7.81308411 C163.962884,9.0841185 163.613978,10.6417353 163.613978,12.4859813 L168.548558,12.4859813 L168.548558,24 Z" id="“" fill="#313A43" fill-rule="nonzero"></path>
            <path d="M0,12.5 L104,12.5" id="Line-2" stroke="#313A43" opacity="0.200000003" stroke-linecap="round"></path>
            <path d="M207,12.5 L311,12.5" id="Line-2-Copy" stroke="#313A43" opacity="0.200000003" stroke-linecap="round"></path>
        </g>
    </g>
</svg>