<svg width="22" height="22" viewBox="0 0 22 22" fill="none" xmlns="http://www.w3.org/2000/svg">
<g>
<path fill-rule="evenodd" clip-rule="evenodd" d="M10.4 13.4C10.4 13.0686 10.1314 12.8 9.8 12.8H8C7.01 12.8 6.2 11.99 6.2 11C6.2 10.01 7.01 9.2 8 9.2H9.8C10.1314 9.2 10.4 8.93137 10.4 8.6C10.4 8.26863 10.1314 8 9.8 8H8C6.344 8 5 9.344 5 11C5 12.656 6.344 14 8 14H9.8C10.1314 14 10.4 13.7314 10.4 13.4ZM14 8H12.2C11.8686 8 11.6 8.26863 11.6 8.6C11.6 8.93137 11.8686 9.2 12.2 9.2H14C14.99 9.2 15.8 10.01 15.8 11C15.8 11.99 14.99 12.8 14 12.8H12.2C11.8686 12.8 11.6 13.0686 11.6 13.4C11.6 13.7314 11.8686 14 12.2 14H14C15.656 14 17 12.656 17 11C17 9.344 15.656 8 14 8ZM9.2 10.4C8.86863 10.4 8.6 10.6686 8.6 11C8.6 11.3314 8.86863 11.6 9.2 11.6H12.8C13.1314 11.6 13.4 11.3314 13.4 11C13.4 10.6686 13.1314 10.4 12.8 10.4H9.2Z" fill="currentColor"/>
<rect x="0.75" y="0.75" width="20.5" height="20.5" rx="1.25" stroke="currentColor" stroke-width="1.5"/>
</g>
</svg>
